<svg xmlns="http://www.w3.org/2000/svg" width="1240" height="630" viewBox="0 0 1240 630">
  <g id="Group_1204802" data-name="Group 1204802" transform="translate(-180 -2654)">
    <g id="Group_1204800" data-name="Group 1204800">
      <rect id="Rectangle_411965" data-name="Rectangle 411965" width="1240" height="630" rx="12" transform="translate(180 2654)" fill="#f4f3ed"/>
      <rect id="Rectangle_412086" data-name="Rectangle 412086" width="820" height="38" rx="8" transform="translate(390 2704)" fill="#c6c2b2"/>
      <text id="CLIENTE" transform="translate(769 2729)" font-size="16" font-family="Roboto-Regular, Roboto"><tspan x="0" y="0">CLIENTE</tspan></text>
      <rect id="Rectangle_412087" data-name="Rectangle 412087" width="820" height="193" rx="8" transform="translate(390 2749)" fill="#e5e2d3"/>
      <text id="Camilo_Jhoan_Gómez_Sierra" data-name="Camilo Jhoan Gómez 
Sierra" transform="translate(475 2820)" fill="#12263f" font-size="16" font-family="Roboto-Regular, Roboto"><tspan x="0" y="0">Camilo Jhoan Gómez </tspan><tspan x="0" y="20">Sierra</tspan></text>
      <text id="Avenida_40_32-32_Barrio_El_Porvenir_Cali" data-name="Avenida 40 #32-32, 
Barrio El Porvenir, Cali" transform="translate(685 2820)" fill="#12263f" font-size="16" font-family="Roboto-Regular, Roboto"><tspan x="0" y="0">Avenida 40 #32-32, </tspan><tspan x="0" y="20">Barrio El Porvenir, Cali</tspan></text>
      <text id="_555-1212" data-name="555-1212" transform="translate(960 2820)" fill="#12263f" font-size="16" font-family="Roboto-Regular, Roboto"><tspan x="0" y="0">555-1212</tspan></text>
      <text id="Charlie_Durán" data-name="Charlie Durán" transform="translate(475 2878)" fill="#12263f" font-size="16" font-family="Roboto-Regular, Roboto"><tspan x="0" y="0">Charlie Durán</tspan></text>
      <text id="Calle_50b_30-30_urbanizacion_quintas_del_sol_Apto._201_Medellín." data-name="Calle 50b #30-30, urbanizacion 
quintas del sol 
Apto. 201, Medellín." transform="translate(685 2878)" fill="#12263f" font-size="16" font-family="Roboto-Regular, Roboto"><tspan x="0" y="0">Calle 50b #30-30, urbanizacion </tspan><tspan x="0" y="20">quintas del sol </tspan><tspan x="0" y="40">Apto. 201, Medellín.</tspan></text>
      <text id="_555-0332" data-name="555-0332" transform="translate(960 2878)" fill="#12263f" font-size="16" font-family="Roboto-Regular, Roboto"><tspan x="0" y="0">555-0332</tspan></text>
      <text id="_555-9856" data-name="555-9856" transform="translate(1069 2878)" fill="#12263f" font-size="16" font-family="Roboto-Regular, Roboto"><tspan x="0" y="0">555-9856</tspan></text>
      <path id="Path_1254180" data-name="Path 1254180" d="M6525-8823.981h820" transform="translate(-6135 11617)" fill="none" stroke="#b9b6ab" stroke-width="1"/>
      <path id="Path_1254182" data-name="Path 1254182" d="M6525-8823.981h820" transform="translate(-6135 11676.981)" fill="none" stroke="#b9b6ab" stroke-width="1"/>
      <rect id="Rectangle_412088" data-name="Rectangle 412088" width="1110" height="176" rx="8" transform="translate(245 3043)" fill="#e5e2d3"/>
      <path id="Path_1254186" data-name="Path 1254186" d="M6525-8823.981H7635" transform="translate(-6280 11936.981)" fill="none" stroke="#b9b6ab" stroke-width="1"/>
      <path id="Path_1254188" data-name="Path 1254188" d="M6525-8823.981H7635" transform="translate(-6280 11982.981)" fill="none" stroke="#b9b6ab" stroke-width="1"/>
      <text id="Camilo_Jhoan" data-name="Camilo Jhoan" transform="translate(334 3140)" fill="#12263f" font-size="16" font-family="Roboto-Regular, Roboto"><tspan x="0" y="0">Camilo Jhoan</tspan></text>
      <text id="_101" data-name="101" transform="translate(410 2820)" fill="#12263f" font-size="16" font-family="Roboto-Regular, Roboto"><tspan x="0" y="0">101</tspan></text>
      <text id="_102" data-name="102" transform="translate(410 2880)" fill="#12263f" font-size="16" font-family="Roboto-Regular, Roboto"><tspan x="0" y="0">102</tspan></text>
      <text id="_101-2" data-name="101" transform="translate(264 3140)" fill="#12263f" font-size="16" font-family="Roboto-Regular, Roboto"><tspan x="0" y="0">101</tspan></text>
      <text id="_102-2" data-name="102" transform="translate(264 3194)" fill="#12263f" font-size="16" font-family="Roboto-Regular, Roboto"><tspan x="0" y="0">102</tspan></text>
      <text id="Gómez_Sierra" data-name="Gómez Sierra" transform="translate(479 3140)" fill="#12263f" font-size="16" font-family="Roboto-Regular, Roboto"><tspan x="0" y="0">Gómez Sierra</tspan></text>
      <text id="Avenida" transform="translate(620 3140)" fill="#12263f" font-size="16" font-family="Roboto-Regular, Roboto"><tspan x="0" y="0">Avenida</tspan></text>
      <text id="_40" data-name="40" transform="translate(742 3140)" fill="#12263f" font-size="16" font-family="Roboto-Regular, Roboto"><tspan x="0" y="0">40</tspan></text>
      <text id="_32-32" data-name="32-32" transform="translate(820 3140)" fill="#12263f" font-size="16" font-family="Roboto-Regular, Roboto"><tspan x="0" y="0">32-32</tspan></text>
      <text id="Ap_201" data-name="Ap 201" transform="translate(913 3194)" fill="#12263f" font-size="16" font-family="Roboto-Regular, Roboto"><tspan x="0" y="0">Ap 201</tspan></text>
      <text id="El_porvenir" data-name="El porvenir" transform="translate(1145 3140)" fill="#12263f" font-size="16" font-family="Roboto-Regular, Roboto"><tspan x="0" y="0">El porvenir</tspan></text>
      <text id="Cali" transform="translate(1250 3140)" fill="#12263f" font-size="16" font-family="Roboto-Regular, Roboto"><tspan x="0" y="0">Cali</tspan></text>
      <text id="Charlie" transform="translate(334 3194)" fill="#12263f" font-size="16" font-family="Roboto-Regular, Roboto"><tspan x="0" y="0">Charlie</tspan></text>
      <text id="Durán" transform="translate(479 3194)" fill="#12263f" font-size="16" font-family="Roboto-Regular, Roboto"><tspan x="0" y="0">Durán</tspan></text>
      <text id="Calle" transform="translate(620 3194)" fill="#12263f" font-size="16" font-family="Roboto-Regular, Roboto"><tspan x="0" y="0">Calle</tspan></text>
      <text id="_50b" data-name="50b" transform="translate(742 3194)" fill="#12263f" font-size="16" font-family="Roboto-Regular, Roboto"><tspan x="0" y="0">50b</tspan></text>
      <text id="_30-30" data-name="30-30" transform="translate(820 3194)" fill="#12263f" font-size="16" font-family="Roboto-Regular, Roboto"><tspan x="0" y="0">30-30</tspan></text>
      <text id="Urbanización_Quintas_del_sol" data-name="Urbanización 
Quintas del sol" transform="translate(1006 3182)" fill="#12263f" font-size="16" font-family="Roboto-Regular, Roboto"><tspan x="0" y="0">Urbanización </tspan><tspan x="0" y="20">Quintas del sol</tspan></text>
      <text id="Medellín" transform="translate(1250 3194)" fill="#12263f" font-size="16" font-family="Roboto-Regular, Roboto"><tspan x="0" y="0">Medellín</tspan></text>
      <path id="Path_1254197" data-name="Path 1254197" d="M6420-8634.307v-15.7h142.93l11.354-7.8,11.353,7.8H6715v15.7" transform="translate(-6115 11659.709)" fill="none" stroke="#c04aff" stroke-width="2"/>
      <path id="Path_1254198" data-name="Path 1254198" d="M6420-8634.307v-15.7h378.685l11.73-7.8,12.729,7.8H7166.5v15.7" transform="translate(-5811.5 11659.709)" fill="none" stroke="#c04aff" stroke-width="2"/>
      <path id="Path_1254199" data-name="Path 1254199" d="M6735-8687l-57.446,57.446" transform="translate(-6115 11629)" fill="none" stroke="#c04aff" stroke-width="2"/>
      <path id="Path_1254200" data-name="Path 1254200" d="M6677.554-8687,6735-8629.554" transform="translate(-5820 11629)" fill="none" stroke="#c04aff" stroke-width="2"/>
      <path id="Polygon_7" data-name="Polygon 7" d="M6.5,0,13,11H0Z" transform="matrix(-0.799, -0.602, 0.602, -0.799, 564.435, 3007.75)" fill="#c04aff"/>
      <path id="Polygon_8" data-name="Polygon 8" d="M6.5,0,13,11H0Z" transform="matrix(-0.799, 0.602, -0.602, -0.799, 923.501, 2999.926)" fill="#c04aff"/>
      <rect id="Rectangle_412089" data-name="Rectangle 412089" width="1110" height="70" rx="8" transform="translate(245 3043)" fill="#7fe5cf"/>
      <text id="Id" transform="translate(271 3074)" fill="#12263f" font-size="16" font-family="Roboto-Medium, Roboto" font-weight="500"><tspan x="0" y="0">Id</tspan></text>
      <text id="Nombres" transform="translate(334 3074)" fill="#12263f" font-size="16" font-family="Roboto-Medium, Roboto" font-weight="500"><tspan x="0" y="0">Nombres</tspan></text>
      <text id="Apellidos" transform="translate(479 3074)" fill="#12263f" font-size="16" font-family="Roboto-Medium, Roboto" font-weight="500"><tspan x="0" y="0">Apellidos</tspan></text>
      <text id="Tipo_calle" data-name="Tipo calle" transform="translate(620 3074)" fill="#12263f" font-size="16" font-family="Roboto-Medium, Roboto" font-weight="500"><tspan x="0" y="0">Tipo calle</tspan></text>
      <path id="Path_1254187" data-name="Path 1254187" d="M6589.557-8868v176" transform="translate(-6284.557 11911)" fill="none" stroke="#b9b6ab" stroke-width="1"/>
      <path id="Path_1254189" data-name="Path 1254189" d="M6589.557-8868v176" transform="translate(-6130.557 11911)" fill="none" stroke="#b9b6ab" stroke-width="1"/>
      <path id="Path_1254190" data-name="Path 1254190" d="M6589.557-8868v176" transform="translate(-5989.557 11911)" fill="none" stroke="#b9b6ab" stroke-width="1"/>
      <path id="Path_1254191" data-name="Path 1254191" d="M6589.557-8868v176" transform="translate(-5884.557 11911)" fill="none" stroke="#b9b6ab" stroke-width="1"/>
      <text id="NroCalle" transform="translate(725 3074)" fill="#12263f" font-size="16" font-family="Roboto-Medium, Roboto" font-weight="500"><tspan x="0" y="0">NroCalle</tspan></text>
      <text id="Número" transform="translate(810 3074)" fill="#12263f" font-size="16" font-family="Roboto-Medium, Roboto" font-weight="500"><tspan x="0" y="0">Número</tspan></text>
      <text id="Casa" transform="translate(915 3074)" fill="#12263f" font-size="16" font-family="Roboto-Medium, Roboto" font-weight="500"><tspan x="0" y="0">Casa</tspan></text>
      <text id="Complemento_dirección" data-name="Complemento 
dirección" transform="translate(1009 3074)" fill="#12263f" font-size="16" font-family="Roboto-Medium, Roboto" font-weight="500"><tspan x="0" y="0">Complemento </tspan><tspan x="0" y="24">dirección</tspan></text>
      <text id="Barrio" transform="translate(1174 3074)" fill="#12263f" font-size="16" font-family="Roboto-Medium, Roboto" font-weight="500"><tspan x="0" y="0">Barrio</tspan></text>
      <text id="Ciudad" transform="translate(1250 3074)" fill="#12263f" font-size="16" font-family="Roboto-Medium, Roboto" font-weight="500"><tspan x="0" y="0">Ciudad</tspan></text>
      <path id="Path_1254192" data-name="Path 1254192" d="M6589.557-8868v176" transform="translate(-5789.557 11911)" fill="none" stroke="#b9b6ab" stroke-width="1"/>
      <path id="Path_1254193" data-name="Path 1254193" d="M6589.557-8868v176" transform="translate(-5699.557 11911)" fill="none" stroke="#b9b6ab" stroke-width="1"/>
      <path id="Path_1254194" data-name="Path 1254194" d="M6589.557-8868v176" transform="translate(-5600.557 11911)" fill="none" stroke="#b9b6ab" stroke-width="1"/>
      <path id="Path_1254195" data-name="Path 1254195" d="M6589.557-8868v176" transform="translate(-5464.557 11911)" fill="none" stroke="#b9b6ab" stroke-width="1"/>
      <path id="Path_1254196" data-name="Path 1254196" d="M6589.557-8868v176" transform="translate(-5359.557 11911)" fill="none" stroke="#b9b6ab" stroke-width="1"/>
      <rect id="Rectangle_412090" data-name="Rectangle 412090" width="820" height="44" rx="8" transform="translate(390 2749)" fill="#7fe5cf"/>
      <text id="Id-2" data-name="Id" transform="translate(416 2780)" fill="#12263f" font-size="16" font-family="Roboto-Medium, Roboto" font-weight="500"><tspan x="0" y="0">Id</tspan></text>
      <text id="NombreComleto" transform="translate(475 2780)" fill="#12263f" font-size="16" font-family="Roboto-Medium, Roboto" font-weight="500"><tspan x="0" y="0">NombreComleto</tspan></text>
      <text id="Dirección" transform="translate(685 2780)" fill="#12263f" font-size="16" font-family="Roboto-Medium, Roboto" font-weight="500"><tspan x="0" y="0">Dirección</tspan></text>
      <text id="Teléfono" transform="translate(960 2780)" fill="#12263f" font-size="16" font-family="Roboto-Medium, Roboto" font-weight="500"><tspan x="0" y="0">Teléfono</tspan></text>
      <text id="Teléfono_2" data-name="Teléfono 2" transform="translate(1065 2780)" fill="#12263f" font-size="16" font-family="Roboto-Medium, Roboto" font-weight="500"><tspan x="0" y="0">Teléfono 2</tspan></text>
      <path id="Path_1254181" data-name="Path 1254181" d="M6589.557-8868v192.409" transform="translate(-6139.557 11617)" fill="none" stroke="#b9b6ab" stroke-width="1"/>
      <path id="Path_1254183" data-name="Path 1254183" d="M6589.557-8868v192.409" transform="translate(-5933.557 11617)" fill="none" stroke="#b9b6ab" stroke-width="1"/>
      <path id="Path_1254184" data-name="Path 1254184" d="M6589.557-8868v192.409" transform="translate(-5648.557 11617)" fill="none" stroke="#b9b6ab" stroke-width="1"/>
      <path id="Path_1254185" data-name="Path 1254185" d="M6589.557-8868v192.409" transform="translate(-5539.557 11617)" fill="none" stroke="#b9b6ab" stroke-width="1"/>
    </g>
  </g>
</svg>
