<svg xmlns="http://www.w3.org/2000/svg" width="715" height="323" viewBox="0 0 715 323">
  <g id="Group_1205021" data-name="Group 1205021" transform="translate(-180 -3920)">
    <rect id="Rectangle_411968" data-name="Rectangle 411968" width="715" height="323" rx="12" transform="translate(180 3920)" fill="#f4f3ed"/>
    <rect id="Rectangle_412092" data-name="Rectangle 412092" width="545" height="69" rx="8" transform="translate(265 3978)" fill="#e5e2d3"/>
    <text id="id_pedido" transform="translate(287 4027)" fill="#12263f" font-size="16" font-family="Roboto-Regular, Roboto"><tspan x="0" y="0">id_pedido</tspan></text>
    <text id="id_producto" transform="translate(390 4027)" fill="#12263f" font-size="16" font-family="Roboto-Regular, Roboto"><tspan x="0" y="0">id_producto</tspan></text>
    <text id="cantidad" transform="translate(509 4027)" fill="#12263f" font-size="16" font-family="Roboto-Regular, Roboto"><tspan x="0" y="0">cantidad</tspan></text>
    <text id="nombre_producto" transform="translate(629 4027)" fill="#d53f8f" font-size="16" font-family="Roboto-Medium, Roboto" font-weight="500"><tspan x="0" y="0">nombre_producto</tspan></text>
    <path id="Path_1254201" data-name="Path 1254201" d="M6505-7617v51.5" transform="translate(-6135 11612)" fill="none" stroke="#b9b6ab" stroke-width="1"/>
    <rect id="Rectangle_412091" data-name="Rectangle 412091" width="545" height="46" rx="8" transform="translate(265 3949)" fill="#7fe5cf"/>
    <text id="Detalle_pedido" data-name="Detalle pedido" transform="translate(486 3978)" fill="#12263f" font-size="16" font-family="Roboto-Medium, Roboto" font-weight="500"><tspan x="0" y="0">Detalle pedido</tspan></text>
    <path id="Path_1254202" data-name="Path 1254202" d="M6505-7617v51.5" transform="translate(-6010 11612)" fill="none" stroke="#b9b6ab" stroke-width="1"/>
    <path id="Path_1254203" data-name="Path 1254203" d="M6505-7617v51.5" transform="translate(-5905 11612)" fill="none" stroke="#b9b6ab" stroke-width="1"/>
    <rect id="Rectangle_412093" data-name="Rectangle 412093" width="545" height="69" rx="8" transform="translate(265 4125)" fill="#e5e2d3"/>
    <text id="id_pedido-2" data-name="id_pedido" transform="translate(287 4174)" fill="#12263f" font-size="16" font-family="Roboto-Regular, Roboto"><tspan x="0" y="0">id_pedido</tspan></text>
    <text id="id_categoría" transform="translate(390 4174)" fill="#12263f" font-size="16" font-family="Roboto-Regular, Roboto"><tspan x="0" y="0">id_categoría</tspan></text>
    <text id="nombre_producto-2" data-name="nombre_producto" transform="translate(517 4174)" fill="#3f7266" font-size="16" font-family="Roboto-Medium, Roboto" font-weight="500"><tspan x="0" y="0">nombre_producto</tspan></text>
    <text id="marca" transform="translate(719 4174)" fill="#12263f" font-size="16" font-family="Roboto-Regular, Roboto"><tspan x="0" y="0">marca</tspan></text>
    <path id="Path_1254204" data-name="Path 1254204" d="M6505-7617v51.5" transform="translate(-6135 11759)" fill="none" stroke="#b9b6ab" stroke-width="1"/>
    <rect id="Rectangle_412094" data-name="Rectangle 412094" width="545" height="46" rx="8" transform="translate(265 4096)" fill="#7fe5cf"/>
    <text id="Producto" transform="translate(505 4125)" fill="#12263f" font-size="16" font-family="Roboto-Medium, Roboto" font-weight="500"><tspan x="0" y="0">Producto</tspan></text>
    <path id="Path_1254205" data-name="Path 1254205" d="M6505-7617v51.5" transform="translate(-6010 11759)" fill="none" stroke="#b9b6ab" stroke-width="1"/>
    <path id="Path_1254206" data-name="Path 1254206" d="M6505-7617v51.5" transform="translate(-5828 11759)" fill="none" stroke="#b9b6ab" stroke-width="1"/>
    <path id="Path_1254207" data-name="Path 1254207" d="M6735-7553.275v9.469h210v-9.469" transform="translate(-6135 11608)" fill="none" stroke="#d53f8f" stroke-width="1"/>
    <path id="Path_1254208" data-name="Path 1254208" d="M6735-7553.275v14.781h182v-14.781" transform="translate(-6240 11750)" fill="none" stroke="#d53f8f" stroke-width="1"/>
    <path id="Path_1254209" data-name="Path 1254209" d="M6849.6-7537.6l-48.611,31.082" transform="translate(-6135 11601.859)" fill="none" stroke="#d53f8f" stroke-width="1"/>
    <path id="Polygon_9" data-name="Polygon 9" d="M3.5,0,7,6H0Z" transform="matrix(-0.588, -0.809, 0.809, -0.588, 665.13, 4100.595)" fill="#d53f8f"/>
  </g>
</svg>
