<svg xmlns="http://www.w3.org/2000/svg" xmlns:xlink="http://www.w3.org/1999/xlink" width="115" height="115" viewBox="0 0 115 115">
  <defs>
    <clipPath id="clip-path">
      <rect id="Rectangle_411976" data-name="Rectangle 411976" width="115" height="115" transform="translate(800.781 1954)" fill="#e8bad8" opacity="0.41"/>
    </clipPath>
    <clipPath id="clip-path-2">
      <path id="path9052" d="M0-682.665H65.506v65.506H0Z" transform="translate(0 682.665)"/>
    </clipPath>
  </defs>
  <g id="Group_1204804" data-name="Group 1204804" transform="translate(-396 -5883)">
    <g id="Mask_Group_1099368" data-name="Mask Group 1099368" transform="translate(-404.781 3929)" clip-path="url(#clip-path)">
      <g id="Group_1204528" data-name="Group 1204528" transform="translate(799.781 1960.273)">
        <g id="Group_1204515" data-name="Group 1204515" transform="translate(1)">
          <ellipse id="Ellipse_12500" data-name="Ellipse 12500" cx="28.658" cy="28.658" rx="28.658" ry="28.658" transform="translate(56.527 44.289)" fill="#ffc94a"/>
          <ellipse id="Ellipse_12501" data-name="Ellipse 12501" cx="20.842" cy="20.842" rx="20.842" ry="20.842" fill="#ffc94a"/>
        </g>
      </g>
    </g>
    <g id="g9024" transform="translate(421 6590.665)">
      <path id="path9026" d="M18.271-664.393H10v-8.271h8.271Z" transform="translate(-9.04 -9.04)" fill="#e279b3"/>
      <path id="path9028" d="M114.64-664.393H96.2v-8.271H114.64Z" transform="translate(-86.97 -9.04)" fill="#a2f5c3"/>
      <path id="path9030" d="M306.794-664.393H288.355v-8.271h18.439Z" transform="translate(-260.686 -9.04)" fill="#88f2a9"/>
      <path id="path9032" d="M498.949-664.393H480.511v-8.271h18.439Z" transform="translate(-434.403 -9.04)" fill="#a2f5c3"/>
      <path id="path9034" d="M18.271-578.192H10v-8.271h8.271Z" transform="translate(-9.04 -86.97)" fill="#b2e5fb"/>
      <path id="path9036" d="M18.271-491.993H10v-8.271h8.271Z" transform="translate(-9.04 -164.898)" fill="#91dafa"/>
      <path id="path9038" d="M18.271-405.792H10v-8.271h8.271Z" transform="translate(-9.04 -242.828)" fill="#b2e5fb"/>
      <path id="path9040" d="M18.271-319.592H10v-8.271h8.271Z" transform="translate(-9.04 -320.756)" fill="#91dafa"/>
      <path id="path9042" d="M18.271-233.392H10v-8.271h8.271Z" transform="translate(-9.04 -398.684)" fill="#b2e5fb"/>
      <path id="path9044" d="M18.271-147.191H10v-8.271h8.271Z" transform="translate(-9.04 -476.614)" fill="#91dafa"/>
      <path id="path9046" d="M151.516-536.835H96.2v-49.629h55.316Z" transform="translate(-86.969 -86.97)" fill="#e6fdef"/>
      <g id="g9048" transform="translate(0 -682.665)">
        <g id="g9050" clip-path="url(#clip-path-2)">
          <g id="g9056" transform="translate(35.234 47.745)">
            <path id="path9058" d="M-276.17-104.406c0,3.159-6.562,5.72-14.657,5.72s-14.657-2.561-14.657-5.72v-11.082h29.313Z" transform="translate(305.483 115.488)" fill="#b6c4cf"/>
          </g>
          <g id="g9060" transform="translate(35.234 47.745)">
            <path id="path9062" d="M-138.086-158.293c8.095,0,14.657-2.561,14.657-5.72v-11.082H-127v9.683a1.78,1.78,0,0,1-1.173,1.679,30.259,30.259,0,0,1-9.909,1.507c-8.095,0-14.657-2.561-14.657-5.72v3.932c0,3.159,6.562,5.72,14.657,5.72" transform="translate(152.742 175.094)" fill="#9facba"/>
          </g>
          <g id="g9064" transform="translate(35.234 36.663)">
            <path id="path9066" d="M-276.17-104.406c0,3.159-6.562,5.72-14.657,5.72s-14.657-2.561-14.657-5.72v-11.082h29.313Z" transform="translate(305.483 115.488)" fill="#b6c4cf"/>
          </g>
          <g id="g9068" transform="translate(35.234 36.663)">
            <path id="path9070" d="M-138.086-158.293c8.095,0,14.657-2.561,14.657-5.72v-11.082H-127v9.683a1.78,1.78,0,0,1-1.173,1.679,30.259,30.259,0,0,1-9.909,1.507c-8.095,0-14.657-2.561-14.657-5.72v3.932c0,3.159,6.562,5.72,14.657,5.72" transform="translate(152.742 175.094)" fill="#9facba"/>
          </g>
          <g id="g9072" transform="translate(35.234 30.944)">
            <path id="path9074" d="M-276.17-53.887c0,3.159-6.562,5.72-14.657,5.72s-14.657-2.561-14.657-5.72,6.562-5.72,14.657-5.72,14.657,2.561,14.657,5.72" transform="translate(305.483 59.607)" fill="#d9e7ec"/>
          </g>
          <g id="g9076" transform="translate(26.71 8.272)">
            <path id="path9078" d="M-9.04,41.548a.96.96,0,0,1-.96-.96V-9.04A.96.96,0,0,1-9.04-10a.96.96,0,0,1,.96.96V40.589A.96.96,0,0,1-9.04,41.548Z" transform="translate(10 10)"/>
          </g>
          <g id="g9080" transform="translate(45.149 8.272)">
            <path id="path9082" d="M-9.04,13.632a.96.96,0,0,1-.96-.96V-9.04A.96.96,0,0,1-9.04-10a.96.96,0,0,1,.96.96V12.672A.96.96,0,0,1-9.04,13.632Z" transform="translate(10 10)"/>
          </g>
          <g id="g9084" transform="translate(0 16.543)">
            <path id="path9086" d="M54.547-8.081H-9.04A.96.96,0,0,1-10-9.04.96.96,0,0,1-9.04-10H54.547a.96.96,0,0,1,.96.96A.96.96,0,0,1,54.547-8.081Z" transform="translate(10 10)"/>
          </g>
          <g id="g9088" transform="translate(0 24.815)">
            <path id="path9090" d="M54.547-8.081H-9.04A.96.96,0,0,1-10-9.04.96.96,0,0,1-9.04-10H54.547a.96.96,0,0,1,.96.96A.96.96,0,0,1,54.547-8.081Z" transform="translate(10 10)"/>
          </g>
          <g id="g9092" transform="translate(0 33.086)">
            <path id="path9094" d="M26.727-8.081H-9.04A.96.96,0,0,1-10-9.04.96.96,0,0,1-9.04-10H26.727a.96.96,0,0,1,.96.96A.96.96,0,0,1,26.727-8.081Z" transform="translate(10 10)"/>
          </g>
          <g id="g9096" transform="translate(0 41.358)">
            <path id="path9098" d="M25.1-8.081H-9.04A.96.96,0,0,1-10-9.04.96.96,0,0,1-9.04-10H25.1a.96.96,0,0,1,.96.96A.96.96,0,0,1,25.1-8.081Z" transform="translate(10 10)"/>
          </g>
          <g id="g9100" transform="translate(0 49.629)">
            <path id="path9102" d="M25.1-8.081H-9.04A.96.96,0,0,1-10-9.04.96.96,0,0,1-9.04-10H25.1a.96.96,0,0,1,.96.96A.96.96,0,0,1,25.1-8.081Z" transform="translate(10 10)"/>
          </g>
          <g id="g9104" transform="translate(63.587 31.261)">
            <path id="path9106" d="M-9.04-64.24A.96.96,0,0,1-10-65.2V-71.16a.96.96,0,0,1,.96-.96.96.96,0,0,1,.96.96V-65.2A.96.96,0,0,1-9.04-64.24Z" transform="translate(10 72.12)"/>
          </g>
          <g id="g9108" transform="translate(0 8.272)">
            <path id="path9110" d="M-120.539-475.65h-11.835a.96.96,0,0,1-.96-.96v-49.629a.96.96,0,0,1,.96-.96h63.587a.96.96,0,0,1,.96.96v18.512a.96.96,0,0,1-.96.96.96.96,0,0,1-.96-.96v-17.552h-61.668v47.709h10.875a.96.96,0,0,1,.96.96A.96.96,0,0,1-120.539-475.65Z" transform="translate(133.333 527.197)"/>
          </g>
          <g id="g9112" transform="translate(16.313 57.9)">
            <path id="path9114" d="M-177.047-8.081H-194.88a.96.96,0,0,1-.96-.96.96.96,0,0,1,.96-.96h17.833a.96.96,0,0,1,.96.96A.96.96,0,0,1-177.047-8.081Z" transform="translate(195.84 10)"/>
          </g>
          <g id="g9116" transform="translate(15.142 0)">
            <path id="path9118" d="M39.4.191a.96.96,0,0,1-.96-.96V-8.081H-9.04A.96.96,0,0,1-10-9.04.96.96,0,0,1-9.04-10H39.4a.96.96,0,0,1,.96.96V-.769A.96.96,0,0,1,39.4.191Z" transform="translate(10 10)"/>
          </g>
          <g id="g9120" transform="translate(0 0)">
            <path id="path9122" d="M-9.04-86.009a.96.96,0,0,1-.96-.96V-95.24a.96.96,0,0,1,.96-.96H1.624a.96.96,0,0,1,.96.96.96.96,0,0,1-.96.96h-9.7v7.312A.96.96,0,0,1-9.04-86.009Z" transform="translate(10 96.2)"/>
          </g>
          <g id="g9124" transform="translate(26.71 0)">
            <path id="path9126" d="M-9.04-86.009a.96.96,0,0,1-.96-.96V-95.24a.96.96,0,0,1,.96-.96.96.96,0,0,1,.96.96v8.271A.96.96,0,0,1-9.04-86.009Z" transform="translate(10 96.2)"/>
          </g>
          <g id="g9128" transform="translate(45.149 0)">
            <path id="path9130" d="M-9.04.191A.96.96,0,0,1-10-.769V-9.04A.96.96,0,0,1-9.04-10a.96.96,0,0,1,.96.96V-.769A.96.96,0,0,1-9.04.191Z" transform="translate(10 10)"/>
          </g>
          <g id="g9132" transform="translate(8.272 0)">
            <path id="path9134" d="M-9.04,49.82a.96.96,0,0,1-.96-.96V-9.04A.96.96,0,0,1-9.04-10a.96.96,0,0,1,.96.96v57.9A.96.96,0,0,1-9.04,49.82Z" transform="translate(10 10)"/>
          </g>
          <g id="g9136" transform="translate(34.274 46.786)">
            <path id="path9138" d="M-299.867,8.721c-7.57,0-15.616-2.341-15.616-6.679V-9.04a.96.96,0,0,1,.96-.96.96.96,0,0,1,.96.96V2.041c0,2.247,5.858,4.76,13.7,4.76s13.7-2.513,13.7-4.76V-9.04a.96.96,0,0,1,.96-.96.96.96,0,0,1,.96.96V2.041C-284.251,6.38-292.3,8.721-299.867,8.721Z" transform="translate(315.483 10)"/>
          </g>
          <g id="g9140" transform="translate(34.274 35.704)">
            <path id="path9142" d="M-299.867,8.721c-7.57,0-15.616-2.341-15.616-6.679V-9.04a.96.96,0,0,1,.96-.96.96.96,0,0,1,.96.96V2.041c0,2.247,5.858,4.76,13.7,4.76s13.7-2.513,13.7-4.76V-9.04a.96.96,0,0,1,.96-.96.96.96,0,0,1,.96.96V2.041C-284.251,6.38-292.3,8.721-299.867,8.721Z" transform="translate(315.483 10)"/>
          </g>
          <g id="g9144" transform="translate(34.274 29.984)">
            <path id="path9146" d="M-299.867-69.606c7.57,0,15.616,2.341,15.616,6.679s-8.046,6.679-15.616,6.679-15.616-2.341-15.616-6.679S-307.437-69.606-299.867-69.606Zm0,11.439c7.839,0,13.7-2.513,13.7-4.76s-5.858-4.76-13.7-4.76-13.7,2.513-13.7,4.76S-307.706-58.167-299.867-58.167Z" transform="translate(315.483 69.606)"/>
          </g>
          <g id="g9148" transform="translate(55.24 46.326)">
            <path id="path9150" d="M-18.264-9.133a.969.969,0,0,1-.969.969.969.969,0,0,1-.969-.969.969.969,0,0,1,.969-.969.969.969,0,0,1,.969.969" transform="translate(20.203 10.103)"/>
          </g>
          <g id="g9152" transform="translate(59.117 45.033)">
            <path id="path9154" d="M-18.265-9.132a.969.969,0,0,1-.969.969.969.969,0,0,1-.969-.969.969.969,0,0,1,.969-.969.969.969,0,0,1,.969.969" transform="translate(20.204 10.101)"/>
          </g>
          <g id="g9156" transform="translate(55.24 57.203)">
            <path id="path9158" d="M-18.264-9.132a.969.969,0,0,1-.969.969.969.969,0,0,1-.969-.969.969.969,0,0,1,.969-.969.969.969,0,0,1,.969.969" transform="translate(20.203 10.101)"/>
          </g>
          <g id="g9160" transform="translate(59.117 55.911)">
            <path id="path9162" d="M-18.265-9.132a.969.969,0,0,1-.969.969.969.969,0,0,1-.969-.969.969.969,0,0,1,.969-.969.969.969,0,0,1,.969.969" transform="translate(20.204 10.101)"/>
          </g>
        </g>
      </g>
    </g>
  </g>
</svg>
