<svg xmlns="http://www.w3.org/2000/svg" xmlns:xlink="http://www.w3.org/1999/xlink" width="67.307" height="67.307" viewBox="0 0 67.307 67.307">
  <defs>
    <clipPath id="clip-path">
      <path id="path9052" d="M0-682.665H67.307v67.307H0Z" transform="translate(0 682.665)"/>
    </clipPath>
  </defs>
  <g id="g9024" transform="translate(0 682.665)">
    <path id="path9026" d="M18.5-664.166H10v-8.5h8.5Z" transform="translate(-9.014 -9.014)" fill="#e279b3"/>
    <path id="path9028" d="M115.146-664.166H96.2v-8.5h18.945Z" transform="translate(-86.716 -9.014)" fill="#a2f5c3"/>
    <path id="path9030" d="M307.3-664.166H288.355v-8.5H307.3Z" transform="translate(-259.925 -9.014)" fill="#88f2a9"/>
    <path id="path9032" d="M499.456-664.166H480.511v-8.5h18.945Z" transform="translate(-433.135 -9.014)" fill="#a2f5c3"/>
    <path id="path9034" d="M18.5-577.965H10v-8.5h8.5Z" transform="translate(-9.014 -86.716)" fill="#b2e5fb"/>
    <path id="path9036" d="M18.5-491.765H10v-8.5h8.5Z" transform="translate(-9.014 -164.417)" fill="#91dafa"/>
    <path id="path9038" d="M18.5-405.564H10v-8.5h8.5Z" transform="translate(-9.014 -242.119)" fill="#b2e5fb"/>
    <path id="path9040" d="M18.5-319.364H10v-8.5h8.5Z" transform="translate(-9.014 -319.82)" fill="#91dafa"/>
    <path id="path9042" d="M18.5-233.165H10v-8.5h8.5Z" transform="translate(-9.014 -397.521)" fill="#b2e5fb"/>
    <path id="path9044" d="M18.5-146.963H10v-8.5h8.5Z" transform="translate(-9.014 -475.223)" fill="#91dafa"/>
    <path id="path9046" d="M153.036-535.471H96.2v-50.993h56.836Z" transform="translate(-86.715 -86.716)" fill="#e6fdef"/>
    <g id="g9048" transform="translate(0 -682.665)">
      <g id="g9050" clip-path="url(#clip-path)">
        <g id="g9056" transform="translate(36.202 49.058)">
          <path id="path9058" d="M-275.364-104.1c0,3.246-6.742,5.877-15.06,5.877s-15.059-2.631-15.059-5.877v-11.386h30.119Z" transform="translate(305.483 115.488)" fill="#b6c4cf"/>
        </g>
        <g id="g9060" transform="translate(36.202 49.058)">
          <path id="path9062" d="M-137.683-157.831c8.317,0,15.06-2.631,15.06-5.877v-11.386H-126.3v9.949a1.829,1.829,0,0,1-1.205,1.725,31.091,31.091,0,0,1-10.181,1.549c-8.317,0-15.06-2.631-15.06-5.877v4.04c0,3.246,6.742,5.877,15.06,5.877" transform="translate(152.742 175.094)" fill="#9facba"/>
        </g>
        <g id="g9064" transform="translate(36.202 37.671)">
          <path id="path9066" d="M-275.364-104.1c0,3.246-6.742,5.877-15.06,5.877s-15.059-2.631-15.059-5.877v-11.386h30.119Z" transform="translate(305.483 115.488)" fill="#b6c4cf"/>
        </g>
        <g id="g9068" transform="translate(36.202 37.671)">
          <path id="path9070" d="M-137.683-157.831c8.317,0,15.06-2.631,15.06-5.877v-11.386H-126.3v9.949a1.829,1.829,0,0,1-1.205,1.725,31.091,31.091,0,0,1-10.181,1.549c-8.317,0-15.06-2.631-15.06-5.877v4.04c0,3.246,6.742,5.877,15.06,5.877" transform="translate(152.742 175.094)" fill="#9facba"/>
        </g>
        <g id="g9072" transform="translate(36.202 31.794)">
          <path id="path9074" d="M-275.364-53.73c0,3.246-6.742,5.877-15.06,5.877s-15.059-2.631-15.059-5.877,6.742-5.877,15.059-5.877,15.06,2.631,15.06,5.877" transform="translate(305.483 59.607)" fill="#d9e7ec"/>
        </g>
        <g id="g9076" transform="translate(27.444 8.499)">
          <path id="path9078" d="M-9.014,42.965A.986.986,0,0,1-10,41.979V-9.014A.986.986,0,0,1-9.014-10a.986.986,0,0,1,.986.986V41.979A.986.986,0,0,1-9.014,42.965Z" transform="translate(10 10)"/>
        </g>
        <g id="g9080" transform="translate(46.39 8.499)">
          <path id="path9082" d="M-9.014,14.281A.986.986,0,0,1-10,13.3V-9.014A.986.986,0,0,1-9.014-10a.986.986,0,0,1,.986.986V13.3A.986.986,0,0,1-9.014,14.281Z" transform="translate(10 10)"/>
        </g>
        <g id="g9084" transform="translate(0 16.998)">
          <path id="path9086" d="M56.321-8.028H-9.014A.986.986,0,0,1-10-9.014.986.986,0,0,1-9.014-10H56.321a.986.986,0,0,1,.986.986A.986.986,0,0,1,56.321-8.028Z" transform="translate(10 10)"/>
        </g>
        <g id="g9088" transform="translate(0 25.497)">
          <path id="path9090" d="M56.321-8.028H-9.014A.986.986,0,0,1-10-9.014.986.986,0,0,1-9.014-10H56.321a.986.986,0,0,1,.986.986A.986.986,0,0,1,56.321-8.028Z" transform="translate(10 10)"/>
        </g>
        <g id="g9092" transform="translate(0 33.996)">
          <path id="path9094" d="M27.736-8.028H-9.014A.986.986,0,0,1-10-9.014.986.986,0,0,1-9.014-10h36.75a.986.986,0,0,1,.986.986A.986.986,0,0,1,27.736-8.028Z" transform="translate(10 10)"/>
        </g>
        <g id="g9096" transform="translate(0 42.494)">
          <path id="path9098" d="M26.069-8.028H-9.014A.986.986,0,0,1-10-9.014.986.986,0,0,1-9.014-10H26.069a.986.986,0,0,1,.986.986A.986.986,0,0,1,26.069-8.028Z" transform="translate(10 10)"/>
        </g>
        <g id="g9100" transform="translate(0 50.993)">
          <path id="path9102" d="M26.069-8.028H-9.014A.986.986,0,0,1-10-9.014.986.986,0,0,1-9.014-10H26.069a.986.986,0,0,1,.986.986A.986.986,0,0,1,26.069-8.028Z" transform="translate(10 10)"/>
        </g>
        <g id="g9104" transform="translate(65.335 32.121)">
          <path id="path9106" d="M-9.014-64.023A.986.986,0,0,1-10-65.009v-6.125a.986.986,0,0,1,.986-.986.986.986,0,0,1,.986.986v6.125A.986.986,0,0,1-9.014-64.023Z" transform="translate(10 72.12)"/>
        </g>
        <g id="g9108" transform="translate(0 8.499)">
          <path id="path9110" d="M-120.187-474.233h-12.16a.986.986,0,0,1-.986-.986v-50.993a.986.986,0,0,1,.986-.986h65.335a.986.986,0,0,1,.986.986v19.021a.986.986,0,0,1-.986.986.986.986,0,0,1-.986-.986v-18.035h-63.363V-476.2h11.174a.986.986,0,0,1,.986.986A.986.986,0,0,1-120.187-474.233Z" transform="translate(133.333 527.197)"/>
        </g>
        <g id="g9112" transform="translate(16.761 59.492)">
          <path id="path9114" d="M-176.531-8.028h-18.323a.986.986,0,0,1-.986-.986.986.986,0,0,1,.986-.986h18.323a.986.986,0,0,1,.986.986A.986.986,0,0,1-176.531-8.028Z" transform="translate(195.839 10)"/>
        </g>
        <g id="g9116" transform="translate(15.558 0)">
          <path id="path9118" d="M40.763.471a.986.986,0,0,1-.986-.986V-8.028H-9.014A.986.986,0,0,1-10-9.014.986.986,0,0,1-9.014-10H40.763a.986.986,0,0,1,.986.986v8.5A.986.986,0,0,1,40.763.471Z" transform="translate(10 10)"/>
        </g>
        <g id="g9120" transform="translate(0 0)">
          <path id="path9122" d="M-9.014-85.729A.986.986,0,0,1-10-86.715v-8.5a.986.986,0,0,1,.986-.986H1.943a.986.986,0,0,1,.986.986.986.986,0,0,1-.986.986H-8.028v7.513A.986.986,0,0,1-9.014-85.729Z" transform="translate(10 96.2)"/>
        </g>
        <g id="g9124" transform="translate(27.444 0)">
          <path id="path9126" d="M-9.014-85.729A.986.986,0,0,1-10-86.715v-8.5a.986.986,0,0,1,.986-.986.986.986,0,0,1,.986.986v8.5A.986.986,0,0,1-9.014-85.729Z" transform="translate(10 96.2)"/>
        </g>
        <g id="g9128" transform="translate(46.39 0)">
          <path id="path9130" d="M-9.014.471A.986.986,0,0,1-10-.515v-8.5A.986.986,0,0,1-9.014-10a.986.986,0,0,1,.986.986v8.5A.986.986,0,0,1-9.014.471Z" transform="translate(10 10)"/>
        </g>
        <g id="g9132" transform="translate(8.499 0)">
          <path id="path9134" d="M-9.014,51.464A.986.986,0,0,1-10,50.478V-9.014A.986.986,0,0,1-9.014-10a.986.986,0,0,1,.986.986V50.478A.986.986,0,0,1-9.014,51.464Z" transform="translate(10 10)"/>
        </g>
        <g id="g9136" transform="translate(35.216 48.072)">
          <path id="path9138" d="M-299.438,9.235c-7.778,0-16.045-2.405-16.045-6.863V-9.014A.986.986,0,0,1-314.5-10a.986.986,0,0,1,.986.986V2.372c0,2.309,6.019,4.891,14.073,4.891s14.074-2.582,14.074-4.891V-9.014a.986.986,0,0,1,.986-.986.986.986,0,0,1,.986.986V2.372C-283.392,6.83-291.659,9.235-299.438,9.235Z" transform="translate(315.483 10)"/>
        </g>
        <g id="g9140" transform="translate(35.216 36.685)">
          <path id="path9142" d="M-299.438,9.235c-7.778,0-16.045-2.405-16.045-6.863V-9.014A.986.986,0,0,1-314.5-10a.986.986,0,0,1,.986.986V2.372c0,2.309,6.019,4.891,14.073,4.891s14.074-2.582,14.074-4.891V-9.014a.986.986,0,0,1,.986-.986.986.986,0,0,1,.986.986V2.372C-283.392,6.83-291.659,9.235-299.438,9.235Z" transform="translate(315.483 10)"/>
        </g>
        <g id="g9144" transform="translate(35.216 30.808)">
          <path id="path9146" d="M-299.438-69.606c7.779,0,16.046,2.405,16.046,6.863s-8.267,6.863-16.046,6.863-16.045-2.405-16.045-6.863S-307.216-69.606-299.438-69.606Zm0,11.754c8.055,0,14.074-2.582,14.074-4.891s-6.019-4.891-14.074-4.891-14.073,2.582-14.073,4.891S-307.493-57.853-299.438-57.853Z" transform="translate(315.483 69.606)"/>
        </g>
        <g id="g9148" transform="translate(56.758 47.599)">
          <path id="path9150" d="M-18.211-9.107a1,1,0,0,1-1,1,1,1,0,0,1-1-1,1,1,0,0,1,1-1,1,1,0,0,1,1,1" transform="translate(20.203 10.103)"/>
        </g>
        <g id="g9152" transform="translate(60.742 46.271)">
          <path id="path9154" d="M-18.212-9.105a1,1,0,0,1-1,1,1,1,0,0,1-1-1,1,1,0,0,1,1-1,1,1,0,0,1,1,1" transform="translate(20.204 10.101)"/>
        </g>
        <g id="g9156" transform="translate(56.758 58.776)">
          <path id="path9158" d="M-18.211-9.105a1,1,0,0,1-1,1,1,1,0,0,1-1-1,1,1,0,0,1,1-1,1,1,0,0,1,1,1" transform="translate(20.203 10.101)"/>
        </g>
        <g id="g9160" transform="translate(60.742 57.448)">
          <path id="path9162" d="M-18.212-9.105a1,1,0,0,1-1,1,1,1,0,0,1-1-1,1,1,0,0,1,1-1,1,1,0,0,1,1,1" transform="translate(20.204 10.101)"/>
        </g>
      </g>
    </g>
  </g>
</svg>
