<svg xmlns="http://www.w3.org/2000/svg" width="76.345" height="76.344" viewBox="0 0 76.345 76.344">
  <g id="Group_1204179" data-name="Group 1204179" transform="translate(-1021.967 -3092.655)">
    <g id="Group_1187152" data-name="Group 1187152">
      <g id="Group_1185946" data-name="Group 1185946" transform="translate(-3.07)">
        <g id="Group_1184280" data-name="Group 1184280">
          <g id="Group_1182168" data-name="Group 1182168">
            <g id="Group_1178877" data-name="Group 1178877">
              <g id="Group_1111311" data-name="Group 1111311">
                <g id="Group_1098742" data-name="Group 1098742" transform="translate(1025.482 3093.101)">
                  <g id="Rectangle_400898" data-name="Rectangle 400898" transform="translate(-0.445 -0.445)" fill="#c1a1f0" stroke="#866fa7" stroke-width="1" opacity="0.859">
                    <rect width="76.345" height="76.345" rx="38.172" stroke="none"/>
                    <rect x="0.5" y="0.5" width="75.345" height="75.345" rx="37.672" fill="none"/>
                  </g>
                  <g id="Rectangle_400907" data-name="Rectangle 400907" transform="translate(-0.446 -0.445)" fill="none" stroke="#866fa7" stroke-width="1">
                    <rect width="76.345" height="76.345" rx="38.172" stroke="none"/>
                    <rect x="0.5" y="0.5" width="75.345" height="75.345" rx="37.672" fill="none"/>
                  </g>
                </g>
              </g>
            </g>
          </g>
        </g>
      </g>
    </g>
    <g id="database_17364744" transform="translate(1034.349 3081.604)">
      <g id="Group_1203807" data-name="Group 1203807" transform="translate(0.706 26.762)">
        <path id="Path_1248606" data-name="Path 1248606" d="M39.5,37.958c0-2.707-7.277-4.9-16.25-4.9s-16.25,2.193-16.25,4.9v30.66c0,2.707,7.277,4.9,16.25,4.9s16.25-2.193,16.25-4.9Z" transform="translate(-7.005 -33.057)" fill="#ffab02" fill-rule="evenodd"/>
        <path id="Path_1248607" data-name="Path 1248607" d="M23.255,42.853c8.95,0,16.25-2.2,16.25-4.9s-7.3-4.9-16.25-4.9-16.25,2.2-16.25,4.9,7.3,4.9,16.25,4.9Z" transform="translate(-7.005 -33.055)" fill="#ed9e00" fill-rule="evenodd"/>
        <path id="Path_1248608" data-name="Path 1248608" d="M7.005,81.7v9.984c0,2.7,7.277,4.9,16.25,4.9s16.25-2.193,16.25-4.9V81.7c0,2.7-7.277,4.9-16.25,4.9S7.005,84.4,7.005,81.7Z" transform="translate(-7.005 -76.799)" fill="#ffab02" fill-rule="evenodd"/>
        <path id="Path_1248609" data-name="Path 1248609" d="M39.5,184.312h-.043c-.6,2.539-7.628,4.544-16.207,4.544s-15.607-2-16.207-4.544H7.005V194.3c0,2.7,7.277,4.9,16.25,4.9S39.5,197,39.5,194.3Z" transform="translate(-7.005 -169.073)" fill="#ed9e00" fill-rule="evenodd"/>
        <path id="Path_1248610" data-name="Path 1248610" d="M210.67,302.29h22.878v17.8H213.56a2.9,2.9,0,0,1-2.89-2.89Z" transform="translate(-190.151 -275.165)" fill="#72bff2" fill-rule="evenodd"/>
        <path id="Path_1248611" data-name="Path 1248611" d="M270.882,152.053v25.411H291.17V156.608l-4.555-4.555Z" transform="translate(-244.297 -140.064)" fill="#d5e3f2" fill-rule="evenodd"/>
        <path id="Path_1248612" data-name="Path 1248612" d="M427.043,152.053l4.555,4.555h-4.555Z" transform="translate(-384.725 -140.064)" fill="#b7cfe8" fill-rule="evenodd"/>
        <path id="Path_1248613" data-name="Path 1248613" d="M240.229,310.217h12.337l2.485-4.1h9.9a1.179,1.179,0,0,1,1.177,1.177v16.236H239.361V311.085A.87.87,0,0,1,240.229,310.217Z" transform="translate(-215.952 -278.606)" fill="#8dd1fe" fill-rule="evenodd"/>
        <path id="Path_1248614" data-name="Path 1248614" d="M309.263,84.081v4.706h2.048V81.7c0,.862-.743,1.676-2.048,2.382Z" transform="translate(-278.811 -76.799)" fill="#ed9e00" fill-rule="evenodd"/>
        <path id="Path_1248615" data-name="Path 1248615" d="M386.649,307.523h9.007a1.18,1.18,0,0,1,1.177,1.177v14.833h1.74V307.3a1.179,1.179,0,0,0-1.177-1.177h-9.9Z" transform="translate(-348.401 -278.61)" fill="#72bff2" fill-rule="evenodd"/>
      </g>
      <path id="Path_1248616" data-name="Path 1248616" d="M460.661,197.266h1.168v10.966h-1.168Z" transform="translate(-414.25 -153.96)" fill="#b7cfe8"/>
      <path id="Path_1248617" data-name="Path 1248617" d="M18.837,62a.705.705,0,0,1-.671.738c-.765.036-1.568.055-2.387.055a.705.705,0,0,1,0-1.41c.8,0,1.577-.018,2.32-.053A.707.707,0,0,1,18.837,62Zm-3.058-9.531c.818,0,1.621-.019,2.387-.055A.705.705,0,1,0,18.133,51H18.1c-.744.035-1.524.053-2.32.053a.705.705,0,0,0,0,1.41Zm0-10.324c.8,0,1.6-.018,2.384-.052a.705.705,0,1,0-.062-1.41c-.762.034-1.543.05-2.322.05a.705.705,0,1,0,0,1.41Zm14.014,1.868H40.18a.705.705,0,0,0,0-1.41H29.793a.705.705,0,0,0,0,1.41Zm21.79,11.438V71.685a.705.705,0,0,1-.705.705H24.09a3.605,3.605,0,0,1-3.571-3.6v-.983c-1.152.076-2.347.115-3.564.115A42.259,42.259,0,0,1,5.261,66.463C1.819,65.426,0,63.994,0,62.323V31.663c0-1.671,1.819-3.1,5.261-4.141a42.231,42.231,0,0,1,11.695-1.465,42.223,42.223,0,0,1,11.694,1.465c3.442,1.038,5.262,2.469,5.262,4.141v6.383h9.113a.706.706,0,0,1,.5.206l4.555,4.555a.706.706,0,0,1,.207.5V53.567H49.7A1.884,1.884,0,0,1,51.583,55.449ZM43.729,42.6h2.147l-2.147-2.146Zm-1.41.705V39.456H28V57.668h8.927L39.2,53.907a.705.705,0,0,1,.6-.34h7.071V44.011h-3.85a.705.705,0,0,1-.705-.705ZM1.41,31.7c.032.728,1.18,1.837,4.313,2.772a40.977,40.977,0,0,0,11.231,1.388c9.571,0,15.5-2.43,15.544-4.173v-.019c0-1.752-5.914-4.2-15.544-4.2S1.41,29.911,1.41,31.663Zm0,9.952c0,1.751,5.914,4.192,15.544,4.192a44.923,44.923,0,0,0,9.63-.969v-6.12a.705.705,0,0,1,.705-.705H32.5V34.022a12.334,12.334,0,0,1-3.886,1.789,42.337,42.337,0,0,1-11.658,1.454A42.393,42.393,0,0,1,5.32,35.819a12.378,12.378,0,0,1-3.909-1.8Zm0,10.338c0,1.751,5.914,4.192,15.544,4.192,1.219,0,2.414-.04,3.564-.118V53.887a.705.705,0,0,1,.705-.705h5.36V46.314a46.922,46.922,0,0,1-9.63.936A42.246,42.246,0,0,1,5.26,45.785a12.288,12.288,0,0,1-3.85-1.778ZM20.519,66.4V57.473c-1.153.076-2.347.115-3.564.115A42.242,42.242,0,0,1,5.261,56.123a12.285,12.285,0,0,1-3.85-1.778v7.978c0,1.75,5.914,4.192,15.545,4.192C18.175,66.516,19.37,66.475,20.519,66.4Zm4.464-8.729h1.6V54.592H21.931v14.2A2.191,2.191,0,0,0,23.41,70.86V59.242a1.575,1.575,0,0,1,1.573-1.574Zm25.189-2.219a.472.472,0,0,0-.471-.471H40.2l-2.276,3.761a.706.706,0,0,1-.6.34H24.983a.165.165,0,0,0-.163.163V70.979H50.172ZM29.087,46.313a.705.705,0,0,0,.705.705H45.077a.705.705,0,0,0,0-1.41H29.793a.705.705,0,0,0-.705.705Zm15.99,2.3H29.793a.705.705,0,0,0,0,1.41H45.077a.705.705,0,0,0,0-1.41Z" transform="translate(0 0)"/>
    </g>
  </g>
</svg>
