<svg xmlns="http://www.w3.org/2000/svg" xmlns:xlink="http://www.w3.org/1999/xlink" width="115" height="115" viewBox="0 0 115 115">
  <defs>
    <clipPath id="clip-path">
      <rect id="Rectangle_411880" data-name="Rectangle 411880" width="115" height="115" transform="translate(800.781 1954)" fill="#e8bad8" opacity="0.41"/>
    </clipPath>
  </defs>
  <g id="Group_1204732" data-name="Group 1204732" transform="translate(442 5019)">
    <g id="Mask_Group_1099347" data-name="Mask Group 1099347" transform="translate(-1242.781 -6973)" clip-path="url(#clip-path)">
      <g id="Group_1204355" data-name="Group 1204355" transform="translate(799.781 1960.273)">
        <g id="Group_1204342" data-name="Group 1204342" transform="translate(1)">
          <ellipse id="Ellipse_12464" data-name="Ellipse 12464" cx="28.658" cy="28.658" rx="28.658" ry="28.658" transform="translate(56.527 44.289)" fill="#ffc94a"/>
          <ellipse id="Ellipse_12465" data-name="Ellipse 12465" cx="20.842" cy="20.842" rx="20.842" ry="20.842" fill="#ffc94a"/>
        </g>
      </g>
    </g>
    <g id="surface1" transform="translate(-418 -4996)">
      <path id="Path_1253798" data-name="Path 1253798" d="M13.38,9.949H63.688a3.43,3.43,0,0,1,3.43,3.43V54.542a3.43,3.43,0,0,1-3.43,3.43H13.38a3.43,3.43,0,0,1-3.43-3.43V13.38A3.43,3.43,0,0,1,13.38,9.949Zm0,0" transform="translate(-8.806 -8.806)" fill="#4398d1"/>
      <path id="Path_1253799" data-name="Path 1253799" d="M39.8,39.8h2.287v2.287H39.8Zm0,0" transform="translate(-35.227 -35.227)" fill="#3e8cc7"/>
      <path id="Path_1253800" data-name="Path 1253800" d="M79.6,39.8h2.287v2.287H79.6Zm0,0" transform="translate(-70.451 -35.227)" fill="#3e8cc7"/>
      <path id="Path_1253801" data-name="Path 1253801" d="M119.4,39.8h2.287v2.287H119.4Zm0,0" transform="translate(-105.681 -35.227)" fill="#3e8cc7"/>
      <path id="Path_1253802" data-name="Path 1253802" d="M92.981,89.551H143.29a3.43,3.43,0,0,1,3.43,3.43v41.162a3.43,3.43,0,0,1-3.43,3.43H92.981a3.43,3.43,0,0,1-3.43-3.43V92.981A3.43,3.43,0,0,1,92.981,89.551Zm0,0" transform="translate(-79.26 -79.26)" fill="#87ced9"/>
      <path id="Path_1253803" data-name="Path 1253803" d="M165.711,89.551h-2.858l-47.97,47.97a3.418,3.418,0,0,0,.519.053h50.309a3.43,3.43,0,0,0,3.43-3.43V92.981A3.43,3.43,0,0,0,165.711,89.551Zm0,0" transform="translate(-101.681 -79.26)" fill="#71c4d1"/>
      <path id="Path_1253804" data-name="Path 1253804" d="M119.4,119.4h2.287v2.287H119.4Zm0,0" transform="translate(-105.681 -105.681)" fill="#5eb3d1"/>
      <path id="Path_1253805" data-name="Path 1253805" d="M159.2,119.4h2.287v2.287H159.2Zm0,0" transform="translate(-140.905 -105.681)" fill="#5eb3d1"/>
      <path id="Path_1253806" data-name="Path 1253806" d="M199,119.4h2.287v2.287H199Zm0,0" transform="translate(-176.132 -105.681)" fill="#5eb3d1"/>
      <path id="Path_1253807" data-name="Path 1253807" d="M119.4,159.2h50.309v2.287H119.4Zm0,0" transform="translate(-105.681 -140.905)" fill="#5eb3d1"/>
      <path id="Path_1253808" data-name="Path 1253808" d="M139.3,328.352h6.86v2.287H139.3Zm0,0" transform="translate(-123.293 -290.619)" fill="#5eb3d1"/>
      <path id="Path_1253809" data-name="Path 1253809" d="M139.3,378.1h24.011v2.287H139.3Zm0,0" transform="translate(-123.293 -334.649)" fill="#5eb3d1"/>
      <path id="Path_1253810" data-name="Path 1253810" d="M139.3,427.852h12.577v2.287H139.3Zm0,0" transform="translate(-123.293 -378.686)" fill="#5eb3d1"/>
      <path id="Path_1253811" data-name="Path 1253811" d="M318.4,278.6h11.434v2.287H318.4Zm0,0" transform="translate(-281.81 -246.583)" fill="#5eb3d1"/>
      <path id="Path_1253812" data-name="Path 1253812" d="M467.648,378.1h8v2.287h-8Zm0,0" transform="translate(-413.909 -334.649)" fill="#5eb3d1"/>
      <path id="Path_1253813" data-name="Path 1253813" d="M378.1,427.852h18.295v2.287H378.1Zm0,0" transform="translate(-334.649 -378.686)" fill="#5eb3d1"/>
      <path id="Path_1253814" data-name="Path 1253814" d="M228.852,328.352H246v2.287h-17.15Zm0,0" transform="translate(-202.553 -290.619)" fill="#5eb3d1"/>
      <path id="Path_1253815" data-name="Path 1253815" d="M318.4,228.852h8v2.287h-8Zm0,0" transform="translate(-281.81 -202.553)" fill="#5eb3d1"/>
      <path id="Path_1253816" data-name="Path 1253816" d="M407.949,228.852h14.864v2.287H407.949Zm0,0" transform="translate(-361.07 -202.553)" fill="#5eb3d1"/>
      <path id="Path_1253817" data-name="Path 1253817" d="M268.648,427.852h10.291v2.287H268.648Zm0,0" transform="translate(-237.777 -378.686)" fill="#5eb3d1"/>
      <path id="Path_1253818" data-name="Path 1253818" d="M398,328.352h16.008v2.287H398Zm0,0" transform="translate(-352.264 -290.619)" fill="#5eb3d1"/>
      <path id="Path_1253819" data-name="Path 1253819" d="M437.8,278.6h11.434v2.287H437.8Zm0,0" transform="translate(-387.491 -246.583)" fill="#5eb3d1"/>
      <path id="Path_1253820" data-name="Path 1253820" d="M368.148,378.1H377.3v2.287h-9.147Zm0,0" transform="translate(-325.843 -334.649)" fill="#5eb3d1"/>
      <path id="Path_1253821" data-name="Path 1253821" d="M143.07,230.294l-3.43-3.43a1.145,1.145,0,0,1,0-1.617l3.43-3.43,1.617,1.616-2.622,2.622,2.622,2.622Zm0,0" transform="translate(-123.298 -196.327)" fill="#e34b87"/>
      <path id="Path_1253822" data-name="Path 1253822" d="M253.281,230.29l-1.617-1.617,2.622-2.622-2.622-2.622,1.617-1.617,3.43,3.43a1.145,1.145,0,0,1,0,1.617Zm0,0" transform="translate(-222.744 -196.323)" fill="#e34b87"/>
      <path id="Path_1253823" data-name="Path 1253823" d="M199.293,225.651l2.288-9.147,2.218.555-2.288,9.146Zm0,0" transform="translate(-176.391 -191.625)" fill="#e34b87"/>
      <path id="Path_1253824" data-name="Path 1253824" d="M211.236,547.25l-2.287,2.287,2.287,2.287H234.1V547.25Zm0,0" transform="translate(-184.938 -484.363)" fill="#e34b87"/>
      <path id="Path_1253825" data-name="Path 1253825" d="M430.135,547.25h-2.287v4.574h2.287a2.287,2.287,0,0,0,0-4.574Zm0,0" transform="translate(-378.682 -484.363)" fill="#4398d1"/>
      <path id="Path_1253826" data-name="Path 1253826" d="M63.13,119.4v35.445H59.7V122.832A3.43,3.43,0,0,1,63.13,119.4Zm0,0" transform="translate(-52.839 -105.681)" fill="#3e8cc7"/>
      <path id="Path_1253827" data-name="Path 1253827" d="M4.574,50.309H6.86V48.022H4.574a2.286,2.286,0,0,1-2.287-2.287V4.574A2.286,2.286,0,0,1,4.574,2.287H54.883A2.286,2.286,0,0,1,57.17,4.574V6.86h2.287V4.574A4.574,4.574,0,0,0,54.883,0H4.574A4.574,4.574,0,0,0,0,4.574V45.736A4.574,4.574,0,0,0,4.574,50.309Zm0,0"/>
      <path id="Path_1253828" data-name="Path 1253828" d="M39.8,39.8h2.287v2.287H39.8Zm0,0" transform="translate(-35.227 -35.227)"/>
      <path id="Path_1253829" data-name="Path 1253829" d="M79.6,39.8h2.287v2.287H79.6Zm0,0" transform="translate(-70.451 -35.227)"/>
      <path id="Path_1253830" data-name="Path 1253830" d="M119.4,39.8h2.287v2.287H119.4Zm0,0" transform="translate(-105.681 -35.227)"/>
      <path id="Path_1253831" data-name="Path 1253831" d="M134.484,79.6H84.175A4.574,4.574,0,0,0,79.6,84.171v41.162a4.574,4.574,0,0,0,4.574,4.574h50.309a4.574,4.574,0,0,0,4.574-4.574V84.172A4.574,4.574,0,0,0,134.484,79.6Zm2.287,45.736a2.286,2.286,0,0,1-2.287,2.287H84.175a2.286,2.286,0,0,1-2.287-2.287V84.172a2.286,2.286,0,0,1,2.287-2.287h50.309a2.286,2.286,0,0,1,2.287,2.287v41.162Zm0,0" transform="translate(-70.454 -70.451)"/>
      <path id="Path_1253832" data-name="Path 1253832" d="M119.4,119.4h2.287v2.287H119.4Zm0,0" transform="translate(-105.681 -105.681)"/>
      <path id="Path_1253833" data-name="Path 1253833" d="M159.2,119.4h2.287v2.287H159.2Zm0,0" transform="translate(-140.905 -105.681)"/>
      <path id="Path_1253834" data-name="Path 1253834" d="M199,119.4h2.287v2.287H199Zm0,0" transform="translate(-176.132 -105.681)"/>
      <path id="Path_1253835" data-name="Path 1253835" d="M119.4,159.2h50.309v2.287H119.4Zm0,0" transform="translate(-105.681 -140.905)"/>
      <path id="Path_1253836" data-name="Path 1253836" d="M139.3,328.352h6.86v2.287H139.3Zm0,0" transform="translate(-123.293 -290.619)"/>
      <path id="Path_1253837" data-name="Path 1253837" d="M139.3,378.1h24.011v2.287H139.3Zm0,0" transform="translate(-123.293 -334.649)"/>
      <path id="Path_1253838" data-name="Path 1253838" d="M139.3,427.852h12.577v2.287H139.3Zm0,0" transform="translate(-123.293 -378.686)"/>
      <path id="Path_1253839" data-name="Path 1253839" d="M318.4,278.6h11.434v2.287H318.4Zm0,0" transform="translate(-281.81 -246.583)"/>
      <path id="Path_1253840" data-name="Path 1253840" d="M467.648,378.1h8v2.287h-8Zm0,0" transform="translate(-413.909 -334.649)"/>
      <path id="Path_1253841" data-name="Path 1253841" d="M378.1,427.852h18.295v2.287H378.1Zm0,0" transform="translate(-334.649 -378.686)"/>
      <path id="Path_1253842" data-name="Path 1253842" d="M228.852,328.352H246v2.287h-17.15Zm0,0" transform="translate(-202.553 -290.619)"/>
      <path id="Path_1253843" data-name="Path 1253843" d="M318.4,228.852h8v2.287h-8Zm0,0" transform="translate(-281.81 -202.553)"/>
      <path id="Path_1253844" data-name="Path 1253844" d="M407.949,228.852h14.864v2.287H407.949Zm0,0" transform="translate(-361.07 -202.553)"/>
      <path id="Path_1253845" data-name="Path 1253845" d="M268.648,427.852h10.291v2.287H268.648Zm0,0" transform="translate(-237.777 -378.686)"/>
      <path id="Path_1253846" data-name="Path 1253846" d="M398,328.352h16.008v2.287H398Zm0,0" transform="translate(-352.264 -290.619)"/>
      <path id="Path_1253847" data-name="Path 1253847" d="M437.8,278.6h11.434v2.287H437.8Zm0,0" transform="translate(-387.491 -246.583)"/>
      <path id="Path_1253848" data-name="Path 1253848" d="M368.148,378.1H377.3v2.287h-9.147Zm0,0" transform="translate(-325.843 -334.649)"/>
      <path id="Path_1253849" data-name="Path 1253849" d="M143.07,221.816l-3.43,3.43a1.145,1.145,0,0,0,0,1.617l3.43,3.43,1.617-1.617-2.622-2.622,2.622-2.622Zm0,0" transform="translate(-123.298 -196.327)"/>
      <path id="Path_1253850" data-name="Path 1253850" d="M253.281,230.294l3.43-3.43a1.145,1.145,0,0,0,0-1.617l-3.43-3.43-1.617,1.616,2.622,2.622-2.622,2.622Zm0,0" transform="translate(-222.744 -196.327)"/>
      <path id="Path_1253851" data-name="Path 1253851" d="M199.293,225.651l2.288-9.147,2.218.555-2.288,9.146Zm0,0" transform="translate(-176.391 -191.625)"/>
      <path id="Path_1253852" data-name="Path 1253852" d="M227.589,537.3H202.435a1.14,1.14,0,0,0-.808.335l-2.287,2.287a1.145,1.145,0,0,0,0,1.617l2.287,2.287a1.14,1.14,0,0,0,.808.335h25.154a3.43,3.43,0,0,0,0-6.86Zm-3.43,4.573H202.908l-1.143-1.143,1.143-1.143h21.251Zm3.43,0h-1.143v-2.287h1.143a1.143,1.143,0,1,1,0,2.287Zm0,0" transform="translate(-176.136 -475.558)"/>
    </g>
  </g>
</svg>
