<svg xmlns="http://www.w3.org/2000/svg" width="76.345" height="76.344" viewBox="0 0 76.345 76.344">
  <g id="Group_1204940" data-name="Group 1204940" transform="translate(-1234.051 -1339)">
    <g id="Group_1204702" data-name="Group 1204702">
      <g id="Group_1204177" data-name="Group 1204177" transform="translate(212.084 -1753.655)">
        <g id="Group_1187152" data-name="Group 1187152">
          <g id="Group_1185946" data-name="Group 1185946" transform="translate(-3.07)">
            <g id="Group_1184280" data-name="Group 1184280">
              <g id="Group_1182168" data-name="Group 1182168">
                <g id="Group_1178877" data-name="Group 1178877">
                  <g id="Group_1111311" data-name="Group 1111311">
                    <g id="Group_1098742" data-name="Group 1098742" transform="translate(1025.482 3093.101)">
                      <rect id="Rectangle_400898" data-name="Rectangle 400898" width="76.345" height="76.345" rx="38.172" transform="translate(-0.445 -0.445)" fill="#c1a1f0" opacity="0.859"/>
                      <rect id="Rectangle_400907" data-name="Rectangle 400907" width="76.345" height="76.345" rx="38.172" transform="translate(-0.446 -0.445)" fill="none"/>
                    </g>
                  </g>
                </g>
              </g>
            </g>
          </g>
        </g>
      </g>
    </g>
    <g id="red" transform="translate(1246.051 1351)">
      <g id="Group_1204938" data-name="Group 1204938" transform="translate(1.8 1.8)">
        <g id="Group_1204915" data-name="Group 1204915" transform="translate(30.382 40.888)">
          <path id="Path_1254702" data-name="Path 1254702" d="M51.193,57.825l.672-4.685a7.243,7.243,0,0,1,5.725,7.084H40a7.245,7.245,0,0,1,5.725-7.084l.672,4.685,2.4-2.4Z" transform="translate(-40 -53.14)" fill="#fcd770"/>
        </g>
        <g id="Group_1204916" data-name="Group 1204916" transform="translate(39.177 40.776)">
          <path id="Path_1254703" data-name="Path 1254703" d="M54.07,53.112,53.4,57.8,51,55.4,53.4,53l.048.008C53.654,53.032,53.862,53.072,54.07,53.112Z" transform="translate(-51 -53)" fill="#ffc729"/>
        </g>
        <g id="Group_1204917" data-name="Group 1204917" transform="translate(36.106 40.776)">
          <path id="Path_1254704" data-name="Path 1254704" d="M50.23,55.4l-2.4,2.4-.672-4.685c.208-.04.416-.08.624-.1L47.832,53Z" transform="translate(-47.16 -53)" fill="#ffc729"/>
        </g>
        <g id="Group_1204918" data-name="Group 1204918" transform="translate(33.58 26.384)">
          <path id="Path_1254705" data-name="Path 1254705" d="M55.193,40.245a5.288,5.288,0,0,1-.552,2.343,1.571,1.571,0,0,0-1.047-.392H52c-1.615,0-2.143-1.455-2.319-2.4H48l-.272.136A2.4,2.4,0,0,0,46.4,42.076v.12h-.8a1.571,1.571,0,0,0-1.047.392A5.246,5.246,0,0,1,49.245,35h.7a5.241,5.241,0,0,1,5.245,5.245Z" transform="translate(-44 -35)" fill="#b27946"/>
        </g>
        <g id="Group_1204919" data-name="Group 1204919" transform="translate(14.391 14.391)">
          <circle id="Ellipse_12616" data-name="Ellipse 12616" cx="9.5" cy="9.5" r="9.5" transform="translate(0.379 0.38)" fill="#69d6f4"/>
        </g>
        <g id="Group_1204920" data-name="Group 1204920" transform="translate(0 14.391)">
          <path id="Path_1254706" data-name="Path 1254706" d="M13.241,20.008a7.1,7.1,0,0,1,3.15,1.183A7.174,7.174,0,0,1,18.574,23.5a8.828,8.828,0,0,0-.9,1.287A9.348,9.348,0,0,0,16.7,27.2H2a7.255,7.255,0,0,1,6.348-7.188L8.4,20a2.4,2.4,0,0,0,4.8,0Z" transform="translate(-2 -20)" fill="#ff826e"/>
        </g>
        <g id="Group_1204921" data-name="Group 1204921" transform="translate(3.198 8.795)">
          <path id="Path_1254707" data-name="Path 1254707" d="M6,19.788V13a1.611,1.611,0,0,0,1.6,1.6h.9a3.261,3.261,0,0,0,.832,1.463,2.949,2.949,0,0,0,.56.44v.008L9.2,18.6,9.15,18.6A7.175,7.175,0,0,0,6,19.788Z" transform="translate(-6 -13)" fill="#656d78"/>
        </g>
        <g id="Group_1204922" data-name="Group 1204922" transform="translate(3.198)">
          <path id="Path_1254708" data-name="Path 1254708" d="M6,7.6a5.6,5.6,0,0,1,11.193,0v3.2a1.611,1.611,0,0,0-1.6-1.6H14c-1.615,0-2.143-1.455-2.319-2.4H10l-.272.136A2.4,2.4,0,0,0,8.4,9.076V9.2H7.6a1.6,1.6,0,0,0-1.6,1.6Z" transform="translate(-6 -2)" fill="#656d78"/>
        </g>
        <g id="Group_1204923" data-name="Group 1204923" transform="translate(10.498 8.795)">
          <path id="Path_1254709" data-name="Path 1254709" d="M19.024,13v6.788a7.1,7.1,0,0,0-3.15-1.183l-.048-.008-.7-2.087V16.5a3.186,3.186,0,0,0,1.391-1.9h.9a1.6,1.6,0,0,0,1.6-1.6Z" transform="translate(-15.13 -13)" fill="#656d78"/>
        </g>
        <g id="Group_1204924" data-name="Group 1204924" transform="translate(11.889 7.196)">
          <path id="Path_1254710" data-name="Path 1254710" d="M19.373,12.6a1.6,1.6,0,0,1-1.6,1.6h-.9a2.924,2.924,0,0,0,.1-.8V11h.8a1.611,1.611,0,0,1,1.6,1.6Z" transform="translate(-16.87 -11)" fill="#f0d0b4"/>
        </g>
        <g id="Group_1204925" data-name="Group 1204925" transform="translate(6.396 12.297)">
          <path id="Path_1254711" data-name="Path 1254711" d="M14.1,17.388l.7,2.087a2.4,2.4,0,0,1-4.8,0l.7-2.087V17.38a3.173,3.173,0,0,0,3.406,0Z" transform="translate(-10 -17.38)" fill="#f0d0b4"/>
        </g>
        <g id="Group_1204926" data-name="Group 1204926" transform="translate(5.597 4.797)">
          <path id="Path_1254712" data-name="Path 1254712" d="M15.292,13.6a3.189,3.189,0,0,1-4.8,1.9,2.949,2.949,0,0,1-.56-.44A3.261,3.261,0,0,1,9.1,13.6a2.924,2.924,0,0,1-.1-.8V10.279a2.4,2.4,0,0,1,1.327-2.143L10.6,8h1.679c.176.943.7,2.4,2.319,2.4h.8v2.4a2.924,2.924,0,0,1-.1.8Z" transform="translate(-9 -8)" fill="#f0d0b4"/>
        </g>
        <g id="Group_1204927" data-name="Group 1204927" transform="translate(3.198 7.196)">
          <path id="Path_1254713" data-name="Path 1254713" d="M6.472,13.726A1.563,1.563,0,0,1,6,12.6,1.6,1.6,0,0,1,7.6,11h.8v2.4a2.924,2.924,0,0,0,.1.8H7.6A1.563,1.563,0,0,1,6.472,13.726Z" transform="translate(-6 -11)" fill="#f0d0b4"/>
        </g>
        <g id="Group_1204928" data-name="Group 1204928" transform="translate(42.271 33.58)">
          <path id="Path_1254714" data-name="Path 1254714" d="M56.9,44.472a1.563,1.563,0,0,1,.472,1.127,1.6,1.6,0,0,1-1.6,1.6h-.9a2.924,2.924,0,0,0,.1-.8V44h.8a1.571,1.571,0,0,1,1.047.392A.754.754,0,0,0,56.9,44.472Z" transform="translate(-54.87 -44)" fill="#f0d0b4"/>
        </g>
        <g id="Group_1204929" data-name="Group 1204929" transform="translate(36.778 38.681)">
          <path id="Path_1254715" data-name="Path 1254715" d="M48.7,50.38a7.636,7.636,0,0,0,1.7.5,3.191,3.191,0,0,0,1.7-.5v.008l.7,2.087-2.4,2.4-2.4-2.4.7-2.087Z" transform="translate(-48 -50.38)" fill="#f0d0b4"/>
        </g>
        <g id="Group_1204930" data-name="Group 1204930" transform="translate(33.58 33.58)">
          <path id="Path_1254716" data-name="Path 1254716" d="M46.4,44v2.4a2.924,2.924,0,0,0,.1.8h-.9A1.611,1.611,0,0,1,44,45.6a1.609,1.609,0,0,1,.552-1.207A1.571,1.571,0,0,1,45.6,44Z" transform="translate(-44 -44)" fill="#f0d0b4"/>
        </g>
        <g id="Group_1204931" data-name="Group 1204931" transform="translate(35.978 31.181)">
          <path id="Path_1254717" data-name="Path 1254717" d="M53.292,46.6A3.208,3.208,0,0,1,50.2,49a7.636,7.636,0,0,1-1.7-.5,2.949,2.949,0,0,1-.56-.44A3.261,3.261,0,0,1,47.1,46.6a2.924,2.924,0,0,1-.1-.8V43.279a2.4,2.4,0,0,1,1.327-2.143L48.6,41h1.679c.176.943.7,2.4,2.319,2.4h.8v2.4a2.924,2.924,0,0,1-.1.8Z" transform="translate(-47 -41)" fill="#f0d0b4"/>
        </g>
        <g id="Group_1204932" data-name="Group 1204932" transform="translate(0 36.778)">
          <path id="Path_1254718" data-name="Path 1254718" d="M6.8,59.193A4.8,4.8,0,0,1,2,54.4V52.8a4.789,4.789,0,0,1,8-3.566c.064.056.128.112.192.176a4.753,4.753,0,0,1,1.407,3.39v1.6A4.8,4.8,0,0,1,6.8,59.193Z" transform="translate(-2 -48)" fill="#b4dd7f"/>
        </g>
        <g id="Group_1204933" data-name="Group 1204933" transform="translate(38.377 6.396)">
          <path id="Path_1254719" data-name="Path 1254719" d="M54.8,21.193A4.8,4.8,0,0,1,50,16.4V14.8a4.789,4.789,0,0,1,8-3.566c.064.056.128.112.192.176a4.753,4.753,0,0,1,1.407,3.39v1.6A4.8,4.8,0,0,1,54.8,21.193Z" transform="translate(-50 -10)" fill="#b4dd7f"/>
        </g>
        <g id="Group_1204934" data-name="Group 1204934" transform="translate(3.198 39.976)">
          <ellipse id="Ellipse_12617" data-name="Ellipse 12617" cx="2" cy="1.5" rx="2" ry="1.5" transform="translate(-0.427 -0.205)" fill="#fcd770"/>
        </g>
        <g id="Group_1204935" data-name="Group 1204935" transform="translate(41.575 9.594)">
          <circle id="Ellipse_12618" data-name="Ellipse 12618" cx="1.5" cy="1.5" r="1.5" transform="translate(0.196 0.177)" fill="#fcd770"/>
        </g>
        <g id="Group_1204936" data-name="Group 1204936" transform="translate(22.387 4.797)">
          <circle id="Ellipse_12619" data-name="Ellipse 12619" cx="1.5" cy="1.5" r="1.5" transform="translate(0.384 -0.026)" fill="#ff826e"/>
        </g>
        <g id="Group_1204937" data-name="Group 1204937" transform="translate(22.387 39.976)">
          <circle id="Ellipse_12620" data-name="Ellipse 12620" cx="1.5" cy="1.5" r="1.5" transform="translate(0.384 -0.205)" fill="#ff826e"/>
        </g>
      </g>
      <g id="Group_1204939" data-name="Group 1204939" transform="translate(1 1)">
        <path id="Path_1254720" data-name="Path 1254720" d="M7.4,51a2.393,2.393,0,0,0-.8,4.65V57.4H8.2V55.65A2.393,2.393,0,0,0,7.4,51Zm0,3.2a.8.8,0,1,1,.8-.8A.8.8,0,0,1,7.4,54.2Z" transform="translate(-1.802 -11.024)"/>
        <path id="Path_1254721" data-name="Path 1254721" d="M10.594,43a4,4,0,1,0-8,0v4.086A5.574,5.574,0,0,0,1,50.993v1.6a5.6,5.6,0,0,0,11.193,0v-1.6a5.574,5.574,0,0,0-1.6-3.909Zm-4-2.4A2.4,2.4,0,0,1,9,43v2.946a5.526,5.526,0,0,0-4.8,0V43A2.4,2.4,0,0,1,6.6,40.6Zm4,11.993a4,4,0,0,1-8,0v-1.6a4,4,0,0,1,8,0Z" transform="translate(-1 -8.618)"/>
        <path id="Path_1254722" data-name="Path 1254722" d="M55.4,13a2.393,2.393,0,0,0-.8,4.65V19.4h1.6V17.65A2.393,2.393,0,0,0,55.4,13Zm0,3.2a.8.8,0,1,1,.8-.8A.8.8,0,0,1,55.4,16.2Z" transform="translate(-11.425 -3.406)"/>
        <path id="Path_1254723" data-name="Path 1254723" d="M58.594,9.084V5a4,4,0,0,0-8,0V9.084A5.577,5.577,0,0,0,49,12.993v1.6a5.6,5.6,0,1,0,11.193,0v-1.6A5.574,5.574,0,0,0,58.594,9.084ZM54.6,2.6A2.4,2.4,0,0,1,57,5V7.944a5.526,5.526,0,0,0-4.8,0V5a2.4,2.4,0,0,1,2.4-2.4Zm4,11.993a4,4,0,1,1-8,0v-1.6a4,4,0,0,1,8,0Z" transform="translate(-10.623 -1)"/>
        <path id="Path_1254724" data-name="Path 1254724" d="M51.6,48.476l-.367-1.1a4.006,4.006,0,0,0,1.023-1.382h.339a2.4,2.4,0,0,0,1.977-3.752A6.027,6.027,0,0,0,48.947,34h-.705a6.027,6.027,0,0,0-5.622,8.241,2.376,2.376,0,0,0-.421,1.353,2.4,2.4,0,0,0,2.4,2.4h.339a4.006,4.006,0,0,0,1.023,1.382l-.366,1.1A8.059,8.059,0,0,0,39,56.387v.8H58.189v-.8A8.066,8.066,0,0,0,51.6,48.476Zm-4.134,3.113-.7.7-.234-1.64Zm1.131,1.131,2.867,2.867H45.727Zm2.068-2.068-.234,1.64-.7-.7Zm1.93-6.259v-1.6a.8.8,0,0,1,0,1.6Zm-8.795-.8a.8.8,0,0,1,.8-.8v1.6A.8.8,0,0,1,43.8,43.594Zm.879-2.4H44.6a2.359,2.359,0,0,0-.614.09A4.419,4.419,0,0,1,48.242,35.6h.705a4.422,4.422,0,0,1,4.26,5.687,2.337,2.337,0,0,0-.615-.09v-.8h-1.6v.8c-1.565,0-1.6-2.3-1.6-2.4l-.8,0h-.8c0,1.382.668,4,3.2,4v1.6a2.4,2.4,0,0,1-4.8,0V41.878a1.59,1.59,0,0,1,.883-1.43l.273-.137-.716-1.43-.273.137A3.174,3.174,0,0,0,44.677,41.2Zm3.918,7.2a3.954,3.954,0,0,0,1.219-.21l.265.794-1.484,1.484L47.11,48.975l.265-.794a3.954,3.954,0,0,0,1.219.21Zm-3.728,1.941.751,5.254H40.649A6.459,6.459,0,0,1,44.866,50.333Zm6.706,5.254.752-5.261a6.463,6.463,0,0,1,4.217,5.261Z" transform="translate(-8.618 -7.616)"/>
        <path id="Path_1254725" data-name="Path 1254725" d="M15.391,25.785a10.408,10.408,0,1,0,3.071-7.368,7.957,7.957,0,0,0-1.472-1.443V7.4A6.4,6.4,0,1,0,4.2,7.4v9.581A8.044,8.044,0,0,0,1,23.387v.8H15.527A10.439,10.439,0,0,0,15.391,25.785Zm2.57-4h3.372a21.817,21.817,0,0,0-.327,3.2H17.031a8.714,8.714,0,0,1,.93-3.2Zm7.824-4.8c.859,0,1.775,1.221,2.406,3.2H23.379C24.01,18.211,24.926,16.99,25.785,16.99Zm2.814,4.8a19.826,19.826,0,0,1,.368,3.2H22.6a19.917,19.917,0,0,1,.368-3.2Zm5.94,3.2H30.565a21.927,21.927,0,0,0-.327-3.2h3.372a8.714,8.714,0,0,1,.93,3.2ZM25.785,34.58c-.859,0-1.775-1.221-2.406-3.2h4.812c-.631,1.977-1.546,3.2-2.406,3.2Zm-2.814-4.8a19.826,19.826,0,0,1-.368-3.2h6.363a19.917,19.917,0,0,1-.368,3.2Zm-5.94-3.2h3.974a21.927,21.927,0,0,0,.327,3.2H17.961a8.714,8.714,0,0,1-.93-3.2Zm13.533,0h3.974a8.715,8.715,0,0,1-.931,3.2H30.237A21.7,21.7,0,0,0,30.565,26.585Zm-11.559,4.8h2.7a11.081,11.081,0,0,0,1.112,2.671,8.825,8.825,0,0,1-3.81-2.671Zm9.749,2.671a11.081,11.081,0,0,0,1.112-2.671h2.7A8.825,8.825,0,0,1,28.755,34.053Zm3.81-13.864h-2.7a11.081,11.081,0,0,0-1.112-2.671A8.825,8.825,0,0,1,32.564,20.189Zm-9.749-2.671A11.081,11.081,0,0,0,21.7,20.189h-2.7a8.825,8.825,0,0,1,3.81-2.671ZM13.6,15.475l-.367-1.1a4.006,4.006,0,0,0,1.023-1.382h.339a2.372,2.372,0,0,0,.8-.147v3.188A8.255,8.255,0,0,0,13.6,15.475Zm-4.222-.294a3.954,3.954,0,0,0,1.219.21,3.954,3.954,0,0,0,1.219-.21l.37,1.11a1.592,1.592,0,0,1-3.178,0Zm5.217-5.386a.8.8,0,0,1,0,1.6Zm-4-7.2a4.8,4.8,0,0,1,4.8,4.8v.947a2.372,2.372,0,0,0-.8-.147V7.4h-1.6v.8c-1.565,0-1.6-2.3-1.6-2.4l-.8,0h-.8c0,1.382.668,4,3.2,4v1.6a2.4,2.4,0,1,1-4.8,0V8.878a1.59,1.59,0,0,1,.883-1.43l.273-.137-.716-1.43-.273.137A3.174,3.174,0,0,0,6.677,8.2H6.6a2.372,2.372,0,0,0-.8.147V7.4a4.8,4.8,0,0,1,4.8-4.8Zm-4,8.795a.8.8,0,0,1,0-1.6Zm-.8,1.452a2.372,2.372,0,0,0,.8.147h.339a4.006,4.006,0,0,0,1.023,1.382l-.366,1.1a8.014,8.014,0,0,0-1.795.56ZM2.649,22.587a6.466,6.466,0,0,1,4.9-5.462,3.176,3.176,0,0,0,6.087-.008A6.383,6.383,0,0,1,17.4,19.67a10.368,10.368,0,0,0-1.5,2.917Z" transform="translate(-1 -1)"/>
        <path id="Path_1254726" data-name="Path 1254726" d="M29.792,50.345V47h-1.6v3.345A2.4,2.4,0,0,0,26.741,51.8H17v1.6h9.741a2.393,2.393,0,1,0,3.051-3.051Zm-.8,3.051a.8.8,0,1,1,.8-.8A.8.8,0,0,1,28.993,53.4Z" transform="translate(-4.208 -10.222)"/>
        <path id="Path_1254727" data-name="Path 1254727" d="M30.6,11.65V15h1.6V11.65A2.4,2.4,0,0,0,33.65,10.2h9.741V8.6H33.65A2.393,2.393,0,1,0,30.6,11.65ZM31.4,8.6a.8.8,0,1,1-.8.8A.8.8,0,0,1,31.4,8.6Z" transform="translate(-6.613 -2.203)"/>
      </g>
    </g>
  </g>
</svg>
