<svg xmlns="http://www.w3.org/2000/svg" xmlns:xlink="http://www.w3.org/1999/xlink" width="115" height="115" viewBox="0 0 115 115">
  <defs>
    <clipPath id="clip-path">
      <rect id="Rectangle_411874" data-name="Rectangle 411874" width="115" height="115" transform="translate(800.781 1954)" fill="#e8bad8" opacity="0.41"/>
    </clipPath>
  </defs>
  <g id="Group_1204726" data-name="Group 1204726" transform="translate(-397.051 -6584)">
    <g id="Mask_Group_1099344" data-name="Mask Group 1099344" transform="translate(-403.73 4630)" clip-path="url(#clip-path)">
      <g id="Group_1204313" data-name="Group 1204313" transform="translate(799.781 1960.273)">
        <g id="Group_1204300" data-name="Group 1204300" transform="translate(1)">
          <ellipse id="Ellipse_12446" data-name="Ellipse 12446" cx="28.658" cy="28.658" rx="28.658" ry="28.658" transform="translate(56.527 44.289)" fill="#ffc94a"/>
          <ellipse id="Ellipse_12447" data-name="Ellipse 12447" cx="20.842" cy="20.842" rx="20.842" ry="20.842" fill="#ffc94a"/>
        </g>
      </g>
    </g>
    <g id="_x32_5_x2C__Troubleshooting_x2C__warning_x2C__tools_x2C__alert_x2C__working._laptop" transform="translate(414.051 6556.5)">
      <g id="Group_1204725" data-name="Group 1204725" transform="translate(1 53.5)">
        <path id="Path_1253728" data-name="Path 1253728" d="M40.823,91A9.824,9.824,0,0,0,31,100.823v33.886l2.689,1.14,3.062-1.14L53.568,91H40.823Z" transform="translate(-26.399 -85.249)" fill="#7e7bc6"/>
        <path id="Path_1253729" data-name="Path 1253729" d="M333.9,91H318.85l19.117,43.709,3.144,1.14,2.607-1.14V100.823A9.824,9.824,0,0,0,333.9,91Z" transform="translate(-270.103 -85.249)" fill="#7e7bc6"/>
        <path id="Path_1253730" data-name="Path 1253730" d="M121.511,128.5H73a4.5,4.5,0,0,0-4.5,4.5v33.457l29.328,2.367,28.183-2.367V133A4.5,4.5,0,0,0,121.511,128.5Z" transform="translate(-58.148 -116.998)" fill="#dbedff"/>
        <path id="Path_1253731" data-name="Path 1253731" d="M117.942,209.68l-7.6,7.6a3.451,3.451,0,0,0,4.88,4.88l7.6-7.6Z" transform="translate(-92.714 -185.727)" fill="#ff9f00"/>
        <path id="Path_1253732" data-name="Path 1253732" d="M198.559,103.83a3.8,3.8,0,0,0-2.481,1.83l-1.391,2.41h0a10.788,10.788,0,1,1,3.873-4.241Z" transform="translate(-150.982 -82.836)" fill="#00e4ef"/>
        <path id="Path_1253733" data-name="Path 1253733" d="M53.359,376l-6.738,2-7.065-2H8.5v6.1a5.4,5.4,0,0,0,5.4,5.4H79.017a5.4,5.4,0,0,0,5.4-5.4V376H53.359Z" transform="translate(-7.35 -326.54)" fill="#625fb2"/>
        <path id="Path_1253734" data-name="Path 1253734" d="M176.538,65.381a14.955,14.955,0,1,0-8.553,25.39l2.658-3.053.836-3a10.351,10.351,0,1,1,3.716-4.069l4.155,1.983A14.957,14.957,0,0,0,176.538,65.381Z" transform="translate(-128.007 -59.851)" fill="#ffcd00"/>
        <path id="Path_1253735" data-name="Path 1253735" d="M260.181,204.382a3.7,3.7,0,0,1-3.2,5.544h-16.2a3.7,3.7,0,0,1-3.2-5.544l3.27-5.665h0l3.494-6.055h0l1.334-2.313a3.7,3.7,0,0,1,6.4,0l8.1,14.033Z" transform="translate(-200.868 -167.797)" fill="#ec3d93"/>
        <path id="Path_1253736" data-name="Path 1253736" d="M224.8,376v2.07a3.682,3.682,0,0,1-3.681,3.681h-6.441A3.682,3.682,0,0,1,211,378.07V376Z" transform="translate(-178.793 -326.54)" fill="#47449d"/>
        <g id="Group_1204724" data-name="Group 1204724" transform="translate(0 0)">
          <g id="Group_1204721" data-name="Group 1204721">
            <g id="Group_1204720" data-name="Group 1204720">
              <g id="Group_1204705" data-name="Group 1204705" transform="translate(46.859 26.455)">
                <path id="Path_1253737" data-name="Path 1253737" d="M307.686,235.2a1.15,1.15,0,0,1-1.15-1.15v-6.9a1.15,1.15,0,1,1,2.3,0v6.9A1.15,1.15,0,0,1,307.686,235.2Z" transform="translate(-306.536 -226)"/>
              </g>
              <g id="Group_1204706" data-name="Group 1204706" transform="translate(46.859 36.808)">
                <path id="Path_1253738" data-name="Path 1253738" d="M307.69,295.8a1.15,1.15,0,1,1,1.15-1.15A1.151,1.151,0,0,1,307.69,295.8Z" transform="translate(-306.54 -293.5)"/>
              </g>
              <g id="Group_1204707" data-name="Group 1204707" transform="translate(0 48.31)">
                <path id="Path_1253739" data-name="Path 1253739" d="M72.667,382.3H25.2a1.15,1.15,0,1,1,0-2.3H72.667a4.253,4.253,0,0,0,4.248-4.248V370.8H3.3v4.954A4.253,4.253,0,0,0,7.549,380H16a1.15,1.15,0,1,1,0,2.3H7.549A6.556,6.556,0,0,1,1,375.754v-6.1a1.15,1.15,0,0,1,1.15-1.15H78.066a1.15,1.15,0,0,1,1.15,1.15v6.1A6.556,6.556,0,0,1,72.667,382.3Z" transform="translate(-1 -368.5)"/>
              </g>
              <g id="Group_1204708" data-name="Group 1204708" transform="translate(3.451 4.601)">
                <path id="Path_1253740" data-name="Path 1253740" d="M24.65,129.51a1.15,1.15,0,0,1-1.15-1.15V94.473A10.986,10.986,0,0,1,34.473,83.5H47.218a1.15,1.15,0,0,1,0,2.3H34.473A8.683,8.683,0,0,0,25.8,94.473v33.886a1.15,1.15,0,0,1-1.15,1.15Z" transform="translate(-23.5 -83.5)"/>
              </g>
              <g id="Group_1204709" data-name="Group 1204709" transform="translate(47.597 4.601)">
                <path id="Path_1253741" data-name="Path 1253741" d="M337.368,129.51a1.15,1.15,0,0,1-1.15-1.15V94.473a8.683,8.683,0,0,0-8.673-8.673H312.5a1.15,1.15,0,0,1,0-2.3h15.045a10.986,10.986,0,0,1,10.973,10.973v33.886A1.15,1.15,0,0,1,337.368,129.51Z" transform="translate(-311.35 -83.5)"/>
              </g>
              <g id="Group_1204710" data-name="Group 1204710" transform="translate(31.056 48.31)">
                <path id="Path_1253742" data-name="Path 1253742" d="M214.772,376.552h-6.441a4.837,4.837,0,0,1-4.831-4.831v-2.07a1.15,1.15,0,0,1,1.15-1.15h13.8a1.15,1.15,0,0,1,1.15,1.15v2.07A4.837,4.837,0,0,1,214.772,376.552ZM205.8,370.8v.92a2.533,2.533,0,0,0,2.531,2.531h6.441a2.533,2.533,0,0,0,2.531-2.531v-.92Z" transform="translate(-203.5 -368.5)"/>
              </g>
              <g id="Group_1204711" data-name="Group 1204711" transform="translate(66.714 29.906)">
                <path id="Path_1253743" data-name="Path 1253743" d="M437.15,269.2a1.15,1.15,0,0,1-1.15-1.15v-18.4a1.15,1.15,0,1,1,2.3,0v18.4A1.15,1.15,0,0,1,437.15,269.2Z" transform="translate(-436 -248.5)"/>
              </g>
              <g id="Group_1204712" data-name="Group 1204712" transform="translate(51.038 10.352)">
                <path id="Path_1253744" data-name="Path 1253744" d="M350.616,133.653a1.15,1.15,0,0,1-1.15-1.15v-5.851a3.355,3.355,0,0,0-3.351-3.351H334.94a1.15,1.15,0,1,1,0-2.3h11.174a5.658,5.658,0,0,1,5.651,5.652V132.5A1.15,1.15,0,0,1,350.616,133.653Z" transform="translate(-333.79 -121)"/>
              </g>
              <g id="Group_1204713" data-name="Group 1204713" transform="translate(9.202 10.352)">
                <path id="Path_1253745" data-name="Path 1253745" d="M62.15,161.258a1.15,1.15,0,0,1-1.15-1.15V126.652A5.658,5.658,0,0,1,66.652,121h8.874a1.15,1.15,0,1,1,0,2.3H66.652a3.355,3.355,0,0,0-3.351,3.351v33.457A1.15,1.15,0,0,1,62.15,161.258Z" transform="translate(-61 -121)"/>
              </g>
              <g id="Group_1204714" data-name="Group 1204714" transform="translate(21.855)">
                <path id="Path_1253746" data-name="Path 1253746" d="M143.5,69.6a16.1,16.1,0,1,1,30.517,7.19,1.15,1.15,0,1,1-2.058-1.027,13.805,13.805,0,1,0-10.489,7.515,1.15,1.15,0,1,1,.309,2.279A16.1,16.1,0,0,1,143.5,69.6Z" transform="translate(-143.5 -53.5)"/>
              </g>
              <g id="Group_1204715" data-name="Group 1204715" transform="translate(15.466 22.802)">
                <path id="Path_1253747" data-name="Path 1253747" d="M103.187,216.629a4.607,4.607,0,0,1,0-6.507l7.6-7.6a1.15,1.15,0,1,1,1.627,1.627l-7.6,7.6A2.3,2.3,0,1,0,108.066,215l7.6-7.6a1.15,1.15,0,1,1,1.627,1.627l-7.6,7.6A4.606,4.606,0,0,1,103.187,216.629Z" transform="translate(-101.841 -202.181)"/>
              </g>
              <g id="Group_1204716" data-name="Group 1204716" transform="translate(26.455 4.601)">
                <path id="Path_1253748" data-name="Path 1253748" d="M185,106.5a11.5,11.5,0,1,1,10.254-6.287,1.15,1.15,0,1,1-2.049-1.045,9.2,9.2,0,1,0-3.3,3.619,1.15,1.15,0,1,1,1.228,1.946A11.466,11.466,0,0,1,185,106.5Z" transform="translate(-173.5 -83.5)"/>
              </g>
              <g id="Group_1204717" data-name="Group 1204717" transform="translate(33.554 11.7)">
                <path id="Path_1253749" data-name="Path 1253749" d="M220.123,138.258a1.15,1.15,0,0,1,0-1.627l6.507-6.507a1.15,1.15,0,1,1,1.627,1.627l-6.507,6.507A1.151,1.151,0,0,1,220.123,138.258Z" transform="translate(-219.786 -129.788)"/>
              </g>
              <g id="Group_1204718" data-name="Group 1204718" transform="translate(33.554 11.7)">
                <path id="Path_1253750" data-name="Path 1253750" d="M226.63,138.258l-6.507-6.507a1.15,1.15,0,0,1,1.627-1.627l6.507,6.507a1.15,1.15,0,1,1-1.627,1.627Z" transform="translate(-219.786 -129.788)"/>
              </g>
              <g id="Group_1204719" data-name="Group 1204719" transform="translate(35.053 19.553)">
                <path id="Path_1253751" data-name="Path 1253751" d="M250.614,204.722h-16.2a4.846,4.846,0,0,1-4.2-7.27l8.1-14.033a4.846,4.846,0,0,1,8.394,0l8.1,14.033A4.846,4.846,0,0,1,250.614,204.722ZM240.307,184.57l-8.1,14.033a2.546,2.546,0,0,0,2.2,3.819h16.2a2.545,2.545,0,0,0,2.2-3.819l-8.1-14.033A2.545,2.545,0,0,0,240.307,184.57Z" transform="translate(-229.556 -180.995)"/>
              </g>
            </g>
          </g>
          <g id="Group_1204722" data-name="Group 1204722" transform="translate(66.714 25.305)">
            <circle id="Ellipse_12596" data-name="Ellipse 12596" cx="1" cy="1" r="1" transform="translate(0.286 -0.192)"/>
          </g>
          <g id="Group_1204723" data-name="Group 1204723" transform="translate(18.453 59.812)">
            <circle id="Ellipse_12597" data-name="Ellipse 12597" cx="1.15" cy="1.15" r="1.15"/>
          </g>
        </g>
      </g>
    </g>
  </g>
</svg>
