<svg xmlns="http://www.w3.org/2000/svg" width="76.345" height="76.344" viewBox="0 0 76.345 76.344">
  <g id="Group_1204914" data-name="Group 1204914" transform="translate(-604.051 -1339)">
    <g id="Group_1204700" data-name="Group 1204700" transform="translate(0)">
      <g id="Group_1204175" data-name="Group 1204175" transform="translate(-417.916 -1753.655)">
        <g id="Group_1187152" data-name="Group 1187152">
          <g id="Group_1185946" data-name="Group 1185946" transform="translate(-3.07)">
            <g id="Group_1184280" data-name="Group 1184280">
              <g id="Group_1182168" data-name="Group 1182168">
                <g id="Group_1178877" data-name="Group 1178877">
                  <g id="Group_1111311" data-name="Group 1111311">
                    <g id="Group_1098742" data-name="Group 1098742" transform="translate(1025.482 3093.101)">
                      <rect id="Rectangle_400898" data-name="Rectangle 400898" width="76.345" height="76.345" rx="38.172" transform="translate(-0.445 -0.445)" fill="#c1a1f0" opacity="0.859"/>
                      <rect id="Rectangle_400907" data-name="Rectangle 400907" width="76.345" height="76.345" rx="38.172" transform="translate(-0.446 -0.445)" fill="none"/>
                    </g>
                  </g>
                </g>
              </g>
            </g>
          </g>
        </g>
      </g>
    </g>
    <g id="tabla-de-base-de-datos" transform="translate(619.051 1354)">
      <g id="Group_1204912" data-name="Group 1204912" transform="translate(0.671 0.671)">
        <path id="Path_1254669" data-name="Path 1254669" d="M32.271,118.047H8.394a.894.894,0,0,1-.894-.894V88.894A.894.894,0,0,1,8.394,88H32.271a.894.894,0,0,1,.894.894v28.259A.894.894,0,0,1,32.271,118.047Z" transform="translate(-7.5 -80.801)" fill="#ecf9f9"/>
        <path id="Path_1254670" data-name="Path 1254670" d="M257.183,88H254.5a.894.894,0,0,1,.894.894v28.259a.894.894,0,0,1-.894.894h2.683a.894.894,0,0,0,.894-.894V88.894A.894.894,0,0,0,257.183,88Z" transform="translate(-232.412 -80.801)" fill="#daf1f4"/>
        <path id="Path_1254671" data-name="Path 1254671" d="M37.5,123.833v-5.476a.358.358,0,0,1,.358-.358H57.442a.358.358,0,0,1,.358.358v5.476a.358.358,0,0,1-.358.358H37.858A.358.358,0,0,1,37.5,123.833Z" transform="translate(-34.817 -108.118)" fill="#9d66d5"/>
        <path id="Path_1254672" data-name="Path 1254672" d="M233.183,118H230.5a.358.358,0,0,1,.358.358v5.476a.358.358,0,0,1-.358.358h2.683a.358.358,0,0,0,.358-.358v-5.476A.358.358,0,0,0,233.183,118Z" transform="translate(-210.558 -108.118)" fill="#8659b9"/>
        <path id="Path_1254673" data-name="Path 1254673" d="M37.5,336.008v-4.65a.358.358,0,0,1,.358-.358H46.04a.358.358,0,0,1,.358.358v4.65a.358.358,0,0,1-.358.358H37.858A.358.358,0,0,1,37.5,336.008Z" transform="translate(-34.817 -302.071)" fill="#b1e4f9"/>
        <path id="Path_1254674" data-name="Path 1254674" d="M105.683,331H103a.358.358,0,0,1,.358.358v4.65a.358.358,0,0,1-.358.358h2.683a.358.358,0,0,0,.358-.358v-4.65A.358.358,0,0,0,105.683,331Z" transform="translate(-94.46 -302.071)" fill="#90d8f9"/>
        <path id="Path_1254675" data-name="Path 1254675" d="M167,336.008v-4.65a.358.358,0,0,1,.358-.358h8a.358.358,0,0,1,.358.358v4.65a.358.358,0,0,1-.358.358h-8A.358.358,0,0,1,167,336.008Z" transform="translate(-152.736 -302.071)" fill="#b1e4f9"/>
        <path id="Path_1254676" data-name="Path 1254676" d="M233.183,331H230.5a.358.358,0,0,1,.358.358v4.65a.358.358,0,0,1-.358.358h2.683a.358.358,0,0,0,.358-.358v-4.65A.358.358,0,0,0,233.183,331Z" transform="translate(-210.558 -302.071)" fill="#90d8f9"/>
        <path id="Path_1254677" data-name="Path 1254677" d="M37.5,243.008v-4.65a.358.358,0,0,1,.358-.358H46.04a.358.358,0,0,1,.358.358v4.65a.358.358,0,0,1-.358.358H37.858A.358.358,0,0,1,37.5,243.008Z" transform="translate(-34.817 -217.387)" fill="#b1e4f9"/>
        <path id="Path_1254678" data-name="Path 1254678" d="M105.683,238H103a.358.358,0,0,1,.358.358v4.65a.358.358,0,0,1-.358.358h2.683a.358.358,0,0,0,.358-.358v-4.65A.358.358,0,0,0,105.683,238Z" transform="translate(-94.46 -217.387)" fill="#90d8f9"/>
        <path id="Path_1254679" data-name="Path 1254679" d="M167,243.008v-4.65a.358.358,0,0,1,.358-.358h8a.358.358,0,0,1,.358.358v4.65a.358.358,0,0,1-.358.358h-8A.358.358,0,0,1,167,243.008Z" transform="translate(-152.736 -217.387)" fill="#b1e4f9"/>
        <path id="Path_1254680" data-name="Path 1254680" d="M233.183,238H230.5a.358.358,0,0,1,.358.358v4.65a.358.358,0,0,1-.358.358h2.683a.358.358,0,0,0,.358-.358v-4.65A.358.358,0,0,0,233.183,238Z" transform="translate(-210.558 -217.387)" fill="#90d8f9"/>
        <path id="Path_1254681" data-name="Path 1254681" d="M394.337,18.231h-8.943a.894.894,0,0,1-.894-.894V8.394a.894.894,0,0,1,.894-.894h8.943a.894.894,0,0,1,.894.894v8.943A.894.894,0,0,1,394.337,18.231Z" transform="translate(-350.786 -7.5)" fill="#ffd064"/>
        <path id="Path_1254682" data-name="Path 1254682" d="M467.183,7.5H464.5a.894.894,0,0,1,.894.894v8.943a.894.894,0,0,1-.894.894h2.683a.894.894,0,0,0,.894-.894V8.394A.894.894,0,0,0,467.183,7.5Z" transform="translate(-423.632 -7.5)" fill="#ffc250"/>
        <path id="Path_1254683" data-name="Path 1254683" d="M394.337,206.731h-8.943a.894.894,0,0,1-.894-.894v-8.943a.894.894,0,0,1,.894-.894h8.943a.894.894,0,0,1,.894.894v8.943A.894.894,0,0,1,394.337,206.731Z" transform="translate(-350.786 -179.143)" fill="#aad540"/>
        <path id="Path_1254684" data-name="Path 1254684" d="M467.183,196H464.5a.894.894,0,0,1,.894.894v8.943a.894.894,0,0,1-.894.894h2.683a.894.894,0,0,0,.894-.894v-8.943A.894.894,0,0,0,467.183,196Z" transform="translate(-423.632 -179.143)" fill="#9dc63d"/>
        <path id="Path_1254685" data-name="Path 1254685" d="M394.337,395.231h-8.943a.894.894,0,0,1-.894-.894v-8.943a.894.894,0,0,1,.894-.894h8.943a.894.894,0,0,1,.894.894v8.943A.894.894,0,0,1,394.337,395.231Z" transform="translate(-350.786 -350.786)" fill="#b1e4f9"/>
        <path id="Path_1254686" data-name="Path 1254686" d="M467.183,384.5H464.5a.894.894,0,0,1,.894.894v8.943a.894.894,0,0,1-.894.894h2.683a.894.894,0,0,0,.894-.894v-8.943A.894.894,0,0,0,467.183,384.5Z" transform="translate(-423.632 -350.786)" fill="#90d8f9"/>
      </g>
      <g id="Group_1204913" data-name="Group 1204913">
        <path id="Path_1254687" data-name="Path 1254687" d="M51.641,111.528a1.03,1.03,0,0,0-1.028-1.028H31.028A1.03,1.03,0,0,0,30,111.528V117a1.03,1.03,0,0,0,1.028,1.028H50.613A1.03,1.03,0,0,0,51.641,117ZM50.3,116.691H31.341v-4.85H50.3Z" transform="translate(-27.317 -100.618)"/>
        <path id="Path_1254688" data-name="Path 1254688" d="M30,329.179a1.03,1.03,0,0,0,1.028,1.028h8.183a1.03,1.03,0,0,0,1.028-1.028v-4.65a1.03,1.03,0,0,0-1.028-1.028H31.028A1.03,1.03,0,0,0,30,324.528Zm1.341-4.337H38.9v4.024H31.341Z" transform="translate(-27.317 -294.571)"/>
        <path id="Path_1254689" data-name="Path 1254689" d="M168.532,323.5h-8a1.03,1.03,0,0,0-1.028,1.028v4.65a1.03,1.03,0,0,0,1.028,1.028h8a1.03,1.03,0,0,0,1.028-1.028v-4.65A1.03,1.03,0,0,0,168.532,323.5Zm-.313,5.366h-7.378v-4.024h7.378Z" transform="translate(-145.236 -294.571)"/>
        <path id="Path_1254690" data-name="Path 1254690" d="M30,236.179a1.03,1.03,0,0,0,1.028,1.028h8.183a1.03,1.03,0,0,0,1.028-1.028v-4.65a1.03,1.03,0,0,0-1.028-1.028H31.028A1.03,1.03,0,0,0,30,231.528Zm1.341-4.337H38.9v4.024H31.341Z" transform="translate(-27.317 -209.887)"/>
        <path id="Path_1254691" data-name="Path 1254691" d="M169.56,231.528a1.03,1.03,0,0,0-1.028-1.028h-8a1.03,1.03,0,0,0-1.028,1.028v4.65a1.03,1.03,0,0,0,1.028,1.028h8a1.03,1.03,0,0,0,1.028-1.028Zm-1.341,4.337h-7.378v-4.024h7.378Z" transform="translate(-145.236 -209.887)"/>
        <path id="Path_1254692" data-name="Path 1254692" d="M35.279,12.073h8.943a1.567,1.567,0,0,0,1.565-1.565V1.565A1.567,1.567,0,0,0,44.221,0H35.279a1.567,1.567,0,0,0-1.565,1.565v3.8H31.523A5.025,5.025,0,0,0,28,6.792L26.79,7.972A1.564,1.564,0,0,0,25.442,7.2H1.565A1.567,1.567,0,0,0,0,8.764v2.187a.671.671,0,1,0,1.341,0V8.764a.224.224,0,0,1,.224-.224H25.442a.224.224,0,0,1,.224.224V37.023a.224.224,0,0,1-.224.224H1.565a.224.224,0,0,1-.224-.224V14.031a.671.671,0,0,0-1.341,0V37.023a1.567,1.567,0,0,0,1.565,1.565H25.442a1.56,1.56,0,0,0,1.174-.533l1.5,1.225a5.064,5.064,0,0,0,3.2,1.142h2.4v3.8a1.567,1.567,0,0,0,1.565,1.565h3.432a.671.671,0,1,0,0-1.341H35.279a.224.224,0,0,1-.224-.224V35.279a.224.224,0,0,1,.224-.224h8.943a.224.224,0,0,1,.224.224v8.943a.224.224,0,0,1-.224.224H41.892a.671.671,0,0,0,0,1.341h2.329a1.567,1.567,0,0,0,1.565-1.565V35.279a1.567,1.567,0,0,0-1.565-1.565H35.279a1.567,1.567,0,0,0-1.565,1.565v3.8h-2.4a3.72,3.72,0,0,1-2.349-.839l-1.954-1.6V23.564h6.707v3.8a1.567,1.567,0,0,0,1.565,1.565h8.943a1.567,1.567,0,0,0,1.565-1.565V18.422a1.567,1.567,0,0,0-1.565-1.565H35.279a1.567,1.567,0,0,0-1.565,1.565v3.8H27.007V9.631l1.933-1.876a3.69,3.69,0,0,1,2.584-1.048h2.191v3.8A1.567,1.567,0,0,0,35.279,12.073Zm-.224,6.349a.224.224,0,0,1,.224-.224h8.943a.224.224,0,0,1,.224.224v8.943a.224.224,0,0,1-.224.224H35.279a.224.224,0,0,1-.224-.224Zm0-16.857a.224.224,0,0,1,.224-.224h8.943a.224.224,0,0,1,.224.224v8.943a.224.224,0,0,1-.224.224H35.279a.224.224,0,0,1-.224-.224Z"/>
        <path id="Path_1254693" data-name="Path 1254693" d="M409.643,31.341h2.2a.671.671,0,0,0,0-1.341h-2.2a.671.671,0,1,0,0,1.341Z" transform="translate(-372.399 -27.317)"/>
        <path id="Path_1254694" data-name="Path 1254694" d="M409.643,61.341h5.366a.671.671,0,1,0,0-1.341h-5.366a.671.671,0,1,0,0,1.341Z" transform="translate(-372.399 -54.634)"/>
        <path id="Path_1254695" data-name="Path 1254695" d="M409.643,91.341h3.89a.671.671,0,0,0,0-1.341h-3.89a.671.671,0,1,0,0,1.341Z" transform="translate(-372.399 -81.952)"/>
        <path id="Path_1254696" data-name="Path 1254696" d="M409.643,219.841h2.2a.671.671,0,0,0,0-1.341h-2.2a.671.671,0,1,0,0,1.341Z" transform="translate(-372.399 -198.96)"/>
        <path id="Path_1254697" data-name="Path 1254697" d="M409.643,249.841h5.366a.671.671,0,1,0,0-1.341h-5.366a.671.671,0,1,0,0,1.341Z" transform="translate(-372.399 -226.278)"/>
        <path id="Path_1254698" data-name="Path 1254698" d="M409.643,279.841h3.89a.671.671,0,0,0,0-1.341h-3.89a.671.671,0,1,0,0,1.341Z" transform="translate(-372.399 -253.595)"/>
        <path id="Path_1254699" data-name="Path 1254699" d="M405.227,407.619h2.2a.671.671,0,0,0,0-1.341h-2.2a.671.671,0,0,0,0,1.341Z" transform="translate(-368.378 -369.946)"/>
        <path id="Path_1254700" data-name="Path 1254700" d="M405.227,437.619h5.366a.671.671,0,1,0,0-1.341h-5.366a.671.671,0,1,0,0,1.341Z" transform="translate(-368.378 -397.263)"/>
        <path id="Path_1254701" data-name="Path 1254701" d="M409.117,466.278h-3.89a.671.671,0,1,0,0,1.341h3.89a.671.671,0,1,0,0-1.341Z" transform="translate(-368.378 -424.58)"/>
      </g>
    </g>
  </g>
</svg>
