<svg xmlns="http://www.w3.org/2000/svg" xmlns:xlink="http://www.w3.org/1999/xlink" width="115" height="115" viewBox="0 0 115 115">
  <defs>
    <clipPath id="clip-path">
      <rect id="Rectangle_412035" data-name="Rectangle 412035" width="115" height="115" transform="translate(800.781 1954)" fill="#e8bad8" opacity="0.41"/>
    </clipPath>
  </defs>
  <g id="Group_1204619" data-name="Group 1204619" transform="translate(6801 10291.458)">
    <g id="Mask_Group_1099374" data-name="Mask Group 1099374" transform="translate(-7601.781 -12245.458)" clip-path="url(#clip-path)">
      <g id="Group_1204612" data-name="Group 1204612" transform="translate(799.781 1960.273)">
        <g id="Group_1204611" data-name="Group 1204611" transform="translate(1)">
          <ellipse id="Ellipse_12532" data-name="Ellipse 12532" cx="28.658" cy="28.658" rx="28.658" ry="28.658" transform="translate(56.527 44.289)" fill="#ffc94a"/>
          <ellipse id="Ellipse_12533" data-name="Ellipse 12533" cx="20.842" cy="20.842" rx="20.842" ry="20.842" fill="#ffc94a"/>
        </g>
      </g>
    </g>
    <g id="coding_5845724" transform="translate(-6794.87 -10277.742)">
      <path id="Path_1253261" data-name="Path 1253261" d="M49.566,15.75a9.245,9.245,0,0,0-8.952,11.514,9.236,9.236,0,0,0-9.213,14.1,9.236,9.236,0,0,0,0,18.031,9.238,9.238,0,0,0,9.213,14.1,9.238,9.238,0,0,0,17.032,6.756V20.509a9.237,9.237,0,0,0-8.08-4.759Z" transform="translate(-7.066 -6.632)" fill="#57a4ff"/>
      <g id="Group_1204618" data-name="Group 1204618" transform="translate(15.913 8)">
        <path id="Path_1253262" data-name="Path 1253262" d="M85.185,9.154H56.327A1.154,1.154,0,0,0,55.172,8H50.555A1.154,1.154,0,0,0,49.4,9.154v1.5a10.389,10.389,0,0,0-17.326,7.733c0,.341.016.68.049,1.014h-.045A10.392,10.392,0,0,0,22.61,34.072a10.391,10.391,0,0,0,0,19.424,10.392,10.392,0,0,0,9.468,14.669h.045c-.033.335-.049.674-.049,1.014A10.389,10.389,0,0,0,49.4,76.912v1.5a1.154,1.154,0,0,0,1.154,1.154h4.617a1.154,1.154,0,0,0,1.154-1.154H85.185a1.154,1.154,0,0,0,1.154-1.154V10.309A1.154,1.154,0,0,0,85.185,9.154ZM49.389,30a9.608,9.608,0,0,0-6.914-3.534,1.154,1.154,0,1,0-.007,2.309c.2,0,4.881.131,6.922,5.932V73.345a8.085,8.085,0,0,1-14.759-6.16,1.154,1.154,0,0,0-1.118-1.44,1.069,1.069,0,0,0-.179.014,8.21,8.21,0,0,1-1.254.1,8.08,8.08,0,0,1-6.808-12.434,1.155,1.155,0,0,0-.724-1.75,8.082,8.082,0,0,1,0-15.777,1.155,1.155,0,0,0,.724-1.75,8.08,8.08,0,0,1,6.808-12.434,8.211,8.211,0,0,1,1.254.1,1.153,1.153,0,0,0,1.3-1.426,8.083,8.083,0,0,1,14.759-6.16Zm4.629,47.257H51.709V10.309h2.309ZM84.03,76.105h-27.7V11.463h27.7Z" transform="translate(-15.913 -8)" fill="#004fac"/>
        <path id="Path_1253263" data-name="Path 1253263" d="M314.5,72.72a1.154,1.154,0,1,0,1.921-1.281l-1.882-2.823,1.882-2.823a1.154,1.154,0,1,0-1.921-1.281l-2.309,3.463a1.154,1.154,0,0,0,0,1.281Z" transform="translate(-269.278 -55.919)" fill="#004fac"/>
        <path id="Path_1253264" data-name="Path 1253264" d="M392.707,73.04a1.154,1.154,0,0,0,1.6-.32l2.309-3.463a1.154,1.154,0,0,0,0-1.281l-2.309-3.463a1.154,1.154,0,0,0-1.921,1.281l1.882,2.823-1.882,2.823a1.154,1.154,0,0,0,.32,1.6Z" transform="translate(-337.899 -55.919)" fill="#004fac"/>
        <path id="Path_1253265" data-name="Path 1253265" d="M352.787,73.173a1.153,1.153,0,0,0,1.46-.73l2.309-6.926a1.154,1.154,0,1,0-2.19-.73l-2.309,6.926A1.154,1.154,0,0,0,352.787,73.173Z" transform="translate(-303.504 -55.917)" fill="#004fac"/>
        <path id="Path_1253266" data-name="Path 1253266" d="M312,145.154a1.154,1.154,0,0,0,1.154,1.154h20.778a1.154,1.154,0,0,0,0-2.309H313.154A1.154,1.154,0,0,0,312,145.154Z" transform="translate(-269.277 -124.377)" fill="#004fac"/>
        <path id="Path_1253267" data-name="Path 1253267" d="M313.154,170.309h15.006a1.154,1.154,0,1,0,0-2.309H313.154a1.154,1.154,0,1,0,0,2.309Z" transform="translate(-269.277 -144.914)" fill="#004fac"/>
        <path id="Path_1253268" data-name="Path 1253268" d="M333.932,192H313.154a1.154,1.154,0,1,0,0,2.309h20.778a1.154,1.154,0,1,0,0-2.309Z" transform="translate(-269.277 -165.451)" fill="#004fac"/>
        <path id="Path_1253269" data-name="Path 1253269" d="M313.154,218.309h10.389a1.154,1.154,0,1,0,0-2.309H313.154a1.154,1.154,0,1,0,0,2.309Z" transform="translate(-269.277 -185.988)" fill="#004fac"/>
        <path id="Path_1253270" data-name="Path 1253270" d="M333.932,248H313.154a1.154,1.154,0,0,0,0,2.309h20.778a1.154,1.154,0,0,0,0-2.309Z" transform="translate(-269.277 -213.37)" fill="#004fac"/>
        <path id="Path_1253271" data-name="Path 1253271" d="M333.932,272H313.154a1.154,1.154,0,0,0,0,2.309h20.778a1.154,1.154,0,0,0,0-2.309Z" transform="translate(-269.277 -233.907)" fill="#004fac"/>
        <path id="Path_1253272" data-name="Path 1253272" d="M313.154,298.309h15.006a1.154,1.154,0,0,0,0-2.309H313.154a1.154,1.154,0,0,0,0,2.309Z" transform="translate(-269.277 -254.444)" fill="#004fac"/>
        <path id="Path_1253273" data-name="Path 1253273" d="M333.932,384H313.154a1.154,1.154,0,1,0,0,2.309h20.778a1.154,1.154,0,1,0,0-2.309Z" transform="translate(-269.277 -329.747)" fill="#004fac"/>
        <path id="Path_1253274" data-name="Path 1253274" d="M328.161,408H313.154a1.154,1.154,0,1,0,0,2.309h15.006a1.154,1.154,0,1,0,0-2.309Z" transform="translate(-269.277 -350.284)" fill="#004fac"/>
        <path id="Path_1253275" data-name="Path 1253275" d="M333.932,328H313.154a1.154,1.154,0,0,0,0,2.309h20.778a1.154,1.154,0,0,0,0-2.309Z" transform="translate(-269.277 -281.827)" fill="#004fac"/>
        <path id="Path_1253276" data-name="Path 1253276" d="M313.154,354.309h15.006a1.154,1.154,0,1,0,0-2.309H313.154a1.154,1.154,0,1,0,0,2.309Z" transform="translate(-269.277 -302.364)" fill="#004fac"/>
        <path id="Path_1253277" data-name="Path 1253277" d="M138.9,226.4c-3.153-.7-5.332-2.019-6.475-3.918a7.062,7.062,0,0,1-.744-5.031,1.154,1.154,0,0,0-2.221-.63,9.31,9.31,0,0,0,.966,6.816,8.677,8.677,0,0,0,.674.97l-.1.045a4.6,4.6,0,0,0-2.464,2.411c-.528,1.381-.155,2.935,1.109,4.619A1.154,1.154,0,0,0,131.5,230.3c-.519-.692-1.079-1.67-.8-2.407.323-.854,1.678-1.356,2.285-1.511a14.678,14.678,0,0,0,5.421,2.274,1.154,1.154,0,1,0,.5-2.254Z" transform="translate(-112.091 -185.972)" fill="#004fac"/>
      </g>
    </g>
  </g>
</svg>
