<svg xmlns="http://www.w3.org/2000/svg" xmlns:xlink="http://www.w3.org/1999/xlink" width="115" height="115" viewBox="0 0 115 115">
  <defs>
    <clipPath id="clip-path">
      <rect id="Rectangle_412036" data-name="Rectangle 412036" width="115" height="115" transform="translate(800.781 1954)" fill="#e8bad8" opacity="0.41"/>
    </clipPath>
    <clipPath id="clip-path-2">
      <path id="path3529" d="M0-682.665H76.563V-606.1H0Z" transform="translate(0 682.665)"/>
    </clipPath>
  </defs>
  <g id="Group_1204620" data-name="Group 1204620" transform="translate(6464 10291)">
    <g id="Mask_Group_1099375" data-name="Mask Group 1099375" transform="translate(-7264.781 -12245)" clip-path="url(#clip-path)">
      <g id="Group_1204614" data-name="Group 1204614" transform="translate(799.781 1960.273)">
        <g id="Group_1204613" data-name="Group 1204613" transform="translate(1)">
          <ellipse id="Ellipse_12534" data-name="Ellipse 12534" cx="28.658" cy="28.658" rx="28.658" ry="28.658" transform="translate(56.527 44.289)" fill="#ffc94a"/>
          <ellipse id="Ellipse_12535" data-name="Ellipse 12535" cx="20.842" cy="20.842" rx="20.842" ry="20.842" fill="#ffc94a"/>
        </g>
      </g>
    </g>
    <g id="g3519" transform="translate(-6445 -9589.335)">
      <g id="g3521" transform="translate(27.539 -625.933)">
        <path id="path3523" d="M-159.766,0h-18.88l-1.3,8.739h21.484Z" transform="translate(179.948)" fill="#495560"/>
      </g>
      <g id="g3525" transform="translate(0 -682.665)">
        <g id="g3527" transform="translate(0 0)" clip-path="url(#clip-path-2)">
          <g id="g3533" transform="translate(22.168 65.47)">
            <path id="path3535" d="M-240.4-46.721H-268.9a1.859,1.859,0,0,1-1.784-2.384l.259-.881a3.674,3.674,0,0,1,3.525-2.637H-242.4a3.674,3.674,0,0,1,3.525,2.637l.259.881a1.859,1.859,0,0,1-1.784,2.384" transform="translate(270.763 52.623)" fill="#c7c7c7"/>
          </g>
          <g id="g3537" transform="translate(22.168 65.47)">
            <path id="path3539" d="M-107.69,0h-9.742a3.674,3.674,0,0,0-3.525,2.637l-.259.881A1.859,1.859,0,0,0-119.433,5.9h13.2A6.791,6.791,0,0,1-107.69,0" transform="translate(121.293)" fill="#98a5b3"/>
          </g>
          <g id="g3541" transform="translate(1.121 5.19)">
            <path id="path3543" d="M-518.173-408.025h-56.591a8.864,8.864,0,0,1-8.864-8.864V-450.7a8.864,8.864,0,0,1,8.864-8.864h56.591a8.864,8.864,0,0,1,8.864,8.864v33.813a8.864,8.864,0,0,1-8.864,8.864" transform="translate(583.628 459.567)" fill="#495560"/>
          </g>
          <g id="g3545" transform="translate(1.121 5.19)">
            <path id="path3547" d="M-190.018,0h-15.139a8.864,8.864,0,0,0-8.864,8.864V42.677a8.864,8.864,0,0,0,8.864,8.864h21.833c-8.426-8.818-12.134-33.57-6.694-51.541" transform="translate(214.021)" fill="#333941"/>
          </g>
          <g id="g3549" transform="translate(7.184 11.253)">
            <path id="path3551" d="M0-281.007v-31.577A3.919,3.919,0,0,1,3.919-316.5H58.274a3.919,3.919,0,0,1,3.919,3.919v31.577a3.919,3.919,0,0,1-3.919,3.919H3.919A3.919,3.919,0,0,1,0-281.007" transform="translate(0 316.503)" fill="#faef81"/>
          </g>
          <g id="g3553" transform="translate(7.184 11.253)">
            <path id="path3555" d="M-163.281-312.033c-4.725-9.822-6.643-25.719-4.139-39.416h-12.567a3.919,3.919,0,0,0-3.919,3.919v31.577a3.919,3.919,0,0,0,3.919,3.919Z" transform="translate(183.906 351.448)" fill="#fad271"/>
          </g>
          <g id="g3557" transform="translate(38.281 11.253)">
            <path id="path3559" d="M-215.151,0h-27.178V39.416h27.178a3.919,3.919,0,0,0,3.919-3.919V3.919A3.919,3.919,0,0,0-215.151,0" transform="translate(242.329)" fill="#333941"/>
          </g>
          <g id="g3561" transform="translate(1.122 45.387)">
            <path id="path3563" d="M0,0V2.48a8.864,8.864,0,0,0,8.864,8.864H65.455A8.864,8.864,0,0,0,74.319,2.48V0Z" fill="#c7c7c7"/>
          </g>
          <g id="g3565" transform="translate(1.122 45.387)">
            <path id="path3567" d="M0,0V2.48a8.864,8.864,0,0,0,8.864,8.864H30.7C28.217,8.75,26.147,4.776,24.6,0Z" fill="#98a5b3"/>
          </g>
          <g id="g3569" transform="translate(35.04 47.819)">
            <path id="path3571" d="M-51.313-25.656a3.241,3.241,0,0,1-3.241,3.241,3.241,3.241,0,0,1-3.241-3.241A3.241,3.241,0,0,1-54.554-28.9a3.241,3.241,0,0,1,3.241,3.241" transform="translate(57.795 28.897)" fill="#fff"/>
          </g>
          <g id="g3573" transform="translate(57.037 31.314)">
            <path id="path3575" d="M-4.421-7.757H-8.878A1.122,1.122,0,0,1-10-8.878,1.122,1.122,0,0,1-8.878-10h4.458A1.122,1.122,0,0,1-3.3-8.878,1.122,1.122,0,0,1-4.421-7.757Z" transform="translate(10 10)" fill="#fff"/>
          </g>
          <g id="g3577" transform="translate(43.921 31.314)">
            <path id="path3579" d="M.215-7.757H-8.878A1.122,1.122,0,0,1-10-8.878,1.122,1.122,0,0,1-8.878-10H.215A1.122,1.122,0,0,1,1.336-8.878,1.122,1.122,0,0,1,.215-7.757Z" transform="translate(10 10)" fill="#84dfff"/>
          </g>
          <g id="g3581" transform="translate(52.001 35.393)">
            <path id="path3583" d="M-3.332-7.757H-8.878A1.122,1.122,0,0,1-10-8.878,1.122,1.122,0,0,1-8.878-10h5.546A1.122,1.122,0,0,1-2.21-8.878,1.122,1.122,0,0,1-3.332-7.757Z" transform="translate(10 10)" fill="#84dfff"/>
          </g>
          <g id="g3585" transform="translate(43.921 35.393)">
            <path id="path3587" d="M-4.821-7.757H-8.878A1.122,1.122,0,0,1-10-8.878,1.122,1.122,0,0,1-8.878-10h4.057A1.122,1.122,0,0,1-3.7-8.878,1.122,1.122,0,0,1-4.821-7.757Z" transform="translate(10 10)" fill="#fff"/>
          </g>
          <g id="g3589" transform="translate(51.719 27.236)">
            <path id="path3591" d="M-.65-7.757H-8.878A1.122,1.122,0,0,1-10-8.878,1.122,1.122,0,0,1-8.878-10H-.65A1.122,1.122,0,0,1,.472-8.878,1.122,1.122,0,0,1-.65-7.757Z" transform="translate(10 10)" fill="#55d57b"/>
          </g>
          <g id="g3593" transform="translate(43.921 27.236)">
            <path id="path3595" d="M-5.1-7.757H-8.878A1.122,1.122,0,0,1-10-8.878,1.122,1.122,0,0,1-8.878-10H-5.1A1.122,1.122,0,0,1-3.982-8.878,1.122,1.122,0,0,1-5.1-7.757Z" transform="translate(10 10)" fill="#ff8aa0"/>
          </g>
          <g id="g3597" transform="translate(56.787 23.157)">
            <path id="path3599" d="M-4.171-7.757H-8.878A1.122,1.122,0,0,1-10-8.878,1.122,1.122,0,0,1-8.878-10h4.708A1.122,1.122,0,0,1-3.049-8.878,1.122,1.122,0,0,1-4.171-7.757Z" transform="translate(10 10)" fill="#ff8aa0"/>
          </g>
          <g id="g3601" transform="translate(43.921 23.157)">
            <path id="path3603" d="M-.035-7.757H-8.878A1.122,1.122,0,0,1-10-8.878,1.122,1.122,0,0,1-8.878-10H-.035A1.122,1.122,0,0,1,1.086-8.878,1.122,1.122,0,0,1-.035-7.757Z" transform="translate(10 10)" fill="#fff"/>
          </g>
          <g id="g3605" transform="translate(52.001 19.079)">
            <path id="path3607" d="M-3.866-7.757H-8.878A1.122,1.122,0,0,1-10-8.878,1.122,1.122,0,0,1-8.878-10h5.013A1.122,1.122,0,0,1-2.744-8.878,1.122,1.122,0,0,1-3.866-7.757Z" transform="translate(10 10)" fill="#55d57b"/>
          </g>
          <g id="g3609" transform="translate(43.921 19.079)">
            <path id="path3611" d="M-4.821-7.757H-8.878A1.122,1.122,0,0,1-10-8.878,1.122,1.122,0,0,1-8.878-10h4.057A1.122,1.122,0,0,1-3.7-8.878,1.122,1.122,0,0,1-4.821-7.757Z" transform="translate(10 10)" fill="#84dfff"/>
          </g>
          <g id="g3613" transform="translate(6.063 10.132)">
            <path id="path3615" d="M53.315-277.977a1.122,1.122,0,0,1-1.122-1.122v-30.215a2.8,2.8,0,0,0-2.8-2.8H-4.959a2.8,2.8,0,0,0-2.8,2.8V-279.1a1.122,1.122,0,0,1-1.122,1.122A1.122,1.122,0,0,1-10-279.1v-30.215a5.046,5.046,0,0,1,5.041-5.041H49.4a5.046,5.046,0,0,1,5.041,5.041V-279.1A1.122,1.122,0,0,1,53.315-277.977Z" transform="translate(10 314.354)"/>
          </g>
          <g id="g3617" transform="translate(0 4.069)">
            <path id="path3619" d="M-447.6,43.028a1.117,1.117,0,0,1-.454-.1,10,10,0,0,1-5.941-9.132V-.014A10,10,0,0,1-444.005-10h40.93a1.122,1.122,0,0,1,1.122,1.122,1.122,1.122,0,0,1-1.122,1.122h-40.93a7.751,7.751,0,0,0-7.743,7.743V33.8a7.753,7.753,0,0,0,4.608,7.082,1.122,1.122,0,0,1,.571,1.48A1.122,1.122,0,0,1-447.6,43.028Z" transform="translate(453.991 10)"/>
          </g>
          <g id="g3621" transform="translate(10.506 4.069)">
            <path id="path3623" d="M46.071-415.782H-8.878A1.122,1.122,0,0,1-10-416.9a1.122,1.122,0,0,1,1.122-1.122H46.071a7.751,7.751,0,0,0,7.743-7.743v-33.813a7.751,7.751,0,0,0-7.743-7.743H36.053a1.122,1.122,0,0,1-1.122-1.122,1.122,1.122,0,0,1,1.122-1.122H46.071a10,10,0,0,1,9.986,9.986v33.813A10,10,0,0,1,46.071-415.782Z" transform="translate(10 469.567)"/>
          </g>
          <g id="g3625" transform="translate(0 44.266)">
            <path id="path3627" d="M65.441-7.757H-8.879A1.122,1.122,0,0,1-10-8.878,1.122,1.122,0,0,1-8.879-10H65.441a1.122,1.122,0,0,1,1.122,1.122A1.122,1.122,0,0,1,65.441-7.757Z" transform="translate(10 10)"/>
          </g>
          <g id="g3629" transform="translate(26.418 55.61)">
            <path id="path3631" d="M-8.878-76.937a1.13,1.13,0,0,1-.167-.012,1.122,1.122,0,0,1-.944-1.275l1.3-8.739a1.122,1.122,0,0,1,1.275-.944,1.122,1.122,0,0,1,.944,1.275l-1.3,8.739A1.122,1.122,0,0,1-8.878-76.937Z" transform="translate(10.001 87.918)"/>
          </g>
          <g id="g3633" transform="translate(46.599 55.61)">
            <path id="path3635" d="M-7.579.981A1.122,1.122,0,0,1-8.687.024l-1.3-8.739a1.122,1.122,0,0,1,.944-1.275,1.122,1.122,0,0,1,1.275.944l1.3,8.739A1.122,1.122,0,0,1-7.412.968,1.131,1.131,0,0,1-7.579.981Z" transform="translate(10.001 10.001)"/>
          </g>
          <g id="g3637" transform="translate(21.045 64.349)">
            <path id="path3639" d="M4.891-54.478H-23.615A2.955,2.955,0,0,1-26-55.673a2.955,2.955,0,0,1-.473-2.627l.259-.881a4.822,4.822,0,0,1,4.6-3.442H2.891a4.822,4.822,0,0,1,4.6,3.442l.259.88a2.955,2.955,0,0,1-.473,2.627A2.955,2.955,0,0,1,4.891-54.478Zm-26.506-5.9a2.567,2.567,0,0,0-2.449,1.832l-.259.881a.731.731,0,0,0,.117.65.724.724,0,0,0,.591.3H4.891a.724.724,0,0,0,.591-.3.732.732,0,0,0,.117-.65l-.259-.881a2.567,2.567,0,0,0-2.449-1.832Z" transform="translate(26.598 62.623)"/>
          </g>
          <g id="g3641" transform="translate(12.065 22.523)">
            <path id="path3643" d="M-45.46,1.485a1.118,1.118,0,0,1-.793-.328l-4.621-4.621a1.122,1.122,0,0,1,0-1.586l4.621-4.621a1.122,1.122,0,0,1,1.586,0,1.122,1.122,0,0,1,0,1.586l-3.828,3.828,3.828,3.828a1.122,1.122,0,0,1,0,1.586A1.118,1.118,0,0,1-45.46,1.485Z" transform="translate(51.203 10)"/>
          </g>
          <g id="g3645" transform="translate(26.537 22.523)">
            <path id="path3647" d="M-8.878,1.485a1.118,1.118,0,0,1-.793-.328,1.122,1.122,0,0,1,0-1.586l3.828-3.828L-9.671-8.085a1.122,1.122,0,0,1,0-1.586,1.122,1.122,0,0,1,1.586,0l4.621,4.621a1.122,1.122,0,0,1,0,1.586L-8.085,1.157A1.118,1.118,0,0,1-8.878,1.485Z" transform="translate(10 10)"/>
          </g>
          <g id="g3649" transform="translate(19.016 20.013)">
            <path id="path3651" d="M-8.881-120.657a1.119,1.119,0,0,1-.383-.068,1.122,1.122,0,0,1-.67-1.437l5.191-14.261a1.122,1.122,0,0,1,1.437-.67,1.122,1.122,0,0,1,.67,1.437L-7.827-121.4A1.122,1.122,0,0,1-8.881-120.657Z" transform="translate(10.003 137.162)"/>
          </g>
        </g>
      </g>
    </g>
  </g>
</svg>
