<svg xmlns="http://www.w3.org/2000/svg" xmlns:xlink="http://www.w3.org/1999/xlink" width="115" height="115" viewBox="0 0 115 115">
  <defs>
    <clipPath id="clip-path">
      <rect id="Rectangle_411806" data-name="Rectangle 411806" width="115" height="115" transform="translate(800.781 1954)" fill="#e8bad8" opacity="0.41"/>
    </clipPath>
  </defs>
  <g id="Group_1204696" data-name="Group 1204696" transform="translate(3521 7967)">
    <g id="Mask_Group_1099318" data-name="Mask Group 1099318" transform="translate(-4321.781 -9921)" clip-path="url(#clip-path)">
      <g id="Group_1204163" data-name="Group 1204163" transform="translate(799.781 1960.273)">
        <g id="Group_1204150" data-name="Group 1204150" transform="translate(1)">
          <ellipse id="Ellipse_12440" data-name="Ellipse 12440" cx="28.658" cy="28.658" rx="28.658" ry="28.658" transform="translate(56.527 44.289)" fill="#ffc94a"/>
          <ellipse id="Ellipse_12441" data-name="Ellipse 12441" cx="20.842" cy="20.842" rx="20.842" ry="20.842" fill="#ffc94a"/>
        </g>
      </g>
    </g>
    <g id="coding-setting-application-computer-currency" transform="translate(-3500.998 -7948)">
      <rect id="Rectangle_412045" data-name="Rectangle 412045" width="70" height="46" rx="2" transform="translate(3.358 3.359)" fill="#46f8ff"/>
      <path id="Path_1253544" data-name="Path 1253544" d="M72.947,5.412v41a2.412,2.412,0,0,1-2.412,2.412H5.412A2.412,2.412,0,0,1,3,46.416v-3.7H67.352V3h3.184A2.412,2.412,0,0,1,72.947,5.412Z" transform="translate(0.207 0.206)" fill="#00d7df"/>
      <path id="Path_1253545" data-name="Path 1253545" d="M63.3,62.854H3L10.236,52H56.064Z" transform="translate(0.207 10.299)" fill="#c6c5ca"/>
      <path id="Path_1253546" data-name="Path 1253546" d="M63.884,62.854H54.236L47,52h9.648Z" transform="translate(9.27 10.299)" fill="#c6c5ca"/>
      <path id="Path_1253547" data-name="Path 1253547" d="M63.3,61.824H3L6.22,57H60.079Z" transform="translate(0.207 11.329)" fill="#898890"/>
      <path id="Path_1253548" data-name="Path 1253548" d="M63.2,62.854H53.55L50.33,58.03h5.632L51.946,52h4.016Z" transform="translate(9.956 10.299)" fill="#898890"/>
      <path id="Path_1253549" data-name="Path 1253549" d="M27.79,41H37.944a20.451,20.451,0,0,0-1.459,8.442,21.683,21.683,0,0,0,.784,4.824h-8.8a21.683,21.683,0,0,0,.784-4.824A20.451,20.451,0,0,0,27.79,41Z" transform="translate(5.313 8.034)" fill="#57a4ff"/>
      <path id="Path_1253550" data-name="Path 1253550" d="M29.068,45.824A20.743,20.743,0,0,0,27.79,41H37.944a20.743,20.743,0,0,0-1.278,4.824Z" transform="translate(5.313 8.034)" fill="#006df0"/>
      <path id="Path_1253551" data-name="Path 1253551" d="M16,7H54.592V32.326H16Z" transform="translate(2.884 1.03)" fill="#ebe5dd"/>
      <path id="Path_1253552" data-name="Path 1253552" d="M54.592,7V32.326H16V28.708H50.974V7Z" transform="translate(2.884 1.03)" fill="#c0ab91"/>
      <path id="Path_1253553" data-name="Path 1253553" d="M44.708,32.266l-3.136.784,1.664,2.774-3.413,3.413L37.05,37.572l-.422,1.664v.012l-.362,1.459H31.442l-.784-3.136-2.774,1.664-3.413-3.413,1.664-2.774L23,32.266V27.442l3.136-.784-1.664-2.774,3.413-3.413,2.774,1.664L31.442,19h4.824l.784,3.136,2.774-1.664,3.413,3.413-1.664,2.774,3.136.784Z" transform="translate(4.326 3.502)" fill="#c0ab91"/>
      <path id="Path_1253554" data-name="Path 1253554" d="M44.325,31.8l-3.136.784,1.664,2.774L39.44,38.767,36.667,37.1l-.422,1.664v.012l-.362,1.459H31.059L30.275,37.1,27.5,38.767,24.86,36.126a23.718,23.718,0,0,0,11.023-6.741,23.353,23.353,0,0,0,4.836-8.1l2.135,2.135-1.664,2.774,3.136.784Z" transform="translate(4.709 3.971)" fill="#a78966"/>
      <ellipse id="Ellipse_12572" data-name="Ellipse 12572" cx="3.5" cy="4" rx="3.5" ry="4" transform="translate(34.358 29.359)" fill="#ffde55"/>
      <path id="Path_1253555" data-name="Path 1253555" d="M32.824,24a4.824,4.824,0,1,0,4.824,4.824A4.824,4.824,0,0,0,32.824,24Zm0,7.236a2.412,2.412,0,1,1,2.412-2.412A2.412,2.412,0,0,1,32.824,31.236Z" transform="translate(5.356 4.532)"/>
      <path id="Path_1253556" data-name="Path 1253556" d="M74.155,72.49,66.919,61.636a1.206,1.206,0,0,0-1-.543H43.547A21.36,21.36,0,0,1,43,57.427a19.326,19.326,0,0,1,1.11-7.188H70.742a3.629,3.629,0,0,0,3.618-3.618v-41A3.629,3.629,0,0,0,70.742,2H5.618A3.629,3.629,0,0,0,2,5.618v41A3.629,3.629,0,0,0,5.618,50.24H32.247a19.3,19.3,0,0,1,1.11,7.176,21.323,21.323,0,0,1-.543,3.678H10.442a1.206,1.206,0,0,0-1,.543L2.206,72.49a1.161,1.161,0,0,0-.06,1.23,1.187,1.187,0,0,0,1.061.639H73.154a1.187,1.187,0,0,0,1.061-.639,1.161,1.161,0,0,0-.06-1.23ZM71.948,43H63.506V29.738A1.206,1.206,0,0,0,62.3,28.532H58.682V26.12h7.236v4.824a1.206,1.206,0,0,0,1.206,1.206h4.824Zm0-13.266H68.33V24.914a1.206,1.206,0,0,0-1.206-1.206H58.682V21.3H62.3a1.206,1.206,0,0,0,1.206-1.206V11.648h8.442ZM4.412,5.618A1.206,1.206,0,0,1,5.618,4.412H70.742a1.206,1.206,0,0,1,1.206,1.206V9.236H62.3a1.206,1.206,0,0,0-1.206,1.206v8.442H58.682V8.03a1.206,1.206,0,0,0-1.206-1.206H18.884A1.206,1.206,0,0,0,17.678,8.03v4.824H15.266V10.442A1.206,1.206,0,0,0,14.06,9.236H4.412ZM49.324,29.774l-1.556-.386L48.6,28a1.223,1.223,0,0,0-.181-1.471l-3.413-3.413a1.223,1.223,0,0,0-1.471-.181l-1.387.832-.386-1.556a1.206,1.206,0,0,0-1.17-.917H35.768a1.206,1.206,0,0,0-1.17.917l-.386,1.556-1.387-.832a1.223,1.223,0,0,0-1.471.181L27.941,26.53A1.223,1.223,0,0,0,27.76,28l.832,1.387-1.556.386a1.206,1.206,0,0,0-.917,1.17V32.15H20.09V9.236H56.27V32.15H50.24V30.944a1.206,1.206,0,0,0-.917-1.17Zm-4.462,7.4,1.182,1.954-2.086,2.086L42,40.037a1.275,1.275,0,0,0-1.085-.084,1.23,1.23,0,0,0-.712.832L39.652,43H36.709l-.555-2.219a1.206,1.206,0,0,0-1.8-.748L32.4,41.219l-2.086-2.086L31.5,37.179a1.206,1.206,0,0,0-.748-1.8l-2.219-.555V31.884l2.219-.555a1.206,1.206,0,0,0,.748-1.8l-1.182-1.954L32.4,25.493l1.954,1.182a1.206,1.206,0,0,0,1.8-.748l.555-2.219h2.943l.555,2.219a1.206,1.206,0,0,0,1.8.748l1.954-1.182,2.086,2.086-1.182,1.954a1.206,1.206,0,0,0,.748,1.8l2.219.555v2.943l-2.219.555a1.206,1.206,0,0,0-.748,1.8ZM4.412,11.648h8.442V14.06a1.206,1.206,0,0,0,1.206,1.206h3.618v2.412H9.236A1.206,1.206,0,0,0,8.03,18.884V29.738H4.412Zm0,20.5H9.236a1.206,1.206,0,0,0,1.206-1.206V20.09h7.236V22.5H14.06a1.206,1.206,0,0,0-1.206,1.206V43H4.412ZM5.618,47.828a1.206,1.206,0,0,1-1.206-1.206V45.416H14.06a1.206,1.206,0,0,0,1.206-1.206v-19.3h2.412v8.442a1.206,1.206,0,0,0,1.206,1.206H26.12v1.206a1.206,1.206,0,0,0,.917,1.17l1.556.386L27.76,38.7a1.239,1.239,0,0,0,.181,1.483l3.413,3.413a1.223,1.223,0,0,0,1.471.181l1.387-.832L34.6,44.5a1.206,1.206,0,0,0,1.17.917h4.824a1.206,1.206,0,0,0,1.17-.917l.386-1.556,1.387.832a1.223,1.223,0,0,0,1.471-.181l3.413-3.413A1.239,1.239,0,0,0,48.6,38.7l-.832-1.375,1.556-.386a1.206,1.206,0,0,0,.917-1.17V34.562h7.236a1.206,1.206,0,0,0,1.206-1.206V30.944h2.412V44.21A1.206,1.206,0,0,0,62.3,45.416h9.648v1.206a1.206,1.206,0,0,1-1.206,1.206ZM41.05,61.093H35.31a23.893,23.893,0,0,0,.458-3.57,21.653,21.653,0,0,0-.977-7.284h6.778a21.723,21.723,0,0,0-.977,7.3,23.939,23.939,0,0,0,.458,3.558ZM5.462,71.947l5.632-8.442H55.619l5.632,8.442Zm58.7,0-5.632-8.442h6.741L70.9,71.947Z" transform="translate(0)"/>
      <path id="Path_1253557" data-name="Path 1253557" d="M9,57h2.412v2.412H9Z" transform="translate(1.442 11.329)"/>
      <path id="Path_1253558" data-name="Path 1253558" d="M12,57h2.412v2.412H12Z" transform="translate(2.06 11.329)"/>
      <path id="Path_1253559" data-name="Path 1253559" d="M15,57h2.412v2.412H15Z" transform="translate(2.678 11.329)"/>
      <path id="Path_1253560" data-name="Path 1253560" d="M18,57h2.412v2.412H18Z" transform="translate(3.296 11.329)"/>
      <path id="Path_1253561" data-name="Path 1253561" d="M21,57h2.412v2.412H21Z" transform="translate(3.914 11.329)"/>
      <path id="Path_1253562" data-name="Path 1253562" d="M24,57h2.412v2.412H24Z" transform="translate(4.532 11.329)"/>
      <path id="Path_1253563" data-name="Path 1253563" d="M27,57h2.412v2.412H27Z" transform="translate(5.15 11.329)"/>
      <path id="Path_1253564" data-name="Path 1253564" d="M30,57h2.412v2.412H30Z" transform="translate(5.768 11.329)"/>
      <path id="Path_1253565" data-name="Path 1253565" d="M33,57h2.412v2.412H33Z" transform="translate(6.386 11.329)"/>
      <path id="Path_1253566" data-name="Path 1253566" d="M36,57h2.412v2.412H36Z" transform="translate(7.004 11.329)"/>
      <path id="Path_1253567" data-name="Path 1253567" d="M39,57h2.412v2.412H39Z" transform="translate(7.622 11.329)"/>
      <path id="Path_1253568" data-name="Path 1253568" d="M12,54h2.412v2.412H12Z" transform="translate(2.06 10.711)"/>
      <path id="Path_1253569" data-name="Path 1253569" d="M15,54h2.412v2.412H15Z" transform="translate(2.678 10.711)"/>
      <path id="Path_1253570" data-name="Path 1253570" d="M18,54h2.412v2.412H18Z" transform="translate(3.296 10.711)"/>
      <path id="Path_1253571" data-name="Path 1253571" d="M21,54h2.412v2.412H21Z" transform="translate(3.914 10.711)"/>
      <path id="Path_1253572" data-name="Path 1253572" d="M24,54h2.412v2.412H24Z" transform="translate(4.532 10.711)"/>
      <path id="Path_1253573" data-name="Path 1253573" d="M27,54h2.412v2.412H27Z" transform="translate(5.15 10.711)"/>
      <path id="Path_1253574" data-name="Path 1253574" d="M30,54h2.412v2.412H30Z" transform="translate(5.768 10.711)"/>
      <path id="Path_1253575" data-name="Path 1253575" d="M33,54h2.412v2.412H33Z" transform="translate(6.386 10.711)"/>
      <path id="Path_1253576" data-name="Path 1253576" d="M36,54h2.412v2.412H36Z" transform="translate(7.004 10.711)"/>
      <path id="Path_1253577" data-name="Path 1253577" d="M39,54h2.412v2.412H39Z" transform="translate(7.622 10.711)"/>
      <path id="Path_1253578" data-name="Path 1253578" d="M42,57h2.412v2.412H42Z" transform="translate(8.24 11.329)"/>
      <path id="Path_1253579" data-name="Path 1253579" d="M42,54h2.412v2.412H42Z" transform="translate(8.24 10.711)"/>
      <path id="Path_1253580" data-name="Path 1253580" d="M45,57h2.412v2.412H45Z" transform="translate(8.858 11.329)"/>
      <path id="Path_1253581" data-name="Path 1253581" d="M19,10h2.412v2.412H19Z" transform="translate(3.502 1.648)"/>
      <path id="Path_1253582" data-name="Path 1253582" d="M23,10H33.854v2.412H23Z" transform="translate(4.326 1.648)"/>
      <path id="Path_1253583" data-name="Path 1253583" d="M34,10H47.266v2.412H34Z" transform="translate(6.592 1.648)"/>
      <path id="Path_1253584" data-name="Path 1253584" d="M19,14H34.678v2.412H19Z" transform="translate(3.502 2.472)"/>
      <path id="Path_1253585" data-name="Path 1253585" d="M34,14H47.266v2.412H34Z" transform="translate(6.592 2.472)"/>
    </g>
  </g>
</svg>
