<svg xmlns="http://www.w3.org/2000/svg" xmlns:xlink="http://www.w3.org/1999/xlink" width="115" height="115" viewBox="0 0 115 115">
  <defs>
    <clipPath id="clip-path">
      <rect id="Rectangle_411804" data-name="Rectangle 411804" width="115" height="115" transform="translate(800.781 1954)" fill="#e8bad8" opacity="0.41"/>
    </clipPath>
  </defs>
  <g id="Group_1204695" data-name="Group 1204695" transform="translate(-1090.051 -3633)">
    <g id="Mask_Group_1099317" data-name="Mask Group 1099317" transform="translate(289.27 1679)" clip-path="url(#clip-path)">
      <g id="Group_1204149" data-name="Group 1204149" transform="translate(799.781 1960.273)">
        <g id="Group_1204136" data-name="Group 1204136" transform="translate(1)">
          <ellipse id="Ellipse_12434" data-name="Ellipse 12434" cx="28.658" cy="28.658" rx="28.658" ry="28.658" transform="translate(56.527 44.289)" fill="#ffc94a"/>
          <ellipse id="Ellipse_12435" data-name="Ellipse 12435" cx="20.842" cy="20.842" rx="20.842" ry="20.842" fill="#ffc94a"/>
        </g>
      </g>
    </g>
    <g id="consulta" transform="translate(1103.051 3639)">
      <g id="Group_1204693" data-name="Group 1204693" transform="translate(9.187 17.187)">
        <path id="Path_1253530" data-name="Path 1253530" d="M87.229,368v3.561a3.562,3.562,0,0,1-3.561,3.561H19.561A3.562,3.562,0,0,1,16,371.561V368Z" transform="translate(-16 -316.953)" fill="#57565c"/>
        <path id="Path_1253531" data-name="Path 1253531" d="M87.229,131.561v32.053H16V131.561A3.562,3.562,0,0,1,19.561,128H83.667a3.562,3.562,0,0,1,3.561,3.561Z" transform="translate(-16 -112.567)" fill="#83d8f4"/>
        <path id="Path_1253532" data-name="Path 1253532" d="M216.62,423.123H200L202.374,416h11.871Z" transform="translate(-172.696 -357.83)" fill="#e0e0e2"/>
        <path id="Path_1253533" data-name="Path 1253533" d="M168,464h26.117v3.561H168Z" transform="translate(-145.444 -398.707)" fill="#57565c"/>
        <ellipse id="Ellipse_12570" data-name="Ellipse 12570" cx="10.959" cy="10.521" rx="10.959" ry="10.521" transform="translate(33.006 22.696)" fill="#e0e0e2"/>
        <ellipse id="Ellipse_12571" data-name="Ellipse 12571" cx="7.452" cy="7.014" rx="7.452" ry="7.014" transform="translate(36.513 26.204)" fill="#3d9ae2"/>
        <path id="Path_1253534" data-name="Path 1253534" d="M0,0H4.749V15.1H0Z" transform="translate(52.308 44.994) rotate(-45)" fill="#898890"/>
        <path id="Path_1253535" data-name="Path 1253535" d="M370.248,306.248l-1.679-1.679" transform="translate(-316.25 -262.934)" fill="#e0e0e2"/>
        <path id="Path_1253536" data-name="Path 1253536" d="M93.112,27.561V38.246a3.562,3.562,0,0,1-3.561,3.561H70.556l2.374,9.5-11.871-9.5h-9.5A3.562,3.562,0,0,1,48,38.246V27.561A3.562,3.562,0,0,1,51.561,24H89.55a3.562,3.562,0,0,1,3.561,3.561Z" transform="translate(-43.251 -24)" fill="#ff9811"/>
      </g>
      <g id="Group_1204694" data-name="Group 1204694" transform="translate(8 16)">
        <path id="Path_1253537" data-name="Path 1253537" d="M270.182,194.429a8.31,8.31,0,1,0,2.434,5.876A8.31,8.31,0,0,0,270.182,194.429ZM268.5,204.5a5.936,5.936,0,1,1,1.738-4.2,5.936,5.936,0,0,1-1.738,4.2Z" transform="translate(-219.194 -165.879)"/>
        <path id="Path_1253538" data-name="Path 1253538" d="M76.854,31.433H60.234V20.749A4.754,4.754,0,0,0,55.486,16H17.5a4.754,4.754,0,0,0-4.749,4.749V31.433A4.754,4.754,0,0,0,8,36.181V71.8a4.754,4.754,0,0,0,4.749,4.749h24.47l-1.583,4.749H31.743a1.187,1.187,0,0,0-1.187,1.187v2.374H18.684a1.187,1.187,0,1,0,0,2.374H70.919a1.187,1.187,0,0,0,0-2.374H59.047V82.48a1.187,1.187,0,0,0-1.187-1.187H53.968l-1.583-4.749h24.47A4.754,4.754,0,0,0,81.6,71.8V36.181a4.754,4.754,0,0,0-4.749-4.749ZM15.123,20.749A2.377,2.377,0,0,1,17.5,18.374H55.486a2.377,2.377,0,0,1,2.374,2.374V31.433a2.377,2.377,0,0,1-2.374,2.374H36.491a1.187,1.187,0,0,0-1.152,1.475l1.521,6.086-9.125-7.3a1.191,1.191,0,0,0-.742-.26H17.5a2.377,2.377,0,0,1-2.374-2.374Zm41.55,62.919v1.187H32.93V83.667ZM38.139,81.293l1.583-4.749H49.881l1.583,4.749Zm41.09-9.5a2.377,2.377,0,0,1-2.374,2.374H12.749A2.377,2.377,0,0,1,10.374,71.8V69.422h56.7l4.272,4.272a1.186,1.186,0,0,0,1.68,0l3.357-3.357a1.19,1.19,0,0,0,.349-.84c0-.025,0-.05,0-.076h2.506ZM63.184,62.18l1.68-1.68,9,9-1.678,1.678Zm16.044,4.867H75.667a1.178,1.178,0,0,0-.683.217L65.7,57.982a1.187,1.187,0,0,0-1.678,0l-.84.84-.838-.84-.045-.04a11.852,11.852,0,1,0-1.675,1.675l.04.045.84.838-.84.84a1.187,1.187,0,0,0,0,1.678L64.7,67.047H10.374V36.181a2.377,2.377,0,0,1,2.374-2.374,1.168,1.168,0,0,0,.559-.141A4.752,4.752,0,0,0,17.5,36.181h9.08l11.546,9.237A1.187,1.187,0,0,0,40.017,44.2l-2-8.022H55.486a4.75,4.75,0,0,0,4.109-2.374h17.26a2.377,2.377,0,0,1,2.374,2.374Zm-19.4-9.905a9.493,9.493,0,1,1,0-13.43A9.493,9.493,0,0,1,59.826,57.142Z" transform="translate(-8 -16)"/>
        <path id="Path_1253539" data-name="Path 1253539" d="M48.31,384H41.187a1.187,1.187,0,1,0,0,2.374H48.31a1.187,1.187,0,1,0,0-2.374Z" transform="translate(-35.251 -329.391)"/>
        <path id="Path_1253540" data-name="Path 1253540" d="M114.374,384h-1.187a1.187,1.187,0,1,0,0,2.374h1.187a1.187,1.187,0,1,0,0-2.374Z" transform="translate(-96.567 -329.391)"/>
        <path id="Path_1253541" data-name="Path 1253541" d="M161.187,58.684h9.5a1.187,1.187,0,0,0,1.187-1.187v-8.31a1.187,1.187,0,1,0-2.374,0V56.31h-2.374V52.749a1.187,1.187,0,1,0-2.374,0V56.31h-2.374V49.187a1.187,1.187,0,1,0-2.374,0V57.5A1.187,1.187,0,0,0,161.187,58.684Z" transform="translate(-137.444 -43.251)"/>
        <path id="Path_1253542" data-name="Path 1253542" d="M73.187,58.684h9.5A1.187,1.187,0,0,0,83.871,57.5v-8.31a1.187,1.187,0,0,0-2.374,0V56.31H79.123V52.749a1.187,1.187,0,1,0-2.374,0V56.31H74.374V49.187a1.187,1.187,0,0,0-2.374,0V57.5A1.187,1.187,0,0,0,73.187,58.684Z" transform="translate(-62.503 -43.251)"/>
        <path id="Path_1253543" data-name="Path 1253543" d="M249.187,58.684h9.5a1.187,1.187,0,0,0,1.187-1.187v-8.31a1.187,1.187,0,0,0-2.374,0V56.31h-2.374V52.749a1.187,1.187,0,1,0-2.374,0V56.31h-2.374V49.187a1.187,1.187,0,0,0-2.374,0V57.5A1.187,1.187,0,0,0,249.187,58.684Z" transform="translate(-212.386 -43.251)"/>
      </g>
    </g>
  </g>
</svg>
