<svg xmlns="http://www.w3.org/2000/svg" xmlns:xlink="http://www.w3.org/1999/xlink" width="115" height="115" viewBox="0 0 115 115">
  <defs>
    <clipPath id="clip-path">
      <rect id="Rectangle_411802" data-name="Rectangle 411802" width="115" height="115" transform="translate(800.781 1954)" fill="#e8bad8" opacity="0.41"/>
    </clipPath>
  </defs>
  <g id="Group_1204692" data-name="Group 1204692" transform="translate(-743.051 -3633)">
    <g id="Mask_Group_1099316" data-name="Mask Group 1099316" transform="translate(-57.73 1679)" clip-path="url(#clip-path)">
      <g id="Group_1204135" data-name="Group 1204135" transform="translate(799.781 1960.273)">
        <g id="Group_1204122" data-name="Group 1204122" transform="translate(1)">
          <ellipse id="Ellipse_12428" data-name="Ellipse 12428" cx="28.658" cy="28.658" rx="28.658" ry="28.658" transform="translate(56.527 44.289)" fill="#ffc94a"/>
          <ellipse id="Ellipse_12429" data-name="Ellipse 12429" cx="20.842" cy="20.842" rx="20.842" ry="20.842" fill="#ffc94a"/>
        </g>
      </g>
    </g>
    <g id="Layer_12" data-name="Layer 12" transform="translate(762.051 3652)">
      <rect id="Rectangle_412044" data-name="Rectangle 412044" width="65.964" height="53.748" rx="2" transform="translate(2.222 2.222)" fill="#4d5d79"/>
      <path id="Path_1253513" data-name="Path 1253513" d="M30,38H54.431v4.886H30Z" transform="translate(6.425 8.197)" fill="#fff"/>
      <circle id="Ellipse_12566" data-name="Ellipse 12566" cx="14.659" cy="14.659" r="14.659" transform="translate(46.197 46.197)" fill="#3c98f4"/>
      <path id="Path_1253514" data-name="Path 1253514" d="M63.212,42.5A14.646,14.646,0,1,0,43.761,64.289C53.621,62.027,61.344,53.4,63.212,42.5Z" transform="translate(8.198 8.198)" fill="#63adf6"/>
      <path id="Path_1253515" data-name="Path 1253515" d="M6,6H62.191V40.2H6Z" transform="translate(1.108 1.108)" fill="#c7e2fb"/>
      <g id="Group_1204691" data-name="Group 1204691" transform="translate(7.108 46.197)">
        <circle id="Ellipse_12567" data-name="Ellipse 12567" cx="2.443" cy="2.443" r="2.443" transform="translate(19.545)" fill="#fff"/>
        <circle id="Ellipse_12568" data-name="Ellipse 12568" cx="2.443" cy="2.443" r="2.443" transform="translate(9.772)" fill="#fff"/>
        <circle id="Ellipse_12569" data-name="Ellipse 12569" cx="2.443" cy="2.443" r="2.443" fill="#fff"/>
      </g>
      <path id="Path_1253516" data-name="Path 1253516" d="M27.988,6V27.988h34.2v4.886h-34.2V40.2H23.1V23.1H6V18.216H23.1V6Z" transform="translate(1.108 1.108)" fill="#ebf7fe"/>
      <path id="Path_1253517" data-name="Path 1253517" d="M28,10H42.659V22.216H28Z" transform="translate(5.982 1.994)" fill="#78b761"/>
      <path id="Path_1253518" data-name="Path 1253518" d="M44,14h4.886v7.329H44Z" transform="translate(9.527 2.88)" fill="#78b761"/>
      <path id="Path_1253519" data-name="Path 1253519" d="M10,24h7.329v7.329H10Z" transform="translate(1.994 5.096)" fill="#e47c6f"/>
      <path id="Path_1253520" data-name="Path 1253520" d="M44,59.1,51.329,42l7.329,17.1-7.329-3.665Z" transform="translate(9.527 9.084)" fill="#ebf7fe"/>
      <path id="Path_1253521" data-name="Path 1253521" d="M6.222,41.647H62.413a1.222,1.222,0,0,0,1.222-1.222V6.222A1.222,1.222,0,0,0,62.413,5H6.222A1.222,1.222,0,0,0,5,6.222v34.2A1.222,1.222,0,0,0,6.222,41.647Zm1.222-17.1H22.1V39.2H7.443Zm17.1-6.108V7.443h2.443V28.209a1.222,1.222,0,0,0,1.222,1.222H61.191v2.443H28.209A1.222,1.222,0,0,0,26.988,33.1V39.2H24.545V23.323A1.222,1.222,0,0,0,23.323,22.1H7.443V19.659h15.88A1.222,1.222,0,0,0,24.545,18.437ZM29.431,39.2V34.317h31.76V39.2Zm31.76-12.216H29.431V7.443h31.76ZM22.1,7.443v9.772H7.443V7.443Z" transform="translate(0.886 0.886)"/>
      <path id="Path_1253522" data-name="Path 1253522" d="M24.665,37a3.665,3.665,0,1,0,3.665,3.665A3.665,3.665,0,0,0,24.665,37Zm0,4.886a1.222,1.222,0,1,1,1.222-1.222A1.222,1.222,0,0,1,24.665,41.886Z" transform="translate(4.431 7.976)"/>
      <path id="Path_1253523" data-name="Path 1253523" d="M16.665,37a3.665,3.665,0,1,0,3.665,3.665A3.665,3.665,0,0,0,16.665,37Zm0,4.886a1.222,1.222,0,1,1,1.222-1.222A1.222,1.222,0,0,1,16.665,41.886Z" transform="translate(2.659 7.976)"/>
      <path id="Path_1253524" data-name="Path 1253524" d="M8.665,37a3.665,3.665,0,1,0,3.665,3.665A3.665,3.665,0,0,0,8.665,37Zm0,4.886a1.222,1.222,0,1,1,1.222-1.222A1.222,1.222,0,0,1,8.665,41.886Z" transform="translate(0.886 7.976)"/>
      <path id="Path_1253525" data-name="Path 1253525" d="M28.222,23.659H42.88A1.222,1.222,0,0,0,44.1,22.437V10.222A1.222,1.222,0,0,0,42.88,9H28.222A1.222,1.222,0,0,0,27,10.222V22.437A1.222,1.222,0,0,0,28.222,23.659Zm1.222-12.216H41.659v9.772H29.443Z" transform="translate(5.76 1.772)"/>
      <path id="Path_1253526" data-name="Path 1253526" d="M44.222,22.772h4.886a1.222,1.222,0,0,0,1.222-1.222V14.222A1.222,1.222,0,0,0,49.108,13H44.222A1.222,1.222,0,0,0,43,14.222v7.329A1.222,1.222,0,0,0,44.222,22.772Zm1.222-7.329h2.443v4.886H45.443Z" transform="translate(9.305 2.659)"/>
      <path id="Path_1253527" data-name="Path 1253527" d="M17.551,23H10.222A1.222,1.222,0,0,0,9,24.222v7.329a1.222,1.222,0,0,0,1.222,1.222h7.329a1.222,1.222,0,0,0,1.222-1.222V24.222A1.222,1.222,0,0,0,17.551,23Zm-1.222,7.329H11.443V25.443h4.886Z" transform="translate(1.772 4.874)"/>
      <path id="Path_1253528" data-name="Path 1253528" d="M69.407,47.5V4.665A3.665,3.665,0,0,0,65.742,1H4.665A3.665,3.665,0,0,0,1,4.665V53.527a3.665,3.665,0,0,0,3.665,3.665H45.419a15.88,15.88,0,1,0,23.988-9.7ZM4.665,54.748a1.222,1.222,0,0,1-1.222-1.222V4.665A1.222,1.222,0,0,1,4.665,3.443H65.742a1.222,1.222,0,0,1,1.222,1.222V46.2a15.8,15.8,0,0,0-6.108-1.222H36.425A1.222,1.222,0,0,0,35.2,46.2v4.886a1.222,1.222,0,0,0,1.222,1.222H47.5a15.712,15.712,0,0,0-1.3,2.443Zm44.759-4.886H37.647V47.419H52.427A15.934,15.934,0,0,0,49.424,49.862ZM60.856,74.293A13.437,13.437,0,1,1,74.293,60.856,13.437,13.437,0,0,1,60.856,74.293Z"/>
      <path id="Path_1253529" data-name="Path 1253529" d="M52.674,41.74a1.222,1.222,0,0,0-2.245,0L43.1,58.842a1.222,1.222,0,0,0,1.669,1.581l6.783-3.4,6.783,3.4A1.222,1.222,0,0,0,60,58.848ZM52.1,54.566a1.222,1.222,0,0,0-1.092,0l-4.348,2.174,4.894-11.418L56.445,56.74Z" transform="translate(9.305 8.862)"/>
    </g>
  </g>
</svg>
