<svg xmlns="http://www.w3.org/2000/svg" xmlns:xlink="http://www.w3.org/1999/xlink" width="115" height="115" viewBox="0 0 115 115">
  <defs>
    <clipPath id="clip-path">
      <rect id="Rectangle_411801" data-name="Rectangle 411801" width="115" height="115" transform="translate(800.781 1954)" fill="#e8bad8" opacity="0.41"/>
    </clipPath>
  </defs>
  <g id="Group_1204690" data-name="Group 1204690" transform="translate(-397.051 -3633)">
    <g id="Mask_Group_1099315" data-name="Mask Group 1099315" transform="translate(-403.73 1679)" clip-path="url(#clip-path)">
      <g id="Group_1204121" data-name="Group 1204121" transform="translate(799.781 1960.273)">
        <g id="Group_1204108" data-name="Group 1204108" transform="translate(1)">
          <ellipse id="Ellipse_12422" data-name="Ellipse 12422" cx="28.658" cy="28.658" rx="28.658" ry="28.658" transform="translate(56.527 44.289)" fill="#ffc94a"/>
          <ellipse id="Ellipse_12423" data-name="Ellipse 12423" cx="20.842" cy="20.842" rx="20.842" ry="20.842" fill="#ffc94a"/>
        </g>
      </g>
    </g>
    <g id="flexibilidad" transform="translate(416.051 3636.38)">
      <g id="Group_1204688" data-name="Group 1204688" transform="translate(1.117 19.737)">
        <path id="Path_1253498" data-name="Path 1253498" d="M81.539,64.869v46.665a2.383,2.383,0,0,1-2.384,2.384H9.884A2.383,2.383,0,0,1,7.5,111.534V64.869Z" transform="translate(-7.5 -59.096)" fill="#dff6fd"/>
        <path id="Path_1253499" data-name="Path 1253499" d="M469.608,64.869v46.665a2.383,2.383,0,0,1-2.384,2.384H463.5a2.383,2.383,0,0,0,2.384-2.384V64.869Z" transform="translate(-395.569 -59.096)" fill="#d8ecfe"/>
        <path id="Path_1253500" data-name="Path 1253500" d="M81.539,28.5v3.389H7.5V28.5a2.383,2.383,0,0,1,2.384-2.384H79.155A2.383,2.383,0,0,1,81.539,28.5Z" transform="translate(-7.5 -26.119)" fill="#8abbd5"/>
        <path id="Path_1253501" data-name="Path 1253501" d="M469.608,28.5v3.389h-3.724V28.5a2.383,2.383,0,0,0-2.384-2.384h3.724A2.383,2.383,0,0,1,469.608,28.5Z" transform="translate(-395.569 -26.119)" fill="#6cabca"/>
        <path id="Path_1253502" data-name="Path 1253502" d="M268.121,113.943l4.43,7.673a.6.6,0,0,0,1.032,0l4.43-7.673a.6.6,0,0,0-.516-.894h-.964a.6.6,0,0,1-.6-.6V99.339a.894.894,0,0,0-.894-.894h-3.952a.894.894,0,0,0-.894.894v13.115a.6.6,0,0,1-.6.6h-.964A.6.6,0,0,0,268.121,113.943Z" transform="translate(-229.227 -87.67)" fill="#bbec6c"/>
        <path id="Path_1253503" data-name="Path 1253503" d="M297.365,113.939l-4.429,7.672a.6.6,0,0,1-1.032,0l-1.123-1.944,3.307-5.728a.6.6,0,0,0-.515-.894h-.964a.6.6,0,0,1-.6-.6V99.334a.9.9,0,0,0-.894-.894H294.4a.9.9,0,0,1,.894.894v13.115a.6.6,0,0,0,.6.6h.964A.6.6,0,0,1,297.365,113.939Z" transform="translate(-248.579 -87.666)" fill="#00f2a6"/>
        <path id="Path_1253504" data-name="Path 1253504" d="M186.447,106.416l-4.43-7.673a.6.6,0,0,0-1.032,0l-4.43,7.673a.6.6,0,0,0,.516.894h.964a.6.6,0,0,1,.6.6V121.02a.894.894,0,0,0,.894.894h3.952a.894.894,0,0,0,.894-.894V107.905a.6.6,0,0,1,.6-.6h.964A.6.6,0,0,0,186.447,106.416Z" transform="translate(-151.302 -87.67)" fill="#62dbfa"/>
        <path id="Path_1253505" data-name="Path 1253505" d="M205.713,107.31h-.964a.6.6,0,0,0-.6.6v13.114a.893.893,0,0,1-.894.894h-3.128a.893.893,0,0,0,.894-.894V107.905a.6.6,0,0,1,.6-.6h.964a.6.6,0,0,0,.517-.894l-3.382-5.858,1.047-1.816a.6.6,0,0,1,1.032,0l4.43,7.674A.6.6,0,0,1,205.713,107.31Z" transform="translate(-171.085 -87.67)" fill="#8ac9fe"/>
        <path id="Path_1253506" data-name="Path 1253506" d="M185.125,407.581v6.427c0,2.893-6.734,5.238-15.04,5.238s-15.039-2.345-15.039-5.238v-6.427Z" transform="translate(-133.066 -350.754)" fill="#3692bc"/>
        <path id="Path_1253507" data-name="Path 1253507" d="M321.187,407.581v6.427c0,1.752-2.468,3.3-6.261,4.253,1.6-.833,2.537-1.835,2.537-2.912v-7.767Z" transform="translate(-269.128 -350.754)" fill="#0681af"/>
        <path id="Path_1253508" data-name="Path 1253508" d="M185.125,365.581v6.427c0,2.893-6.734,5.238-15.04,5.238s-15.039-2.345-15.039-5.238v-6.427Z" transform="translate(-133.066 -315.011)" fill="#8abbd5"/>
        <path id="Path_1253509" data-name="Path 1253509" d="M335.68,365.581v6.427c0,1.321-1.4,2.53-3.724,3.45v-9.877Z" transform="translate(-283.621 -315.011)" fill="#6cabca"/>
        <path id="Path_1253510" data-name="Path 1253510" d="M185.125,324.715H155.046v6.258c0,2.892,6.734,5.236,15.039,5.236s15.04-2.345,15.04-5.236Z" transform="translate(-133.066 -280.233)" fill="#3692bc"/>
        <path id="Path_1253511" data-name="Path 1253511" d="M335.68,324.711v6.258c0,1.32-1.4,2.528-3.724,3.449v-9.707Z" transform="translate(-283.621 -280.229)" fill="#0681af"/>
        <ellipse id="Ellipse_12565" data-name="Ellipse 12565" cx="15.04" cy="5.237" rx="15.04" ry="5.237" transform="translate(21.98 39.245)" fill="#8abbd5"/>
        <path id="Path_1253512" data-name="Path 1253512" d="M335.681,305.01c0,1.321-1.4,2.53-3.724,3.45h0a12.893,12.893,0,0,0,0-6.9h0C334.276,302.482,335.681,303.688,335.681,305.01Z" transform="translate(-283.622 -260.528)" fill="#6cabca"/>
      </g>
      <g id="Group_1204689" data-name="Group 1204689" transform="translate(0 18.62)">
        <path id="Trazado_1253513" data-name="Trazado 1253513" d="M127.494,75.676h-3.666a1.117,1.117,0,0,1,0-2.235h3.666a1.268,1.268,0,0,0,1.266-1.266V22.121a1.268,1.268,0,0,0-1.266-1.266H65.417a1.117,1.117,0,0,1,0-2.235h62.076a3.5,3.5,0,0,1,3.5,3.5V72.175A3.5,3.5,0,0,1,127.494,75.676Z" transform="translate(-54.721 -18.62)"/>
        <path id="Trazado_1253514" data-name="Trazado 1253514" d="M23.1,75.676H3.5a3.5,3.5,0,0,1-3.5-3.5V22.121a3.5,3.5,0,0,1,3.5-3.5H5.482a1.117,1.117,0,1,1,0,2.235H3.5a1.268,1.268,0,0,0-1.266,1.266V72.175A1.268,1.268,0,0,0,3.5,73.442H23.1a1.117,1.117,0,1,1,0,2.235Z" transform="translate(0 -18.62)"/>
        <path id="Línea_798" data-name="Línea 798" d="M4.333-5.265H-6.383A1.117,1.117,0,0,1-7.5-6.383,1.117,1.117,0,0,1-6.383-7.5H4.333A1.117,1.117,0,0,1,5.45-6.383,1.117,1.117,0,0,1,4.333-5.265Z" transform="translate(59.56 62.322)"/>
        <path id="Línea_799" data-name="Línea 799" d="M67.656-5.265H-6.383A1.117,1.117,0,0,1-7.5-6.383,1.117,1.117,0,0,1-6.383-7.5H67.656a1.117,1.117,0,0,1,1.117,1.117A1.117,1.117,0,0,1,67.656-5.265Z" transform="translate(7.5 13.273)"/>
        <path id="Trazado_1253515" data-name="Trazado 1253515" d="M163.7,343.463c-8.029,0-16.157-2.183-16.157-6.355v-18.77a1.117,1.117,0,1,1,2.235,0v18.77c0,1.68,5.424,4.121,13.923,4.121s13.923-2.44,13.923-4.121v-18.77a1.117,1.117,0,1,1,2.235,0v18.77C179.855,341.28,171.727,343.463,163.7,343.463Z" transform="translate(-125.561 -272.737)"/>
        <path id="Trazado_1253516" data-name="Trazado 1253516" d="M163.7,408.692c-8.029,0-16.157-2.183-16.157-6.355a1.117,1.117,0,1,1,2.235,0c0,1.68,5.424,4.121,13.923,4.121s13.923-2.44,13.923-4.121a1.117,1.117,0,1,1,2.235,0C179.855,406.509,171.727,408.692,163.7,408.692Z" transform="translate(-125.561 -344.224)"/>
        <path id="Trazado_1253517" data-name="Trazado 1253517" d="M163.7,366.692c-8.029,0-16.157-2.183-16.157-6.355a1.117,1.117,0,1,1,2.235,0c0,1.68,5.424,4.121,13.923,4.121s13.923-2.44,13.923-4.121a1.117,1.117,0,1,1,2.235,0C179.855,364.509,171.727,366.692,163.7,366.692Z" transform="translate(-125.561 -308.48)"/>
        <path id="Elipse_12566" data-name="Elipse 12566" d="M8.657-7.5c8.029,0,16.157,2.183,16.157,6.355S16.686,5.209,8.657,5.209-7.5,3.027-7.5-1.145.628-7.5,8.657-7.5Zm0,10.475c8.5,0,13.922-2.44,13.922-4.12s-5.424-4.12-13.922-4.12S-5.265-2.825-5.265-1.145.158,2.975,8.657,2.975Z" transform="translate(29.48 46.745)"/>
        <path id="Trazado_1253518" data-name="Trazado 1253518" d="M266.693,116.648a1.718,1.718,0,0,1-1.484-.857l-4.43-7.673a1.713,1.713,0,0,1,1.484-2.57h.443V92.956a2.013,2.013,0,0,1,2.011-2.011h3.952a2.013,2.013,0,0,1,2.011,2.011v12.593h.443a1.713,1.713,0,0,1,1.484,2.57l-4.43,7.673A1.718,1.718,0,0,1,266.693,116.648Zm-3.527-8.865,3.527,6.109,3.527-6.109h-.061a1.715,1.715,0,0,1-1.713-1.713V93.18h-3.505v12.891a1.715,1.715,0,0,1-1.713,1.713Z" transform="translate(-221.736 -80.171)"/>
        <path id="Trazado_1253519" data-name="Trazado 1253519" d="M175.127,90.945a1.718,1.718,0,0,1,1.484.857l4.43,7.673a1.713,1.713,0,0,1-1.484,2.57h-.443v12.593a2.013,2.013,0,0,1-2.011,2.011h-3.952a2.013,2.013,0,0,1-2.011-2.011V102.044H170.7a1.713,1.713,0,0,1-1.484-2.57l4.43-7.673A1.718,1.718,0,0,1,175.127,90.945Zm3.527,8.865L175.127,93.7,171.6,99.809h.061a1.715,1.715,0,0,1,1.713,1.713v12.891h3.505V101.522a1.715,1.715,0,0,1,1.713-1.713Z" transform="translate(-143.811 -80.17)"/>
      </g>
    </g>
  </g>
</svg>
