<svg xmlns="http://www.w3.org/2000/svg" xmlns:xlink="http://www.w3.org/1999/xlink" width="76.345" height="76.344" viewBox="0 0 76.345 76.344">
  <defs>
    <clipPath id="clip-path">
      <path id="path9052" d="M0-682.665H32.744v32.744H0Z" transform="translate(0 682.665)"/>
    </clipPath>
  </defs>
  <g id="Group_1204841" data-name="Group 1204841" transform="translate(-289 -1108)">
    <g id="Group_1204589" data-name="Group 1204589" transform="translate(-732.966 -1984.655)">
      <g id="Group_1187152" data-name="Group 1187152">
        <g id="Group_1185946" data-name="Group 1185946" transform="translate(-3.07)">
          <g id="Group_1184280" data-name="Group 1184280">
            <g id="Group_1182168" data-name="Group 1182168">
              <g id="Group_1178877" data-name="Group 1178877">
                <g id="Group_1111311" data-name="Group 1111311">
                  <g id="Group_1098742" data-name="Group 1098742" transform="translate(1025.482 3093.101)">
                    <g id="Rectangle_400898" data-name="Rectangle 400898" transform="translate(-0.445 -0.445)" fill="#c1a1f0" stroke="#866fa7" stroke-width="1" opacity="0.859">
                      <rect width="76.345" height="76.345" rx="38.172" stroke="none"/>
                      <rect x="0.5" y="0.5" width="75.345" height="75.345" rx="37.672" fill="none"/>
                    </g>
                    <g id="Rectangle_400907" data-name="Rectangle 400907" transform="translate(-0.446 -0.445)" fill="none" stroke="#866fa7" stroke-width="1">
                      <rect width="76.345" height="76.345" rx="38.172" stroke="none"/>
                      <rect x="0.5" y="0.5" width="75.345" height="75.345" rx="37.672" fill="none"/>
                    </g>
                  </g>
                </g>
              </g>
            </g>
          </g>
        </g>
      </g>
    </g>
    <g id="g9024" transform="translate(311.061 1812.726)">
      <path id="path9026" d="M14.135-668.53H10v-4.135h4.135Z" transform="translate(-9.52 -9.52)" fill="#e279b3"/>
      <path id="path9028" d="M105.418-668.53H96.2v-4.135h9.217Z" transform="translate(-91.587 -9.52)" fill="#a2f5c3"/>
      <path id="path9030" d="M297.572-668.53h-9.217v-4.135h9.217Z" transform="translate(-274.524 -9.52)" fill="#88f2a9"/>
      <path id="path9032" d="M489.728-668.53h-9.217v-4.135h9.217Z" transform="translate(-457.463 -9.52)" fill="#a2f5c3"/>
      <path id="path9034" d="M14.135-582.329H10v-4.135h4.135Z" transform="translate(-9.52 -91.587)" fill="#b2e5fb"/>
      <path id="path9036" d="M14.135-496.129H10v-4.135h4.135Z" transform="translate(-9.52 -173.652)" fill="#91dafa"/>
      <path id="path9038" d="M14.135-409.928H10v-4.135h4.135Z" transform="translate(-9.52 -255.718)" fill="#b2e5fb"/>
      <path id="path9040" d="M14.135-323.729H10v-4.135h4.135Z" transform="translate(-9.52 -337.784)" fill="#91dafa"/>
      <path id="path9042" d="M14.135-237.529H10v-4.135h4.135Z" transform="translate(-9.52 -419.849)" fill="#b2e5fb"/>
      <path id="path9044" d="M14.135-151.328H10v-4.135h4.135Z" transform="translate(-9.52 -501.915)" fill="#91dafa"/>
      <path id="path9046" d="M123.85-561.656H96.2v-24.808h27.65Z" transform="translate(-91.586 -91.587)" fill="#e6fdef"/>
      <g id="g9048" transform="translate(0 -682.665)">
        <g id="g9050" clip-path="url(#clip-path)">
          <g id="g9056" transform="translate(17.612 23.866)">
            <path id="path9058" d="M-290.831-109.948c0,1.579-3.28,2.859-7.326,2.859s-7.326-1.28-7.326-2.859v-5.539h14.653Z" transform="translate(305.483 115.488)" fill="#b6c4cf"/>
          </g>
          <g id="g9060" transform="translate(17.612 23.866)">
            <path id="path9062" d="M-145.416-166.7c4.046,0,7.326-1.28,7.326-2.859v-5.539h-1.787v4.84a.89.89,0,0,1-.586.839,15.125,15.125,0,0,1-4.953.753c-4.046,0-7.326-1.28-7.326-2.859v1.966c0,1.579,3.28,2.859,7.326,2.859" transform="translate(152.742 175.094)" fill="#9facba"/>
          </g>
          <g id="g9064" transform="translate(17.612 18.327)">
            <path id="path9066" d="M-290.831-109.948c0,1.579-3.28,2.859-7.326,2.859s-7.326-1.28-7.326-2.859v-5.539h14.653Z" transform="translate(305.483 115.488)" fill="#b6c4cf"/>
          </g>
          <g id="g9068" transform="translate(17.612 18.327)">
            <path id="path9070" d="M-145.416-166.7c4.046,0,7.326-1.28,7.326-2.859v-5.539h-1.787v4.84a.89.89,0,0,1-.586.839,15.125,15.125,0,0,1-4.953.753c-4.046,0-7.326-1.28-7.326-2.859v1.966c0,1.579,3.28,2.859,7.326,2.859" transform="translate(152.742 175.094)" fill="#9facba"/>
          </g>
          <g id="g9072" transform="translate(17.612 15.468)">
            <path id="path9074" d="M-290.831-56.747c0,1.579-3.28,2.859-7.326,2.859s-7.326-1.28-7.326-2.859,3.28-2.859,7.326-2.859,7.326,1.28,7.326,2.859" transform="translate(305.483 59.607)" fill="#d9e7ec"/>
          </g>
          <g id="g9076" transform="translate(13.351 4.135)">
            <path id="path9078" d="M-9.52,15.767a.48.48,0,0,1-.48-.48V-9.52A.48.48,0,0,1-9.52-10a.48.48,0,0,1,.48.48V15.287A.48.48,0,0,1-9.52,15.767Z" transform="translate(10 10)"/>
          </g>
          <g id="g9080" transform="translate(22.568 4.135)">
            <path id="path9082" d="M-9.52,1.813a.48.48,0,0,1-.48-.48V-9.52A.48.48,0,0,1-9.52-10a.48.48,0,0,1,.48.48V1.333A.48.48,0,0,1-9.52,1.813Z" transform="translate(10 10)"/>
          </g>
          <g id="g9084" transform="translate(0 8.269)">
            <path id="path9086" d="M22.265-9.041H-9.52A.48.48,0,0,1-10-9.52.48.48,0,0,1-9.52-10H22.265a.48.48,0,0,1,.48.48A.48.48,0,0,1,22.265-9.041Z" transform="translate(10 10)"/>
          </g>
          <g id="g9088" transform="translate(0 12.404)">
            <path id="path9090" d="M22.265-9.041H-9.52A.48.48,0,0,1-10-9.52.48.48,0,0,1-9.52-10H22.265a.48.48,0,0,1,.48.48A.48.48,0,0,1,22.265-9.041Z" transform="translate(10 10)"/>
          </g>
          <g id="g9092" transform="translate(0 16.539)">
            <path id="path9094" d="M8.358-9.041H-9.52A.48.48,0,0,1-10-9.52.48.48,0,0,1-9.52-10H8.358a.48.48,0,0,1,.48.48A.48.48,0,0,1,8.358-9.041Z" transform="translate(10 10)"/>
          </g>
          <g id="g9096" transform="translate(0 20.673)">
            <path id="path9098" d="M7.547-9.041H-9.52A.48.48,0,0,1-10-9.52.48.48,0,0,1-9.52-10H7.547a.48.48,0,0,1,.48.48A.48.48,0,0,1,7.547-9.041Z" transform="translate(10 10)"/>
          </g>
          <g id="g9100" transform="translate(0 24.808)">
            <path id="path9102" d="M7.547-9.041H-9.52A.48.48,0,0,1-10-9.52.48.48,0,0,1-9.52-10H7.547a.48.48,0,0,1,.48.48A.48.48,0,0,1,7.547-9.041Z" transform="translate(10 10)"/>
          </g>
          <g id="g9104" transform="translate(31.785 15.626)">
            <path id="path9106" d="M-9.52-68.181a.48.48,0,0,1-.48-.48v-2.98a.48.48,0,0,1,.48-.48.48.48,0,0,1,.48.48v2.98A.48.48,0,0,1-9.52-68.181Z" transform="translate(10 72.12)"/>
          </g>
          <g id="g9108" transform="translate(0 4.135)">
            <path id="path9110" d="M-126.938-501.431h-5.916a.48.48,0,0,1-.48-.48v-24.808a.48.48,0,0,1,.48-.48h31.785a.48.48,0,0,1,.48.48v9.253a.48.48,0,0,1-.48.48.48.48,0,0,1-.48-.48v-8.774h-30.826v23.848h5.436a.48.48,0,0,1,.48.48A.48.48,0,0,1-126.938-501.431Z" transform="translate(133.333 527.197)"/>
          </g>
          <g id="g9112" transform="translate(8.154 28.942)">
            <path id="path9114" d="M-186.446-9.041h-8.914a.48.48,0,0,1-.48-.48.48.48,0,0,1,.48-.48h8.914a.48.48,0,0,1,.48.48A.48.48,0,0,1-186.446-9.041Z" transform="translate(195.84 10)"/>
          </g>
          <g id="g9116" transform="translate(7.569 0)">
            <path id="path9118" d="M14.7-4.906a.48.48,0,0,1-.48-.48V-9.041H-9.52A.48.48,0,0,1-10-9.52.48.48,0,0,1-9.52-10H14.7a.48.48,0,0,1,.48.48v4.135A.48.48,0,0,1,14.7-4.906Z" transform="translate(10 10)"/>
          </g>
          <g id="g9120" transform="translate(0 0)">
            <path id="path9122" d="M-9.52-91.106a.48.48,0,0,1-.48-.48V-95.72a.48.48,0,0,1,.48-.48H-4.19a.48.48,0,0,1,.48.48.48.48,0,0,1-.48.48H-9.041v3.655A.48.48,0,0,1-9.52-91.106Z" transform="translate(10 96.2)"/>
          </g>
          <g id="g9124" transform="translate(13.351 0)">
            <path id="path9126" d="M-9.52-91.106a.48.48,0,0,1-.48-.48V-95.72a.48.48,0,0,1,.48-.48.48.48,0,0,1,.48.48v4.135A.48.48,0,0,1-9.52-91.106Z" transform="translate(10 96.2)"/>
          </g>
          <g id="g9128" transform="translate(22.568 0)">
            <path id="path9130" d="M-9.52-4.906a.48.48,0,0,1-.48-.48V-9.52A.48.48,0,0,1-9.52-10a.48.48,0,0,1,.48.48v4.135A.48.48,0,0,1-9.52-4.906Z" transform="translate(10 10)"/>
          </g>
          <g id="g9132" transform="translate(4.135 0)">
            <path id="path9134" d="M-9.52,19.9a.48.48,0,0,1-.48-.48V-9.52A.48.48,0,0,1-9.52-10a.48.48,0,0,1,.48.48V19.422A.48.48,0,0,1-9.52,19.9Z" transform="translate(10 10)"/>
          </g>
          <g id="g9136" transform="translate(17.132 23.386)">
            <path id="path9138" d="M-307.677-.642c-3.784,0-7.806-1.17-7.806-3.339V-9.52A.48.48,0,0,1-315-10a.48.48,0,0,1,.48.48v5.539c0,1.123,2.928,2.379,6.847,2.379s6.847-1.256,6.847-2.379V-9.52a.48.48,0,0,1,.48-.48.48.48,0,0,1,.48.48v5.539C-299.871-1.812-303.893-.642-307.677-.642Z" transform="translate(315.483 10)"/>
          </g>
          <g id="g9140" transform="translate(17.132 17.847)">
            <path id="path9142" d="M-307.677-.642c-3.784,0-7.806-1.17-7.806-3.339V-9.52A.48.48,0,0,1-315-10a.48.48,0,0,1,.48.48v5.539c0,1.123,2.928,2.379,6.847,2.379s6.847-1.256,6.847-2.379V-9.52a.48.48,0,0,1,.48-.48.48.48,0,0,1,.48.48v5.539C-299.871-1.812-303.893-.642-307.677-.642Z" transform="translate(315.483 10)"/>
          </g>
          <g id="g9144" transform="translate(17.132 14.988)">
            <path id="path9146" d="M-307.677-69.606c3.784,0,7.806,1.17,7.806,3.339s-4.022,3.339-7.806,3.339-7.806-1.17-7.806-3.339S-311.461-69.606-307.677-69.606Zm0,5.718c3.919,0,6.847-1.256,6.847-2.379s-2.928-2.379-6.847-2.379-6.847,1.256-6.847,2.379S-311.6-63.888-307.677-63.888Z" transform="translate(315.483 69.606)"/>
          </g>
          <g id="g9148" transform="translate(27.612 23.157)">
            <path id="path9150" d="M-19.234-9.618a.485.485,0,0,1-.485.485.485.485,0,0,1-.485-.485.485.485,0,0,1,.485-.485.485.485,0,0,1,.485.485" transform="translate(20.203 10.103)"/>
          </g>
          <g id="g9152" transform="translate(29.55 22.511)">
            <path id="path9154" d="M-19.235-9.617a.485.485,0,0,1-.485.485.484.484,0,0,1-.485-.485.485.485,0,0,1,.485-.485.485.485,0,0,1,.485.485" transform="translate(20.204 10.101)"/>
          </g>
          <g id="g9156" transform="translate(27.612 28.594)">
            <path id="path9158" d="M-19.234-9.617a.485.485,0,0,1-.485.485.485.485,0,0,1-.485-.485.484.484,0,0,1,.485-.485.484.484,0,0,1,.485.485" transform="translate(20.203 10.101)"/>
          </g>
          <g id="g9160" transform="translate(29.55 27.948)">
            <path id="path9162" d="M-19.235-9.617a.485.485,0,0,1-.485.485.485.485,0,0,1-.485-.485.484.484,0,0,1,.485-.485.485.485,0,0,1,.485.485" transform="translate(20.204 10.101)"/>
          </g>
        </g>
      </g>
    </g>
  </g>
</svg>
