<svg xmlns="http://www.w3.org/2000/svg" width="190" height="148" viewBox="0 0 190 148">
  <g id="Group_1204736" data-name="Group 1204736" transform="translate(-1230 -2610)">
    <rect id="Rectangle_411914" data-name="Rectangle 411914" width="190" height="148" transform="translate(1230 2610)" fill="#ffc94a"/>
    <g id="codigo-binario" transform="translate(1282 2641)">
      <path id="Path_1253908" data-name="Path 1253908" d="M57.246,58v5.366H17V58H57.246Z" transform="translate(5.465 19.468)" fill="#969faa"/>
      <g id="Group_1204735" data-name="Group 1204735" transform="translate(22.465 66.736)">
        <path id="Path_1253909" data-name="Path 1253909" d="M18.945,55.489A2.683,2.683,0,0,1,21.347,54h9.069v5.366H17Z" transform="translate(-17 -48.634)" fill="#aab2bd"/>
        <path id="Path_1253910" data-name="Path 1253910" d="M40.415,55.366v5.366H27V50H40.415Z" transform="translate(-13.585 -50)" fill="#aab2bd"/>
        <path id="Path_1253911" data-name="Path 1253911" d="M48.47,55.489l1.945,3.877H37V54h9.069a2.683,2.683,0,0,1,2.4,1.489Z" transform="translate(-10.169 -48.634)" fill="#aab2bd"/>
      </g>
      <path id="Path_1253912" data-name="Path 1253912" d="M82.493,42v5.366a5.365,5.365,0,0,1-5.366,5.366H7.366A5.365,5.365,0,0,1,2,47.366V42H30.172v2.683a2.691,2.691,0,0,0,2.683,2.683H51.637a2.691,2.691,0,0,0,2.683-2.683V42H82.493Z" transform="translate(0.342 14.003)" fill="#ccd1d9"/>
      <path id="Path_1253913" data-name="Path 1253913" d="M10.049,41.514V52.246H2V17.366A5.365,5.365,0,0,1,7.366,12h2.683Z" transform="translate(0.342 3.757)" fill="#69d6f4"/>
      <path id="Path_1253914" data-name="Path 1253914" d="M64.049,17.366v34.88H56V12h2.683A5.365,5.365,0,0,1,64.049,17.366Z" transform="translate(18.785 3.757)" fill="#69d6f4"/>
      <path id="Path_1253915" data-name="Path 1253915" d="M23,42v2.683a2.691,2.691,0,0,0,2.683,2.683H44.465a2.691,2.691,0,0,0,2.683-2.683V42Z" transform="translate(7.514 14.003)" fill="#fcd770"/>
      <path id="Path_1253916" data-name="Path 1253916" d="M30.806,8l-2.683,2.683H8V53.613H72.394V8Z" transform="translate(2.391 2.391)" fill="#e6e9ed"/>
      <path id="Path_1253917" data-name="Path 1253917" d="M8,12.732V4.683A2.691,2.691,0,0,1,10.683,2H69.711a2.691,2.691,0,0,1,2.683,2.683v5.366H30.806l-2.683,2.683H8Z" transform="translate(2.391 0.342)" fill="#fcd770"/>
      <circle id="Ellipse_12602" data-name="Ellipse 12602" cx="17" cy="17" r="17" transform="translate(35 16.176)" fill="#5cd6b3"/>
      <path id="Path_1253918" data-name="Path 1253918" d="M43.782,11A18.782,18.782,0,1,0,62.563,29.782,18.8,18.8,0,0,0,43.782,11Zm0,34.88a16.1,16.1,0,1,1,16.1-16.1A16.116,16.116,0,0,1,43.782,45.88Z" transform="translate(8.197 3.415)"/>
      <path id="Path_1253919" data-name="Path 1253919" d="M44.314,19.375l-2.1,1.677,4.7,5.869-4.7,5.869,2.1,1.677,6.037-7.546Z" transform="translate(14.078 6.276)"/>
      <path id="Path_1253920" data-name="Path 1253920" d="M35.756,19.375l-6.037,7.546,6.037,7.546,2.1-1.677-4.7-5.869,4.7-5.869Z" transform="translate(9.809 6.276)"/>
      <path id="Path_1253921" data-name="Path 1253921" d="M0,0H18.972V2.683H0Z" transform="translate(49.326 42.406) rotate(-81.837)"/>
      <path id="Path_1253922" data-name="Path 1253922" d="M77.468,14.415H76.127V5.025A4.03,4.03,0,0,0,72.1,1H13.074A4.03,4.03,0,0,0,9.049,5.025v9.391H7.708A6.715,6.715,0,0,0,1,21.123V61.37a6.715,6.715,0,0,0,6.708,6.708H34.539V70.76H26.806a4,4,0,0,0-3.6,2.224l-2.083,4.167v7.024H64.053V77.151l-2.083-4.167a4,4,0,0,0-3.6-2.224H50.637V68.077H77.468a6.715,6.715,0,0,0,6.708-6.708V21.123A6.715,6.715,0,0,0,77.468,14.415Zm0,2.683a4.03,4.03,0,0,1,4.025,4.025V54.662H76.127V17.1ZM31.856,57.345h5.366v2.683H33.2a1.344,1.344,0,0,1-1.342-1.342Zm8.049,0h5.366v2.683H39.9Zm8.049,0H53.32v1.342a1.344,1.344,0,0,1-1.342,1.342H47.954ZM11.732,54.662V14.415H31.069l2.683-2.683H73.443V54.662ZM13.074,3.683H72.1a1.344,1.344,0,0,1,1.342,1.342V9.049h-40.8l-2.683,2.683H11.732V5.025A1.344,1.344,0,0,1,13.074,3.683ZM7.708,17.1H9.049V54.662H3.683V21.123A4.03,4.03,0,0,1,7.708,17.1Zm19.1,56.345h7.733v2.683h-9.9l.971-1.941a1.333,1.333,0,0,1,1.2-.742Zm-3,8.049V78.81H61.37v2.683ZM58.37,73.443a1.333,1.333,0,0,1,1.2.742l.971,1.941h-9.9V73.443ZM47.954,76.127H37.222V68.077H47.954ZM77.468,65.394H7.708A4.03,4.03,0,0,1,3.683,61.37V57.345H29.172v1.342A4.03,4.03,0,0,0,33.2,62.711H51.979A4.03,4.03,0,0,0,56,58.686V57.345H81.493V61.37A4.03,4.03,0,0,1,77.468,65.394Z"/>
      <path id="Path_1253923" data-name="Path 1253923" d="M19,5h2.683V7.683H19Z" transform="translate(6.148 1.366)"/>
      <path id="Path_1253924" data-name="Path 1253924" d="M15,5h2.683V7.683H15Z" transform="translate(4.782 1.366)"/>
      <path id="Path_1253925" data-name="Path 1253925" d="M11,5h2.683V7.683H11Z" transform="translate(3.415 1.366)"/>
      <path id="Path_1253926" data-name="Path 1253926" d="M16.366,37.148h2.683V13H16.366v2.683H11v2.683h5.366v2.683H11v2.683h5.366v2.683H11V29.1h5.366v2.683H11v2.683h5.366Z" transform="translate(3.415 4.099)"/>
      <path id="Path_1253927" data-name="Path 1253927" d="M19,15h5.366v2.683H19Z" transform="translate(6.148 4.782)"/>
      <path id="Path_1253928" data-name="Path 1253928" d="M19,19h5.366v2.683H19Z" transform="translate(6.148 6.148)"/>
      <path id="Path_1253929" data-name="Path 1253929" d="M19,23h5.366v2.683H19Z" transform="translate(6.148 7.514)"/>
      <path id="Path_1253930" data-name="Path 1253930" d="M19,27h5.366v2.683H19Z" transform="translate(6.148 8.88)"/>
      <path id="Path_1253931" data-name="Path 1253931" d="M11,33h2.683v2.683H11Z" transform="translate(3.415 10.929)"/>
      <path id="Path_1253932" data-name="Path 1253932" d="M15,33H25.732v2.683H15Z" transform="translate(4.782 10.929)"/>
      <path id="Path_1253933" data-name="Path 1253933" d="M11,37H27.1v2.683H11Z" transform="translate(3.415 12.296)"/>
    </g>
  </g>
</svg>
