<svg xmlns="http://www.w3.org/2000/svg" xmlns:xlink="http://www.w3.org/1999/xlink" width="115" height="115" viewBox="0 0 115 115">
  <defs>
    <clipPath id="clip-path">
      <rect id="Rectangle_411880" data-name="Rectangle 411880" width="115" height="115" transform="translate(800.781 1954)" fill="#e8bad8" opacity="0.41"/>
    </clipPath>
  </defs>
  <g id="Group_1204995" data-name="Group 1204995" transform="translate(-3769 4879)">
    <g id="Group_1204951" data-name="Group 1204951" transform="translate(4211 140)">
      <g id="Mask_Group_1099347" data-name="Mask Group 1099347" transform="translate(-1242.781 -6973)" clip-path="url(#clip-path)">
        <g id="Group_1204355" data-name="Group 1204355" transform="translate(799.781 1960.273)">
          <g id="Group_1204342" data-name="Group 1204342" transform="translate(1)">
            <ellipse id="Ellipse_12464" data-name="Ellipse 12464" cx="28.658" cy="28.658" rx="28.658" ry="28.658" transform="translate(56.527 44.289)" fill="#ffc94a"/>
            <ellipse id="Ellipse_12465" data-name="Ellipse 12465" cx="20.842" cy="20.842" rx="20.842" ry="20.842" fill="#ffc94a"/>
          </g>
        </g>
      </g>
    </g>
    <g id="nube" transform="translate(3794 -4854.995)">
      <path id="Path_1254871" data-name="Path 1254871" d="M11.892,41.3A10.893,10.893,0,0,1,9.484,19.79a.537.537,0,0,0,.414-.643,9.028,9.028,0,0,1-.142-2.669,8.7,8.7,0,0,1,11.982-7.2.545.545,0,0,0,.686-.251,15.274,15.274,0,0,1,28.637,5.653.545.545,0,0,0,.523.49,13.071,13.071,0,0,1,1.688,25.947Z" transform="translate(0.09 0.09)" fill="#6ddcdd"/>
      <path id="Path_1254872" data-name="Path 1254872" d="M52.393,32.8V26.268A3.268,3.268,0,0,0,49.125,23H14.268A3.268,3.268,0,0,0,11,26.268V32.8a3.268,3.268,0,0,0,3.268,3.268A3.268,3.268,0,0,0,11,39.339v6.536a3.268,3.268,0,0,0,3.268,3.268A3.268,3.268,0,0,0,11,52.41v6.536a3.268,3.268,0,0,0,3.268,3.268H49.125a3.268,3.268,0,0,0,3.268-3.268V52.41a3.268,3.268,0,0,0-3.268-3.268,3.268,3.268,0,0,0,3.268-3.268V39.339a3.268,3.268,0,0,0-3.268-3.268A3.268,3.268,0,0,0,52.393,32.8Z" transform="translate(0.982 2.054)" fill="#609dc8"/>
      <rect id="Rectangle_412184" data-name="Rectangle 412184" width="41.393" height="13.071" rx="3" transform="translate(11.982 38.125)" fill="#4b88a9"/>
      <circle id="Ellipse_12634" data-name="Ellipse 12634" cx="2.179" cy="2.179" r="2.179" transform="translate(16.339 42.482)" fill="#fde36e"/>
      <circle id="Ellipse_12635" data-name="Ellipse 12635" cx="2.179" cy="2.179" r="2.179" transform="translate(25.053 42.482)" fill="#6ddcdd"/>
      <circle id="Ellipse_12636" data-name="Ellipse 12636" cx="2.179" cy="2.179" r="2.179" transform="translate(16.339 29.411)" fill="#fde36e"/>
      <circle id="Ellipse_12637" data-name="Ellipse 12637" cx="2.179" cy="2.179" r="2.179" transform="translate(25.053 29.411)" fill="#6ddcdd"/>
      <circle id="Ellipse_12638" data-name="Ellipse 12638" cx="2.179" cy="2.179" r="2.179" transform="translate(16.339 55.554)" fill="#fde36e"/>
      <circle id="Ellipse_12639" data-name="Ellipse 12639" cx="2.179" cy="2.179" r="2.179" transform="translate(25.053 55.554)" fill="#6ddcdd"/>
      <g id="Group_1204994" data-name="Group 1204994" transform="translate(0 -0.005)">
        <path id="Path_1254873" data-name="Path 1254873" d="M17.268,38a3.268,3.268,0,1,0,3.268,3.268A3.268,3.268,0,0,0,17.268,38Zm0,4.357a1.089,1.089,0,1,1,1.089-1.089A1.089,1.089,0,0,1,17.268,42.357Z" transform="translate(1.25 3.398)" fill="#373737"/>
        <path id="Path_1254874" data-name="Path 1254874" d="M25.268,38a3.268,3.268,0,1,0,3.268,3.268A3.268,3.268,0,0,0,25.268,38Zm0,4.357a1.089,1.089,0,1,1,1.089-1.089A1.089,1.089,0,0,1,25.268,42.357Z" transform="translate(1.964 3.398)" fill="#373737"/>
        <path id="Path_1254875" data-name="Path 1254875" d="M17.268,26a3.268,3.268,0,1,0,3.268,3.268A3.268,3.268,0,0,0,17.268,26Zm0,4.357a1.089,1.089,0,1,1,1.089-1.089A1.089,1.089,0,0,1,17.268,30.357Z" transform="translate(1.25 2.326)" fill="#373737"/>
        <path id="Path_1254876" data-name="Path 1254876" d="M25.268,26a3.268,3.268,0,1,0,3.268,3.268A3.268,3.268,0,0,0,25.268,26Zm0,4.357a1.089,1.089,0,1,1,1.089-1.089A1.089,1.089,0,0,1,25.268,30.357Z" transform="translate(1.964 2.326)" fill="#373737"/>
        <path id="Path_1254877" data-name="Path 1254877" d="M17.268,56.536A3.268,3.268,0,1,0,14,53.268a3.268,3.268,0,0,0,3.268,3.268Zm0-4.357a1.089,1.089,0,1,1-1.089,1.089A1.089,1.089,0,0,1,17.268,52.179Z" transform="translate(1.25 4.469)" fill="#373737"/>
        <path id="Path_1254878" data-name="Path 1254878" d="M25.268,56.536A3.268,3.268,0,1,0,22,53.268a3.268,3.268,0,0,0,3.268,3.268Zm0-4.357a1.089,1.089,0,1,1-1.089,1.089A1.089,1.089,0,0,1,25.268,52.179Z" transform="translate(1.964 4.469)" fill="#373737"/>
        <path id="Path_1254879" data-name="Path 1254879" d="M52.182,14.2a16.364,16.364,0,0,0-30.4-6.011,9.927,9.927,0,0,0-4.611-.474A9.793,9.793,0,0,0,8.76,16.466a10.18,10.18,0,0,0,.066,2.476A12.013,12.013,0,0,0,1,25.707a1.089,1.089,0,1,0,2,.871A9.819,9.819,0,0,1,9.81,20.944a1.626,1.626,0,0,0,1.028-.72,1.594,1.594,0,0,0,.218-1.206,7.966,7.966,0,0,1-.123-2.352A7.6,7.6,0,0,1,17.46,9.873a7.8,7.8,0,0,1,3.986.514,1.644,1.644,0,0,0,2.03-.753A14.185,14.185,0,0,1,50.071,14.9a1.634,1.634,0,0,0,1.566,1.448A11.982,11.982,0,0,1,54.19,39.92a4.351,4.351,0,0,0-1.232-1.8,4.329,4.329,0,0,0,1.505-3.268V28.322a4.357,4.357,0,0,0-4.357-4.357H15.25a4.357,4.357,0,0,0-4.357,4.357v6.536A4.329,4.329,0,0,0,12.4,38.125a4.335,4.335,0,0,0-1.337,2.132A9.813,9.813,0,0,1,2.179,30.5,1.089,1.089,0,1,0,0,30.5,11.993,11.993,0,0,0,10.893,42.427v5.5A4.329,4.329,0,0,0,12.4,51.2a4.329,4.329,0,0,0-1.505,3.268V61a4.357,4.357,0,0,0,4.357,4.357H50.107A4.357,4.357,0,0,0,54.464,61V54.464A4.329,4.329,0,0,0,52.958,51.2a4.329,4.329,0,0,0,1.505-3.268V42.087A14.152,14.152,0,0,0,52.182,14.2ZM13.071,34.857V28.322a2.179,2.179,0,0,1,2.179-2.179H50.107a2.179,2.179,0,0,1,2.179,2.179v6.536a2.179,2.179,0,0,1-2.179,2.179H15.25A2.179,2.179,0,0,1,13.071,34.857ZM52.285,54.464V61a2.179,2.179,0,0,1-2.179,2.179H15.25A2.179,2.179,0,0,1,13.071,61V54.464a2.179,2.179,0,0,1,2.179-2.179H50.107A2.179,2.179,0,0,1,52.285,54.464ZM15.25,50.107a2.179,2.179,0,0,1-2.179-2.179V41.393a2.179,2.179,0,0,1,2.179-2.179H50.107a2.179,2.179,0,0,1,2.179,2.179v6.536a2.179,2.179,0,0,1-2.179,2.179Z" transform="translate(0 0.005)" fill="#373737"/>
        <path id="Path_1254880" data-name="Path 1254880" d="M26.127,11.319a1.089,1.089,0,0,0-1.54,0l-3.268,3.268a1.089,1.089,0,0,0,0,1.54L24.587,19.4a1.089,1.089,0,1,0,1.54-1.54l-2.5-2.5,2.5-2.5a1.089,1.089,0,0,0,0-1.54Z" transform="translate(1.875 0.987)" fill="#373737"/>
        <path id="Path_1254881" data-name="Path 1254881" d="M34.319,19.4a1.089,1.089,0,0,0,1.54,0l3.268-3.268a1.089,1.089,0,0,0,0-1.54l-3.268-3.268a1.089,1.089,0,1,0-1.54,1.54l2.5,2.5-2.5,2.5A1.089,1.089,0,0,0,34.319,19.4Z" transform="translate(3.035 0.987)" fill="#373737"/>
        <path id="Path_1254882" data-name="Path 1254882" d="M29.09,19.714a1.089,1.089,0,0,0,1.033-.745L32.3,12.434a1.091,1.091,0,0,0-2.07-.688l-2.179,6.536a1.089,1.089,0,0,0,1.037,1.433Z" transform="translate(2.499 0.987)" fill="#373737"/>
        <path id="Path_1254883" data-name="Path 1254883" d="M35.179,38H34.089a1.089,1.089,0,1,0,0,2.179h1.089a1.089,1.089,0,0,0,0-2.179Z" transform="translate(2.946 3.398)" fill="#373737"/>
        <path id="Path_1254884" data-name="Path 1254884" d="M35.179,42H34.089a1.089,1.089,0,1,0,0,2.179h1.089a1.089,1.089,0,0,0,0-2.179Z" transform="translate(2.946 3.755)" fill="#373737"/>
        <path id="Path_1254885" data-name="Path 1254885" d="M40.179,38H39.089a1.089,1.089,0,0,0,0,2.179h1.089a1.089,1.089,0,0,0,0-2.179Z" transform="translate(3.393 3.398)" fill="#373737"/>
        <path id="Path_1254886" data-name="Path 1254886" d="M40.179,42H39.089a1.089,1.089,0,0,0,0,2.179h1.089a1.089,1.089,0,0,0,0-2.179Z" transform="translate(3.393 3.755)" fill="#373737"/>
        <path id="Path_1254887" data-name="Path 1254887" d="M45.179,38H44.089a1.089,1.089,0,0,0,0,2.179h1.089a1.089,1.089,0,1,0,0-2.179Z" transform="translate(3.839 3.398)" fill="#373737"/>
        <path id="Path_1254888" data-name="Path 1254888" d="M45.179,42H44.089a1.089,1.089,0,0,0,0,2.179h1.089a1.089,1.089,0,1,0,0-2.179Z" transform="translate(3.839 3.755)" fill="#373737"/>
        <path id="Path_1254889" data-name="Path 1254889" d="M34.089,52.179h1.089a1.089,1.089,0,0,0,0-2.179H34.089a1.089,1.089,0,1,0,0,2.179Z" transform="translate(2.946 4.469)" fill="#373737"/>
        <path id="Path_1254890" data-name="Path 1254890" d="M34.089,56.179h1.089a1.089,1.089,0,1,0,0-2.179H34.089a1.089,1.089,0,1,0,0,2.179Z" transform="translate(2.946 4.826)" fill="#373737"/>
        <path id="Path_1254891" data-name="Path 1254891" d="M39.089,52.179h1.089a1.089,1.089,0,0,0,0-2.179H39.089a1.089,1.089,0,0,0,0,2.179Z" transform="translate(3.393 4.469)" fill="#373737"/>
        <path id="Path_1254892" data-name="Path 1254892" d="M39.089,56.179h1.089a1.089,1.089,0,1,0,0-2.179H39.089a1.089,1.089,0,1,0,0,2.179Z" transform="translate(3.393 4.826)" fill="#373737"/>
        <path id="Path_1254893" data-name="Path 1254893" d="M44.089,52.179h1.089a1.089,1.089,0,1,0,0-2.179H44.089a1.089,1.089,0,0,0,0,2.179Z" transform="translate(3.839 4.469)" fill="#373737"/>
        <path id="Path_1254894" data-name="Path 1254894" d="M44.089,56.179h1.089a1.089,1.089,0,1,0,0-2.179H44.089a1.089,1.089,0,1,0,0,2.179Z" transform="translate(3.839 4.826)" fill="#373737"/>
        <path id="Path_1254895" data-name="Path 1254895" d="M35.179,26H34.089a1.089,1.089,0,1,0,0,2.179h1.089a1.089,1.089,0,0,0,0-2.179Z" transform="translate(2.946 2.326)" fill="#373737"/>
        <path id="Path_1254896" data-name="Path 1254896" d="M35.179,30H34.089a1.089,1.089,0,1,0,0,2.179h1.089a1.089,1.089,0,0,0,0-2.179Z" transform="translate(2.946 2.684)" fill="#373737"/>
        <path id="Path_1254897" data-name="Path 1254897" d="M40.179,26H39.089a1.089,1.089,0,0,0,0,2.179h1.089a1.089,1.089,0,0,0,0-2.179Z" transform="translate(3.393 2.326)" fill="#373737"/>
        <path id="Path_1254898" data-name="Path 1254898" d="M40.179,30H39.089a1.089,1.089,0,0,0,0,2.179h1.089a1.089,1.089,0,0,0,0-2.179Z" transform="translate(3.393 2.684)" fill="#373737"/>
        <path id="Path_1254899" data-name="Path 1254899" d="M44.089,28.179h1.089a1.089,1.089,0,1,0,0-2.179H44.089a1.089,1.089,0,0,0,0,2.179Z" transform="translate(3.839 2.326)" fill="#373737"/>
        <path id="Path_1254900" data-name="Path 1254900" d="M45.179,30H44.089a1.089,1.089,0,0,0,0,2.179h1.089a1.089,1.089,0,1,0,0-2.179Z" transform="translate(3.839 2.684)" fill="#373737"/>
      </g>
    </g>
  </g>
</svg>
