<svg xmlns="http://www.w3.org/2000/svg" xmlns:xlink="http://www.w3.org/1999/xlink" width="115" height="115" viewBox="0 0 115 115">
  <defs>
    <clipPath id="clip-path">
      <rect id="Rectangle_411946" data-name="Rectangle 411946" width="115" height="115" transform="translate(800.781 1954)" fill="#e8bad8" opacity="0.41"/>
    </clipPath>
  </defs>
  <g id="Group_1204746" data-name="Group 1204746" transform="translate(-793 -7711)">
    <g id="Mask_Group_1099363" data-name="Mask Group 1099363" transform="translate(-7.781 5757)" clip-path="url(#clip-path)">
      <g id="Group_1204450" data-name="Group 1204450" transform="translate(799.781 1960.273)">
        <g id="Group_1204437" data-name="Group 1204437" transform="translate(1)">
          <ellipse id="Ellipse_12470" data-name="Ellipse 12470" cx="28.658" cy="28.658" rx="28.658" ry="28.658" transform="translate(56.527 44.289)" fill="#ffc94a"/>
          <ellipse id="Ellipse_12471" data-name="Ellipse 12471" cx="20.842" cy="20.842" rx="20.842" ry="20.842" fill="#ffc94a"/>
        </g>
      </g>
    </g>
    <g id="coding-programer-web_design-programing-developer" data-name="coding-programer-web design-programing-developer" transform="translate(814 7733)">
      <path id="Path_1254048" data-name="Path 1254048" d="M69.151,51v2.281a2.288,2.288,0,0,1-2.281,2.281H5.281A2.288,2.288,0,0,1,3,53.281V51Z" transform="translate(0.141 6.886)" fill="#004fac"/>
      <path id="Path_1254049" data-name="Path 1254049" d="M69.151,52.686H3L7.562,39H64.589Z" transform="translate(0.141 5.2)" fill="#a7a9ac"/>
      <path id="Path_1254050" data-name="Path 1254050" d="M64.589,39H60.553a10.4,10.4,0,0,1-10.39,10.265H4.141L3,52.686H69.151Z" transform="translate(0.141 5.2)" fill="#939598"/>
      <path id="Path_1254051" data-name="Path 1254051" d="M53.108,47.132V58.161a2.288,2.288,0,0,1-.673,1.62l-.935.935a2.288,2.288,0,0,0-.673,1.62v2.475H38.281V62.336a2.288,2.288,0,0,0-.673-1.62l-.935-.935A2.288,2.288,0,0,1,36,58.161V51.695a1.711,1.711,0,0,1,1.711-1.711h1.711V44.851a1.711,1.711,0,0,1,3.422,0V43.711a1.711,1.711,0,0,1,3.422,0v1.141a1.711,1.711,0,1,1,3.422,0v2.281a1.711,1.711,0,0,1,3.422,0Z" transform="translate(4.778 5.622)" fill="#ffb8a5"/>
      <path id="Path_1254052" data-name="Path 1254052" d="M49.711,45a1.719,1.719,0,0,0-.57.1,1.7,1.7,0,0,1,1.141,1.607V57.74a2.288,2.288,0,0,1-.673,1.62l-.935.935A2.288,2.288,0,0,0,48,61.914v2.475h1.141V61.914a2.288,2.288,0,0,1,.673-1.62l.935-.935a2.288,2.288,0,0,0,.673-1.62V46.711A1.711,1.711,0,0,0,49.711,45Z" transform="translate(6.465 6.043)" fill="#ff9478"/>
      <path id="Path_1254053" data-name="Path 1254053" d="M46.57,43a1.719,1.719,0,0,0-.57.1,1.7,1.7,0,0,1,1.141,1.607V48.7h1.141V44.711A1.711,1.711,0,0,0,46.57,43Z" transform="translate(6.184 5.762)" fill="#ff9478"/>
      <path id="Path_1254054" data-name="Path 1254054" d="M43.57,42a1.719,1.719,0,0,0-.57.1,1.7,1.7,0,0,1,1.141,1.607v5.132h1.141V43.711A1.711,1.711,0,0,0,43.57,42Z" transform="translate(5.762 5.622)" fill="#ff9478"/>
      <path id="Path_1254055" data-name="Path 1254055" d="M40.57,43a1.719,1.719,0,0,0-.57.1,1.7,1.7,0,0,1,1.141,1.607V48.7h1.141V44.711A1.711,1.711,0,0,0,40.57,43Z" transform="translate(5.341 5.762)" fill="#ff9478"/>
      <path id="Path_1254056" data-name="Path 1254056" d="M38,49h1.141v4.562H38Z" transform="translate(5.059 6.605)" fill="#ff9478"/>
      <path id="Path_1254057" data-name="Path 1254057" d="M13,47.132V58.161a2.288,2.288,0,0,0,.673,1.62l.935.935a2.288,2.288,0,0,1,.673,1.62v2.475H27.827V62.336a2.288,2.288,0,0,1,.673-1.62l.935-.935a2.288,2.288,0,0,0,.673-1.62V51.695A1.711,1.711,0,0,0,28.4,49.984H26.686V44.851a1.711,1.711,0,0,0-3.422,0V43.711a1.711,1.711,0,0,0-3.422,0v1.141a1.711,1.711,0,0,0-3.422,0v2.281a1.711,1.711,0,0,0-3.422,0Z" transform="translate(1.546 5.622)" fill="#ffb8a5"/>
      <path id="Path_1254058" data-name="Path 1254058" d="M14.711,45a1.719,1.719,0,0,1,.57.1,1.7,1.7,0,0,0-1.141,1.607V57.74a2.288,2.288,0,0,0,.673,1.62l.935.935a2.288,2.288,0,0,1,.673,1.62v2.475H15.281V61.914a2.288,2.288,0,0,0-.673-1.62l-.935-.935A2.288,2.288,0,0,1,13,57.74V46.711A1.711,1.711,0,0,1,14.711,45Z" transform="translate(1.546 6.043)" fill="#ff9478"/>
      <path id="Path_1254059" data-name="Path 1254059" d="M17.711,43a1.719,1.719,0,0,1,.57.1,1.7,1.7,0,0,0-1.141,1.607V48.7H16V44.711A1.711,1.711,0,0,1,17.711,43Z" transform="translate(1.968 5.762)" fill="#ff9478"/>
      <path id="Path_1254060" data-name="Path 1254060" d="M20.711,42a1.719,1.719,0,0,1,.57.1,1.7,1.7,0,0,0-1.141,1.607v5.132H19V43.711A1.711,1.711,0,0,1,20.711,42Z" transform="translate(2.389 5.622)" fill="#ff9478"/>
      <path id="Path_1254061" data-name="Path 1254061" d="M23.711,43a1.719,1.719,0,0,1,.57.1,1.7,1.7,0,0,0-1.141,1.607V48.7H22V44.711A1.711,1.711,0,0,1,23.711,43Z" transform="translate(2.811 5.762)" fill="#ff9478"/>
      <path id="Path_1254062" data-name="Path 1254062" d="M0,0H1.141V4.562H0Z" transform="translate(29.373 60.168) rotate(180)" fill="#ff9478"/>
      <path id="Path_1254063" data-name="Path 1254063" d="M64.027,5.281V44.059H7V5.281A2.288,2.288,0,0,1,9.281,3H61.746a2.288,2.288,0,0,1,2.281,2.281Z" transform="translate(0.703 0.141)" fill="#006df0"/>
      <path id="Path_1254064" data-name="Path 1254064" d="M11,7H58.9V38.935H11Z" transform="translate(1.265 0.703)" fill="#ffeb99"/>
      <path id="Path_1254065" data-name="Path 1254065" d="M25,38.935H56.935V7A31.935,31.935,0,0,1,25,38.935Z" transform="translate(3.232 0.703)" fill="#ffe477"/>
      <g id="Group_1204745" data-name="Group 1204745" transform="translate(2 2)">
        <path id="Path_1254066" data-name="Path 1254066" d="M29.192,18.336a1.141,1.141,0,0,0,1.582.316L34.2,16.371a1.141,1.141,0,0,0,0-1.9l-3.422-2.281a1.141,1.141,0,1,0-1.266,1.9l2,1.332-2,1.332a1.141,1.141,0,0,0-.319,1.582Z" transform="translate(1.795 -0.595)" fill="#231f20"/>
        <path id="Path_1254067" data-name="Path 1254067" d="M22.57,20.117a1.127,1.127,0,0,0,.57.151,1.141,1.141,0,0,0,.991-.57l4.562-7.984a1.141,1.141,0,1,0-1.98-1.131l-4.562,7.984A1.141,1.141,0,0,0,22.57,20.117Z" transform="translate(0.811 -0.878)" fill="#231f20"/>
        <path id="Path_1254068" data-name="Path 1254068" d="M22.141,23.281h2.281a1.141,1.141,0,1,0,0-2.281H22.141a1.141,1.141,0,1,0,0,2.281Z" transform="translate(0.67 0.67)" fill="#231f20"/>
        <path id="Path_1254069" data-name="Path 1254069" d="M22.141,27.281H38.108a1.141,1.141,0,1,0,0-2.281H22.141a1.141,1.141,0,1,0,0,2.281Z" transform="translate(0.67 1.232)" fill="#231f20"/>
        <path id="Path_1254070" data-name="Path 1254070" d="M27,22.141a1.141,1.141,0,0,0,1.141,1.141H44.108a1.141,1.141,0,1,0,0-2.281H28.141A1.141,1.141,0,0,0,27,22.141Z" transform="translate(1.513 0.67)" fill="#231f20"/>
        <path id="Path_1254071" data-name="Path 1254071" d="M42.422,25H40.141a1.141,1.141,0,1,0,0,2.281h2.281a1.141,1.141,0,1,0,0-2.281Z" transform="translate(3.2 1.232)" fill="#231f20"/>
        <path id="Path_1254072" data-name="Path 1254072" d="M22.141,31.281h2.281a1.141,1.141,0,1,0,0-2.281H22.141a1.141,1.141,0,1,0,0,2.281Z" transform="translate(0.67 1.795)" fill="#231f20"/>
        <path id="Path_1254073" data-name="Path 1254073" d="M44.108,29H28.141a1.141,1.141,0,0,0,0,2.281H44.108a1.141,1.141,0,1,0,0-2.281Z" transform="translate(1.513 1.795)" fill="#231f20"/>
        <path id="Path_1254074" data-name="Path 1254074" d="M65.87,44.017V5.422A3.432,3.432,0,0,0,62.449,2H9.984A3.432,3.432,0,0,0,6.562,5.422v38.6L2,57.7v2.464a3.432,3.432,0,0,0,3.422,3.422h7.984v.194a3.371,3.371,0,0,0,1,2.418l.947.947a1.129,1.129,0,0,1,.331.81v1.334a1.141,1.141,0,1,0,2.281,0V67.957a3.371,3.371,0,0,0-1-2.418l-.947-.947a1.129,1.129,0,0,1-.331-.81V52.754a.57.57,0,1,1,1.141,0v3.992a1.141,1.141,0,0,0,2.281,0V50.473a.57.57,0,1,1,1.141,0v6.273a1.141,1.141,0,0,0,2.281,0V49.332a.57.57,0,0,1,1.141,0v7.414a1.141,1.141,0,0,0,2.281,0V50.473a.57.57,0,1,1,1.141,0v9.695a1.141,1.141,0,1,0,2.281,0V56.746h.57a.57.57,0,0,1,.57.57v6.467a1.129,1.129,0,0,1-.331.81l-.947.947a3.371,3.371,0,0,0-1,2.418v1.334a1.141,1.141,0,1,0,2.281,0V67.957a1.129,1.129,0,0,1,.331-.81l.947-.947a3.371,3.371,0,0,0,1-2.418v-.194h6.843v.194a3.371,3.371,0,0,0,1,2.418l.947.947a1.129,1.129,0,0,1,.331.81v1.334a1.141,1.141,0,1,0,2.281,0V67.957a3.371,3.371,0,0,0-1-2.418l-.947-.947a1.129,1.129,0,0,1-.331-.81V57.316a.57.57,0,0,1,.57-.57h.57v3.422a1.141,1.141,0,1,0,2.281,0V50.473a.57.57,0,1,1,1.141,0v6.273a1.141,1.141,0,0,0,2.281,0V49.332a.57.57,0,0,1,1.141,0v7.414a1.141,1.141,0,0,0,2.281,0V50.473a.57.57,0,1,1,1.141,0v6.273a1.141,1.141,0,0,0,2.281,0V52.754a.57.57,0,0,1,1.141,0V63.783a1.129,1.129,0,0,1-.331.81l-.947.947a3.371,3.371,0,0,0-1,2.418v1.334a1.141,1.141,0,0,0,2.281,0V67.957a1.129,1.129,0,0,1,.331-.81l.947-.947a3.371,3.371,0,0,0,1-2.418v-.194h7.984a3.432,3.432,0,0,0,3.422-3.422V57.7ZM8.843,5.422A1.141,1.141,0,0,1,9.984,4.281H62.449a1.141,1.141,0,0,1,1.141,1.141V43.059H8.843Zm4.562,55.886H5.422a1.141,1.141,0,0,1-1.141-1.141V59.027h9.124Zm26.232,0H32.795V59.027h6.843ZM56.176,49.9a2.683,2.683,0,0,0-.616.068,2.851,2.851,0,0,0-2.806-2.35,2.77,2.77,0,0,0-1.015.194,2.838,2.838,0,0,0-4.813,0,2.77,2.77,0,0,0-1.015-.194,2.851,2.851,0,0,0-2.851,2.851v3.992h-.57a2.852,2.852,0,0,0-2.794,2.282H32.738a2.851,2.851,0,0,0-2.794-2.281h-.57V50.473a2.851,2.851,0,0,0-2.851-2.851,2.77,2.77,0,0,0-1.015.194,2.838,2.838,0,0,0-4.813,0,2.77,2.77,0,0,0-1.015-.194,2.851,2.851,0,0,0-2.806,2.35,2.683,2.683,0,0,0-.616-.068,2.851,2.851,0,0,0-2.851,2.851v3.992H4.726l3.8-11.405H63.908l3.8,11.405h-8.68V52.754A2.851,2.851,0,0,0,56.176,49.9ZM68.151,60.168a1.141,1.141,0,0,1-1.141,1.141H59.027V59.027h9.124Z" transform="translate(-2 -2)" fill="#231f20"/>
        <path id="Path_1254075" data-name="Path 1254075" d="M59.043,6h-47.9A1.141,1.141,0,0,0,10,7.141V39.076a1.141,1.141,0,0,0,1.141,1.141h47.9a1.141,1.141,0,0,0,1.141-1.141V7.141A1.141,1.141,0,0,0,59.043,6ZM57.9,37.935H12.281V8.281H57.9Z" transform="translate(-0.876 -1.438)" fill="#231f20"/>
        <path id="Path_1254076" data-name="Path 1254076" d="M11.281,42H10.141a1.141,1.141,0,1,0,0,2.281h1.141a1.141,1.141,0,1,0,0-2.281Z" transform="translate(-1.016 3.622)" fill="#231f20"/>
        <path id="Path_1254077" data-name="Path 1254077" d="M10.281,46H9.141a1.141,1.141,0,1,0,0,2.281h1.141a1.141,1.141,0,1,0,0-2.281Z" transform="translate(-1.157 4.184)" fill="#231f20"/>
        <path id="Path_1254078" data-name="Path 1254078" d="M53.141,44.281h1.141a1.141,1.141,0,1,0,0-2.281H53.141a1.141,1.141,0,0,0,0,2.281Z" transform="translate(5.027 3.622)" fill="#231f20"/>
        <path id="Path_1254079" data-name="Path 1254079" d="M54.141,46a1.141,1.141,0,1,0,0,2.281h1.141a1.141,1.141,0,0,0,0-2.281Z" transform="translate(5.168 4.184)" fill="#231f20"/>
        <path id="Path_1254080" data-name="Path 1254080" d="M30.281,42H29.141a1.141,1.141,0,1,0,0,2.281h1.141a1.141,1.141,0,0,0,0-2.281Z" transform="translate(1.654 3.622)" fill="#231f20"/>
        <path id="Path_1254081" data-name="Path 1254081" d="M35.281,42H34.141a1.141,1.141,0,0,0,0,2.281h1.141a1.141,1.141,0,0,0,0-2.281Z" transform="translate(2.357 3.622)" fill="#231f20"/>
        <path id="Path_1254082" data-name="Path 1254082" d="M30.281,46H29.141a1.141,1.141,0,1,0,0,2.281h1.141a1.141,1.141,0,0,0,0-2.281Z" transform="translate(1.654 4.184)" fill="#231f20"/>
        <path id="Path_1254083" data-name="Path 1254083" d="M35.281,46H34.141a1.141,1.141,0,0,0,0,2.281h1.141a1.141,1.141,0,0,0,0-2.281Z" transform="translate(2.357 4.184)" fill="#231f20"/>
        <path id="Path_1254084" data-name="Path 1254084" d="M21.511,18.336a1.141,1.141,0,0,1-1.582.316l-3.422-2.281a1.141,1.141,0,0,1,0-1.9l3.422-2.281a1.141,1.141,0,0,1,1.266,1.9l-2,1.332,2,1.332a1.141,1.141,0,0,1,.319,1.582Z" transform="translate(-0.032 -0.595)" fill="#231f20"/>
      </g>
    </g>
  </g>
</svg>
