<svg xmlns="http://www.w3.org/2000/svg" xmlns:xlink="http://www.w3.org/1999/xlink" width="115" height="115" viewBox="0 0 115 115">
  <defs>
    <clipPath id="clip-path">
      <rect id="Rectangle_411878" data-name="Rectangle 411878" width="115" height="115" transform="translate(800.781 1954)" fill="#e8bad8" opacity="0.41"/>
    </clipPath>
  </defs>
  <g id="Group_1204970" data-name="Group 1204970" transform="translate(-912 -6353)">
    <g id="Group_1204946" data-name="Group 1204946" transform="translate(-178.051 -231)">
      <g id="Mask_Group_1099346" data-name="Mask Group 1099346" transform="translate(289.27 4630)" clip-path="url(#clip-path)">
        <g id="Group_1204341" data-name="Group 1204341" transform="translate(799.781 1960.273)">
          <g id="Group_1204328" data-name="Group 1204328" transform="translate(1)">
            <ellipse id="Ellipse_12458" data-name="Ellipse 12458" cx="28.658" cy="28.658" rx="28.658" ry="28.658" transform="translate(56.527 44.289)" fill="#ffc94a"/>
            <ellipse id="Ellipse_12459" data-name="Ellipse 12459" cx="20.842" cy="20.842" rx="20.842" ry="20.842" fill="#ffc94a"/>
          </g>
        </g>
      </g>
    </g>
    <g id="Backup" transform="translate(935 6377)">
      <path id="Path_1254732" data-name="Path 1254732" d="M22.283,62.155C10.349,62.155,1,59.35,1,55.77V43c0,3.521,9.547,6.385,21.283,6.385S43.566,46.521,43.566,43V55.77C43.566,59.35,34.217,62.155,22.283,62.155Z" transform="translate(0.064 2.758)" fill="#1b6ec9"/>
      <path id="Path_1254733" data-name="Path 1254733" d="M22.283,50.155C10.349,50.155,1,47.35,1,43.77V31c0,3.521,9.547,6.385,21.283,6.385S43.566,34.521,43.566,31V43.77C43.566,47.35,34.217,50.155,22.283,50.155Z" transform="translate(0.064 1.989)" fill="#2d87e8"/>
      <path id="Path_1254734" data-name="Path 1254734" d="M22.283,38.155C10.349,38.155,1,35.35,1,31.77V19c0,3.521,9.547,6.385,21.283,6.385S43.566,22.521,43.566,19V31.77C43.566,35.35,34.217,38.155,22.283,38.155Z" transform="translate(0.064 1.219)" fill="#4fa0f7"/>
      <path id="Path_1254735" data-name="Path 1254735" d="M22.283,26.155C10.349,26.155,1,23.35,1,19.77V7c0,3.521,9.547,6.385,21.283,6.385S43.566,10.521,43.566,7V19.77C43.566,23.35,34.217,26.155,22.283,26.155Z" transform="translate(0.064 0.449)" fill="#63b0f7"/>
      <ellipse id="Ellipse_12621" data-name="Ellipse 12621" cx="21.5" cy="6.5" rx="21.5" ry="6.5" transform="translate(1.105 1.105)" fill="#4fa0f7"/>
      <circle id="Ellipse_12622" data-name="Ellipse 12622" cx="17" cy="17" r="17" transform="translate(33.105 33.105)" fill="#ffd278"/>
      <circle id="Ellipse_12623" data-name="Ellipse 12623" cx="9.5" cy="9.5" r="9.5" transform="translate(40.105 40.105)" fill="#fcbe5b"/>
      <g id="Group_1204955" data-name="Group 1204955">
        <path id="Path_1254736" data-name="Path 1254736" d="M14.69,17.732A40.821,40.821,0,0,1,6.5,16.056a1.064,1.064,0,1,0-.675,2.018,43.029,43.029,0,0,0,8.633,1.774,1.166,1.166,0,0,0,.12.006,1.064,1.064,0,0,0,.117-2.122Z" transform="translate(0.327 1.026)" fill="#24262d"/>
        <circle id="Ellipse_12624" data-name="Ellipse 12624" cx="1" cy="1" r="1" transform="translate(18.105 19.105)" fill="#24262d"/>
        <circle id="Ellipse_12625" data-name="Ellipse 12625" cx="1" cy="1" r="1" transform="translate(22.105 19.105)" fill="#24262d"/>
        <path id="Path_1254737" data-name="Path 1254737" d="M6.5,28.056a1.064,1.064,0,1,0-.675,2.018,43.029,43.029,0,0,0,8.633,1.774,1.166,1.166,0,0,0,.12.006,1.064,1.064,0,0,0,.117-2.122A40.821,40.821,0,0,1,6.5,28.056Z" transform="translate(0.327 1.796)" fill="#24262d"/>
        <circle id="Ellipse_12626" data-name="Ellipse 12626" cx="1" cy="1" r="1" transform="translate(18.105 32.105)" fill="#24262d"/>
        <circle id="Ellipse_12627" data-name="Ellipse 12627" cx="1" cy="1" r="1" transform="translate(22.105 32.105)" fill="#24262d"/>
        <path id="Path_1254738" data-name="Path 1254738" d="M6.5,40.056a1.064,1.064,0,1,0-.675,2.018,43.029,43.029,0,0,0,8.633,1.774,1.166,1.166,0,0,0,.12.006,1.064,1.064,0,0,0,.117-2.122A40.821,40.821,0,0,1,6.5,40.056Z" transform="translate(0.327 2.566)" fill="#24262d"/>
        <circle id="Ellipse_12628" data-name="Ellipse 12628" cx="1" cy="1" r="1" transform="translate(18.105 45.105)" fill="#24262d"/>
        <circle id="Ellipse_12629" data-name="Ellipse 12629" cx="1" cy="1" r="1" transform="translate(22.105 45.105)" fill="#24262d"/>
        <path id="Path_1254739" data-name="Path 1254739" d="M33.678,62.847a60.259,60.259,0,0,1-11.33,1c-12.527,0-20.219-3.1-20.219-5.321v-9.4c3.776,2.69,12.032,4.083,20.219,4.083,2.223,0,4.433-.1,6.57-.3a1.064,1.064,0,0,0-.2-2.119c-2.07.2-4.213.294-6.37.294-12.527,0-20.219-3.1-20.219-5.321v-9.4c3.776,2.69,12.032,4.083,20.219,4.083a67.134,67.134,0,0,0,9.822-.7,1.065,1.065,0,1,0-.318-2.105,64.818,64.818,0,0,1-9.5.681c-12.527,0-20.219-3.1-20.219-5.321v-9.4c3.776,2.69,12.032,4.083,20.219,4.083s16.442-1.392,20.219-4.083v6.126a1.064,1.064,0,0,0,2.128,0V7.449C44.694,2.559,33.452,0,22.347,0S0,2.559,0,7.449V58.528c0,4.891,11.242,7.449,22.347,7.449a62.512,62.512,0,0,0,11.74-1.041,1.064,1.064,0,0,0-.409-2.089ZM22.347,25.54c-12.527,0-20.219-3.1-20.219-5.321v-9.4C5.9,13.506,14.16,14.9,22.347,14.9s16.442-1.392,20.219-4.083v9.4C42.566,22.441,34.874,25.54,22.347,25.54Zm0-23.411c12.527,0,20.219,3.1,20.219,5.321S34.874,12.77,22.347,12.77,2.128,9.671,2.128,7.449,9.821,2.128,22.347,2.128Z" fill="#24262d"/>
        <path id="Path_1254740" data-name="Path 1254740" d="M6.5,52.056a1.064,1.064,0,1,0-.675,2.018,43.029,43.029,0,0,0,8.633,1.774,1.166,1.166,0,0,0,.12.006,1.064,1.064,0,0,0,.117-2.122A40.821,40.821,0,0,1,6.5,52.056Z" transform="translate(0.327 3.336)" fill="#24262d"/>
        <circle id="Ellipse_12630" data-name="Ellipse 12630" cx="1" cy="1" r="1" transform="translate(18.105 57.105)" fill="#24262d"/>
        <circle id="Ellipse_12631" data-name="Ellipse 12631" cx="1" cy="1" r="1" transform="translate(22.105 57.105)" fill="#24262d"/>
        <path id="Path_1254741" data-name="Path 1254741" d="M48.091,30A18.091,18.091,0,1,0,66.181,48.091,18.111,18.111,0,0,0,48.091,30Zm0,34.053A15.962,15.962,0,1,1,64.053,48.091,15.98,15.98,0,0,1,48.091,64.053Z" transform="translate(1.924 1.924)" fill="#24262d"/>
        <path id="Path_1254742" data-name="Path 1254742" d="M49.043,37.3l1.479-1.479a1.064,1.064,0,0,0-1.5-1.5L45.825,37.5a1.064,1.064,0,0,0,0,1.5L49.017,42.2a1.064,1.064,0,0,0,1.5-1.5l-1.209-1.209a8.511,8.511,0,1,1-7.023,1.724,1.064,1.064,0,1,0-1.339-1.654A10.65,10.65,0,1,0,49.043,37.3Z" transform="translate(2.373 2.181)" fill="#24262d"/>
      </g>
    </g>
  </g>
</svg>
