<svg xmlns="http://www.w3.org/2000/svg" xmlns:xlink="http://www.w3.org/1999/xlink" width="115" height="115" viewBox="0 0 115 115">
  <defs>
    <clipPath id="clip-path">
      <rect id="Rectangle_411874" data-name="Rectangle 411874" width="115" height="115" transform="translate(800.781 1954)" fill="#e8bad8" opacity="0.41"/>
    </clipPath>
  </defs>
  <g id="Group_1204954" data-name="Group 1204954" transform="translate(-279 -6353)">
    <g id="Group_1204944" data-name="Group 1204944" transform="translate(-118.051 -231)">
      <g id="Mask_Group_1099344" data-name="Mask Group 1099344" transform="translate(-403.73 4630)" clip-path="url(#clip-path)">
        <g id="Group_1204313" data-name="Group 1204313" transform="translate(799.781 1960.273)">
          <g id="Group_1204300" data-name="Group 1204300" transform="translate(1)">
            <ellipse id="Ellipse_12446" data-name="Ellipse 12446" cx="28.658" cy="28.658" rx="28.658" ry="28.658" transform="translate(56.527 44.289)" fill="#ffc94a"/>
            <ellipse id="Ellipse_12447" data-name="Ellipse 12447" cx="20.842" cy="20.842" rx="20.842" ry="20.842" fill="#ffc94a"/>
          </g>
        </g>
      </g>
    </g>
    <g id="Page-1" transform="translate(302 6376)">
      <g id="_069---SQL-Database" data-name="069---SQL-Database">
        <path id="Shape" d="M30.959,43.262V52.48a43.3,43.3,0,0,1-9.218.956C10.287,53.436,1,49.311,1,44.218V35c0,5.093,9.287,9.218,20.741,9.218A43.3,43.3,0,0,0,30.959,43.262Z" transform="translate(0.152 5.33)" fill="#02a9f4"/>
        <path id="Shape-2" data-name="Shape" d="M25.007,42.75v8.642a42.617,42.617,0,0,1-7.618.915c.613.024,1.229.041,1.856.041a43.3,43.3,0,0,0,9.218-.956V42.174c-1.1.236-2.261.423-3.457.576Z" transform="translate(2.648 6.422)" fill="#0377bc"/>
        <path id="Shape-3" data-name="Shape" d="M42.482,26V38.675H33.264a2.311,2.311,0,0,0-2.3,2.3v3.653a43.3,43.3,0,0,1-9.218.956C10.287,45.589,1,41.464,1,36.371V26c0,5.093,9.287,9.218,20.741,9.218S42.482,31.093,42.482,26Z" transform="translate(0.152 3.959)" fill="#02a9f4"/>
        <path id="Shape-4" data-name="Shape" d="M25.007,39.3v3.653a42.617,42.617,0,0,1-7.618.915c.613.024,1.229.041,1.856.041a43.3,43.3,0,0,0,9.218-.956V39.3a2.311,2.311,0,0,1,2.3-2.3H27.311a2.311,2.311,0,0,0-2.3,2.3Z" transform="translate(2.648 5.634)" fill="#0377bc"/>
        <path id="Shape-5" data-name="Shape" d="M34,31.092v7.583h3.457V26C37.457,27.884,36.18,29.633,34,31.092Z" transform="translate(5.177 3.959)" fill="#0377bc"/>
        <path id="Shape-6" data-name="Shape" d="M42.482,17V27.371c0,5.093-9.287,9.218-20.741,9.218S1,32.464,1,27.371V17c0,5.093,9.287,9.218,20.741,9.218S42.482,22.093,42.482,17Z" transform="translate(0.152 2.589)" fill="#02a9f4"/>
        <path id="Shape-7" data-name="Shape" d="M36.513,22.092v5.279c0,4.84-8.369,8.788-19.013,9.179.576.022,1.145.039,1.728.039,11.454,0,20.741-4.125,20.741-9.218V17C39.969,18.884,38.693,20.633,36.513,22.092Z" transform="translate(2.665 2.589)" fill="#0377bc"/>
        <path id="Shape-8" data-name="Shape" d="M42.482,10.218v9.218c0,5.093-9.287,9.218-20.741,9.218S1,24.53,1,19.436V10.218C1,5.125,10.287,1,21.741,1S42.482,5.125,42.482,10.218Z" transform="translate(0.152 0.152)" fill="#02a9f4"/>
        <path id="Shape-9" data-name="Shape" d="M19.228,1c-.583,0-1.152.017-1.728.039,10.644.391,19.013,4.345,19.013,9.179v9.218c0,4.84-8.369,8.788-19.013,9.179.576.022,1.145.039,1.728.039,11.454,0,20.741-4.125,20.741-9.218V10.218C39.969,5.125,30.682,1,19.228,1Z" transform="translate(2.665 0.152)" fill="#0377bc"/>
        <rect id="Rectangle-path" width="37" height="26" rx="2" transform="translate(31.137 42.137)" fill="#ffdc00"/>
        <path id="Shape-10" data-name="Shape" d="M57.457,37H54a2.311,2.311,0,0,1,2.3,2.3V60.046a2.311,2.311,0,0,1-2.3,2.3h3.457a2.311,2.311,0,0,0,2.3-2.3V39.3A2.311,2.311,0,0,0,57.457,37Z" transform="translate(8.223 5.634)" fill="#fec108"/>
        <ellipse id="Oval" cx="15" cy="5.5" rx="15" ry="5.5" transform="translate(7.137 6.137)" fill="#0377bc"/>
        <g id="Group_1204953" data-name="Group 1204953">
          <path id="Shape-11" data-name="Shape" d="M21.132,17.827c7.821,0,16.132-2.42,16.132-6.914S28.952,4,21.132,4,5,6.42,5,10.914,13.311,17.827,21.132,17.827Zm0-11.523c8.567,0,13.827,2.685,13.827,4.609s-5.26,4.609-13.827,4.609S7.3,12.838,7.3,10.914,12.565,6.3,21.132,6.3Z" transform="translate(0.761 0.609)"/>
          <path id="Shape-12" data-name="Shape" d="M65.68,41.482H43.787V10.371C43.787,4.555,34.17,0,21.893,0S0,4.555,0,10.371V49.548c0,5.816,9.617,10.371,21.893,10.371a44.852,44.852,0,0,0,8.066-.718V65.68a3.457,3.457,0,0,0,3.457,3.457H65.68a3.457,3.457,0,0,0,3.457-3.457V44.939A3.457,3.457,0,0,0,65.68,41.482Zm-32.264,0a3.457,3.457,0,0,0-3.457,3.457v2.7a42.255,42.255,0,0,1-8.066.759C10.176,48.4,2.3,44.226,2.3,40.33V34.642C5.86,38.04,13.2,40.33,21.893,40.33s16.033-2.29,19.589-5.688v6.84Zm8.066-11.523c0,3.9-7.871,8.066-19.589,8.066S2.3,33.855,2.3,29.959V24.272c3.556,3.4,10.895,5.688,19.589,5.688s16.033-2.29,19.589-5.688ZM2.3,10.371c0-3.9,7.871-8.066,19.589-8.066s19.589,4.17,19.589,8.066v9.218c0,3.9-7.871,8.066-19.589,8.066S2.3,23.485,2.3,19.589ZM21.893,57.614c-11.718,0-19.589-4.17-19.589-8.066V45.013C5.86,48.411,13.2,50.7,21.893,50.7a44.832,44.832,0,0,0,8.066-.719v6.873A42.18,42.18,0,0,1,21.893,57.614ZM66.832,65.68a1.152,1.152,0,0,1-1.152,1.152H33.416a1.152,1.152,0,0,1-1.152-1.152V44.939a1.152,1.152,0,0,1,1.152-1.152H65.68a1.152,1.152,0,0,1,1.152,1.152Z"/>
          <path id="Shape-13" data-name="Shape" d="M35.033,44.3h2.881a1.152,1.152,0,0,0,0-2.3H35.033a4.033,4.033,0,0,0,0,8.066,1.728,1.728,0,1,1,0,3.457H32.152a1.152,1.152,0,1,0,0,2.3h2.881a4.033,4.033,0,1,0,0-8.066,1.728,1.728,0,0,1,0-3.457Z" transform="translate(4.721 6.396)"/>
          <path id="Shape-14" data-name="Shape" d="M48.934,52.761a4.576,4.576,0,0,0,.285-1.543V46.609a4.609,4.609,0,1,0-9.218,0v4.609a4.585,4.585,0,0,0,7.605,3.474l.8.8a1.152,1.152,0,0,0,1.629-1.629Zm-4.325.762a2.3,2.3,0,0,1-2.3-2.3V46.609a2.3,2.3,0,0,1,4.609,0v4.132l-.338-.338a1.152,1.152,0,0,0-1.629,1.629l1.03,1.03a2.287,2.287,0,0,1-1.368.46Z" transform="translate(6.091 6.396)"/>
          <path id="Shape-15" data-name="Shape" d="M55.609,53.523H53.3V43.152a1.152,1.152,0,1,0-2.3,0V54.675a1.152,1.152,0,0,0,1.152,1.152h3.457a1.152,1.152,0,0,0,0-2.3Z" transform="translate(7.766 6.396)"/>
        </g>
      </g>
    </g>
  </g>
</svg>
