<svg xmlns="http://www.w3.org/2000/svg" xmlns:xlink="http://www.w3.org/1999/xlink" width="115" height="115" viewBox="0 0 115 115">
  <defs>
    <clipPath id="clip-path">
      <rect id="Rectangle_411880" data-name="Rectangle 411880" width="115" height="115" transform="translate(800.781 1954)" fill="#e8bad8" opacity="0.41"/>
    </clipPath>
  </defs>
  <g id="Group_1205015" data-name="Group 1205015" transform="translate(-4441 5254)">
    <g id="Group_1204950" data-name="Group 1204950" transform="translate(4883 -235)">
      <g id="Mask_Group_1099347" data-name="Mask Group 1099347" transform="translate(-1242.781 -6973)" clip-path="url(#clip-path)">
        <g id="Group_1204355" data-name="Group 1204355" transform="translate(799.781 1960.273)">
          <g id="Group_1204342" data-name="Group 1204342" transform="translate(1)">
            <ellipse id="Ellipse_12464" data-name="Ellipse 12464" cx="28.658" cy="28.658" rx="28.658" ry="28.658" transform="translate(56.527 44.289)" fill="#ffc94a"/>
            <ellipse id="Ellipse_12465" data-name="Ellipse 12465" cx="20.842" cy="20.842" rx="20.842" ry="20.842" fill="#ffc94a"/>
          </g>
        </g>
      </g>
    </g>
    <g id="columnas" transform="translate(4464 -5231)">
      <g id="Group_1205013" data-name="Group 1205013" transform="translate(0.992 0.992)">
        <path id="Path_1254928" data-name="Path 1254928" d="M44.129,132.431H8.822A1.322,1.322,0,0,1,7.5,131.109V89.322A1.322,1.322,0,0,1,8.822,88H44.129a1.322,1.322,0,0,1,1.322,1.322v41.786A1.322,1.322,0,0,1,44.129,132.431Z" transform="translate(-7.5 -77.355)" fill="#ecf9f9"/>
        <path id="Path_1254929" data-name="Path 1254929" d="M258.467,88H254.5a1.322,1.322,0,0,1,1.322,1.322v41.786a1.322,1.322,0,0,1-1.322,1.322h3.967a1.322,1.322,0,0,0,1.322-1.322V89.322A1.322,1.322,0,0,0,258.467,88Z" transform="translate(-221.838 -77.355)" fill="#daf1f4"/>
        <path id="Path_1254930" data-name="Path 1254930" d="M37.5,126.626v-8.1a.529.529,0,0,1,.529-.529h28.96a.529.529,0,0,1,.529.529v8.1a.529.529,0,0,1-.529.529H38.029A.529.529,0,0,1,37.5,126.626Z" transform="translate(-33.533 -103.388)" fill="#9d66d5"/>
        <path id="Path_1254931" data-name="Path 1254931" d="M234.467,118H230.5a.529.529,0,0,1,.529.529v8.1a.529.529,0,0,1-.529.529h3.967a.529.529,0,0,0,.529-.529v-8.1A.529.529,0,0,0,234.467,118Z" transform="translate(-201.011 -103.388)" fill="#8659b9"/>
        <path id="Path_1254932" data-name="Path 1254932" d="M37.5,338.405v-6.876a.529.529,0,0,1,.529-.529h12.1a.529.529,0,0,1,.529.529v6.876a.529.529,0,0,1-.529.529h-12.1A.529.529,0,0,1,37.5,338.405Z" transform="translate(-33.533 -288.222)" fill="#b1e4f9"/>
        <path id="Path_1254933" data-name="Path 1254933" d="M106.967,331H103a.529.529,0,0,1,.529.529v6.876a.529.529,0,0,1-.529.529h3.967a.529.529,0,0,0,.529-.529v-6.876A.529.529,0,0,0,106.967,331Z" transform="translate(-90.372 -288.222)" fill="#90d8f9"/>
        <path id="Path_1254934" data-name="Path 1254934" d="M167,338.405v-6.876a.529.529,0,0,1,.529-.529h11.835a.529.529,0,0,1,.529.529v6.876a.529.529,0,0,1-.529.529H167.529A.529.529,0,0,1,167,338.405Z" transform="translate(-145.908 -288.222)" fill="#b1e4f9"/>
        <path id="Path_1254935" data-name="Path 1254935" d="M234.467,331H230.5a.529.529,0,0,1,.529.529v6.876a.529.529,0,0,1-.529.529h3.967a.529.529,0,0,0,.529-.529v-6.876A.529.529,0,0,0,234.467,331Z" transform="translate(-201.011 -288.222)" fill="#90d8f9"/>
        <path id="Path_1254936" data-name="Path 1254936" d="M37.5,245.405v-6.876a.529.529,0,0,1,.529-.529h12.1a.529.529,0,0,1,.529.529v6.876a.529.529,0,0,1-.529.529h-12.1A.529.529,0,0,1,37.5,245.405Z" transform="translate(-33.533 -207.52)" fill="#b1e4f9"/>
        <path id="Path_1254937" data-name="Path 1254937" d="M106.967,238H103a.529.529,0,0,1,.529.529v6.876a.529.529,0,0,1-.529.529h3.967a.529.529,0,0,0,.529-.529v-6.876A.529.529,0,0,0,106.967,238Z" transform="translate(-90.372 -207.52)" fill="#90d8f9"/>
        <path id="Path_1254938" data-name="Path 1254938" d="M167,245.405v-6.876a.529.529,0,0,1,.529-.529h11.835a.529.529,0,0,1,.529.529v6.876a.529.529,0,0,1-.529.529H167.529A.529.529,0,0,1,167,245.405Z" transform="translate(-145.908 -207.52)" fill="#b1e4f9"/>
        <path id="Path_1254939" data-name="Path 1254939" d="M234.467,238H230.5a.529.529,0,0,1,.529.529v6.876a.529.529,0,0,1-.529.529h3.967a.529.529,0,0,0,.529-.529v-6.876A.529.529,0,0,0,234.467,238Z" transform="translate(-201.011 -207.52)" fill="#90d8f9"/>
        <path id="Path_1254940" data-name="Path 1254940" d="M399.046,23.368H385.822a1.322,1.322,0,0,1-1.322-1.322V8.822A1.322,1.322,0,0,1,385.822,7.5h13.224a1.322,1.322,0,0,1,1.322,1.322V22.046A1.322,1.322,0,0,1,399.046,23.368Z" transform="translate(-334.647 -7.5)" fill="#ffd064"/>
        <path id="Path_1254941" data-name="Path 1254941" d="M468.467,7.5H464.5a1.322,1.322,0,0,1,1.322,1.322V22.046a1.322,1.322,0,0,1-1.322,1.322h3.967a1.322,1.322,0,0,0,1.322-1.322V8.822A1.322,1.322,0,0,0,468.467,7.5Z" transform="translate(-404.068 -7.5)" fill="#ffc250"/>
        <path id="Path_1254942" data-name="Path 1254942" d="M399.046,211.868H385.822a1.322,1.322,0,0,1-1.322-1.322V197.322A1.322,1.322,0,0,1,385.822,196h13.224a1.322,1.322,0,0,1,1.322,1.322v13.224A1.322,1.322,0,0,1,399.046,211.868Z" transform="translate(-334.647 -171.074)" fill="#aad540"/>
        <path id="Path_1254943" data-name="Path 1254943" d="M468.467,196H464.5a1.322,1.322,0,0,1,1.322,1.322v13.224a1.322,1.322,0,0,1-1.322,1.322h3.967a1.322,1.322,0,0,0,1.322-1.322V197.322A1.322,1.322,0,0,0,468.467,196Z" transform="translate(-404.068 -171.074)" fill="#9dc63d"/>
        <path id="Path_1254944" data-name="Path 1254944" d="M399.046,400.368H385.822a1.322,1.322,0,0,1-1.322-1.322V385.822a1.322,1.322,0,0,1,1.322-1.322h13.224a1.322,1.322,0,0,1,1.322,1.322v13.224A1.322,1.322,0,0,1,399.046,400.368Z" transform="translate(-334.647 -334.647)" fill="#b1e4f9"/>
        <path id="Path_1254945" data-name="Path 1254945" d="M468.467,384.5H464.5a1.322,1.322,0,0,1,1.322,1.322v13.224a1.322,1.322,0,0,1-1.322,1.322h3.967a1.322,1.322,0,0,0,1.322-1.322V385.822A1.322,1.322,0,0,0,468.467,384.5Z" transform="translate(-404.068 -334.647)" fill="#90d8f9"/>
      </g>
      <g id="Group_1205014" data-name="Group 1205014">
        <path id="Path_1254946" data-name="Path 1254946" d="M62,112.021A1.522,1.522,0,0,0,60.48,110.5H31.521A1.522,1.522,0,0,0,30,112.021v8.1a1.522,1.522,0,0,0,1.521,1.521H60.48A1.522,1.522,0,0,0,62,120.118Zm-1.984,7.634H31.984v-7.171H60.017Z" transform="translate(-26.033 -95.888)"/>
        <path id="Path_1254947" data-name="Path 1254947" d="M30,331.9a1.522,1.522,0,0,0,1.521,1.521h12.1a1.522,1.522,0,0,0,1.521-1.521v-6.876A1.522,1.522,0,0,0,43.62,323.5h-12.1A1.522,1.522,0,0,0,30,325.021Zm1.984-6.413H43.157v5.951H31.984Z" transform="translate(-26.033 -280.722)"/>
        <path id="Path_1254948" data-name="Path 1254948" d="M172.856,323.5H161.021a1.522,1.522,0,0,0-1.521,1.521V331.9a1.522,1.522,0,0,0,1.521,1.521h11.835a1.522,1.522,0,0,0,1.521-1.521v-6.876A1.522,1.522,0,0,0,172.856,323.5Zm-.463,7.934H161.484v-5.951h10.909Z" transform="translate(-138.408 -280.722)"/>
        <path id="Path_1254949" data-name="Path 1254949" d="M30,238.9a1.522,1.522,0,0,0,1.521,1.521h12.1a1.522,1.522,0,0,0,1.521-1.521v-6.876A1.522,1.522,0,0,0,43.62,230.5h-12.1A1.522,1.522,0,0,0,30,232.021Zm1.984-6.413H43.157v5.951H31.984Z" transform="translate(-26.033 -200.02)"/>
        <path id="Path_1254950" data-name="Path 1254950" d="M174.376,232.021a1.522,1.522,0,0,0-1.521-1.521H161.021a1.522,1.522,0,0,0-1.521,1.521V238.9a1.522,1.522,0,0,0,1.521,1.521h11.835a1.522,1.522,0,0,0,1.521-1.521Zm-1.984,6.413H161.484v-5.951h10.909Z" transform="translate(-138.408 -200.02)"/>
        <path id="Path_1254951" data-name="Path 1254951" d="M52.167,17.852H65.39A2.317,2.317,0,0,0,67.7,15.538V2.314A2.317,2.317,0,0,0,65.39,0H52.167a2.317,2.317,0,0,0-2.314,2.314v5.62H46.613a7.43,7.43,0,0,0-5.2,2.11l-1.8,1.745a2.313,2.313,0,0,0-1.993-1.144H2.314A2.317,2.317,0,0,0,0,12.959v3.234a.992.992,0,0,0,1.984,0V12.959a.331.331,0,0,1,.331-.331H37.621a.331.331,0,0,1,.331.331V54.746a.331.331,0,0,1-.331.331H2.314a.331.331,0,0,1-.331-.331v-34a.992.992,0,0,0-1.984,0v34A2.317,2.317,0,0,0,2.314,57.06H37.621a2.307,2.307,0,0,0,1.735-.788l2.213,1.811a7.488,7.488,0,0,0,4.73,1.689h3.554v5.62A2.317,2.317,0,0,0,52.167,67.7h5.075a.992.992,0,0,0,0-1.984H52.167a.331.331,0,0,1-.331-.331V52.167a.331.331,0,0,1,.331-.331H65.39a.331.331,0,0,1,.331.331V65.391a.331.331,0,0,1-.331.331H61.946a.992.992,0,0,0,0,1.984H65.39A2.317,2.317,0,0,0,67.7,65.391V52.167a2.317,2.317,0,0,0-2.314-2.314H52.167a2.317,2.317,0,0,0-2.314,2.314v5.62H46.3a5.5,5.5,0,0,1-3.474-1.24l-2.89-2.365V34.844h9.918v5.62a2.317,2.317,0,0,0,2.314,2.314H65.39A2.317,2.317,0,0,0,67.7,40.464V27.241a2.317,2.317,0,0,0-2.314-2.314H52.167a2.317,2.317,0,0,0-2.314,2.314v5.62H39.935V14.241l2.858-2.774a5.457,5.457,0,0,1,3.821-1.55h3.239v5.62A2.317,2.317,0,0,0,52.167,17.852Zm-.331,9.389a.331.331,0,0,1,.331-.331H65.39a.331.331,0,0,1,.331.331V40.464a.331.331,0,0,1-.331.331H52.167a.331.331,0,0,1-.331-.331Zm0-24.926a.331.331,0,0,1,.331-.331H65.39a.331.331,0,0,1,.331.331V15.538a.331.331,0,0,1-.331.331H52.167a.331.331,0,0,1-.331-.331Z"/>
        <path id="Path_1254952" data-name="Path 1254952" d="M409.964,31.984h3.25a.992.992,0,1,0,0-1.984h-3.25a.992.992,0,0,0,0,1.984Z" transform="translate(-354.891 -26.033)"/>
        <path id="Path_1254953" data-name="Path 1254953" d="M409.964,61.984H417.9a.992.992,0,0,0,0-1.984h-7.934a.992.992,0,0,0,0,1.984Z" transform="translate(-354.891 -52.066)"/>
        <path id="Path_1254954" data-name="Path 1254954" d="M409.964,91.984h5.752a.992.992,0,1,0,0-1.984h-5.752a.992.992,0,0,0,0,1.984Z" transform="translate(-354.891 -78.099)"/>
        <path id="Path_1254955" data-name="Path 1254955" d="M409.964,220.484h3.25a.992.992,0,1,0,0-1.984h-3.25a.992.992,0,0,0,0,1.984Z" transform="translate(-354.891 -189.607)"/>
        <path id="Path_1254956" data-name="Path 1254956" d="M409.964,250.484H417.9a.992.992,0,0,0,0-1.984h-7.934a.992.992,0,0,0,0,1.984Z" transform="translate(-354.891 -215.639)"/>
        <path id="Path_1254957" data-name="Path 1254957" d="M409.964,280.484h5.752a.992.992,0,1,0,0-1.984h-5.752a.992.992,0,0,0,0,1.984Z" transform="translate(-354.891 -241.672)"/>
        <path id="Path_1254958" data-name="Path 1254958" d="M405.548,408.262h3.25a.992.992,0,1,0,0-1.984h-3.25a.992.992,0,1,0,0,1.984Z" transform="translate(-351.059 -352.554)"/>
        <path id="Path_1254959" data-name="Path 1254959" d="M405.548,438.262h7.934a.992.992,0,1,0,0-1.984h-7.934a.992.992,0,1,0,0,1.984Z" transform="translate(-351.059 -378.587)"/>
        <path id="Path_1254960" data-name="Path 1254960" d="M411.3,466.278h-5.752a.992.992,0,1,0,0,1.984H411.3a.992.992,0,1,0,0-1.984Z" transform="translate(-351.059 -404.62)"/>
      </g>
    </g>
  </g>
</svg>
