<svg xmlns="http://www.w3.org/2000/svg" width="76.345" height="76.345" viewBox="0 0 76.345 76.345">
  <g id="Group_1204740" data-name="Group 1204740" transform="translate(-604 -4350.655)">
    <g id="Group_1204428" data-name="Group 1204428" transform="translate(-417.967 1258)">
      <g id="Group_1187152" data-name="Group 1187152">
        <g id="Group_1185946" data-name="Group 1185946" transform="translate(-3.07)">
          <g id="Group_1184280" data-name="Group 1184280">
            <g id="Group_1182168" data-name="Group 1182168">
              <g id="Group_1178877" data-name="Group 1178877">
                <g id="Group_1111311" data-name="Group 1111311">
                  <g id="Group_1098742" data-name="Group 1098742" transform="translate(1025.482 3093.101)">
                    <g id="Rectangle_400898" data-name="Rectangle 400898" transform="translate(-0.445 -0.445)" fill="#c1a1f0" stroke="#866fa7" stroke-width="1" opacity="0.859">
                      <rect width="76.345" height="76.345" rx="38.172" stroke="none"/>
                      <rect x="0.5" y="0.5" width="75.345" height="75.345" rx="37.672" fill="none"/>
                    </g>
                    <g id="Rectangle_400907" data-name="Rectangle 400907" transform="translate(-0.446 -0.445)" fill="none" stroke="#866fa7" stroke-width="1">
                      <rect width="76.345" height="76.345" rx="38.172" stroke="none"/>
                      <rect x="0.5" y="0.5" width="75.345" height="75.345" rx="37.672" fill="none"/>
                    </g>
                  </g>
                </g>
              </g>
            </g>
          </g>
        </g>
      </g>
    </g>
    <g id="analisis2" transform="translate(618.291 4363.173)">
      <path id="Path_1253994" data-name="Path 1253994" d="M54.8,31.4A23.4,23.4,0,1,1,31.4,8,23.4,23.4,0,0,1,54.8,31.4Zm0,0" transform="translate(-7.22 -7.22)" fill="#85d3c1"/>
      <path id="Path_1253995" data-name="Path 1253995" d="M159.6,191.8a7.8,7.8,0,1,1-7.8-7.8A7.8,7.8,0,0,1,159.6,191.8Zm0,0" transform="translate(-129.959 -166.059)" fill="#f5f7fa"/>
      <path id="Path_1253996" data-name="Path 1253996" d="M122.921,170.721a7.8,7.8,0,1,0-7.8-7.8A7.8,7.8,0,0,0,122.921,170.721Zm-8.8-1.342a10.877,10.877,0,1,1,3.276,2.964A10.858,10.858,0,0,1,114.122,169.38Zm0,0" transform="translate(-101.079 -137.179)" fill="#f9d48a"/>
      <path id="Path_1253997" data-name="Path 1253997" d="M341.315,330.286l.921.92-.85,1.279a6.416,6.416,0,0,1,.71,1.716l1.506.3V337.1l-1.506.3a6.417,6.417,0,0,1-.71,1.716l.85,1.279-1.841,1.841-1.279-.85a6.417,6.417,0,0,1-1.716.71l-.3,1.506H334.5l-.3-1.506a6.416,6.416,0,0,1-1.716-.71l-1.279.85-.92-.921-.921-.92.85-1.279a6.416,6.416,0,0,1-.71-1.716L328,337.1V334.5l1.506-.3a6.415,6.415,0,0,1,.71-1.716l-.85-1.279,1.841-1.841,1.279.85a6.415,6.415,0,0,1,1.716-.71l.3-1.506H337.1l.3,1.506a6.416,6.416,0,0,1,1.716.71l1.279-.85Zm-2.395,5.515a3.12,3.12,0,1,0-3.12,3.12A3.119,3.119,0,0,0,338.921,335.8Zm0,0" transform="translate(-296.018 -296.018)" fill="#f9d48a"/>
      <path id="Path_1253998" data-name="Path 1253998" d="M459.12,64V78.041H456V64Zm0,0" transform="translate(-411.537 -57.76)" fill="#ff958a"/>
      <path id="Path_1253999" data-name="Path 1253999" d="M382.241,379.12a3.12,3.12,0,1,1-3.12-3.12A3.12,3.12,0,0,1,382.241,379.12Zm0,0" transform="translate(-339.337 -339.337)" fill="#f5f7fa"/>
      <path id="Path_1254000" data-name="Path 1254000" d="M395.12,128v7.8H392V128Zm0,0" transform="translate(-353.777 -115.519)" fill="#ff958a"/>
      <path id="Path_1254001" data-name="Path 1254001" d="M148.082,13.96V19.7h-1.56v7.8H143.4v-4.68h-3.12V27.5H139.6A10.917,10.917,0,0,0,120,28.913V8h28.082Zm-17.161,3.4V11.12h-7.8v6.24Zm0,0" transform="translate(-108.299 -7.22)" fill="#f5f7fa"/>
      <path id="Path_1254002" data-name="Path 1254002" d="M328,160h3.12v4.68H328Zm0,0" transform="translate(-296.018 -144.399)" fill="#ff958a"/>
      <path id="Path_1254003" data-name="Path 1254003" d="M152,40h7.8v6.24H152Zm0,0" transform="translate(-137.179 -36.1)" fill="#ff958a"/>
      <path id="Path_1254004" data-name="Path 1254004" d="M113.788,333.2l-2.668,2.668L108,332.75l2.512-2.512A10.931,10.931,0,0,0,113.788,333.2Zm0,0" transform="translate(-97.469 -298.038)" fill="#f5f7fa"/>
      <path id="Path_1254005" data-name="Path 1254005" d="M127.136,412.595l.85-1.279a6.416,6.416,0,0,1-.71-1.716l-1.506-.3V408h-4.68l-3.12,3.12H103.929l-.008.008a23.33,23.33,0,0,0,4.688,2.723,22.584,22.584,0,0,0,4.618,1.466,23.491,23.491,0,0,0,9.486,0,22.689,22.689,0,0,0,5.343-1.8Zm0,0" transform="translate(-93.789 -368.217)" fill="#ff958a"/>
      <path id="Path_1254006" data-name="Path 1254006" d="M20.871,359.12l-9.1,9.1a2.206,2.206,0,1,1-3.12-3.12l9.1-9.1Zm0,0" transform="translate(-7.22 -321.287)" fill="#f9d48a"/>
      <g id="Group_1204739" data-name="Group 1204739">
        <path id="Path_1254007" data-name="Path 1254007" d="M371.9,368a3.9,3.9,0,1,0,3.9,3.9A3.9,3.9,0,0,0,371.9,368Zm0,6.24a2.34,2.34,0,1,1,2.34-2.34A2.343,2.343,0,0,1,371.9,374.241Zm0,0" transform="translate(-332.117 -332.117)" fill="#232323"/>
        <path id="Path_1254008" data-name="Path 1254008" d="M216,256h1.56v1.56H216Zm0,0" transform="translate(-194.938 -231.038)" fill="#232323"/>
        <path id="Path_1254009" data-name="Path 1254009" d="M248,256h1.56v1.56H248Zm0,0" transform="translate(-223.818 -231.038)" fill="#232323"/>
        <path id="Path_1254010" data-name="Path 1254010" d="M184,256h1.56v1.56H184Zm0,0" transform="translate(-166.059 -231.038)" fill="#232323"/>
        <path id="Path_1254011" data-name="Path 1254011" d="M153.361,32H144v7.8h9.361Zm-1.56,6.24h-6.24V33.56h6.24Zm0,0" transform="translate(-129.959 -28.88)" fill="#232323"/>
        <path id="Path_1254012" data-name="Path 1254012" d="M256,32h12.481v1.56H256Zm0,0" transform="translate(-231.038 -28.88)" fill="#232323"/>
        <path id="Path_1254013" data-name="Path 1254013" d="M256,64h12.481v1.56H256Zm0,0" transform="translate(-231.038 -57.76)" fill="#232323"/>
        <path id="Path_1254014" data-name="Path 1254014" d="M369.266,96H370.7v1.56h-1.437Zm0,0" transform="translate(-333.259 -86.639)" fill="#232323"/>
        <path id="Path_1254015" data-name="Path 1254015" d="M256,96h9.377v1.56H256Zm0,0" transform="translate(-231.038 -86.639)" fill="#232323"/>
        <path id="Path_1254016" data-name="Path 1254016" d="M48.364,5.46h-4.68V9.91a24.235,24.235,0,0,0-3.12-3.5V0H10.921V3.969A24.163,24.163,0,0,0,5.105,39.035L.875,43.266A2.986,2.986,0,1,0,5.1,47.488l4.231-4.23a24.229,24.229,0,0,0,14.853,5.105A23.932,23.932,0,0,0,34.1,46.233l.989.989,1.417-.945a7.244,7.244,0,0,0,1,.416l.335,1.671h3.88l.334-1.671a7.339,7.339,0,0,0,1-.416l1.417.945,2.744-2.743-.945-1.417a7.293,7.293,0,0,0,.416-1l1.67-.335V37.843l-1.671-.335a7.389,7.389,0,0,0-.416-1l.945-1.417-.989-.988a23.951,23.951,0,0,0,2.13-9.916,24.429,24.429,0,0,0-.221-3.12h.221Zm-3.12,1.56H46.8V19.5h-1.56Zm-1.56,5.7V19.5h-1.56V11.7h-1.56V8.581A22.641,22.641,0,0,1,43.683,12.724ZM37.843,31.2l-.334,1.671a7.339,7.339,0,0,0-1,.416l-1.417-.945-2.744,2.743.945,1.417a7.292,7.292,0,0,0-.416,1l-1.671.335V39H26.979l-3.12,3.12h-13.4l3.187-3.187,1.4,1.4,1.1-1.1-1.4-1.4,1.71-1.71A11.686,11.686,0,0,0,32.559,21.062H39V31.2ZM15.6,43.683h3.12v2.438a22.641,22.641,0,0,1-3.12-1.032Zm-1.56.7c-.439-.22-.874-.448-1.3-.7h1.3Zm6.24-.7H23.4V46.77a22.615,22.615,0,0,1-3.12-.307Zm4.68-.457,2.663-2.663h.457v5.906a22.727,22.727,0,0,1-3.12.314ZM21.842,15.6A10.141,10.141,0,1,1,11.7,25.742,10.153,10.153,0,0,1,21.842,15.6Zm12.481,3.9h-1.56v-3.12h1.56ZM15.1,35.286,13.651,36.73l-2.017-2.017,1.349-1.349A11.814,11.814,0,0,0,15.1,35.286ZM40.563,13.261V19.5H39v-6.24ZM39,1.56V11.7h-1.56v7.8h-1.56v-4.68H31.2v3.93a11.657,11.657,0,0,0-18.721,0V1.56ZM1.56,24.182a22.511,22.511,0,0,1,9.361-18.33V21.576a11.586,11.586,0,0,0,1.115,10.529l-1.5,1.5-1.4-1.4-1.1,1.1,1.4,1.4-3.2,3.2A22.652,22.652,0,0,1,1.56,24.182Zm2.435,22.2A1.426,1.426,0,0,1,1.56,45.377a1.418,1.418,0,0,1,.417-1.009l8.553-8.552,2.017,2.017Zm25.648-.251V40.563H31.2v1.159l1.671.335a7.388,7.388,0,0,0,.416,1l-.945,1.417.574.574A22.224,22.224,0,0,1,29.642,46.135ZM46.8,39.122v1.321l-1.362.273-.12.477A5.678,5.678,0,0,1,44.7,42.7l-.253.423.771,1.156-.934.934-1.156-.771L42.7,44.7a5.7,5.7,0,0,1-1.509.625l-.477.121L40.444,46.8H39.123l-.272-1.362-.477-.121a5.683,5.683,0,0,1-1.509-.625l-.423-.252-1.156.771-.934-.934.771-1.156-.253-.423a5.727,5.727,0,0,1-.626-1.509l-.12-.477-1.363-.272V39.123l1.362-.273.12-.477a5.679,5.679,0,0,1,.626-1.509l.253-.423-.771-1.156.934-.934,1.156.771.423-.252a5.7,5.7,0,0,1,1.509-.625l.477-.121.272-1.362h1.321l.272,1.362.477.121a5.684,5.684,0,0,1,1.509.625l.423.252,1.156-.771.934.934-.771,1.156.253.423a5.727,5.727,0,0,1,.626,1.509l.12.477Zm0-14.94a22.416,22.416,0,0,1-1.751,8.737l-.574-.574-1.417.945a7.244,7.244,0,0,0-1-.416L41.723,31.2h-1.16V21.062h6.009A22.906,22.906,0,0,1,46.8,24.182Zm0,0" fill="#232323"/>
        <path id="Path_1254017" data-name="Path 1254017" d="M144.581,193.161A8.581,8.581,0,1,0,136,184.581,8.591,8.591,0,0,0,144.581,193.161Zm0-15.6a7.021,7.021,0,1,1-7.021,7.021A7.029,7.029,0,0,1,144.581,177.56Zm0,0" transform="translate(-122.739 -158.839)" fill="#232323"/>
      </g>
    </g>
  </g>
</svg>
