<svg xmlns="http://www.w3.org/2000/svg" xmlns:xlink="http://www.w3.org/1999/xlink" width="115" height="115" viewBox="0 0 115 115">
  <defs>
    <clipPath id="clip-path">
      <rect id="Rectangle_411880" data-name="Rectangle 411880" width="115" height="115" transform="translate(800.781 1954)" fill="#e8bad8" opacity="0.41"/>
    </clipPath>
  </defs>
  <g id="Group_1205012" data-name="Group 1205012" transform="translate(-4105 4879)">
    <g id="Group_1204952" data-name="Group 1204952" transform="translate(4547 140)">
      <g id="Mask_Group_1099347" data-name="Mask Group 1099347" transform="translate(-1242.781 -6973)" clip-path="url(#clip-path)">
        <g id="Group_1204355" data-name="Group 1204355" transform="translate(799.781 1960.273)">
          <g id="Group_1204342" data-name="Group 1204342" transform="translate(1)">
            <ellipse id="Ellipse_12464" data-name="Ellipse 12464" cx="28.658" cy="28.658" rx="28.658" ry="28.658" transform="translate(56.527 44.289)" fill="#ffc94a"/>
            <ellipse id="Ellipse_12465" data-name="Ellipse 12465" cx="20.842" cy="20.842" rx="20.842" ry="20.842" fill="#ffc94a"/>
          </g>
        </g>
      </g>
    </g>
    <g id="controlar" transform="translate(4128 -4856)">
      <g id="Group_1205010" data-name="Group 1205010" transform="translate(1.09 1.09)">
        <g id="Group_1204996" data-name="Group 1204996" transform="translate(39.239)">
          <path id="Path_1254901" data-name="Path 1254901" d="M38.091,33.709a3.271,3.271,0,0,0,0-6.542l.872-5.222a16.7,16.7,0,0,0,.218-2.649,15.947,15.947,0,0,0-2.191-8.1H37V2.09A1.093,1.093,0,0,1,38.091,1H62.077a1.093,1.093,0,0,1,1.09,1.09V34.8a1.093,1.093,0,0,1-1.09,1.09H38.091A1.093,1.093,0,0,1,37,34.8v-1.09Z" transform="translate(-36.99 -1)" fill="#e6e9ed"/>
        </g>
        <g id="Group_1204997" data-name="Group 1204997" transform="translate(45.792 17.445)">
          <path id="Path_1254902" data-name="Path 1254902" d="M47.427,29.211a1.057,1.057,0,0,0-1.581-.949l-.73.436L43,24.926l.73-.436a1.112,1.112,0,0,0,0-1.9L43,22.157l2.322-4.067.414.327a1.046,1.046,0,0,0,1.69-.861V17h4.23v.872a1.057,1.057,0,0,0,1.581.949l.73-.436,2.115,3.772-.73.436a1.112,1.112,0,0,0,0,1.9l.73.436L53.968,28.7l-.73-.436a1.057,1.057,0,0,0-1.581.949v.872h-4.23Zm-.283-5.669a2.181,2.181,0,1,0,2.181-2.181A2.187,2.187,0,0,0,47.143,23.542Z" transform="translate(-43 -17)" fill="#fcd770"/>
        </g>
        <g id="Group_1204998" data-name="Group 1204998" transform="translate(39.25 61.056)">
          <path id="Path_1254903" data-name="Path 1254903" d="M59.6,57l-.469,2.573a2.177,2.177,0,0,1-2.148,1.788H37V57H59.6Z" transform="translate(-37 -57)" fill="#aab2bd"/>
        </g>
        <g id="Group_1204999" data-name="Group 1204999" transform="translate(56.695 39.25)">
          <path id="Path_1254904" data-name="Path 1254904" d="M61.722,39a2.008,2.008,0,0,1-.033.36L58.157,58.806H53l4.045-20.2A2,2,0,0,1,59,37h.73A2,2,0,0,1,61.722,39Z" transform="translate(-53 -37)" fill="#ccd1d9"/>
        </g>
        <g id="Group_1205000" data-name="Group 1205000" transform="translate(39.25 56.695)">
          <path id="Path_1254905" data-name="Path 1254905" d="M41.361,56.271v1.09H37V53h1.09A3.266,3.266,0,0,1,41.361,56.271Z" transform="translate(-37 -53)" fill="#f0d0b4"/>
        </g>
        <g id="Group_1205001" data-name="Group 1205001" transform="translate(15.264 45.792)">
          <path id="Path_1254906" data-name="Path 1254906" d="M24.813,53.9H38.986v8.722H25.9A10.907,10.907,0,0,1,15,51.722V47.2A4.192,4.192,0,0,1,19.2,43c.12,0,.251,0,.371.011a4.938,4.938,0,0,1,2.29.938,4.177,4.177,0,0,1,1.45,2.42Z" transform="translate(-15 -43)" fill="#5cd6b3"/>
        </g>
        <g id="Group_1205002" data-name="Group 1205002" transform="translate(15.264 54.514)">
          <path id="Path_1254907" data-name="Path 1254907" d="M25.9,61.9H15V51A10.907,10.907,0,0,0,25.9,61.9Z" transform="translate(-15 -51)" fill="#5cd6b3"/>
        </g>
        <g id="Group_1205003" data-name="Group 1205003" transform="translate(19.832 45.661)">
          <path id="Path_1254908" data-name="Path 1254908" d="M22.1,43.011a9.806,9.806,0,0,1,9.758,8.831l.207,2.072H24.434l-1.5-7.534a4.177,4.177,0,0,0-1.45-2.42,4.938,4.938,0,0,0-2.29-.938l.022-.142a14.31,14.31,0,0,0,1.952.131H22.1Z" transform="translate(-19.19 -42.88)" fill="#5cd6b3"/>
        </g>
        <g id="Group_1205004" data-name="Group 1205004" transform="translate(2.181 2.181)">
          <path id="Path_1254909" data-name="Path 1254909" d="M33.528,20.445H23.944a14.7,14.7,0,0,1-8.319-2.584L9.956,20.379a4.373,4.373,0,0,0-2.595,3.99v2.617H4.09l-1-7.011A9.56,9.56,0,0,1,3,18.722V18.34a8.879,8.879,0,0,1,7.632-8.8A18.246,18.246,0,0,1,24.6,3h1.537A16.132,16.132,0,0,1,42.25,19.114a16.7,16.7,0,0,1-.218,2.649l-.872,5.222H37.889V24.806a4.36,4.36,0,0,0-4.361-4.361Z" transform="translate(-3 -3)" fill="#656d78"/>
        </g>
        <g id="Group_1205005" data-name="Group 1205005" transform="translate(36.917 26.167)">
          <path id="Path_1254910" data-name="Path 1254910" d="M38.283,25a3.271,3.271,0,1,1,0,6.542H34.86a15.917,15.917,0,0,0,.153-2.181V25Z" transform="translate(-34.86 -25)" fill="#f0d0b4"/>
        </g>
        <g id="Group_1205006" data-name="Group 1205006" transform="translate(6.542 17.041)">
          <path id="Path_1254911" data-name="Path 1254911" d="M33.058,40.911A15.266,15.266,0,0,1,22.3,45.381h-.033a14.31,14.31,0,0,1-1.952-.131A15.267,15.267,0,0,1,7.153,32.3,15.918,15.918,0,0,1,7,30.117V23.139a4.373,4.373,0,0,1,2.595-3.99l5.669-2.519a14.7,14.7,0,0,0,8.319,2.584h9.584a4.36,4.36,0,0,1,4.361,4.361v6.542a15.917,15.917,0,0,1-.153,2.181,15.216,15.216,0,0,1-4.318,8.613Z" transform="translate(-7 -16.63)" fill="#f0d0b4"/>
        </g>
        <g id="Group_1205007" data-name="Group 1205007" transform="translate(0 26.167)">
          <path id="Path_1254912" data-name="Path 1254912" d="M7.542,25v4.361a15.918,15.918,0,0,0,.153,2.181H4.271a3.271,3.271,0,0,1,0-6.542Z" transform="translate(-1 -25)" fill="#f0d0b4"/>
        </g>
        <g id="Group_1205008" data-name="Group 1205008" transform="translate(26.167 26.167)">
          <circle id="Ellipse_12640" data-name="Ellipse 12640" cx="2" cy="2" r="2" transform="translate(0.34 0.34)" fill="#969faa"/>
        </g>
        <g id="Group_1205009" data-name="Group 1205009" transform="translate(13.083 26.167)">
          <circle id="Ellipse_12641" data-name="Ellipse 12641" cx="2" cy="2" r="2" transform="translate(0.424 0.34)" fill="#969faa"/>
        </g>
      </g>
      <g id="Group_1205011" data-name="Group 1205011" transform="translate(0)">
        <path id="Path_1254913" data-name="Path 1254913" d="M15.271,24a3.271,3.271,0,1,0,3.271,3.271A3.275,3.275,0,0,0,15.271,24Zm0,4.361a1.09,1.09,0,1,1,1.09-1.09A1.092,1.092,0,0,1,15.271,28.361Z" transform="translate(1.083 2.167)"/>
        <path id="Path_1254914" data-name="Path 1254914" d="M27.271,24a3.271,3.271,0,1,0,3.271,3.271A3.275,3.275,0,0,0,27.271,24Zm0,4.361a1.09,1.09,0,1,1,1.09-1.09A1.092,1.092,0,0,1,27.271,28.361Z" transform="translate(2.167 2.167)"/>
        <path id="Path_1254915" data-name="Path 1254915" d="M23.194,36.131H18v2.181h5.194a5.006,5.006,0,0,0,4.5-2.784l-1.951-.976a2.838,2.838,0,0,1-2.552,1.579Z" transform="translate(1.625 3.12)"/>
        <path id="Path_1254916" data-name="Path 1254916" d="M16,10v2.181a20.023,20.023,0,0,1,12.8,4.634l.679.566,1.4-1.676-.679-.565A22.2,22.2,0,0,0,16,10Z" transform="translate(1.445 0.903)"/>
        <path id="Path_1254917" data-name="Path 1254917" d="M43,39.4l-5.787,7.717-2.382-2.382-1.542,1.542,4.159,4.159,7.3-9.728Z" transform="translate(3.006 3.557)"/>
        <path id="Path_1254918" data-name="Path 1254918" d="M53.749,40.708,52,39.4l-5.787,7.717-2.382-2.382-1.542,1.542,4.159,4.159Z" transform="translate(3.818 3.557)"/>
        <path id="Path_1254919" data-name="Path 1254919" d="M67.6,34.889V2.181A2.183,2.183,0,0,0,65.417,0H41.431A2.183,2.183,0,0,0,39.25,2.181V7.975A17.145,17.145,0,0,0,26.41,2.181H24.869A19.212,19.212,0,0,0,10.332,8.8a10.032,10.032,0,0,0-8.151,9.81v.381a10.01,10.01,0,0,0,.1,1.412l.852,5.959a4.349,4.349,0,0,0,1.229,8.525h2.51A16.4,16.4,0,0,0,17.278,46.957a5.258,5.258,0,0,0-2.014,4.119V67.6H60.327a3.272,3.272,0,0,0,3.219-2.685l4-22.014a3.192,3.192,0,0,0,.05-.558,3.093,3.093,0,0,0-3.09-3.09h-.722a3.1,3.1,0,0,0-3.03,2.484L56.891,61.056h-11.1a4.366,4.366,0,0,0-4.361-4.361H34.786l-.108-1.085a10.865,10.865,0,0,0-6.028-8.7A16.4,16.4,0,0,0,38.921,34.889h.329a2.183,2.183,0,0,0,2.181,2.181H65.417A2.183,2.183,0,0,0,67.6,34.889ZM4.361,32.709a2.181,2.181,0,0,1,0-4.361H6.542v3.271c0,.369.032.728.056,1.09ZM17.445,65.417V62.479a12.093,12.093,0,0,0,2.938,2.938Zm0-9.813V51.077a3.1,3.1,0,0,1,6.148-.608l1.391,6.959L23.215,59.2l1.542,1.542,1.861-1.862H39.25v6.542H27.257A9.825,9.825,0,0,1,17.445,55.6Zm45.45-13.443a.912.912,0,0,1,.892-.73h.722a.912.912,0,0,1,.909.909.835.835,0,0,1-.015.162L62.03,61.056H59.115ZM61.633,63.237,61.4,64.522a1.092,1.092,0,0,1-1.073.9h-18.9V63.237ZM43.611,61.056H41.431V58.875A2.183,2.183,0,0,1,43.611,61.056Zm-11.1-5.229.087.868H27.061L25.73,50.04a5.216,5.216,0,0,0-.884-2,8.686,8.686,0,0,1,7.661,7.789ZM37.07,31.618a14.174,14.174,0,1,1-28.347,0V24.64a3.275,3.275,0,0,1,1.943-2.99l5.125-2.278a15.76,15.76,0,0,0,8.426,2.432H33.8a3.275,3.275,0,0,1,3.271,3.271ZM33.8,19.625H24.216A13.574,13.574,0,0,1,12.9,13.569l-1.814,1.209a15.823,15.823,0,0,0,2.7,3.1L9.779,19.658A5.46,5.46,0,0,0,6.542,24.64v1.526H5.306L4.44,20.1a7.766,7.766,0,0,1-.079-1.1v-.381a7.838,7.838,0,0,1,6.7-7.721l.414-.059.268-.322A17.046,17.046,0,0,1,24.869,4.361H26.41a15.018,15.018,0,0,1,14.816,17.49l-.718,4.315H39.25v-1.09A5.458,5.458,0,0,0,33.8,19.625Zm5.4,13.083c.024-.362.056-.722.056-1.09V28.347h2.181a2.181,2.181,0,0,1,0,4.361Zm6.6-2.181a4.354,4.354,0,0,0-3.108-4.156l.693-4.163a17.125,17.125,0,0,0-1.946-11.186V2.181H65.417V34.889H41.431a4.366,4.366,0,0,0,4.361-4.361Z" transform="translate(0)"/>
        <path id="Path_1254920" data-name="Path 1254920" d="M54.5,16.963l-1.633,1V16h-6.4v1.09l.069.564-1.409-1.116-3.477,6.1,1.654,1-1.646.981L44.83,30.3l1.633-1v1.967h6.4v-1.09l-.064-.884L54.5,30.3l3.176-5.68-1.646-1,1.646-.981Zm.242,8.438L53.682,27.3a2.09,2.09,0,0,0-1.9.1,2.187,2.187,0,0,0-1.089,1.69H48.631a2.187,2.187,0,0,0-1.089-1.69,2.1,2.1,0,0,0-1.9-.1L44.584,25.4a2.2,2.2,0,0,0,.007-3.531l1.228-2.154a2.105,2.105,0,0,0,1.6-.1,2.154,2.154,0,0,0,1.16-1.432h2.116a2.187,2.187,0,0,0,1.089,1.69,2.09,2.09,0,0,0,1.9.1l1.06,1.895a2.2,2.2,0,0,0,0,3.536Z" transform="translate(3.76 1.445)"/>
        <path id="Path_1254921" data-name="Path 1254921" d="M49.075,20a3.271,3.271,0,1,0,3.271,3.271A3.275,3.275,0,0,0,49.075,20Zm0,4.361a1.09,1.09,0,1,1,1.09-1.09A1.092,1.092,0,0,1,49.075,24.361Z" transform="translate(4.135 1.806)"/>
        <path id="Path_1254922" data-name="Path 1254922" d="M42,4h4.361V6.181H42Z" transform="translate(3.792 0.361)"/>
        <path id="Path_1254923" data-name="Path 1254923" d="M48,4h8.722V6.181H48Z" transform="translate(4.334 0.361)"/>
        <path id="Path_1254924" data-name="Path 1254924" d="M42,8H57.264v2.181H42Z" transform="translate(3.792 0.722)"/>
        <path id="Path_1254925" data-name="Path 1254925" d="M54,12h2.181v2.181H54Z" transform="translate(4.875 1.083)"/>
        <path id="Path_1254926" data-name="Path 1254926" d="M50,12h2.181v2.181H50Z" transform="translate(4.514 1.083)"/>
        <path id="Path_1254927" data-name="Path 1254927" d="M42,12h6.542v2.181H42Z" transform="translate(3.792 1.083)"/>
      </g>
    </g>
  </g>
</svg>
