<svg xmlns="http://www.w3.org/2000/svg" width="73.999" height="74.004" viewBox="0 0 73.999 74.004">
  <g id="Fill_Outlines" data-name="Fill Outlines" transform="translate(-2 -2)">
    <g id="Color" transform="translate(3.233 3.233)">
      <g id="Group_1204627" data-name="Group 1204627">
        <g id="Group_1204624" data-name="Group 1204624">
          <path id="Path_1253278" data-name="Path 1253278" d="M3,3H54.8V7.933H3Z" transform="translate(-3 -3)" fill="#d0d8da"/>
          <path id="Path_1253279" data-name="Path 1253279" d="M3,55H54.8v4.933H3Z" transform="translate(-3 9.132)" fill="#d0d8da"/>
          <g id="Group_1204621" data-name="Group 1204621" transform="translate(4.933 34.533)">
            <path id="Path_1253280" data-name="Path 1253280" d="M7,47H48.933v9.867H7Z" transform="translate(-7 -27.267)" fill="#d0d8da"/>
            <path id="Path_1253281" data-name="Path 1253281" d="M7,39H48.933v9.867H7Z" transform="translate(-7 -29.133)" fill="#d0d8da"/>
            <path id="Path_1253282" data-name="Path 1253282" d="M11.933,39H7v9.867H48.933V43.933H16.867A4.933,4.933,0,0,1,11.933,39Z" transform="translate(-7 -29.133)" fill="#93999a"/>
            <path id="Path_1253283" data-name="Path 1253283" d="M11.933,47H7v9.867H48.933V51.933H16.867A4.933,4.933,0,0,1,11.933,47Z" transform="translate(-7 -27.267)" fill="#93999a"/>
            <path id="Path_1253284" data-name="Path 1253284" d="M7,31H48.933v9.867H7Z" transform="translate(-7 -31)" fill="#d0d8da"/>
            <path id="Path_1253285" data-name="Path 1253285" d="M11.933,31H7v9.867H48.933V35.933H16.867A4.933,4.933,0,0,1,11.933,31Z" transform="translate(-7 -31)" fill="#93999a"/>
          </g>
          <g id="Group_1204622" data-name="Group 1204622" transform="translate(4.933 4.933)">
            <path id="Path_1253286" data-name="Path 1253286" d="M7,23H48.933v9.867H7Z" transform="translate(-7 -3.267)" fill="#d0d8da"/>
            <path id="Path_1253287" data-name="Path 1253287" d="M7,15H48.933v9.867H7Z" transform="translate(-7 -5.133)" fill="#d0d8da"/>
            <path id="Path_1253288" data-name="Path 1253288" d="M11.933,15H7v9.867H48.933V19.933H16.867A4.933,4.933,0,0,1,11.933,15Z" transform="translate(-7 -5.133)" fill="#93999a"/>
            <path id="Path_1253289" data-name="Path 1253289" d="M11.933,23H7v9.867H48.933V27.933H16.867A4.933,4.933,0,0,1,11.933,23Z" transform="translate(-7 -3.267)" fill="#93999a"/>
            <path id="Path_1253290" data-name="Path 1253290" d="M7,7H48.933v9.867H7Z" transform="translate(-7 -7)" fill="#d0d8da"/>
            <path id="Path_1253291" data-name="Path 1253291" d="M11.933,7H7v9.867H48.933V11.933H16.867A4.933,4.933,0,0,1,11.933,7Z" transform="translate(-7 -7)" fill="#93999a"/>
          </g>
          <g id="Group_1204623" data-name="Group 1204623">
            <path id="Path_1253292" data-name="Path 1253292" d="M7.933,3H3V7.933H54.8V5.467H10.4A2.467,2.467,0,0,1,7.933,3Z" transform="translate(-3 -3)" fill="#93999a"/>
            <path id="Path_1253293" data-name="Path 1253293" d="M7.933,55H3v4.933H54.8V57.467H10.4A2.467,2.467,0,0,1,7.933,55Z" transform="translate(-3 9.132)" fill="#93999a"/>
          </g>
        </g>
        <g id="Group_1204626" data-name="Group 1204626" transform="translate(22.188 22.2)">
          <circle id="Ellipse_12536" data-name="Ellipse 12536" cx="25" cy="25" r="25" transform="translate(-0.421 -0.433)" fill="#f9e109"/>
          <path id="Path_1253294" data-name="Path 1253294" d="M54.3,62.414A24.634,24.634,0,0,1,34.395,23.225,24.653,24.653,0,1,0,65.576,59.669,24.532,24.532,0,0,1,54.3,62.414Z" transform="translate(-20.99 -20.481)" fill="#fcbc04"/>
          <circle id="Ellipse_12537" data-name="Ellipse 12537" cx="20" cy="20" r="20" transform="translate(4.579 4.567)" fill="#fcbc04"/>
          <g id="Group_1204625" data-name="Group 1204625" transform="translate(4.949 4.933)">
            <path id="Path_1253295" data-name="Path 1253295" d="M43.963,25A19.678,19.678,0,0,0,28.3,32.767,19.708,19.708,0,0,1,55.926,60.4,19.716,19.716,0,0,0,43.963,25Z" transform="translate(-24.233 -25)" fill="#e59730"/>
            <path id="Path_1253296" data-name="Path 1253296" d="M53.366,60.553A24.628,24.628,0,0,1,29.157,31.2a19.716,19.716,0,0,0,25.2,29.3C54.028,60.516,53.7,60.553,53.366,60.553Z" transform="translate(-25.003 -23.553)" fill="#e59730"/>
          </g>
        </g>
      </g>
    </g>
    <g id="Outlines_copy" data-name="Outlines copy" transform="translate(2 2)">
      <g id="Group_1204628" data-name="Group 1204628">
        <path id="Path_1253297" data-name="Path 1253297" d="M29.933,48.8a2.467,2.467,0,0,1-2.467-2.467,1.233,1.233,0,0,0-2.467,0A4.933,4.933,0,1,0,29.933,41.4,2.467,2.467,0,1,1,32.4,38.933a1.233,1.233,0,0,0,2.467,0,4.933,4.933,0,1,0-4.933,4.933,2.467,2.467,0,0,1,0,4.933Z" transform="translate(3.366 5.466)" fill="#1f2d51"/>
        <path id="Path_1253298" data-name="Path 1253298" d="M58.867,50.033A1.233,1.233,0,0,0,57.633,48.8H51.467V35.233a1.233,1.233,0,0,0-2.467,0v14.8a1.233,1.233,0,0,0,1.233,1.233h7.4A1.233,1.233,0,0,0,58.867,50.033Z" transform="translate(8.966 5.466)" fill="#1f2d51"/>
        <path id="Path_1253299" data-name="Path 1253299" d="M49.8,41.4a7.4,7.4,0,0,0-14.8,0v2.467a7.388,7.388,0,0,0,11.681,6.025l1.014,1.014a1.233,1.233,0,1,0,1.744-1.744l-1.014-1.014A7.352,7.352,0,0,0,49.8,43.867Zm-5.295,2.828a1.233,1.233,0,1,0-1.744,1.744L44.89,48.1a4.868,4.868,0,0,1-2.49.7,4.933,4.933,0,0,1-4.933-4.933V41.4a4.933,4.933,0,1,1,9.867,0v2.467a4.868,4.868,0,0,1-.7,2.49Z" transform="translate(5.699 5.466)" fill="#1f2d51"/>
        <path id="Path_1253300" data-name="Path 1253300" d="M65.95,29.51a1.233,1.233,0,1,0-1.908,1.563,23.455,23.455,0,1,1-3.316-3.315,1.233,1.233,0,1,0,1.561-1.909A25.9,25.9,0,1,0,65.95,29.51Z" transform="translate(2.2 2.201)" fill="#1f2d51"/>
        <path id="Path_1253301" data-name="Path 1253301" d="M58.572,33.405A1.234,1.234,0,0,0,60.5,31.861a20.942,20.942,0,0,0-32.708,0,1.233,1.233,0,0,0,1.923,1.544,18.471,18.471,0,0,1,28.86,0Z" transform="translate(3.958 3.133)" fill="#1f2d51"/>
        <path id="Path_1253302" data-name="Path 1253302" d="M44.145,59.867A20.878,20.878,0,0,0,60.5,52.006a1.233,1.233,0,1,0-1.924-1.544,18.471,18.471,0,0,1-28.86,0,1.234,1.234,0,0,0-1.925,1.544A20.878,20.878,0,0,0,44.145,59.867Z" transform="translate(3.954 9.199)" fill="#1f2d51"/>
        <circle id="Ellipse_12538" data-name="Ellipse 12538" cx="1" cy="1" r="1" transform="translate(31 20)" fill="#1f2d51"/>
        <circle id="Ellipse_12539" data-name="Ellipse 12539" cx="1" cy="1" r="1" transform="translate(36 20)" fill="#1f2d51"/>
        <path id="Path_1253303" data-name="Path 1253303" d="M11.233,18a1.233,1.233,0,0,0,0,2.467h14.8a1.233,1.233,0,1,0,0-2.467Z" transform="translate(-0.133 1.733)" fill="#1f2d51"/>
        <circle id="Ellipse_12540" data-name="Ellipse 12540" cx="1" cy="1" r="1" transform="translate(31 10)" fill="#1f2d51"/>
        <circle id="Ellipse_12541" data-name="Ellipse 12541" cx="1" cy="1" r="1" transform="translate(36 10)" fill="#1f2d51"/>
        <circle id="Ellipse_12542" data-name="Ellipse 12542" cx="1" cy="1" r="1" transform="translate(41 10)" fill="#1f2d51"/>
        <path id="Path_1253304" data-name="Path 1253304" d="M11.233,12.467h14.8a1.233,1.233,0,1,0,0-2.467h-14.8a1.233,1.233,0,0,0,0,2.467Z" transform="translate(-0.133 -0.133)" fill="#1f2d51"/>
        <path id="Path_1253305" data-name="Path 1253305" d="M30.768,71.066H4.467V68.6H26.332a1.233,1.233,0,1,0,0-2.467H9.4v-7.4H21.632a1.233,1.233,0,1,0,0-2.467H9.4v-7.4H20.623a1.233,1.233,0,1,0,0-2.467H9.4V39H23.83a1.233,1.233,0,1,0,0-2.467H9.4v-7.4H30.768a1.233,1.233,0,0,0,0-2.467H9.4v-7.4H48.866V20.5a1.233,1.233,0,1,0,2.467,0V9.4h3.7a1.233,1.233,0,0,0,1.233-1.233V3.233A1.233,1.233,0,0,0,55.033,2H3.233A1.233,1.233,0,0,0,2,3.233V8.167A1.233,1.233,0,0,0,3.233,9.4h3.7V66.132h-3.7A1.233,1.233,0,0,0,2,67.366V72.3a1.233,1.233,0,0,0,1.233,1.233H30.768a1.233,1.233,0,1,0,0-2.467Zm-26.3-66.6H53.8V6.933H4.467ZM48.866,9.4v7.4H9.4V9.4Z" transform="translate(-2 -2)" fill="#1f2d51"/>
        <path id="Path_1253306" data-name="Path 1253306" d="M15.233,26a1.233,1.233,0,1,0,0,2.467h8.633a1.233,1.233,0,1,0,0-2.467Z" transform="translate(0.8 3.6)" fill="#1f2d51"/>
        <path id="Path_1253307" data-name="Path 1253307" d="M12.233,50a1.233,1.233,0,1,0,0,2.467h3.7a1.233,1.233,0,1,0,0-2.467Z" transform="translate(0.1 9.199)" fill="#1f2d51"/>
        <path id="Path_1253308" data-name="Path 1253308" d="M12.233,34a1.233,1.233,0,1,0,0,2.467H14.7A1.233,1.233,0,1,0,14.7,34Z" transform="translate(0.1 5.466)" fill="#1f2d51"/>
        <circle id="Ellipse_12543" data-name="Ellipse 12543" cx="1.5" cy="1.5" r="1.5" transform="translate(18 39)" fill="#1f2d51"/>
        <circle id="Ellipse_12544" data-name="Ellipse 12544" cx="1.5" cy="1.5" r="1.5" transform="translate(11 49)" fill="#1f2d51"/>
        <ellipse id="Ellipse_12545" data-name="Ellipse 12545" cx="1" cy="1.5" rx="1" ry="1.5" transform="translate(16 49)" fill="#1f2d51"/>
        <ellipse id="Ellipse_12546" data-name="Ellipse 12546" cx="1" cy="1.5" rx="1" ry="1.5" transform="translate(20 59)" fill="#1f2d51"/>
        <ellipse id="Ellipse_12547" data-name="Ellipse 12547" cx="1.5" cy="1" rx="1.5" ry="1" transform="translate(11 30)" fill="#1f2d51"/>
      </g>
    </g>
  </g>
</svg>
