<svg xmlns="http://www.w3.org/2000/svg" width="190" height="114" viewBox="0 0 190 114">
  <g id="Group_1204734" data-name="Group 1204734" transform="translate(-180 -585)">
    <rect id="Rectangle_411883" data-name="Rectangle 411883" width="190" height="114" transform="translate(180 585)" fill="#ffc94a"/>
    <g id="coder" transform="translate(238.065 605.105)">
      <path id="Path_1253853" data-name="Path 1253853" d="M75.441,67.656H11.17a3.677,3.677,0,0,1-3.677-3.677V11.67A3.677,3.677,0,0,1,11.17,7.992H75.441a3.677,3.677,0,0,1,3.677,3.677v52.31A3.677,3.677,0,0,1,75.441,67.656Zm0,0" transform="translate(-6.411 -6.411)" fill="#ffd86e"/>
      <path id="Path_1253854" data-name="Path 1253854" d="M455.493,11.673v52.31a3.677,3.677,0,0,1-3.677,3.677h-4.492A3.677,3.677,0,0,0,451,63.983V11.673A3.677,3.677,0,0,0,447.324,8h4.492A3.677,3.677,0,0,1,455.493,11.673Zm0,0" transform="translate(-382.786 -6.415)" fill="#ffb509"/>
      <path id="Path_1253855" data-name="Path 1253855" d="M79.118,360.129H7.492v5.182a3.677,3.677,0,0,0,3.677,3.677H75.441a3.677,3.677,0,0,0,3.677-3.677Zm0,0" transform="translate(-6.411 -307.743)" fill="#838383"/>
      <path id="Path_1253856" data-name="Path 1253856" d="M455.493,360.129v5.182a3.677,3.677,0,0,1-3.677,3.677h-4.492A3.677,3.677,0,0,0,451,365.311v-5.182Zm0,0" transform="translate(-382.786 -307.743)" fill="#5a5a5a"/>
      <path id="Path_1253857" data-name="Path 1253857" d="M79.675,20.536H8.047V11.669a3.677,3.677,0,0,1,3.677-3.677H76a3.677,3.677,0,0,1,3.677,3.677Zm0,0" transform="translate(-6.886 -6.411)" fill="#acacac"/>
      <path id="Path_1253858" data-name="Path 1253858" d="M455.575,11.672V20.54H451V11.672A3.676,3.676,0,0,0,447.324,8H451.9A3.677,3.677,0,0,1,455.575,11.672Zm0,0" transform="translate(-382.786 -6.415)" fill="#9c9c9c"/>
      <path id="Path_1253859" data-name="Path 1253859" d="M186.277,421.531h20.036v6.039H186.277Zm0,0" transform="translate(-159.402 -360.286)" fill="#5a5a5a"/>
      <path id="Path_1253860" data-name="Path 1253860" d="M170.023,469.315H137a.721.721,0,0,1-.721-.721v-2.336a2.868,2.868,0,0,1,2.868-2.868h28.727a2.868,2.868,0,0,1,2.867,2.868v2.336A.72.72,0,0,1,170.023,469.315Zm0,0" transform="translate(-116.619 -396.106)" fill="#838383"/>
      <path id="Path_1253861" data-name="Path 1253861" d="M338.78,466.261V468.6a.721.721,0,0,1-.721.721h-2.544v-3.057a2.868,2.868,0,0,0-2.867-2.867h3.265A2.867,2.867,0,0,1,338.78,466.261Zm0,0" transform="translate(-284.655 -396.11)" fill="#5a5a5a"/>
      <path id="Path_1253862" data-name="Path 1253862" d="M295.477,275.613h23.41v4.437h-23.41Zm0,0" transform="translate(-252.846 -235.421)" fill="#64dcfc"/>
      <path id="Path_1253863" data-name="Path 1253863" d="M295.477,357.273h23.41v4.438h-23.41Zm0,0" transform="translate(-252.846 -305.299)" fill="#64dcfc"/>
      <path id="Path_1253864" data-name="Path 1253864" d="M438.551,275.613h2.768v4.437h-2.768Zm0,0" transform="translate(-375.278 -235.421)" fill="#00d1fc"/>
      <path id="Path_1253865" data-name="Path 1253865" d="M438.551,357.273h2.768v4.438h-2.768Zm0,0" transform="translate(-375.278 -305.299)" fill="#00d1fc"/>
      <g id="Group_1204733" data-name="Group 1204733" transform="translate(39.647 32.848)">
        <path id="Path_1253866" data-name="Path 1253866" d="M303.129,232.052H275.842a1.045,1.045,0,0,1-1.045-1.045v-5.254a1.046,1.046,0,0,1,1.045-1.045h27.287a1.046,1.046,0,0,1,1.045,1.045v5.254A1.045,1.045,0,0,1,303.129,232.052Zm0,0" transform="translate(-274.797 -224.707)" fill="#0396fd"/>
        <path id="Path_1253867" data-name="Path 1253867" d="M303.129,313.712H275.842a1.045,1.045,0,0,1-1.045-1.045v-5.254a1.046,1.046,0,0,1,1.045-1.045h27.287a1.046,1.046,0,0,1,1.045,1.045v5.254A1.045,1.045,0,0,1,303.129,313.712Zm0,0" transform="translate(-274.797 -294.586)" fill="#0396fd"/>
        <path id="Path_1253868" data-name="Path 1253868" d="M303.129,395.372H275.842a1.045,1.045,0,0,1-1.045-1.045v-5.254a1.045,1.045,0,0,1,1.045-1.045h27.287a1.045,1.045,0,0,1,1.045,1.045v5.254A1.045,1.045,0,0,1,303.129,395.372Zm0,0" transform="translate(-274.797 -364.464)" fill="#0396fd"/>
      </g>
      <path id="Path_1253869" data-name="Path 1253869" d="M457.837,225.756v5.254a1.044,1.044,0,0,1-1.045,1.045h-2.425a1.044,1.044,0,0,0,1.045-1.045v-5.254a1.044,1.044,0,0,0-1.045-1.045h2.425A1.044,1.044,0,0,1,457.837,225.756Zm0,0" transform="translate(-388.813 -191.863)" fill="#0077f0"/>
      <path id="Path_1253870" data-name="Path 1253870" d="M457.837,307.412v5.254a1.044,1.044,0,0,1-1.045,1.045h-2.425a1.044,1.044,0,0,0,1.045-1.045v-5.254a1.044,1.044,0,0,0-1.045-1.045h2.425A1.045,1.045,0,0,1,457.837,307.412Zm0,0" transform="translate(-388.813 -261.738)" fill="#0077f0"/>
      <path id="Path_1253871" data-name="Path 1253871" d="M457.837,389.077v5.254a1.045,1.045,0,0,1-1.045,1.045h-2.425a1.045,1.045,0,0,0,1.045-1.045v-5.254a1.044,1.044,0,0,0-1.045-1.045h2.425A1.044,1.044,0,0,1,457.837,389.077Zm0,0" transform="translate(-388.813 -331.62)" fill="#0077f0"/>
      <path id="Path_1253872" data-name="Path 1253872" d="M44.949,38.845a2.091,2.091,0,1,1-2.091-2.091A2.092,2.092,0,0,1,44.949,38.845Zm0,0" transform="translate(-34.884 -31.023)" fill="#ff6b81"/>
      <path id="Path_1253873" data-name="Path 1253873" d="M100.933,38.845a2.092,2.092,0,1,1-2.091-2.091A2.092,2.092,0,0,1,100.933,38.845Zm0,0" transform="translate(-82.791 -31.023)" fill="#ffd86e"/>
      <path id="Path_1253874" data-name="Path 1253874" d="M156.921,38.845a2.091,2.091,0,1,1-2.091-2.091A2.092,2.092,0,0,1,156.921,38.845Zm0,0" transform="translate(-130.702 -31.023)" fill="#80e0dc"/>
      <path id="Path_1253875" data-name="Path 1253875" d="M48.8,38.85a2.09,2.09,0,0,1-3.533,1.512,2.09,2.09,0,0,0,1.394-3.6.481.481,0,0,1,.049,0A2.09,2.09,0,0,1,48.8,38.85Zm0,0" transform="translate(-38.735 -31.027)" fill="#ff435f"/>
      <path id="Path_1253876" data-name="Path 1253876" d="M104.78,38.85a2.091,2.091,0,0,1-3.534,1.512,2.09,2.09,0,0,0,1.4-3.6.443.443,0,0,1,.047,0A2.091,2.091,0,0,1,104.78,38.85Zm0,0" transform="translate(-86.639 -31.027)" fill="#ffb509"/>
      <path id="Path_1253877" data-name="Path 1253877" d="M160.769,38.85a2.092,2.092,0,0,1-3.535,1.512,2.09,2.09,0,0,0,1.394-3.6.481.481,0,0,1,.049,0A2.092,2.092,0,0,1,160.769,38.85Zm0,0" transform="translate(-134.549 -31.027)" fill="#00a8b0"/>
      <path id="Path_1253878" data-name="Path 1253878" d="M36.98,135.895a1.081,1.081,0,0,0,1.529-1.529l-2.625-2.625,2.625-2.625a1.081,1.081,0,0,0-1.529-1.529l-3.389,3.389a1.081,1.081,0,0,0,0,1.529Zm0,0" transform="translate(-28.473 -108.48)"/>
      <path id="Path_1253879" data-name="Path 1253879" d="M115.873,131.737l-2.625,2.625a1.081,1.081,0,1,0,1.529,1.529l3.39-3.39a1.081,1.081,0,0,0,0-1.528l-3.39-3.39a1.081,1.081,0,0,0-1.528,1.529Zm0,0" transform="translate(-96.638 -108.477)"/>
      <path id="Path_1253880" data-name="Path 1253880" d="M77.1,136.132a1.081,1.081,0,0,0,1.4-.611l2.663-6.779a1.081,1.081,0,1,0-2.012-.791l-2.663,6.779A1.081,1.081,0,0,0,77.1,136.132Zm0,0" transform="translate(-65.392 -108.476)"/>
      <path id="Path_1253881" data-name="Path 1253881" d="M38.6,220.377H45.88a1.081,1.081,0,0,0,0-2.162H38.6a1.081,1.081,0,0,0,0,2.162Zm0,0" transform="translate(-32.103 -186.304)"/>
      <path id="Path_1253882" data-name="Path 1253882" d="M129.4,218.215h-12.8a1.081,1.081,0,0,0,0,2.162h12.8a1.081,1.081,0,1,0,0-2.162Zm0,0" transform="translate(-98.846 -186.304)"/>
      <path id="Path_1253883" data-name="Path 1253883" d="M38.6,251.983h3.1a1.081,1.081,0,0,0,0-2.162H38.6a1.081,1.081,0,0,0,0,2.162Zm0,0" transform="translate(-32.103 -213.349)"/>
      <path id="Path_1253884" data-name="Path 1253884" d="M177.929,249.82a1.081,1.081,0,0,0,0,2.162h1.889a1.081,1.081,0,1,0,0-2.162Zm0,0" transform="translate(-151.333 -213.349)"/>
      <path id="Path_1253885" data-name="Path 1253885" d="M96.754,250.9a1.081,1.081,0,0,0-1.081-1.081h-9.28a1.081,1.081,0,0,0,0,2.162h9.28A1.081,1.081,0,0,0,96.754,250.9Zm0,0" transform="translate(-73.004 -213.349)"/>
      <path id="Path_1253886" data-name="Path 1253886" d="M213.7,250.9a1.081,1.081,0,0,0,1.081,1.082h3.539a1.081,1.081,0,1,0,0-2.162h-3.539A1.081,1.081,0,0,0,213.7,250.9Zm0,0" transform="translate(-182.871 -213.349)"/>
      <path id="Path_1253887" data-name="Path 1253887" d="M166.48,151.44h3.733a1.081,1.081,0,1,0,0-2.162H166.48a1.081,1.081,0,1,0,0,2.162Zm0,0" transform="translate(-141.535 -127.312)"/>
      <path id="Path_1253888" data-name="Path 1253888" d="M221.328,151.44H244.1a1.081,1.081,0,0,0,0-2.162H221.328a1.081,1.081,0,1,0,0,2.162Zm0,0" transform="translate(-188.47 -127.312)"/>
      <path id="Path_1253889" data-name="Path 1253889" d="M300.49,182.246h-9.226a1.081,1.081,0,0,0,0,2.162h9.226a1.081,1.081,0,0,0,0-2.162Zm0,0" transform="translate(-248.317 -155.524)"/>
      <path id="Path_1253890" data-name="Path 1253890" d="M248.479,182.246h-3.171a1.081,1.081,0,0,0,0,2.162h3.171a1.081,1.081,0,0,0,0-2.162Zm0,0" transform="translate(-208.99 -155.524)"/>
      <path id="Path_1253891" data-name="Path 1253891" d="M166.48,184.409h7.769a1.081,1.081,0,0,0,0-2.162H166.48a1.081,1.081,0,1,0,0,2.162Zm0,0" transform="translate(-141.535 -155.524)"/>
      <path id="Path_1253892" data-name="Path 1253892" d="M107.61,281.16h-7.283a1.081,1.081,0,1,0,0,2.162h7.283a1.081,1.081,0,1,0,0-2.162Zm0,0" transform="translate(-84.927 -240.167)"/>
      <path id="Path_1253893" data-name="Path 1253893" d="M44.192,281.16H38.6a1.081,1.081,0,1,0,0,2.162h5.6a1.081,1.081,0,1,0,0-2.162Zm0,0" transform="translate(-32.103 -240.167)"/>
      <path id="Path_1253894" data-name="Path 1253894" d="M185.884,281.16H176.37a1.081,1.081,0,1,0,0,2.162h9.514a1.081,1.081,0,1,0,0-2.162Zm0,0" transform="translate(-149.999 -240.167)"/>
      <path id="Path_1253895" data-name="Path 1253895" d="M300.631,242.668h-5.2a1.081,1.081,0,0,0,0,2.162h5.2a1.081,1.081,0,0,0,0-2.162Zm0,0" transform="translate(-251.88 -207.229)"/>
      <path id="Path_1253896" data-name="Path 1253896" d="M394.057,244.83H401.4a1.081,1.081,0,1,0,0-2.162h-7.344a1.081,1.081,0,0,0,0,2.162Zm0,0" transform="translate(-336.279 -207.229)"/>
      <path id="Path_1253897" data-name="Path 1253897" d="M358.62,242.668h-1.683a1.081,1.081,0,1,0,0,2.162h1.683a1.081,1.081,0,0,0,0-2.162Zm0,0" transform="translate(-304.514 -207.229)"/>
      <path id="Path_1253898" data-name="Path 1253898" d="M295.429,326.49h5.2a1.081,1.081,0,0,0,0-2.162h-5.2a1.081,1.081,0,0,0,0,2.162Zm0,0" transform="translate(-251.88 -277.107)"/>
      <path id="Path_1253899" data-name="Path 1253899" d="M394.057,326.49H401.4a1.081,1.081,0,1,0,0-2.162h-7.344a1.081,1.081,0,0,0,0,2.162Zm0,0" transform="translate(-336.279 -277.107)"/>
      <path id="Path_1253900" data-name="Path 1253900" d="M356.94,326.49h1.683a1.081,1.081,0,1,0,0-2.162H356.94a1.081,1.081,0,0,0,0,2.162Zm0,0" transform="translate(-304.517 -277.107)"/>
      <path id="Path_1253901" data-name="Path 1253901" d="M300.631,405.988h-5.2a1.081,1.081,0,0,0,0,2.162h5.2a1.081,1.081,0,1,0,0-2.162Zm0,0" transform="translate(-251.88 -346.986)"/>
      <path id="Path_1253902" data-name="Path 1253902" d="M401.4,405.988h-7.344a1.081,1.081,0,0,0,0,2.162H401.4a1.081,1.081,0,1,0,0-2.162Zm0,0" transform="translate(-336.279 -346.986)"/>
      <path id="Path_1253903" data-name="Path 1253903" d="M358.62,405.988h-1.683a1.081,1.081,0,1,0,0,2.162h1.683a1.081,1.081,0,0,0,0-2.162Zm0,0" transform="translate(-304.514 -346.986)"/>
      <path id="Path_1253904" data-name="Path 1253904" d="M69.112.5H4.758A4.764,4.764,0,0,0,0,5.258v52.31a4.764,4.764,0,0,0,4.758,4.758H8.827a1.081,1.081,0,1,0,0-2.162H4.758a2.6,2.6,0,0,1-2.6-2.6v-4.1H41.549V55.33h-.857a2.128,2.128,0,0,0-2.126,2.126v2.707H15.4a1.081,1.081,0,1,0,0,2.162H25.795V66.2H22.53a3.954,3.954,0,0,0-3.949,3.949v2.335a1.8,1.8,0,0,0,1.8,1.8H53.4a1.8,1.8,0,0,0,1.8-1.8V70.152A3.954,3.954,0,0,0,51.257,66.2H47.993V64.837H67.979A2.128,2.128,0,0,0,70.1,62.71V62.2a4.765,4.765,0,0,0,3.682-4.633l.082-52.31A4.762,4.762,0,0,0,69.112.5ZM40.728,50.893V45.711H67.943v5.182Zm2.983-7.345V41.274H64.959v2.275Zm21.248,9.506V55.33H43.711V53.055Zm-37,9.271H38.566v.385a2.128,2.128,0,0,0,2.126,2.126h5.139V66.2H27.956Zm23.3,6.04a1.789,1.789,0,0,1,1.787,1.787v1.975h-32.3V70.152a1.789,1.789,0,0,1,1.787-1.787Zm16.685-5.692H40.728V57.493H67.943Zm3.682-5.106a2.6,2.6,0,0,1-1.52,2.359V57.456a2.129,2.129,0,0,0-2.126-2.126h-.857V53.467h4.5Zm0-6.263H70.07c.022-.122.036-5.63.036-5.63a2.129,2.129,0,0,0-2.126-2.126h-.857V41.274h.857a2.129,2.129,0,0,0,2.126-2.126V33.893a2.129,2.129,0,0,0-2.126-2.126H61.873a1.081,1.081,0,0,0,0,2.162h6.07v5.182H40.728V33.929H55.146a1.081,1.081,0,0,0,0-2.162H40.692a2.129,2.129,0,0,0-2.126,2.126v5.254a2.129,2.129,0,0,0,2.126,2.126h.857v2.275h-.857a2.129,2.129,0,0,0-2.126,2.126s.014,5.508.036,5.63H2.162v-36.1H71.626Zm0-38.262H2.242V5.258a2.6,2.6,0,0,1,2.6-2.6H69.03a2.6,2.6,0,0,1,2.6,2.6Zm0,0"/>
      <path id="Path_1253905" data-name="Path 1253905" d="M36.446,29.262a3.173,3.173,0,1,0,3.173,3.172A3.176,3.176,0,0,0,36.446,29.262Zm0,4.183a1.011,1.011,0,1,1,1.011-1.011A1.012,1.012,0,0,1,36.446,33.445Zm0,0" transform="translate(-28.473 -24.612)"/>
      <path id="Path_1253906" data-name="Path 1253906" d="M92.431,29.262A3.173,3.173,0,1,0,95.6,32.434,3.176,3.176,0,0,0,92.431,29.262Zm0,4.183a1.011,1.011,0,1,1,1.01-1.011A1.011,1.011,0,0,1,92.431,33.445Zm0,0" transform="translate(-76.38 -24.612)"/>
      <path id="Path_1253907" data-name="Path 1253907" d="M148.418,29.262a3.173,3.173,0,1,0,3.173,3.172A3.176,3.176,0,0,0,148.418,29.262Zm0,4.183a1.011,1.011,0,1,1,1.011-1.011A1.012,1.012,0,0,1,148.418,33.445Zm0,0" transform="translate(-124.29 -24.612)"/>
    </g>
  </g>
</svg>
