<svg xmlns="http://www.w3.org/2000/svg" width="190" height="114" viewBox="0 0 190 114">
  <g id="Group_1204799" data-name="Group 1204799" transform="translate(-180 -545)">
    <rect id="Rectangle_411883" data-name="Rectangle 411883" width="190" height="114" transform="translate(180 545)" fill="#ffc94a"/>
    <g id="consulta" transform="translate(234.991 561.833)">
      <path id="Path_1254171" data-name="Path 1254171" d="M240.469,351.062c0,4.658,9.171,8.435,20.484,8.435s20.484-3.776,20.484-8.435v-9.64c0,4.658-40.968,4.658-40.968,0Z" transform="translate(-203.149 -288.304)" fill="#528fd8"/>
      <ellipse id="Ellipse_12605" data-name="Ellipse 12605" cx="20.484" cy="8.435" rx="20.484" ry="8.435" transform="translate(37.319 44.683)" fill="#0573ce"/>
      <path id="Path_1254172" data-name="Path 1254172" d="M240.469,257.874c0,4.658,9.171,8.435,20.484,8.435s20.484-3.776,20.484-8.435v-9.64c0,4.658-40.968,4.658-40.968,0Z" transform="translate(-203.149 -209.576)" fill="#528fd8"/>
      <ellipse id="Ellipse_12606" data-name="Ellipse 12606" cx="20.484" cy="8.435" rx="20.484" ry="8.435" transform="translate(37.319 30.224)" fill="#0573ce"/>
      <path id="Path_1254173" data-name="Path 1254173" d="M240.469,164.687c0,4.658,9.171,8.435,20.484,8.435s20.484-3.776,20.484-8.435v-9.64c0,4.658-40.968,4.658-40.968,0Z" transform="translate(-203.149 -130.848)" fill="#528fd8"/>
      <ellipse id="Ellipse_12607" data-name="Ellipse 12607" cx="20.484" cy="8.435" rx="20.484" ry="8.435" transform="translate(37.319 15.764)" fill="#b2caec"/>
      <path id="Path_1254174" data-name="Path 1254174" d="M284.2,111.5a4.924,4.924,0,0,1,2.017,3.654c0,4.658-9.171,8.435-20.484,8.435a42.48,42.48,0,0,1-12.26-1.677c3.307,2.828,10.333,4.78,18.467,4.78,11.313,0,20.484-3.776,20.484-8.435C292.419,115.489,289.188,113.034,284.2,111.5Z" transform="translate(-214.132 -94.055)" fill="#82aee3"/>
      <path id="Path_1254175" data-name="Path 1254175" d="M83.66,54.523a24.087,24.087,0,1,0-8.719-5.037,2.326,2.326,0,0,1,.31,3.12L69.218,60.7l2.6,4.282,5.008.11,3.991-9.272A2.32,2.32,0,0,1,83.66,54.523Z" transform="translate(-56.593 -6.195)" fill="#0055a3"/>
      <path id="Path_1254176" data-name="Path 1254176" d="M8.776,364a6.426,6.426,0,0,0,1.938,9.406h0a6.426,6.426,0,0,0,9.115-3.024l6.732-15.639-7.608-4.392Z" transform="translate(-6.329 -295.846)" fill="#fd6930"/>
      <circle id="Ellipse_12608" data-name="Ellipse 12608" cx="19.279" cy="19.279" r="19.279" transform="translate(15.214 6.124)" fill="#99e6fc"/>
      <path id="Path_1254177" data-name="Path 1254177" d="M178.694,42.542a19.286,19.286,0,0,1-13.752,35.772,19.283,19.283,0,1,0,13.752-35.772Z" transform="translate(-139.342 -35.8)" fill="#62dbfb"/>
      <path id="Path_1254178" data-name="Path 1254178" d="M160.131,87.483v19.444a2.328,2.328,0,0,0,2.327,2.327h14.624a2.327,2.327,0,0,0,2.327-2.327V98.675A9.7,9.7,0,0,0,177,92.635l-5.069-5.069a9.7,9.7,0,0,0-6.039-2.41h-3.433A2.328,2.328,0,0,0,160.131,87.483Z" transform="translate(-135.277 -71.802)" fill="#dff6fd"/>
      <path id="Path_1254179" data-name="Path 1254179" d="M203.3,87.317l5.319,5.319a7.376,7.376,0,0,1,2.16,5.216v.824A3.879,3.879,0,0,0,206.9,94.8h-3.433a2.328,2.328,0,0,1-2.327-2.327V89.035a3.879,3.879,0,0,0-3.879-3.879h.824A7.376,7.376,0,0,1,203.3,87.317Z" transform="translate(-166.642 -71.802)" fill="#f2fbff"/>
      <path id="Trazado_1254180" data-name="Trazado 1254180" d="M334.691,167.949a49.52,49.52,0,0,1-5.917-.349,1.164,1.164,0,1,1,.279-2.311,47.185,47.185,0,0,0,5.638.332c11.386,0,19.32-3.832,19.32-7.271v-9.64a1.164,1.164,0,0,1,2.327,0v9.64C356.339,163.733,346.83,167.949,334.691,167.949Z" transform="translate(-276.888 -124.512)"/>
      <g id="Group_1204788" data-name="Group 1204788" transform="translate(73.469 34.455)">
        <g id="Group_1204787" data-name="Group 1204787">
          <path id="Línea_809" data-name="Línea 809"/>
        </g>
      </g>
      <g id="Group_1204790" data-name="Group 1204790" transform="translate(68.648 36.176)">
        <g id="Group_1204789" data-name="Group 1204789">
          <path id="Línea_810" data-name="Línea 810"/>
        </g>
      </g>
      <path id="Trazado_1254181" data-name="Trazado 1254181" d="M272.426,311.413a1.172,1.172,0,0,1-.214-.02,30.049,30.049,0,0,1-7.527-2.352,1.164,1.164,0,0,1,1.021-2.092,27.715,27.715,0,0,0,6.932,2.155,1.164,1.164,0,0,1-.212,2.308Z" transform="translate(-223.056 -259.081)"/>
      <path id="Trazado_1254182" data-name="Trazado 1254182" d="M255.414,261.137c-11.038,0-20.061-3.473-21.455-8.258a1.164,1.164,0,0,1,2.235-.651c.922,3.165,8.533,6.581,19.22,6.581,11.386,0,19.32-3.832,19.32-7.271V241.9a1.164,1.164,0,1,1,2.327,0v9.64C277.062,256.921,267.553,261.137,255.414,261.137Z" transform="translate(-197.611 -203.24)"/>
      <g id="Group_1204792" data-name="Group 1204792" transform="translate(73.469 48.914)">
        <g id="Group_1204791" data-name="Group 1204791">
          <path id="Línea_811" data-name="Línea 811"/>
        </g>
      </g>
      <g id="Group_1204794" data-name="Group 1204794" transform="translate(68.648 50.635)">
        <g id="Group_1204793" data-name="Group 1204793">
          <path id="Línea_812" data-name="Línea 812"/>
        </g>
      </g>
      <path id="Trazado_1254183" data-name="Trazado 1254183" d="M272.426,404.6a1.17,1.17,0,0,1-.214-.02,30.05,30.05,0,0,1-7.527-2.352,1.164,1.164,0,0,1,1.021-2.092,27.715,27.715,0,0,0,6.932,2.155,1.164,1.164,0,0,1-.212,2.308Z" transform="translate(-223.056 -337.809)"/>
      <path id="Trazado_1254184" data-name="Trazado 1254184" d="M254.617,354.324c-12.139,0-21.648-4.216-21.648-9.6v-9.64a1.164,1.164,0,0,1,2.327,0v9.64c0,3.439,7.935,7.271,19.32,7.271s19.32-3.832,19.32-7.271v-9.64a1.164,1.164,0,0,1,2.327,0v9.64C276.265,350.108,266.756,354.324,254.617,354.324Z" transform="translate(-196.813 -281.968)"/>
      <g id="Group_1204796" data-name="Group 1204796" transform="translate(73.469 63.374)">
        <g id="Group_1204795" data-name="Group 1204795">
          <path id="Línea_813" data-name="Línea 813"/>
        </g>
      </g>
      <g id="Group_1204798" data-name="Group 1204798" transform="translate(68.648 65.095)">
        <g id="Group_1204797" data-name="Group 1204797">
          <path id="Línea_814" data-name="Línea 814"/>
        </g>
      </g>
      <path id="Trazado_1254185" data-name="Trazado 1254185" d="M70.652,60.059a1.164,1.164,0,0,1-1.068-1.624l3.991-9.272a3.467,3.467,0,0,1,4.273-1.942,23.021,23.021,0,0,0,26.918-10.35,22.923,22.923,0,1,0-39.7-22.923,23.024,23.024,0,0,0,4.486,28.478,3.475,3.475,0,0,1,.464,4.68L63.978,55.2a1.164,1.164,0,1,1-1.866-1.391l6.034-8.093a1.158,1.158,0,0,0-.156-1.559A25.253,25.253,0,0,1,97.483,3.509a25.251,25.251,0,0,1,9.3,34.525,25.4,25.4,0,0,1-21.946,12.62,24.891,24.891,0,0,1-7.708-1.22,1.15,1.15,0,0,0-1.415.649l-3.991,9.272A1.164,1.164,0,0,1,70.652,60.059Z" transform="translate(-50.42 0)"/>
      <path id="Trazado_1254186" data-name="Trazado 1254186" d="M7.6,369.091a7.589,7.589,0,0,1-6.086-12.126l10.178-13.65A1.164,1.164,0,0,1,13.206,343l7.608,4.392a1.164,1.164,0,0,1,.487,1.468l-2.181,5.067a1.164,1.164,0,0,1-2.138-.92l1.772-4.117-5.815-3.357L3.379,358.357a5.262,5.262,0,1,0,9.052,5.226l2.342-5.44a1.164,1.164,0,0,1,2.138.92l-2.342,5.44A7.587,7.587,0,0,1,7.6,369.091Z" transform="translate(0 -289.509)"/>
      <path id="Trazado_1254187" data-name="Trazado 1254187" d="M110.949,71.949A20.443,20.443,0,0,1,96.127,37.427a1.164,1.164,0,1,1,1.687,1.6,18.076,18.076,0,1,0,4.078-3.217,1.164,1.164,0,0,1-1.165-2.015,20.444,20.444,0,1,1,10.222,38.15Z" transform="translate(-76.455 -26.102)"/>
      <path id="Línea_815" data-name="Línea 815" d="M-6.336-2.763A1.164,1.164,0,0,1-7.5-3.926v-2.41A1.164,1.164,0,0,1-6.336-7.5,1.164,1.164,0,0,1-5.173-6.336v2.41A1.164,1.164,0,0,1-6.336-2.763Z" transform="translate(40.83 36.56)"/>
      <path id="Línea_816" data-name="Línea 816" d="M-6.336,4.467A1.164,1.164,0,0,1-7.5,3.3v-9.64A1.164,1.164,0,0,1-6.336-7.5,1.164,1.164,0,0,1-5.173-6.336V3.3A1.164,1.164,0,0,1-6.336,4.467Z" transform="translate(36.01 29.33)"/>
      <path id="Línea_817" data-name="Línea 817" d="M-6.336-.353A1.164,1.164,0,0,1-7.5-1.517v-4.82A1.164,1.164,0,0,1-6.336-7.5,1.164,1.164,0,0,1-5.173-6.336v4.82A1.164,1.164,0,0,1-6.336-.353Z" transform="translate(45.65 34.15)"/>
      <path id="Trazado_1254188" data-name="Trazado 1254188" d="M170.746,104.082H156.122a3.5,3.5,0,0,1-3.491-3.491V81.147a3.5,3.5,0,0,1,3.491-3.491h3.433a1.164,1.164,0,1,1,0,2.327h-3.433a1.165,1.165,0,0,0-1.164,1.164v19.444a1.165,1.165,0,0,0,1.164,1.164h14.624a1.165,1.165,0,0,0,1.164-1.164V92.338a1.164,1.164,0,1,1,2.327,0v8.253A3.5,3.5,0,0,1,170.746,104.082Z" transform="translate(-128.941 -65.466)"/>
      <path id="Trazado_1254189" data-name="Trazado 1254189" d="M190.92,77.656h.824a8.484,8.484,0,0,1,6.039,2.5l5.319,5.319a8.484,8.484,0,0,1,2.5,6.039v.824a1.164,1.164,0,1,1-2.327,0,2.718,2.718,0,0,0-2.715-2.715h-3.433a3.5,3.5,0,0,1-3.491-3.491V82.7a2.718,2.718,0,0,0-2.715-2.715,1.164,1.164,0,1,1,0-2.327Zm10.83,9.782q-.141-.162-.3-.316L196.136,81.8q-.154-.154-.316-.3a5.039,5.039,0,0,1,.142,1.191v3.433a1.165,1.165,0,0,0,1.164,1.164h3.433A5.039,5.039,0,0,1,201.75,87.438Z" transform="translate(-160.305 -65.466)"/>
      <path id="Trazado_1254190" data-name="Trazado 1254190" d="M308.419,238.375a45.727,45.727,0,0,1-10.884-1.251,1.164,1.164,0,0,1,.564-2.258,43.372,43.372,0,0,0,10.321,1.182c11.386,0,19.32-3.832,19.32-7.271a2.956,2.956,0,0,0-.628-1.728A1.164,1.164,0,1,1,329,225.686a5.225,5.225,0,0,1,1.069,3.092C330.067,234.159,320.558,238.375,308.419,238.375Z" transform="translate(-250.615 -190.119)"/>
      <path id="Trazado_1254191" data-name="Trazado 1254191" d="M254.617,331.562c-12.139,0-21.648-4.216-21.648-9.6a5.225,5.225,0,0,1,1.069-3.092,1.164,1.164,0,0,1,1.886,1.363,2.956,2.956,0,0,0-.628,1.728c0,3.439,7.935,7.271,19.32,7.271s19.32-3.832,19.32-7.271a2.956,2.956,0,0,0-.628-1.728,1.164,1.164,0,1,1,1.886-1.363,5.225,5.225,0,0,1,1.069,3.092C276.265,327.346,266.756,331.562,254.617,331.562Z" transform="translate(-196.813 -268.847)"/>
      <path id="Trazado_1254192" data-name="Trazado 1254192" d="M374.626,109.616a1.164,1.164,0,0,1-.482-2.224c2.939-1.334,4.625-3.013,4.625-4.606,0-3.439-7.935-7.271-19.32-7.271q-.605,0-1.2.015a1.164,1.164,0,0,1-.057-2.327q.625-.015,1.259-.015c12.139,0,21.648,4.216,21.648,9.6,0,2.583-2.128,4.971-5.991,6.725A1.16,1.16,0,0,1,374.626,109.616Z" transform="translate(-301.645 -78.588)"/>
      <path id="Trazado_1254193" data-name="Trazado 1254193" d="M364.37,198.673h-.335a1.164,1.164,0,1,1,.017-2.327h.318a44.327,44.327,0,0,0,9.523-.993,1.164,1.164,0,1,1,.509,2.271A46.686,46.686,0,0,1,364.37,198.673Z" transform="translate(-306.567 -164.876)"/>
    </g>
  </g>
</svg>
