<svg xmlns="http://www.w3.org/2000/svg" width="190" height="114" viewBox="0 0 190 114">
  <g id="Group_1204942" data-name="Group 1204942" transform="translate(-1230 -666)">
    <g id="Group_1204941" data-name="Group 1204941" transform="translate(1050 121)">
      <rect id="Rectangle_411883" data-name="Rectangle 411883" width="190" height="114" transform="translate(180 545)" fill="#e6d9f9"/>
    </g>
    <g id="tabla-de-base-de-datos" transform="translate(1285 683)">
      <g id="Group_1204912" data-name="Group 1204912" transform="translate(1.161 1.161)">
        <path id="Path_1254669" data-name="Path 1254669" d="M50.4,140.032H9.049A1.549,1.549,0,0,1,7.5,138.483V89.549A1.549,1.549,0,0,1,9.049,88H50.4a1.549,1.549,0,0,1,1.549,1.549v48.935A1.549,1.549,0,0,1,50.4,140.032Z" transform="translate(-7.5 -75.534)" fill="#ecf9f9"/>
        <path id="Path_1254670" data-name="Path 1254670" d="M259.146,88H254.5a1.549,1.549,0,0,1,1.549,1.549v48.935a1.549,1.549,0,0,1-1.549,1.549h4.646a1.549,1.549,0,0,0,1.549-1.549V89.549A1.549,1.549,0,0,0,259.146,88Z" transform="translate(-216.251 -75.534)" fill="#daf1f4"/>
        <path id="Path_1254671" data-name="Path 1254671" d="M37.5,128.1v-9.482a.619.619,0,0,1,.619-.619H72.033a.619.619,0,0,1,.619.619V128.1a.619.619,0,0,1-.619.619H38.119A.619.619,0,0,1,37.5,128.1Z" transform="translate(-32.854 -100.888)" fill="#9d66d5"/>
        <path id="Path_1254672" data-name="Path 1254672" d="M235.146,118H230.5a.619.619,0,0,1,.619.619V128.1a.619.619,0,0,1-.619.619h4.646a.619.619,0,0,0,.619-.619v-9.482A.619.619,0,0,0,235.146,118Z" transform="translate(-195.967 -100.888)" fill="#8659b9"/>
        <path id="Path_1254673" data-name="Path 1254673" d="M37.5,339.672v-8.052a.619.619,0,0,1,.619-.62H52.289a.619.619,0,0,1,.619.62v8.052a.619.619,0,0,1-.619.619H38.119A.619.619,0,0,1,37.5,339.672Z" transform="translate(-32.854 -280.904)" fill="#b1e4f9"/>
        <path id="Path_1254674" data-name="Path 1254674" d="M107.646,331H103a.619.619,0,0,1,.619.62v8.052a.619.619,0,0,1-.619.619h4.646a.619.619,0,0,0,.619-.619v-8.052A.619.619,0,0,0,107.646,331Z" transform="translate(-88.211 -280.904)" fill="#90d8f9"/>
        <path id="Path_1254675" data-name="Path 1254675" d="M167,339.672v-8.052a.619.619,0,0,1,.619-.62h13.86a.619.619,0,0,1,.619.62v8.052a.619.619,0,0,1-.619.619h-13.86A.619.619,0,0,1,167,339.672Z" transform="translate(-142.3 -280.904)" fill="#b1e4f9"/>
        <path id="Path_1254676" data-name="Path 1254676" d="M235.146,331H230.5a.619.619,0,0,1,.619.62v8.052a.619.619,0,0,1-.619.619h4.646a.619.619,0,0,0,.619-.619v-8.052A.619.619,0,0,0,235.146,331Z" transform="translate(-195.967 -280.904)" fill="#90d8f9"/>
        <path id="Path_1254677" data-name="Path 1254677" d="M37.5,246.672v-8.052a.619.619,0,0,1,.619-.619H52.289a.619.619,0,0,1,.619.619v8.052a.619.619,0,0,1-.619.619H38.119A.619.619,0,0,1,37.5,246.672Z" transform="translate(-32.854 -202.306)" fill="#b1e4f9"/>
        <path id="Path_1254678" data-name="Path 1254678" d="M107.646,238H103a.619.619,0,0,1,.619.619v8.052a.619.619,0,0,1-.619.619h4.646a.619.619,0,0,0,.619-.619v-8.052A.619.619,0,0,0,107.646,238Z" transform="translate(-88.211 -202.306)" fill="#90d8f9"/>
        <path id="Path_1254679" data-name="Path 1254679" d="M167,246.672v-8.052a.619.619,0,0,1,.619-.619h13.86a.619.619,0,0,1,.619.619v8.052a.619.619,0,0,1-.619.619h-13.86A.619.619,0,0,1,167,246.672Z" transform="translate(-142.3 -202.306)" fill="#b1e4f9"/>
        <path id="Path_1254680" data-name="Path 1254680" d="M235.146,238H230.5a.619.619,0,0,1,.619.619v8.052a.619.619,0,0,1-.619.619h4.646a.619.619,0,0,0,.619-.619v-8.052A.619.619,0,0,0,235.146,238Z" transform="translate(-195.967 -202.306)" fill="#90d8f9"/>
        <path id="Path_1254681" data-name="Path 1254681" d="M401.534,26.083H386.049a1.549,1.549,0,0,1-1.549-1.549V9.049A1.549,1.549,0,0,1,386.049,7.5h15.486a1.548,1.548,0,0,1,1.549,1.549V24.534A1.548,1.548,0,0,1,401.534,26.083Z" transform="translate(-326.119 -7.5)" fill="#ffd064"/>
        <path id="Path_1254682" data-name="Path 1254682" d="M469.146,7.5H464.5a1.549,1.549,0,0,1,1.549,1.549V24.534a1.549,1.549,0,0,1-1.549,1.549h4.646a1.548,1.548,0,0,0,1.549-1.549V9.049A1.548,1.548,0,0,0,469.146,7.5Z" transform="translate(-393.731 -7.5)" fill="#ffc250"/>
        <path id="Path_1254683" data-name="Path 1254683" d="M401.534,214.583H386.049a1.549,1.549,0,0,1-1.549-1.549V197.549A1.549,1.549,0,0,1,386.049,196h15.486a1.548,1.548,0,0,1,1.549,1.549v15.486A1.548,1.548,0,0,1,401.534,214.583Z" transform="translate(-326.119 -166.81)" fill="#aad540"/>
        <path id="Path_1254684" data-name="Path 1254684" d="M469.146,196H464.5a1.549,1.549,0,0,1,1.549,1.549v15.486a1.549,1.549,0,0,1-1.549,1.549h4.646a1.548,1.548,0,0,0,1.549-1.549V197.549A1.548,1.548,0,0,0,469.146,196Z" transform="translate(-393.731 -166.81)" fill="#9dc63d"/>
        <path id="Path_1254685" data-name="Path 1254685" d="M401.534,403.083H386.049a1.548,1.548,0,0,1-1.549-1.549V386.049a1.549,1.549,0,0,1,1.549-1.549h15.486a1.548,1.548,0,0,1,1.549,1.549v15.486A1.548,1.548,0,0,1,401.534,403.083Z" transform="translate(-326.119 -326.119)" fill="#b1e4f9"/>
        <path id="Path_1254686" data-name="Path 1254686" d="M469.146,384.5H464.5a1.549,1.549,0,0,1,1.549,1.549v15.486a1.548,1.548,0,0,1-1.549,1.549h4.646a1.548,1.548,0,0,0,1.549-1.549V386.049A1.548,1.548,0,0,0,469.146,384.5Z" transform="translate(-393.731 -326.119)" fill="#90d8f9"/>
      </g>
      <g id="Group_1204913" data-name="Group 1204913">
        <path id="Path_1254687" data-name="Path 1254687" d="M67.475,112.281a1.783,1.783,0,0,0-1.781-1.781H31.781A1.783,1.783,0,0,0,30,112.281v9.482a1.783,1.783,0,0,0,1.781,1.781H65.694a1.783,1.783,0,0,0,1.781-1.781Zm-2.323,8.94H32.323v-8.4H65.152Z" transform="translate(-25.354 -93.388)"/>
        <path id="Path_1254688" data-name="Path 1254688" d="M30,333.333a1.783,1.783,0,0,0,1.781,1.781H45.95a1.783,1.783,0,0,0,1.781-1.781v-8.052A1.783,1.783,0,0,0,45.95,323.5H31.781A1.783,1.783,0,0,0,30,325.281Zm2.323-7.51H45.408v6.968H32.323Z" transform="translate(-25.354 -273.404)"/>
        <path id="Path_1254689" data-name="Path 1254689" d="M175.14,323.5h-13.86a1.783,1.783,0,0,0-1.781,1.781v8.052a1.783,1.783,0,0,0,1.781,1.781h13.86a1.783,1.783,0,0,0,1.781-1.781v-8.052A1.783,1.783,0,0,0,175.14,323.5Zm-.542,9.291H161.823v-6.968H174.6Z" transform="translate(-134.8 -273.404)"/>
        <path id="Path_1254690" data-name="Path 1254690" d="M30,240.333a1.783,1.783,0,0,0,1.781,1.781H45.95a1.783,1.783,0,0,0,1.781-1.781v-8.053A1.783,1.783,0,0,0,45.95,230.5H31.781A1.783,1.783,0,0,0,30,232.281Zm2.323-7.51H45.408v6.969H32.323Z" transform="translate(-25.354 -194.806)"/>
        <path id="Path_1254691" data-name="Path 1254691" d="M176.921,232.281a1.783,1.783,0,0,0-1.781-1.781h-13.86a1.783,1.783,0,0,0-1.781,1.781v8.053a1.783,1.783,0,0,0,1.781,1.781h13.86a1.783,1.783,0,0,0,1.781-1.781Zm-2.323,7.511H161.823v-6.969H174.6Z" transform="translate(-134.8 -194.806)"/>
        <path id="Path_1254692" data-name="Path 1254692" d="M61.091,20.906H76.576a2.713,2.713,0,0,0,2.71-2.71V2.71A2.713,2.713,0,0,0,76.576,0H61.091a2.713,2.713,0,0,0-2.71,2.71V9.291H54.587A8.7,8.7,0,0,0,48.5,11.762l-2.1,2.043a2.709,2.709,0,0,0-2.334-1.339H2.71A2.713,2.713,0,0,0,0,15.176v3.787a1.161,1.161,0,1,0,2.323,0V15.176a.388.388,0,0,1,.387-.387H44.057a.388.388,0,0,1,.387.387V64.11a.388.388,0,0,1-.387.387H2.71a.388.388,0,0,1-.387-.387V24.3A1.161,1.161,0,0,0,0,24.3V64.11a2.713,2.713,0,0,0,2.71,2.71H44.057a2.7,2.7,0,0,0,2.032-.923l2.591,2.12A8.769,8.769,0,0,0,54.219,70h4.162v6.581a2.713,2.713,0,0,0,2.71,2.71h5.943a1.161,1.161,0,0,0,0-2.323H61.091a.388.388,0,0,1-.387-.387V61.091a.388.388,0,0,1,.387-.387H76.576a.388.388,0,0,1,.387.387V76.576a.388.388,0,0,1-.387.387H72.543a1.161,1.161,0,0,0,0,2.323h4.033a2.713,2.713,0,0,0,2.71-2.71V61.091a2.713,2.713,0,0,0-2.71-2.71H61.091a2.713,2.713,0,0,0-2.71,2.71v6.581H54.219a6.442,6.442,0,0,1-4.068-1.452L46.767,63.45V40.8H58.381v6.581a2.713,2.713,0,0,0,2.71,2.71H76.576a2.713,2.713,0,0,0,2.71-2.71V31.9a2.713,2.713,0,0,0-2.71-2.71H61.091a2.713,2.713,0,0,0-2.71,2.71v6.581H46.767v-21.8l3.346-3.249a6.39,6.39,0,0,1,4.474-1.815h3.794V18.2A2.713,2.713,0,0,0,61.091,20.906ZM60.7,31.9a.388.388,0,0,1,.387-.387H76.576a.388.388,0,0,1,.387.387V47.386a.388.388,0,0,1-.387.387H61.091a.388.388,0,0,1-.387-.387Zm0-29.19a.388.388,0,0,1,.387-.387H76.576a.388.388,0,0,1,.387.387V18.2a.388.388,0,0,1-.387.387H61.091A.388.388,0,0,1,60.7,18.2Z"/>
        <path id="Path_1254693" data-name="Path 1254693" d="M410.133,32.323h3.806a1.161,1.161,0,0,0,0-2.323h-3.806a1.161,1.161,0,1,0,0,2.323Z" transform="translate(-345.64 -25.354)"/>
        <path id="Path_1254694" data-name="Path 1254694" d="M410.133,62.323h9.291a1.161,1.161,0,1,0,0-2.323h-9.291a1.161,1.161,0,1,0,0,2.323Z" transform="translate(-345.64 -50.709)"/>
        <path id="Path_1254695" data-name="Path 1254695" d="M410.133,92.323h6.736a1.161,1.161,0,0,0,0-2.323h-6.736a1.161,1.161,0,1,0,0,2.323Z" transform="translate(-345.64 -76.063)"/>
        <path id="Path_1254696" data-name="Path 1254696" d="M410.133,220.823h3.806a1.161,1.161,0,0,0,0-2.323h-3.806a1.161,1.161,0,1,0,0,2.323Z" transform="translate(-345.64 -184.664)"/>
        <path id="Path_1254697" data-name="Path 1254697" d="M410.133,250.823h9.291a1.161,1.161,0,1,0,0-2.323h-9.291a1.161,1.161,0,1,0,0,2.323Z" transform="translate(-345.64 -210.018)"/>
        <path id="Path_1254698" data-name="Path 1254698" d="M410.133,280.823h6.736a1.161,1.161,0,0,0,0-2.323h-6.736a1.161,1.161,0,1,0,0,2.323Z" transform="translate(-345.64 -235.373)"/>
        <path id="Path_1254699" data-name="Path 1254699" d="M405.717,408.6h3.806a1.161,1.161,0,0,0,0-2.323h-3.806a1.161,1.161,0,0,0,0,2.323Z" transform="translate(-341.908 -343.363)"/>
        <path id="Path_1254700" data-name="Path 1254700" d="M405.717,438.6h9.291a1.161,1.161,0,1,0,0-2.323h-9.291a1.161,1.161,0,1,0,0,2.323Z" transform="translate(-341.908 -368.718)"/>
        <path id="Path_1254701" data-name="Path 1254701" d="M412.454,466.278h-6.736a1.161,1.161,0,1,0,0,2.323h6.736a1.161,1.161,0,1,0,0-2.323Z" transform="translate(-341.908 -394.072)"/>
      </g>
    </g>
  </g>
</svg>
