<svg xmlns="http://www.w3.org/2000/svg" xmlns:xlink="http://www.w3.org/1999/xlink" width="515.259" height="325" viewBox="0 0 515.259 325">
  <defs>
    <filter id="Rectangle_409501" x="0" y="0" width="515.259" height="325" filterUnits="userSpaceOnUse">
      <feOffset dy="3" input="SourceAlpha"/>
      <feGaussianBlur stdDeviation="3" result="blur"/>
      <feFlood flood-opacity="0.161"/>
      <feComposite operator="in" in2="blur"/>
      <feComposite in="SourceGraphic"/>
    </filter>
    <filter id="Rectangle_401315" x="480.475" y="239.604" width="26.392" height="69.972" filterUnits="userSpaceOnUse">
      <feOffset dy="3" input="SourceAlpha"/>
      <feGaussianBlur stdDeviation="3" result="blur-2"/>
      <feFlood flood-opacity="0.161"/>
      <feComposite operator="in" in2="blur-2"/>
      <feComposite in="SourceGraphic"/>
    </filter>
    <filter id="Ellipse_12336" x="479.769" y="58.957" width="27.441" height="27.441" filterUnits="userSpaceOnUse">
      <feOffset dy="3" input="SourceAlpha"/>
      <feGaussianBlur stdDeviation="3" result="blur-3"/>
      <feFlood flood-opacity="0.161"/>
      <feComposite operator="in" in2="blur-3"/>
      <feComposite in="SourceGraphic"/>
    </filter>
    <filter id="Ellipse_12337" x="479.769" y="71.02" width="27.441" height="27.441" filterUnits="userSpaceOnUse">
      <feOffset dy="3" input="SourceAlpha"/>
      <feGaussianBlur stdDeviation="3" result="blur-4"/>
      <feFlood flood-opacity="0.161"/>
      <feComposite operator="in" in2="blur-4"/>
      <feComposite in="SourceGraphic"/>
    </filter>
    <filter id="Ellipse_12338" x="479.769" y="83.083" width="27.441" height="27.441" filterUnits="userSpaceOnUse">
      <feOffset dy="3" input="SourceAlpha"/>
      <feGaussianBlur stdDeviation="3" result="blur-5"/>
      <feFlood flood-opacity="0.161"/>
      <feComposite operator="in" in2="blur-5"/>
      <feComposite in="SourceGraphic"/>
    </filter>
    <clipPath id="clip-path">
      <rect id="Rectangle_412132" data-name="Rectangle 412132" width="420.09" height="250.048" fill="none"/>
    </clipPath>
    <clipPath id="clip-path-3">
      <rect id="Rectangle_412104" data-name="Rectangle 412104" width="6.238" height="28.11" fill="none"/>
    </clipPath>
    <clipPath id="clip-path-4">
      <rect id="Rectangle_412105" data-name="Rectangle 412105" width="5.699" height="6.327" fill="none"/>
    </clipPath>
    <clipPath id="clip-path-5">
      <rect id="Rectangle_412106" data-name="Rectangle 412106" width="18.405" height="7.313" fill="none"/>
    </clipPath>
    <clipPath id="clip-path-6">
      <rect id="Rectangle_412111" data-name="Rectangle 412111" width="107.515" height="49.794" fill="none"/>
    </clipPath>
    <clipPath id="clip-path-7">
      <rect id="Rectangle_412112" data-name="Rectangle 412112" width="98.204" height="50.079" fill="none"/>
    </clipPath>
    <clipPath id="clip-path-8">
      <rect id="Rectangle_412125" data-name="Rectangle 412125" width="24.261" height="15.13" fill="none"/>
    </clipPath>
    <clipPath id="clip-path-9">
      <rect id="Rectangle_412126" data-name="Rectangle 412126" width="13.285" height="9.004" fill="none"/>
    </clipPath>
    <clipPath id="clip-path-10">
      <rect id="Rectangle_412127" data-name="Rectangle 412127" width="18.154" height="11.321" fill="none"/>
    </clipPath>
    <clipPath id="clip-path-11">
      <rect id="Rectangle_412128" data-name="Rectangle 412128" width="9.941" height="6.737" fill="none"/>
    </clipPath>
    <clipPath id="clip-path-12">
      <rect id="Rectangle_412129" data-name="Rectangle 412129" width="64.777" height="63.378" fill="none"/>
    </clipPath>
  </defs>
  <g id="Group_1204877" data-name="Group 1204877" transform="translate(-913.741 -1127)">
    <g id="Group_1204595" data-name="Group 1204595" transform="translate(730.309 -1661)">
      <g id="Group_1187160" data-name="Group 1187160" transform="translate(184.691 2802.916)">
        <g id="Group_1187160-2" data-name="Group 1187160" transform="translate(0 0)">
          <rect id="Rectangle_410370" data-name="Rectangle 410370" width="29.895" height="292.19" rx="5" fill="#7fe5cf"/>
        </g>
      </g>
      <g id="Group_1187161" data-name="Group 1187161" transform="translate(192.433 2794)">
        <g transform="matrix(1, 0, 0, 1, -9, -6)" filter="url(#Rectangle_409501)">
          <path id="Rectangle_409501-2" data-name="Rectangle 409501" d="M5,0H492.259a5,5,0,0,1,5,5V302a5,5,0,0,1-5,5H0a0,0,0,0,1,0,0V5A5,5,0,0,1,5,0Z" transform="translate(9 6)" fill="#9758f1"/>
        </g>
        <g id="Group_1184257" data-name="Group 1184257" transform="translate(480.475 239.604)">
          <g transform="matrix(1, 0, 0, 1, -489.48, -245.6)" filter="url(#Rectangle_401315)">
            <rect id="Rectangle_401315-2" data-name="Rectangle 401315" width="8.392" height="51.972" rx="4.196" transform="translate(489.48 245.6)" fill="#7fe5cf"/>
          </g>
        </g>
        <circle id="Ellipse_12341" data-name="Ellipse 12341" cx="23.077" cy="23.077" r="23.077" transform="translate(31.104 32.223)" fill="#fff"/>
        <circle id="Ellipse_12342" data-name="Ellipse 12342" cx="9.965" cy="9.965" r="9.965" transform="translate(2.748 170.56)" fill="#fff"/>
      </g>
      <g id="Group_1200235" data-name="Group 1200235" transform="translate(672.201 2852.957)">
        <g transform="matrix(1, 0, 0, 1, -488.77, -64.96)" filter="url(#Ellipse_12336)">
          <circle id="Ellipse_12336-2" data-name="Ellipse 12336" cx="4.72" cy="4.72" r="4.72" transform="translate(488.77 64.96)" fill="#7fe5cf"/>
        </g>
        <g transform="matrix(1, 0, 0, 1, -488.77, -64.96)" filter="url(#Ellipse_12337)">
          <circle id="Ellipse_12337-2" data-name="Ellipse 12337" cx="4.72" cy="4.72" r="4.72" transform="translate(488.77 77.02)" fill="#7fe5cf"/>
        </g>
        <g transform="matrix(1, 0, 0, 1, -488.77, -64.96)" filter="url(#Ellipse_12338)">
          <circle id="Ellipse_12338-2" data-name="Ellipse 12338" cx="4.72" cy="4.72" r="4.72" transform="translate(488.77 89.08)" fill="#7fe5cf"/>
        </g>
      </g>
    </g>
    <g id="Group_1204876" data-name="Group 1204876" transform="translate(971 1189.952)">
      <g id="Group_1204875" data-name="Group 1204875" clip-path="url(#clip-path)">
        <g id="Group_1204874" data-name="Group 1204874">
          <g id="Group_1204873" data-name="Group 1204873" clip-path="url(#clip-path)">
            <path id="Path_1254242" data-name="Path 1254242" d="M626.566,244c-15.663-40.346-47.326-70.115-101.684-51.911-11.2,3.75-28.711,1.355-51.229-14.131q-1.715-1.181-3.41-2.462c-.616-.469-1.232-.945-1.842-1.434a91.735,91.735,0,0,1-20.752-23.391A71.75,71.75,0,0,0,435.77,136.16a74.385,74.385,0,0,0-8.942-7.172q-3.017-2.063-6.227-3.841a87.519,87.519,0,0,0-18.173-7.494q-.932-.27-1.869-.521-2.183-.586-4.4-1.069-1.522-.337-3.061-.622-1.882-.353-3.789-.636h0q-5.195-.777-10.521-1.053-1.006-.052-2.019-.087c-.43-.014-.859-.027-1.289-.037q-1.978-.045-3.963-.024c-33.024.347-67.574,14.543-88.614,40.1a86.421,86.421,0,0,0-19.582,46.919,98.335,98.335,0,0,0,.266,21.312c.026.227.053.451.081.673.044.36.092.724.143,1.086q.271,2.048.634,4.132a53.008,53.008,0,0,0,2.026,9.407c9.782,26.762,3.7,41.342-4.522,53.361-16.288,23.816-2.306,56.064,24.037,60.664a37.57,37.57,0,0,0,6.489.555l106.077-.034,52.94-.016L557,351.727c52.779-.017,89.33-54.84,70.3-105.8q-.359-.962-.734-1.929" transform="translate(-228.409 -101.762)" fill="#e6d9f9"/>
            <path id="Path_1254243" data-name="Path 1254243" d="M2333.66,109.634c-62.149-26.909-139.709-16.9-131.854,14.815,0,0,7.309,33.606,67.412,35.251,51.089,1.4,126.591-23.156,64.442-50.065" transform="translate(-1971.912 -84.287)" fill="#e6d9f9"/>
            <path id="Path_1254244" data-name="Path 1254244" d="M3520.8,1311.46s-13.607-4.747-19.779,4.75l-2.168,5.257c-1.843,4.237-4.447,6.186-6.945,6.984a21.09,21.09,0,0,0-12.869,11.686l-.327.752a21.352,21.352,0,0,0-.2,16.61c1.465,3.558,1.8,8.8-2.341,15.833-2.557,5.878-.16,12.6,5.355,15.018l3.146,1.378c5.515,2.416,12.059-.391,14.617-6.27l2.313-5.317a9.04,9.04,0,0,1,5.61-5.087,14.9,14.9,0,0,0,9.292-8.318l1.634-3.755a7.922,7.922,0,0,0-.781-7.905,8.969,8.969,0,0,1-.946-8.974l3.1-7.123c4.239-9.743,10.43-21.513,1.289-25.517" transform="translate(-3113.086 -1173.76)" fill="#40947e"/>
            <path id="Path_1254245" data-name="Path 1254245" d="M3730.835,1883.346l-2.2,1.946a5.938,5.938,0,0,1-4.8,1.664,10.884,10.884,0,0,0-8.615,2.5l-.322.274a11.019,11.019,0,0,0-3.857,7.655c-.127,1.982-1.163,4.489-4.673,6.81a5.835,5.835,0,0,0-.921,8.177l1.147,1.352a5.8,5.8,0,0,0,8.2.405l2.277-1.941a4.666,4.666,0,0,1,3.754-1.087,7.688,7.688,0,0,0,6.193-1.751l1.608-1.371a4.088,4.088,0,0,0,1.429-3.842,4.628,4.628,0,0,1,1.6-4.375l3.051-2.6c4.173-3.557,4.856-9.624,1.526-13.552a3.814,3.814,0,0,0-5.392-.267" transform="translate(-3318.249 -1686.244)" fill="#6fc183"/>
            <path id="Path_1254246" data-name="Path 1254246" d="M3212.454,1765.939c-9.547-3.7-18.68,8.392-18.68,8.392s7.5-15.155,0-17.175c-8.177-2.2-30.46,22.245-30.46,22.245s11.839-16.206-.722-12.126c-11.379,3.7-29.064,26.432-32.247,30.572l63.1.2c.913-1.593,37.513-24.938,19.006-32.105" transform="translate(-2804.204 -1573.958)" fill="#2e6857"/>
            <path id="Path_1254247" data-name="Path 1254247" d="M3577.526,1611.722c-3.955,1.292-6.236,5.221-8.349,8.534a153.856,153.856,0,0,0-19.738,47.423l.9.01a151.408,151.408,0,0,1,19.537-47.661c1.976-3.1,4.069-6.821,7.681-8.187.073-.028.044-.144-.032-.119" transform="translate(-3179.635 -1443.799)" fill="#265446"/>
            <path id="Path_1254248" data-name="Path 1254248" d="M3615.322,1784.091a185.071,185.071,0,0,0-37.363,38.016l.931.008a183.153,183.153,0,0,1,36.629-37.765c.148-.114-.05-.371-.2-.259" transform="translate(-3205.183 -1598.188)" fill="#265446"/>
            <path id="Path_1254249" data-name="Path 1254249" d="M3767.382,1653.546s.007,0,.013-.02c-.015.016-.02.023-.013.02" transform="translate(-3374.868 -1481.251)" fill="#265446"/>
            <path id="Path_1254250" data-name="Path 1254250" d="M3747.108,1579.17a2.885,2.885,0,0,0,.564,2.477,6.5,6.5,0,0,1,1.4,2.433,5.247,5.247,0,0,1,.058,2.462,5.241,5.241,0,0,0,1.37-2.382,5.319,5.319,0,0,0-.422-4.074c-.961-1.487-2.639-1.637-2.965-.916" transform="translate(-3356.598 -1414.266)" fill="#265446"/>
            <path id="Path_1254251" data-name="Path 1254251" d="M3727.75,1713.878c0,.007,0,0,.021-.013-.017.006-.025.01-.021.013" transform="translate(-3339.367 -1535.303)" fill="#265446"/>
            <path id="Path_1254252" data-name="Path 1254252" d="M3734.409,1700.039a5.527,5.527,0,0,0-6.451.824,5.2,5.2,0,0,1,2.452.106,6.471,6.471,0,0,1,2.4,1.448c.774.488,1.737.948,2.457.615.725-.313.608-2-.854-2.993" transform="translate(-3339.554 -1522.301)" fill="#265446"/>
            <path id="Path_1254253" data-name="Path 1254253" d="M3696.2,1767.45c0,.007,0,0,.021-.013-.017.006-.025.01-.021.013" transform="translate(-3311.105 -1583.294)" fill="#265446"/>
            <path id="Path_1254254" data-name="Path 1254254" d="M3702.861,1753.611a5.526,5.526,0,0,0-6.451.824,5.2,5.2,0,0,1,2.452.106,6.474,6.474,0,0,1,2.4,1.448c.774.488,1.737.948,2.457.615.725-.313.608-2-.854-2.993" transform="translate(-3311.293 -1570.292)" fill="#265446"/>
            <path id="Path_1254255" data-name="Path 1254255" d="M3815.393,1877.874a5.268,5.268,0,0,0-4.051-.5,5.214,5.214,0,0,0-2.4,1.328,5.2,5.2,0,0,1,2.452.106,6.47,6.47,0,0,1,2.4,1.448c.775.488,1.737.948,2.457.615.725-.313.608-2-.855-2.993" transform="translate(-3412.101 -1681.608)" fill="#265446"/>
            <path id="Path_1254256" data-name="Path 1254256" d="M3808.733,1891.715c0,.007,0,0,.021-.013-.017.005-.025.01-.021.013" transform="translate(-3411.913 -1694.612)" fill="#265446"/>
            <path id="Path_1254257" data-name="Path 1254257" d="M3866.225,1840.892c0,.007,0,0,.021-.013-.017.006-.025.01-.021.013" transform="translate(-3463.415 -1649.084)" fill="#265446"/>
            <path id="Path_1254258" data-name="Path 1254258" d="M3872.884,1827.053a5.527,5.527,0,0,0-6.451.824,5.2,5.2,0,0,1,2.452.106,6.471,6.471,0,0,1,2.4,1.448c.775.488,1.737.948,2.457.615.725-.313.608-2-.855-2.993" transform="translate(-3463.602 -1636.081)" fill="#265446"/>
            <path id="Path_1254259" data-name="Path 1254259" d="M3730.479,1711.375s.007,0,.01-.022c-.012.018-.016.026-.01.022" transform="translate(-3341.81 -1533.053)" fill="#265446"/>
            <path id="Path_1254260" data-name="Path 1254260" d="M3703,1640.111c-1.182-1.316-2.863-1.2-3.072-.436-.229.762.357,1.655.946,2.357a6.487,6.487,0,0,1,1.76,2.182,5.251,5.251,0,0,1,.444,2.422,5.249,5.249,0,0,0,.979-2.569,5.313,5.313,0,0,0-1.057-3.956" transform="translate(-3314.399 -1468.335)" fill="#265446"/>
            <path id="Path_1254261" data-name="Path 1254261" d="M3695.662,1768.144s.008-.008.01-.029c-.013.026-.018.036-.01.029" transform="translate(-3310.62 -1583.901)" fill="#265446"/>
            <path id="Path_1254262" data-name="Path 1254262" d="M3652.325,1694.932c-1.69-.959-3.852-.1-4.029.838-.2.949.663,1.693,1.51,2.222a5.643,5.643,0,0,1,2.543,1.676,4.494,4.494,0,0,1,.868,2.512,6.915,6.915,0,0,0,.956-3.289c.1-1.749-.935-3.614-1.848-3.959" transform="translate(-3268.165 -1517.967)" fill="#265446"/>
            <path id="Path_1254263" data-name="Path 1254263" d="M3653.155,1854.069c.005,0,.007-.009.005-.031-.009.027-.011.039-.005.031" transform="translate(-3272.542 -1660.873)" fill="#265446"/>
            <path id="Path_1254264" data-name="Path 1254264" d="M3602.665,1788.873c-.194-1.742-1.527-3.4-2.485-3.591-1.827-.66-3.814.548-3.832,1.506-.042.97.937,1.557,1.862,1.936a5.636,5.636,0,0,1,2.787,1.223,4.491,4.491,0,0,1,1.277,2.329,6.92,6.92,0,0,0,.391-3.4" transform="translate(-3221.656 -1599.11)" fill="#265446"/>
            <path id="Path_1254265" data-name="Path 1254265" d="M3782.938,1918.629s.007-.006.01-.023c-.012.02-.016.028-.01.023" transform="translate(-3388.803 -1718.713)" fill="#265446"/>
            <path id="Path_1254266" data-name="Path 1254266" d="M3751.084,1857.724c-1.32-.877-3.127-.3-3.325.452-.22.76.443,1.415,1.1,1.894a4.6,4.6,0,0,1,1.973,1.509,3.665,3.665,0,0,1,.563,2.093,5.635,5.635,0,0,0,.964-2.621c.181-1.417-.555-2.993-1.278-3.326" transform="translate(-3357.253 -1663.777)" fill="#265446"/>
            <path id="Path_1254267" data-name="Path 1254267" d="M3806.939,1617.23c-.009,0-.014,0-.012.006s0,0,.012-.006" transform="translate(-3410.296 -1448.736)" fill="#265446"/>
            <path id="Path_1254268" data-name="Path 1254268" d="M3810.9,1610.682a3.127,3.127,0,0,0-2.374-.476,3.1,3.1,0,0,0-1.479.681,3.072,3.072,0,0,1,1.447.17,3.845,3.845,0,0,1,1.355.962c.437.323.986.637,1.427.472s.447-1.156-.375-1.808" transform="translate(-3410.401 -1442.393)" fill="#265446"/>
            <path id="Path_1254269" data-name="Path 1254269" d="M3809.887,1574.834c-.4.249-.487.877-.5,1.422a3.871,3.871,0,0,1-.068,1.664,3.091,3.091,0,0,1-.749,1.254,3.093,3.093,0,0,0,1.44-.76,3.151,3.151,0,0,0,1.074-2.177c-.013-1.051-.807-1.66-1.2-1.4" transform="translate(-3411.769 -1410.704)" fill="#265446"/>
            <path id="Path_1254270" data-name="Path 1254270" d="M3808.446,1616.991s0,0,.012-.005c-.01,0-.016,0-.012.005" transform="translate(-3411.655 -1448.518)" fill="#265446"/>
            <path id="Path_1254271" data-name="Path 1254271" d="M3927.379,1793.166c-.008,0-.014,0-.011.006s0,0,.011-.006" transform="translate(-3518.188 -1606.342)" fill="#265446"/>
            <path id="Path_1254272" data-name="Path 1254272" d="M3931.338,1786.618a3.126,3.126,0,0,0-2.374-.476,3.093,3.093,0,0,0-1.479.681,3.074,3.074,0,0,1,1.447.17,3.838,3.838,0,0,1,1.354.962c.437.323.986.637,1.427.472s.447-1.156-.375-1.808" transform="translate(-3518.293 -1599.999)" fill="#265446"/>
            <path id="Path_1254273" data-name="Path 1254273" d="M3927.586,1793.142s0,0,.011-.006c-.01,0-.015.006-.011.006" transform="translate(-3518.383 -1606.315)" fill="#265446"/>
            <path id="Path_1254274" data-name="Path 1254274" d="M3928.665,1749.928c-.378.281-.414.914-.381,1.458a3.868,3.868,0,0,1,.068,1.663,3.1,3.1,0,0,1-.644,1.311,3.1,3.1,0,0,0,1.373-.875,3.151,3.151,0,0,0,.893-2.258c-.1-1.046-.94-1.588-1.309-1.3" transform="translate(-3518.493 -1567.54)" fill="#265446"/>
            <path id="Path_1254275" data-name="Path 1254275" d="M3831.121,2036.608s.007,0,.019-.012c-.019.008-.026.012-.019.012" transform="translate(-3431.967 -1824.41)" fill="#265446"/>
            <path id="Path_1254276" data-name="Path 1254276" d="M3832.533,1968.452c-.571.463-.587,1.453-.5,2.3a6.039,6.039,0,0,1,.213,2.592,4.859,4.859,0,0,1-.92,2.086,4.834,4.834,0,0,0,2.085-1.454,4.923,4.923,0,0,0,1.248-3.582c-.221-1.626-1.568-2.417-2.125-1.942" transform="translate(-3432.152 -1763.243)" fill="#265446"/>
            <path id="Path_1254277" data-name="Path 1254277" d="M3752.511,2064.849s.007,0,.019-.012c-.018.008-.026.011-.019.012" transform="translate(-3361.547 -1849.708)" fill="#265446"/>
            <path id="Path_1254278" data-name="Path 1254278" d="M3753.925,1996.694c-.572.463-.587,1.453-.5,2.3a6.036,6.036,0,0,1,.213,2.591,4.857,4.857,0,0,1-.919,2.086,4.836,4.836,0,0,0,2.085-1.454,4.924,4.924,0,0,0,1.248-3.582c-.221-1.626-1.568-2.417-2.125-1.942" transform="translate(-3361.734 -1788.543)" fill="#265446"/>
            <path id="Path_1254279" data-name="Path 1254279" d="M3672.638,2100.573s.008,0,.019-.012c-.019.008-.026.012-.019.012" transform="translate(-3289.996 -1881.711)" fill="#265446"/>
            <path id="Path_1254280" data-name="Path 1254280" d="M3674.051,2032.418c-.571.463-.586,1.453-.5,2.3a6.036,6.036,0,0,1,.213,2.591,4.854,4.854,0,0,1-.919,2.086,4.834,4.834,0,0,0,2.085-1.454,4.922,4.922,0,0,0,1.248-3.581c-.22-1.626-1.568-2.417-2.125-1.942" transform="translate(-3290.182 -1820.544)" fill="#265446"/>
            <path id="Path_1254281" data-name="Path 1254281" d="M3831.393,2036.1s0,0,.021,0c-.015,0-.023,0-.021,0" transform="translate(-3432.211 -1823.959)" fill="#265446"/>
            <path id="Path_1254282" data-name="Path 1254282" d="M3833.949,2034.163a4.458,4.458,0,0,0-2.345.1,4.461,4.461,0,0,1,1.838,1.022,5.565,5.565,0,0,1,1.285,2.029c.407.671.969,1.393,1.648,1.414.674.038,1.228-1.3.486-2.621a4.527,4.527,0,0,0-2.912-1.94" transform="translate(-3432.402 -1822.124)" fill="#265446"/>
            <path id="Path_1254283" data-name="Path 1254283" d="M3749.628,2065.136s0,0,.021,0c-.015,0-.023,0-.021,0" transform="translate(-3358.965 -1849.973)" fill="#265446"/>
            <path id="Path_1254284" data-name="Path 1254284" d="M3752.184,2063.2a4.456,4.456,0,0,0-2.345.1,4.466,4.466,0,0,1,1.838,1.022,5.565,5.565,0,0,1,1.284,2.029c.407.671.969,1.393,1.648,1.414.675.038,1.228-1.3.486-2.621a4.524,4.524,0,0,0-2.912-1.94" transform="translate(-3359.156 -1848.139)" fill="#265446"/>
            <path id="Path_1254285" data-name="Path 1254285" d="M3901.054,2021.086c-.008,0-.013,0-.011,0s0,0,.011,0" transform="translate(-3494.605 -1810.516)" fill="#265446"/>
            <path id="Path_1254286" data-name="Path 1254286" d="M3902.621,2017.5a2.865,2.865,0,0,0-1.461.372,2.849,2.849,0,0,1,1.29.4,3.559,3.559,0,0,1,1.074,1.1c.344.368.792.746,1.221.669s.6-.978-.04-1.71a2.9,2.9,0,0,0-2.084-.833" transform="translate(-3494.711 -1807.299)" fill="#265446"/>
            <path id="Path_1254287" data-name="Path 1254287" d="M3902.482,2021.121c-.01,0-.015,0-.012,0s0,0,.012,0" transform="translate(-3495.884 -1810.547)" fill="#265446"/>
            <path id="Path_1254288" data-name="Path 1254288" d="M3904.514,1985.078c-.406.16-.59.718-.691,1.212a3.585,3.585,0,0,1-.34,1.5,2.862,2.862,0,0,1-.892,1.016,2.862,2.862,0,0,0,1.439-.45,2.914,2.914,0,0,0,1.342-1.8c.164-.96-.458-1.648-.858-1.479" transform="translate(-3495.993 -1778.236)" fill="#265446"/>
            <path id="Path_1254289" data-name="Path 1254289" d="M3625.833,2018.725a47.344,47.344,0,0,0-7.765,1.39,93.506,93.506,0,0,0-13.518,4.943c-2.163.943-4.339,1.873-6.461,2.906a23.313,23.313,0,0,0-2.9,1.587,32.257,32.257,0,0,0-3.387,2.771l1.01.03a33.558,33.558,0,0,1,6.741-4.4c8.335-4.015,16.993-8.133,26.29-9.155a.038.038,0,0,0-.006-.076" transform="translate(-3217.581 -1808.401)" fill="#265446"/>
            <path id="Path_1254291" data-name="Path 1254291" d="M31.97,1904.2c-3.51-2.322-4.546-4.829-4.673-6.81a11.019,11.019,0,0,0-3.857-7.655l-.322-.274a10.883,10.883,0,0,0-8.615-2.5,5.938,5.938,0,0,1-4.8-1.664l-2.2-1.946a3.814,3.814,0,0,0-5.392.267c-3.331,3.928-2.648,9.995,1.526,13.552l3.051,2.6a4.629,4.629,0,0,1,1.6,4.375,4.088,4.088,0,0,0,1.429,3.842l1.609,1.371a7.688,7.688,0,0,0,6.193,1.751,4.665,4.665,0,0,1,3.754,1.087l2.278,1.941a5.8,5.8,0,0,0,8.2-.405l1.146-1.352a5.834,5.834,0,0,0-.92-8.176" transform="translate(0 -1686.244)" fill="#2e6857"/>
            <path id="Path_1254292" data-name="Path 1254292" d="M118.636,1767.276c-12.561-4.08-.722,12.125-.722,12.125s-22.283-24.449-30.46-22.245c-7.5,2.02,0,17.175,0,17.175s-9.133-12.089-18.68-8.392c-18.507,7.167,18.093,30.512,19.006,32.105l63.1-.2c-3.183-4.14-20.867-26.875-32.247-30.572" transform="translate(-56.933 -1573.958)" fill="#589f8f"/>
            <path id="Path_1254293" data-name="Path 1254293" d="M212.429,1611.722c-.076-.025-.105.091-.032.119,3.612,1.366,5.7,5.089,7.681,8.187a151.413,151.413,0,0,1,19.537,47.661l.9-.01a153.856,153.856,0,0,0-19.738-47.423c-2.112-3.312-4.394-7.242-8.349-8.534" transform="translate(-190.23 -1443.799)" fill="#265446"/>
            <path id="Path_1254294" data-name="Path 1254294" d="M93.373,1784.091c-.147-.111-.345.146-.2.259a183.151,183.151,0,0,1,36.629,37.765l.931-.008a185.067,185.067,0,0,0-37.363-38.016" transform="translate(-83.421 -1598.188)" fill="#265446"/>
            <path id="Path_1254295" data-name="Path 1254295" d="M249.993,1580.087a5.319,5.319,0,0,0-.422,4.074,5.243,5.243,0,0,0,1.37,2.382,5.252,5.252,0,0,1,.058-2.462,6.5,6.5,0,0,1,1.4-2.433,2.886,2.886,0,0,0,.564-2.477c-.326-.721-2-.57-2.965.916" transform="translate(-223.378 -1414.267)" fill="#265446"/>
            <path id="Path_1254296" data-name="Path 1254296" d="M264.567,1653.546c.007,0,0,0-.013-.02.006.017.011.025.013.02" transform="translate(-236.991 -1481.251)" fill="#265446"/>
            <path id="Path_1254297" data-name="Path 1254297" d="M304.151,1713.878s0-.007-.021-.013c.016.014.024.02.021.013" transform="translate(-272.444 -1535.303)" fill="#265446"/>
            <path id="Path_1254298" data-name="Path 1254298" d="M231.134,1700.039c-1.462.993-1.579,2.68-.855,2.993.72.333,1.682-.126,2.457-.615a6.471,6.471,0,0,1,2.4-1.448,5.2,5.2,0,0,1,2.452-.106,5.527,5.527,0,0,0-6.451-.824" transform="translate(-205.898 -1522.301)" fill="#265446"/>
            <path id="Path_1254299" data-name="Path 1254299" d="M335.7,1767.45s0-.007-.021-.013c.016.014.024.02.021.013" transform="translate(-300.705 -1583.294)" fill="#265446"/>
            <path id="Path_1254300" data-name="Path 1254300" d="M262.682,1753.611c-1.462.993-1.579,2.68-.855,2.993.72.333,1.682-.126,2.457-.615a6.472,6.472,0,0,1,2.4-1.448,5.2,5.2,0,0,1,2.452-.106,5.526,5.526,0,0,0-6.451-.824" transform="translate(-234.16 -1570.292)" fill="#265446"/>
            <path id="Path_1254301" data-name="Path 1254301" d="M223.168,1891.715s0-.007-.021-.013c.016.014.024.019.021.013" transform="translate(-199.898 -1694.612)" fill="#265446"/>
            <path id="Path_1254302" data-name="Path 1254302" d="M150.15,1877.874c-1.462.993-1.579,2.68-.855,2.993.72.333,1.682-.126,2.457-.615a6.472,6.472,0,0,1,2.4-1.448,5.2,5.2,0,0,1,2.452-.106,5.215,5.215,0,0,0-2.4-1.328,5.268,5.268,0,0,0-4.051.5" transform="translate(-133.352 -1681.608)" fill="#265446"/>
            <path id="Path_1254303" data-name="Path 1254303" d="M165.676,1840.892s0-.007-.021-.013c.016.014.024.02.021.013" transform="translate(-148.396 -1649.084)" fill="#265446"/>
            <path id="Path_1254304" data-name="Path 1254304" d="M92.658,1827.053c-1.462.993-1.579,2.68-.855,2.993.72.333,1.682-.126,2.457-.615a6.47,6.47,0,0,1,2.4-1.448,5.2,5.2,0,0,1,2.452-.106,5.527,5.527,0,0,0-6.451-.824" transform="translate(-81.85 -1636.081)" fill="#265446"/>
            <path id="Path_1254305" data-name="Path 1254305" d="M301.5,1711.375c.006,0,0,0-.01-.022,0,.018.007.026.01.022" transform="translate(-270.078 -1533.053)" fill="#265446"/>
            <path id="Path_1254306" data-name="Path 1254306" d="M292.772,1640.111a5.314,5.314,0,0,0-1.057,3.956,5.25,5.25,0,0,0,.979,2.569,5.255,5.255,0,0,1,.444-2.422,6.489,6.489,0,0,1,1.76-2.182c.589-.7,1.175-1.595.946-2.357-.209-.763-1.89-.88-3.072.436" transform="translate(-261.283 -1468.335)" fill="#265446"/>
            <path id="Path_1254307" data-name="Path 1254307" d="M336.308,1768.144c.008.007,0,0-.01-.029,0,.021.005.032.01.029" transform="translate(-301.26 -1583.901)" fill="#265446"/>
            <path id="Path_1254308" data-name="Path 1254308" d="M328.913,1694.932c-.913.345-1.948,2.21-1.848,3.959a6.914,6.914,0,0,0,.956,3.289,4.494,4.494,0,0,1,.868-2.512,5.643,5.643,0,0,1,2.543-1.676c.847-.53,1.715-1.273,1.51-2.222-.177-.942-2.339-1.8-4.029-.838" transform="translate(-292.983 -1517.967)" fill="#265446"/>
            <path id="Path_1254309" data-name="Path 1254309" d="M378.854,1854.069c.006.008,0,0-.005-.031,0,.021,0,.033.005.031" transform="translate(-339.377 -1660.873)" fill="#265446"/>
            <path id="Path_1254310" data-name="Path 1254310" d="M376.86,1785.281c-.958.186-2.291,1.849-2.485,3.591a6.92,6.92,0,0,0,.391,3.4,4.489,4.489,0,0,1,1.277-2.329,5.636,5.636,0,0,1,2.787-1.223c.924-.379,1.9-.966,1.862-1.936-.017-.958-2-2.167-3.832-1.506" transform="translate(-335.294 -1599.109)" fill="#265446"/>
            <path id="Path_1254311" data-name="Path 1254311" d="M249.039,1918.629c.007.005,0,0-.01-.023,0,.017.006.026.01.023" transform="translate(-223.083 -1718.713)" fill="#265446"/>
            <path id="Path_1254312" data-name="Path 1254312" d="M240.814,1857.724c-.723.333-1.459,1.909-1.278,3.326a5.637,5.637,0,0,0,.964,2.621,3.665,3.665,0,0,1,.564-2.093,4.6,4.6,0,0,1,1.973-1.509c.659-.479,1.323-1.134,1.1-1.894-.2-.756-2.005-1.328-3.325-.452" transform="translate(-214.555 -1663.777)" fill="#265446"/>
            <path id="Path_1254313" data-name="Path 1254313" d="M225.044,1617.23c.008.006.014.01.012.006s0,0-.012-.006" transform="translate(-201.597 -1448.736)" fill="#265446"/>
            <path id="Path_1254314" data-name="Path 1254314" d="M182.284,1610.682c-.822.652-.817,1.655-.375,1.808s.99-.149,1.427-.472a3.844,3.844,0,0,1,1.355-.962,3.072,3.072,0,0,1,1.447-.17,3.1,3.1,0,0,0-1.479-.681,3.127,3.127,0,0,0-2.374.476" transform="translate(-162.691 -1442.393)" fill="#265446"/>
            <path id="Path_1254315" data-name="Path 1254315" d="M201.091,1577.918a3.866,3.866,0,0,1-.068-1.664c-.012-.544-.1-1.172-.5-1.422s-1.185.351-1.2,1.4a3.15,3.15,0,0,0,1.074,2.177,3.093,3.093,0,0,0,1.44.76,3.091,3.091,0,0,1-.749-1.254" transform="translate(-178.553 -1410.704)" fill="#265446"/>
            <path id="Path_1254316" data-name="Path 1254316" d="M223.517,1616.985c.007.005.012.008.012.005s0,0-.012-.005" transform="translate(-200.23 -1448.517)" fill="#265446"/>
            <path id="Path_1254317" data-name="Path 1254317" d="M61.844,1786.618c-.822.652-.818,1.655-.375,1.808s.99-.149,1.427-.472a3.838,3.838,0,0,1,1.355-.962,3.074,3.074,0,0,1,1.447-.17,3.094,3.094,0,0,0-1.479-.681,3.125,3.125,0,0,0-2.374.476" transform="translate(-54.798 -1599.999)" fill="#265446"/>
            <path id="Path_1254318" data-name="Path 1254318" d="M104.6,1793.166c.008.006.013.01.012.006s0,0-.012-.006" transform="translate(-93.706 -1606.342)" fill="#265446"/>
            <path id="Path_1254319" data-name="Path 1254319" d="M84.085,1753.05a3.867,3.867,0,0,1,.068-1.663c.033-.544,0-1.177-.381-1.458s-1.21.252-1.308,1.3a3.151,3.151,0,0,0,.892,2.258,3.1,3.1,0,0,0,1.373.875,3.094,3.094,0,0,1-.644-1.311" transform="translate(-73.855 -1567.54)" fill="#265446"/>
            <path id="Path_1254320" data-name="Path 1254320" d="M104.38,1793.136c.007.006.011.009.011.006s0,0-.011-.006" transform="translate(-93.505 -1606.315)" fill="#265446"/>
            <path id="Path_1254321" data-name="Path 1254321" d="M200.782,2036.608c.007,0,0,0-.019-.012.012.012.019.017.019.012" transform="translate(-179.846 -1824.41)" fill="#265446"/>
            <path id="Path_1254322" data-name="Path 1254322" d="M170.8,1973.343a6.035,6.035,0,0,1,.213-2.592c.086-.846.07-1.836-.5-2.3s-1.9.316-2.125,1.942a4.923,4.923,0,0,0,1.248,3.581,4.836,4.836,0,0,0,2.085,1.454,4.857,4.857,0,0,1-.92-2.086" transform="translate(-150.798 -1763.243)" fill="#265446"/>
            <path id="Path_1254323" data-name="Path 1254323" d="M279.39,2064.849c.007,0,0,0-.019-.012.012.012.019.017.019.012" transform="translate(-250.264 -1849.708)" fill="#265446"/>
            <path id="Path_1254324" data-name="Path 1254324" d="M249.4,2001.585a6.038,6.038,0,0,1,.213-2.592c.086-.846.07-1.836-.5-2.3s-1.9.315-2.125,1.942a4.924,4.924,0,0,0,1.248,3.582,4.837,4.837,0,0,0,2.085,1.454,4.857,4.857,0,0,1-.92-2.086" transform="translate(-221.217 -1788.542)" fill="#265446"/>
            <path id="Path_1254325" data-name="Path 1254325" d="M359.264,2100.573c.007,0,0,0-.019-.012.012.012.019.017.019.012" transform="translate(-321.816 -1881.711)" fill="#265446"/>
            <path id="Path_1254326" data-name="Path 1254326" d="M329.277,2037.309a6.037,6.037,0,0,1,.213-2.592c.086-.846.07-1.836-.5-2.3s-1.9.316-2.125,1.942a4.922,4.922,0,0,0,1.248,3.581,4.835,4.835,0,0,0,2.085,1.454,4.857,4.857,0,0,1-.92-2.086" transform="translate(-292.768 -1820.544)" fill="#265446"/>
            <path id="Path_1254327" data-name="Path 1254327" d="M149.9,2034.163a4.526,4.526,0,0,0-2.912,1.94c-.742,1.322-.189,2.66.486,2.621.679-.021,1.241-.743,1.648-1.414a5.567,5.567,0,0,1,1.285-2.029,4.46,4.46,0,0,1,1.838-1.022,4.458,4.458,0,0,0-2.345-.1" transform="translate(-131.356 -1822.124)" fill="#265446"/>
            <path id="Path_1254328" data-name="Path 1254328" d="M200.5,2036.1s-.005,0-.021,0c.018,0,.026.006.021,0" transform="translate(-179.596 -1823.959)" fill="#265446"/>
            <path id="Path_1254329" data-name="Path 1254329" d="M282.27,2065.136s-.005,0-.021,0c.018,0,.026.006.021,0" transform="translate(-252.842 -1849.973)" fill="#265446"/>
            <path id="Path_1254330" data-name="Path 1254330" d="M231.665,2063.2a4.525,4.525,0,0,0-2.912,1.94c-.742,1.322-.189,2.659.486,2.621.679-.021,1.241-.742,1.648-1.414a5.566,5.566,0,0,1,1.285-2.029,4.464,4.464,0,0,1,1.838-1.022,4.456,4.456,0,0,0-2.345-.1" transform="translate(-204.604 -1848.139)" fill="#265446"/>
            <path id="Path_1254331" data-name="Path 1254331" d="M130.94,2021.089s0,0-.012,0c.009,0,.014.006.012,0" transform="translate(-117.287 -1810.515)" fill="#265446"/>
            <path id="Path_1254332" data-name="Path 1254332" d="M95.357,2017.5a2.9,2.9,0,0,0-2.084.833c-.64.732-.469,1.645-.04,1.71s.877-.3,1.221-.669a3.562,3.562,0,0,1,1.074-1.1,2.849,2.849,0,0,1,1.29-.4,2.866,2.866,0,0,0-1.461-.372" transform="translate(-83.177 -1807.299)" fill="#265446"/>
            <path id="Path_1254333" data-name="Path 1254333" d="M104.465,1987.794a3.582,3.582,0,0,1-.34-1.5c-.1-.494-.286-1.052-.692-1.212s-1.021.519-.858,1.479a2.914,2.914,0,0,0,1.342,1.8,2.862,2.862,0,0,0,1.439.45,2.859,2.859,0,0,1-.892-1.016" transform="translate(-91.865 -1778.237)" fill="#265446"/>
            <path id="Path_1254334" data-name="Path 1254334" d="M129.509,2021.124s0,0-.012,0c.007,0,.012.005.012,0" transform="translate(-116.005 -1810.547)" fill="#265446"/>
            <path id="Path_1254335" data-name="Path 1254335" d="M143.924,2029.552a23.314,23.314,0,0,0-2.9-1.587c-2.122-1.034-4.3-1.964-6.461-2.906a93.509,93.509,0,0,0-13.518-4.943,47.34,47.34,0,0,0-7.765-1.39.038.038,0,0,0-.006.076c9.3,1.022,17.955,5.14,26.29,9.155a33.555,33.555,0,0,1,6.741,4.4l1.01-.03a32.219,32.219,0,0,0-3.387-2.771" transform="translate(-101.439 -1808.401)" fill="#265446"/>
            <path id="Path_1254336" data-name="Path 1254336" d="M2260.159,1139.939s-9.14-17.715-26.179-20.085c-7.2-1-13.607-2.516-19.633-3.543q-.315-.054-.627-.1-.714-.118-1.422-.226a48.282,48.282,0,0,0-14.87-.344c-4.991.781-10.954,2.158-14.34,2.98-1.663.4-2.705.673-2.705.673l-18.167,4.739a25.982,25.982,0,0,0-14.443,11.623c-5.191,9.139-18.505,42.652-18.505,42.652h27.984l.677,41.525h94.784a31.453,31.453,0,0,0,12.654,5.151,17.066,17.066,0,0,0,12.736-2.895,17.916,17.916,0,0,0,7.013-11.8c1.485-8.149-.9-17.479-3.065-22.952-3.385-8.576-21.89-47.393-21.89-47.393" transform="translate(-1907.426 -999.014)" fill="#5f4f77"/>
            <path id="Path_1254337" data-name="Path 1254337" d="M3318.321,1797.733a33.666,33.666,0,0,0-7.632-3.439s-11.6-4.718-17.876,4.138c-5.109,7.213,2.851,25.343,13.451,33.762A17.067,17.067,0,0,0,3319,1829.3a17.917,17.917,0,0,0,7.014-11.8h-.007s1.629-14.136-7.684-19.763" transform="translate(-2948.323 -1606.228)" fill="#40947e"/>
            <path id="Path_1254338" data-name="Path 1254338" d="M2654.261,1115.635c-4.99.781-10.954,2.158-14.34,2.98-.973,4.639-2.015,14.344,5.227,17.777,8.544,4.052,25.9-7.919,23.983-20.413a48.281,48.281,0,0,0-14.87-.344" transform="translate(-2364.259 -999.012)" fill="#fff"/>
            <path id="Path_1254339" data-name="Path 1254339" d="M2896.093,1690.3c-8.012-4.514-16.249-10.043-16.249-10.043s-6.77-4.2-12.412-2.37c-8.417,2.736-12.007,8.473-15.359,10.518a3.424,3.424,0,0,0-1.594,2.45c-.7,4.9-1.437,15.874-4.825,19.19-2.708,2.652-.9,7.447,6.093.9,0,0-.564,7.222,1.58,8.35s2.821-1.58,2.821-1.58,1.805,3.5,5.191-.451c0,0,2.37.79,4.626-3.047s1.693-10.268,1.693-10.268,4.739-2.482,5.191-6.77c0,0,12.3,22.681,22,28.21s23.245,7.222,23.245-9.817-13.992-20.762-22-25.276" transform="translate(-2548.099 -1502.656)" fill="#f5b0a6"/>
            <path id="Path_1254340" data-name="Path 1254340" d="M3436.562,1859.646c3.346,4.975,7.839,16.059-1.582,32.758,6.552.549,12.118-2.669,12.118-13.592,0-10.068-4.886-15.486-10.536-19.166" transform="translate(-3077.101 -1665.896)" fill="#f18a8b"/>
            <rect id="Rectangle_412101" data-name="Rectangle 412101" width="13.517" height="0.356" transform="matrix(0.131, -0.991, 0.991, 0.131, 303.472, 208.266)" fill="#f18a8b"/>
            <rect id="Rectangle_412102" data-name="Rectangle 412102" width="17.283" height="0.356" transform="matrix(0.093, -0.996, 0.996, 0.093, 307.874, 215.044)" fill="#f18a8b"/>
            <rect id="Rectangle_412103" data-name="Rectangle 412103" width="14.002" height="0.356" transform="translate(313.063 214.592) rotate(-84.573)" fill="#f18a8b"/>
            <path id="Path_1254341" data-name="Path 1254341" d="M2930.418,1837.108l-.291.206a27.424,27.424,0,0,0,10.655,8.355l.137-.328a27.046,27.046,0,0,1-10.5-8.232" transform="translate(-2624.848 -1645.706)" fill="#f18a8b"/>
            <path id="Path_1254342" data-name="Path 1254342" d="M3116.993,1814.918l1.717,3.023c2-3.945-.984-9.088-.984-9.088Z" transform="translate(-2792.243 -1620.395)" fill="#f18a8b"/>
            <g id="Group_1204845" data-name="Group 1204845" transform="translate(329.15 151.871)" opacity="0.34">
              <g id="Group_1204844" data-name="Group 1204844">
                <g id="Group_1204843" data-name="Group 1204843" clip-path="url(#clip-path-3)">
                  <path id="Path_1254343" data-name="Path 1254343" d="M3160.237,1482.558l5.232,3.23-6.238-28.11Z" transform="translate(-3159.231 -1457.677)" fill="#40947e"/>
                </g>
              </g>
            </g>
            <g id="Group_1204848" data-name="Group 1204848" transform="translate(245.988 151.194)" opacity="0.34">
              <g id="Group_1204847" data-name="Group 1204847">
                <g id="Group_1204846" data-name="Group 1204846" clip-path="url(#clip-path-4)">
                  <path id="Path_1254344" data-name="Path 1254344" d="M2361.025,1457.506h4.905l.794-6.327s-4.293,2.9-5.7,6.327" transform="translate(-2361.025 -1451.179)" fill="#40947e"/>
                </g>
              </g>
            </g>
            <path id="Path_1254345" data-name="Path 1254345" d="M2529.7,584.6s-2.024-8.937-9.812-8.424c-7.4.488-8.665,4.259-18.252.807a5.755,5.755,0,0,0-4.916.423c-2.023,1.218-3.721,3.865-.891,9.6a8.736,8.736,0,0,0-4,.294c-2.886.995-.705,5.534-.678,5.581a7.5,7.5,0,0,0,4.531,3.57s-1.536,9.268,5.954,14.644l28.03,9.307a22.981,22.981,0,0,0,10.211-16.977c.946-11.482-1.986-21.741-10.181-18.827" transform="translate(-2230.881 -516.129)"/>
            <g id="Group_1204851" data-name="Group 1204851" transform="translate(270.598 64.326)" opacity="0.35">
              <g id="Group_1204850" data-name="Group 1204850">
                <g id="Group_1204849" data-name="Group 1204849" clip-path="url(#clip-path-5)">
                  <path id="Path_1254346" data-name="Path 1254346" d="M2597.532,617.412s1.181,3.544,6.941,4.8c0,0-3.913,1.994-7.236.812,0,0,3.444,3.949,14.519-.186l-2.514-1.485s5.144-1.671,6.4-3c0,0-11.021,2.825-18.109-.94" transform="translate(-2597.237 -617.412)" fill="#3c3c3c"/>
                </g>
              </g>
            </g>
            <path id="Path_1254347" data-name="Path 1254347" d="M2543.858,741.579a4.912,4.912,0,0,0-4,2.144,5.869,5.869,0,0,0-1.013,2.5c-.006.031-.011.063-.015.094-.006-.006-.013-.01-.019-.015a10.257,10.257,0,0,1-3.648-9.946c.052-.258.115-.515.187-.769l.017-.061c.069-.233.147-.466.233-.7.03-.082.067-.162.1-.244s.071-.174.107-.259v0c.036-.088.074-.174.116-.26.126-.261.263-.523.416-.777q.083-.14.166-.257l3.953-5.739c-14.342.843-22.376-5.726-22.376-5.726s-.445.758-1.145,2.064c-1.854,3.455-5.747,10.747-7.714,18.022-1.555,5.741-1.816,11.47.432,15.288,2.854,4.846,7.781,5.211,12.253,4.2l.118.521,2.916,12.917.024.106a5.82,5.82,0,0,0,6.223,4.508c3.665-.345,8.483-1.713,11.635-6.117,5.684-7.937,3.874-11.476,3.874-11.476l-3.308-8.8c.153.015.309.027.466.027a5.648,5.648,0,0,0,0-11.242" transform="translate(-2246.715 -646.384)" fill="#f5b0a6"/>
            <path id="Path_1254348" data-name="Path 1254348" d="M2642.275,1065.857c5.594-.492,8.026-8.523,8.026-8.523-3.234,3.234-8.914,4.594-8.914,4.594Z" transform="translate(-2366.19 -947.174)" fill="#f18a8b"/>
            <path id="Path_1254349" data-name="Path 1254349" d="M2813.875,945.72l-5.637,3.348h5.347a.392.392,0,1,0,0-.784h-2.492l3.182-1.89a.392.392,0,0,0-.4-.674" transform="translate(-2515.657 -847.14)" fill="#f18a8b"/>
            <path id="Path_1254350" data-name="Path 1254350" d="M2562.081,804.235a6.23,6.23,0,0,0,2.094-5.253.4.4,0,0,0-.787.1,5.425,5.425,0,0,1-1.826,4.547c-1.911,1.651-3.912,3.553-3.455,5.238.322,1.188,1.793,2.008,4.5,2.508a.406.406,0,0,0,.073.007.4.4,0,0,0,.072-.787c-2.307-.427-3.647-1.1-3.874-1.935-.321-1.185,1.441-2.9,3.208-4.429" transform="translate(-2291.527 -715.431)" fill="#f18a8b"/>
            <path id="Path_1254351" data-name="Path 1254351" d="M2576.7,812.821a1.182,1.182,0,1,0,.331,1.405,1.038,1.038,0,0,0-.331-1.405" transform="translate(-2306.984 -728.08)"/>
            <path id="Path_1254352" data-name="Path 1254352" d="M2642.793,836.122a1.182,1.182,0,1,0,.331,1.406,1.038,1.038,0,0,0-.331-1.406" transform="translate(-2366.191 -748.954)"/>
            <path id="Path_1254353" data-name="Path 1254353" d="M2639.655,793.836a.794.794,0,1,0,.4,1.537,3.068,3.068,0,0,1,3.692,1.929.794.794,0,0,0,1.486-.561,4.618,4.618,0,0,0-5.578-2.9" transform="translate(-2364.105 -711.001)"/>
            <path id="Path_1254354" data-name="Path 1254354" d="M2571.206,764.158a.794.794,0,0,0-.027,1.588c1.6.027,2,.911,2.041,1.012l-.006-.016,1.5-.521a3.531,3.531,0,0,0-3.508-2.062" transform="translate(-2302.598 -684.543)"/>
            <path id="Path_1254355" data-name="Path 1254355" d="M2663.76,890.207c-2.105-.349-3.943.162-4.106,1.141s1.413,2.055,3.518,2.4,3.944-.162,4.106-1.141-1.413-2.055-3.519-2.4" transform="translate(-2382.543 -797.361)" fill="#f18a8b"/>
            <path id="Path_1254356" data-name="Path 1254356" d="M2522.317,911.991c-.956,2.667-2.731,5.765-5.53,6.637-3.572,1.112-5.037-.3-5.626-.777-2.078-1.668-3.253-3.514-7.307-5.6-2.11-1.086-4.379-.935-7.338-1.391-.435-.067-1.005-.128-1.265-.62a1.222,1.222,0,0,1-.132-.479,15.968,15.968,0,0,0-1.451,2.275A12.632,12.632,0,0,0,2507.59,930.3l.218-.05a22.609,22.609,0,0,0,4.539-1.61c6.708-3.2,10.274-9.267,12.245-13.75a10.537,10.537,0,0,1-2.276-2.9" transform="translate(-2232.492 -814.975)"/>
            <path id="Path_1254357" data-name="Path 1254357" d="M2559.377,978.468c2.884.751,3.647-2.879,3.647-2.879l-6.276-1.086s-.255,3.213,2.629,3.965" transform="translate(-2290.364 -872.973)" fill="#fff"/>
            <path id="Path_1254358" data-name="Path 1254358" d="M2049.721,1296.984l.683,2.054,1.794,5.4,1.647,4.951h20.548l-12.739-23.553Z" transform="translate(-1836.167 -1151.864)" fill="#f5b0a6"/>
            <path id="Path_1254359" data-name="Path 1254359" d="M2056.333,1358.19l-.057.046,1.794,5.4c7.606-3.01,7.677-11.717,7.677-11.717a16.129,16.129,0,0,1-9.415,6.276" transform="translate(-1842.039 -1211.063)" fill="#f18a8b"/>
            <path id="Path_1254360" data-name="Path 1254360" d="M1839.59,1123.687c-3.514-1.917-19.214-3.572-20.149-2.86a1.937,1.937,0,0,0,.456,3.181c1.336.46,12.35,3.716,12.35,3.716s-4.3,1.718-4.431,3.377,1.875,2.269,1.875,2.269-2.453,3.176-.2,6.135c0,0-.955,2.943-.275,4.805s3.65,5.922,5.005,4.15a2.191,2.191,0,0,0,.505-2.516,16.164,16.164,0,0,0,3.368,3.706c1.694,1.31,3.87,2.228,6.154,1.188a57.675,57.675,0,0,0,5.6-5.2,50.073,50.073,0,0,0,5.045-7.617s-3.537-3.838-4.752-5.056c-2.876-2.883-8.082-7.934-10.551-9.282" transform="translate(-1629.312 -1003.9)" fill="#f5b0a6"/>
            <path id="Path_1254361" data-name="Path 1254361" d="M1835.685,1127.669c-6.475-1.685-15.555-1.794-16.244-5.39a1.937,1.937,0,0,0,.456,3.181c1.336.46,12.35,3.716,12.35,3.716,4.965-.189,12.078,3.317,12.078,3.317s-2.164-3.137-8.64-4.823" transform="translate(-1629.312 -1005.353)" fill="#f18a8b"/>
            <path id="Path_1254362" data-name="Path 1254362" d="M1928.036,1247.423c-3.237-4.534-6.475-4.765-6.475-4.765s2.252,4.1,4.107,5.389,1.782,4.386.55,4.368-2.468-.141-4.854-3.621c0,0,1.682,4.728,5.546,5.91,2.223.68,1.224-3.782,2.947-3.333,3.745.976,7.645-1.1,7.645-1.1s-6.229,1.684-9.465-2.85" transform="translate(-1721.183 -1113.19)" fill="#f18a8b"/>
            <rect id="Rectangle_412107" data-name="Rectangle 412107" width="1.412" height="29.479" transform="translate(137.565 84.395)" fill="#93493a"/>
            <path id="Path_1254363" data-name="Path 1254363" d="M997.987,968.5H999.4V955.429h67.3V968.5h1.412V954.017h-70.12Z" transform="translate(-894.01 -854.621)" fill="#93493a"/>
            <rect id="Rectangle_412108" data-name="Rectangle 412108" width="10.718" height="10.718" transform="translate(99.324 113.874)" fill="#f19a6d"/>
            <rect id="Rectangle_412109" data-name="Rectangle 412109" width="10.718" height="10.718" transform="translate(132.912 113.874)" fill="#f19a6d"/>
            <rect id="Rectangle_412110" data-name="Rectangle 412110" width="10.718" height="10.718" transform="translate(166.5 113.874)" fill="#f19a6d"/>
            <path id="Path_1254364" data-name="Path 1254364" d="M898.991,174.537H805.26v60.857a5.272,5.272,0,0,0,5.273,5.272H899.54a5.272,5.272,0,0,0,5.273-5.272V180.359a5.822,5.822,0,0,0-5.822-5.822" transform="translate(-721.363 -156.353)" fill="#f19a6d"/>
            <path id="Path_1254365" data-name="Path 1254365" d="M918.776,331.332H831.125a5.823,5.823,0,0,0-5.7,4.615l-7.242,34.166-.985,4.646a5.273,5.273,0,0,0,5.159,6.366h88.774a5.272,5.272,0,0,0,5.158-4.179l8.179-38.585a5.822,5.822,0,0,0-5.7-7.029" transform="translate(-731.955 -296.812)" fill="#f3ce90"/>
            <g id="Group_1204854" data-name="Group 1204854" transform="translate(85.129 34.52)" opacity="0.34">
              <g id="Group_1204853" data-name="Group 1204853">
                <g id="Group_1204852" data-name="Group 1204852" clip-path="url(#clip-path-6)">
                  <path id="Path_1254366" data-name="Path 1254366" d="M918.776,331.332H904.484c3,4.813,6.918,22.374,1.523,32.563-5.856,11.062-65.671,5.515-87.82,6.218l-.985,4.646a5.273,5.273,0,0,0,5.159,6.366h88.774a5.272,5.272,0,0,0,5.158-4.179l8.179-38.585a5.822,5.822,0,0,0-5.7-7.029" transform="translate(-817.085 -331.332)" fill="#f19a6d"/>
                </g>
              </g>
            </g>
            <g id="Group_1204857" data-name="Group 1204857" transform="translate(85.246 27.868)" opacity="0.65">
              <g id="Group_1204856" data-name="Group 1204856">
                <g id="Group_1204855" data-name="Group 1204855" clip-path="url(#clip-path-7)">
                  <path id="Path_1254367" data-name="Path 1254367" d="M832.778,267.56a10.233,10.233,0,0,0-10.156,9.133l-4.418,40.869,8.227-38.813a5.823,5.823,0,0,1,5.7-4.614h84.281V267.49c-23.275-.031-65.164.036-83.631.07" transform="translate(-818.205 -267.482)" fill="#ef7c59"/>
                </g>
              </g>
            </g>
            <path id="Path_1254368" data-name="Path 1254368" d="M844.462,76.786h-35.87a3.333,3.333,0,0,0-3.332,3.333V86.97h45.208V82.791a6,6,0,0,0-6.005-6.005" transform="translate(-721.363 -68.786)" fill="#f19a6d"/>
            <path id="Path_1254369" data-name="Path 1254369" d="M949.506,126.353a11.778,11.778,0,0,1-6.659,2.632l-25.974,1.907h33.579v-4.179a5.979,5.979,0,0,0-.067-.9,2.958,2.958,0,0,0-.879.537" transform="translate(-821.346 -112.708)" fill="#93493a"/>
            <path id="Path_1254370" data-name="Path 1254370" d="M1091.691,478.977a31.393,31.393,0,0,0-3.6-1.043,16.13,16.13,0,0,1-3.143-.947,1.556,1.556,0,0,1-1.029-1.468,1.844,1.844,0,0,1,.892-1.592,4.994,4.994,0,0,1,2.759-.6,10.718,10.718,0,0,1,5.325,1.51l1.372-3.376a10.63,10.63,0,0,0-3.074-1.263,14.784,14.784,0,0,0-3.6-.439,11.146,11.146,0,0,0-4.46.8,6.093,6.093,0,0,0-2.731,2.155,5.348,5.348,0,0,0-.906,3.033,4.52,4.52,0,0,0,1,3.074,5.839,5.839,0,0,0,2.4,1.674,31.2,31.2,0,0,0,3.6,1.043q1.427.329,2.264.6a4.062,4.062,0,0,1,1.373.727,1.43,1.43,0,0,1,.535,1.139,1.7,1.7,0,0,1-.906,1.5,5.436,5.436,0,0,1-2.8.563,11.023,11.023,0,0,1-3.4-.549,10.237,10.237,0,0,1-2.937-1.455l-1.51,3.349a10.329,10.329,0,0,0,3.417,1.606,15.717,15.717,0,0,0,4.406.618,11.25,11.25,0,0,0,4.474-.8,6.181,6.181,0,0,0,2.759-2.155,5.247,5.247,0,0,0,.92-3.006,4.417,4.417,0,0,0-1-3.047,5.958,5.958,0,0,0-2.4-1.647" transform="translate(-966.69 -420.812)" fill="#fff"/>
            <path id="Path_1254371" data-name="Path 1254371" d="M1266.977,490.424a3.114,3.114,0,0,1-1.386-.316,4.891,4.891,0,0,1-1.331-1.029,9.724,9.724,0,0,0,4.982-3.513,10.123,10.123,0,0,0,.508-10.966,9.7,9.7,0,0,0-3.76-3.555,11.892,11.892,0,0,0-10.774,0,9.575,9.575,0,0,0-3.76,3.555,9.7,9.7,0,0,0-1.359,5.092,9.809,9.809,0,0,0,1.139,4.707,9.418,9.418,0,0,0,3.184,3.472,10.8,10.8,0,0,0,4.652,1.674,16.7,16.7,0,0,0,3.953,3.253,8.115,8.115,0,0,0,3.87.919,7,7,0,0,0,2.923-.6,6.148,6.148,0,0,0,2.265-1.757L1270.106,489a4.178,4.178,0,0,1-3.129,1.427m-6.368-4.584a6.1,6.1,0,0,1-3.074-.782,5.612,5.612,0,0,1-2.155-2.182,6.871,6.871,0,0,1,0-6.368,5.612,5.612,0,0,1,2.155-2.182,6.431,6.431,0,0,1,6.148,0,5.614,5.614,0,0,1,2.155,2.182,6.871,6.871,0,0,1,0,6.368,5.614,5.614,0,0,1-2.155,2.182,6.1,6.1,0,0,1-3.074.782" transform="translate(-1119.853 -420.813)" fill="#fff"/>
            <path id="Path_1254372" data-name="Path 1254372" d="M1488.488,472.916h-4.447V492.13h14.081v-3.623h-9.634Z" transform="translate(-1329.424 -423.645)" fill="#fff"/>
            <path id="Path_1254373" data-name="Path 1254373" d="M3163.229,368.978h-52a9.015,9.015,0,0,0-9.015,9.015V410.77a9.015,9.015,0,0,0,9.015,9.015h52a9.015,9.015,0,0,0,9.015-9.015V377.993a9.015,9.015,0,0,0-9.015-9.015" transform="translate(-2779.002 -330.535)" fill="#f3ce90"/>
            <path id="Path_1254374" data-name="Path 1254374" d="M3176.213,469.45a14.935,14.935,0,1,0,14.935,14.935,14.935,14.935,0,0,0-14.935-14.935" transform="translate(-2831.915 -420.54)" fill="#ef7c59"/>
            <path id="Path_1254375" data-name="Path 1254375" d="M3304.629,469.45v14.935l11.577-9.433a14.9,14.9,0,0,0-11.577-5.5" transform="translate(-2960.331 -420.54)" fill="#f19a6d"/>
            <path id="Path_1254376" data-name="Path 1254376" d="M3304.629,531.691l7.383,12.981a14.931,14.931,0,0,0,4.194-22.414Z" transform="translate(-2960.331 -467.846)" fill="#93493a"/>
            <path id="Path_1254377" data-name="Path 1254377" d="M3223.593,625.12a14.927,14.927,0,0,0,15.826.662l-7.383-12.981Z" transform="translate(-2887.738 -548.955)" fill="#f19a6d"/>
            <path id="Path_1254378" data-name="Path 1254378" d="M3177.645,625.12l8.443-12.319-13.787,5.75a14.984,14.984,0,0,0,5.344,6.569" transform="translate(-2841.79 -548.955)" fill="#fff"/>
            <rect id="Rectangle_412113" data-name="Rectangle 412113" width="3.219" height="3.219" transform="translate(363.508 48.549)" fill="#ef7c59"/>
            <path id="Path_1254379" data-name="Path 1254379" d="M3552,473.208h-16.3a.857.857,0,0,0,0,1.713H3552a.857.857,0,1,0,0-1.713" transform="translate(-3166.56 -423.906)" fill="#fefefe"/>
            <rect id="Rectangle_412114" data-name="Rectangle 412114" width="3.219" height="3.218" transform="translate(363.508 55.393)" fill="#f19a6d"/>
            <path id="Path_1254380" data-name="Path 1254380" d="M3552,538.9h-16.3a.857.857,0,0,0,0,1.713H3552a.857.857,0,1,0,0-1.713" transform="translate(-3166.56 -482.749)" fill="#fefefe"/>
            <rect id="Rectangle_412115" data-name="Rectangle 412115" width="3.219" height="3.218" transform="translate(363.508 62.237)" fill="#ffebd7"/>
            <path id="Path_1254381" data-name="Path 1254381" d="M3552,604.58h-16.3a.857.857,0,0,0,0,1.713H3552a.857.857,0,1,0,0-1.713" transform="translate(-3166.56 -541.591)" fill="#fefefe"/>
            <rect id="Rectangle_412116" data-name="Rectangle 412116" width="3.219" height="3.219" transform="translate(363.508 69.08)" fill="#fff"/>
            <path id="Path_1254382" data-name="Path 1254382" d="M3552,670.266h-16.3a.857.857,0,0,0,0,1.713H3552a.857.857,0,1,0,0-1.713" transform="translate(-3166.56 -600.433)" fill="#fefefe"/>
            <rect id="Rectangle_412117" data-name="Rectangle 412117" width="3.219" height="3.219" transform="translate(363.508 75.924)" fill="#93493a"/>
            <path id="Path_1254383" data-name="Path 1254383" d="M3552,735.952h-16.3a.857.857,0,0,0,0,1.713H3552a.857.857,0,1,0,0-1.713" transform="translate(-3166.56 -659.276)" fill="#fefefe"/>
            <path id="Path_1254384" data-name="Path 1254384" d="M2045.49,522.006h-36.685a2.948,2.948,0,0,0-2.943,2.953v19.486a2.948,2.948,0,0,0,2.943,2.953h24.4c1.5,2.1,6.49,8.468,6.729,8.468.225,0-.208-6.16-.513-8.468h6.064a2.948,2.948,0,0,0,2.943-2.953V524.959a2.948,2.948,0,0,0-2.943-2.953" transform="translate(-1796.878 -467.62)" fill="#d1dbed"/>
            <path id="Path_1254385" data-name="Path 1254385" d="M2097.06,615.445a2.4,2.4,0,1,0,2.4,2.4,2.4,2.4,0,0,0-2.4-2.4" transform="translate(-1876.429 -551.324)" fill="#fff"/>
            <path id="Path_1254386" data-name="Path 1254386" d="M2189.57,615.445a2.4,2.4,0,1,0,2.4,2.4,2.4,2.4,0,0,0-2.4-2.4" transform="translate(-1959.301 -551.324)" fill="#fff"/>
            <path id="Path_1254387" data-name="Path 1254387" d="M2282.08,615.445a2.4,2.4,0,1,0,2.4,2.4,2.4,2.4,0,0,0-2.4-2.4" transform="translate(-2042.172 -551.324)" fill="#fff"/>
            <path id="Path_1254388" data-name="Path 1254388" d="M2428.864,0h-52.89a3.211,3.211,0,0,0-3.211,3.211V33.678a3.211,3.211,0,0,0,3.211,3.211h52.89a3.21,3.21,0,0,0,3.21-3.211V3.211A3.21,3.21,0,0,0,2428.864,0" transform="translate(-2125.553)" fill="#ffc94a"/>
            <rect id="Rectangle_412118" data-name="Rectangle 412118" width="48.158" height="0.504" transform="translate(252.787 27.248)" fill="#fff"/>
            <rect id="Rectangle_412119" data-name="Rectangle 412119" width="0.504" height="5.772" transform="translate(265.144 21.728)" fill="#fff"/>
            <rect id="Rectangle_412120" data-name="Rectangle 412120" width="0.504" height="10.11" transform="translate(270.99 17.39)" fill="#fff"/>
            <rect id="Rectangle_412121" data-name="Rectangle 412121" width="0.504" height="9.052" transform="translate(276.836 18.448)" fill="#fff"/>
            <rect id="Rectangle_412122" data-name="Rectangle 412122" width="0.504" height="13.813" transform="translate(282.681 13.687)" fill="#fff"/>
            <rect id="Rectangle_412123" data-name="Rectangle 412123" width="0.504" height="13.813" transform="translate(288.527 13.687)" fill="#fff"/>
            <rect id="Rectangle_412124" data-name="Rectangle 412124" width="0.504" height="16.617" transform="translate(294.373 10.883)" fill="#fff"/>
            <path id="Path_1254389" data-name="Path 1254389" d="M2490.5,61.882l-6.466,5.344-3.938-2.262-7.333,6.061-5.058-2.8-14.761,12.2h3.923l11.117-9.188,5.058,2.8,7.311-6.043,3.938,2.262,7.786-6.436,1.295,1.591,2.312-6.21-6.55,1Z" transform="translate(-2197.376 -53.034)" fill="#fff"/>
            <path id="Path_1254390" data-name="Path 1254390" d="M981.476,1902.929c-22.008,0-39.85-2.249-39.85-5.026v19.4c0,2.777,17.842,5.026,39.85,5.026s39.85-2.249,39.85-5.026v-19.4c0,2.776-17.842,5.026-39.85,5.026" transform="translate(-843.521 -1700.167)" fill="#99b1da"/>
            <path id="Path_1254391" data-name="Path 1254391" d="M981.476,1849.665c-22.008,0-39.85,2.249-39.85,5.026s17.842,5.026,39.85,5.026,39.85-2.249,39.85-5.026-17.842-5.026-39.85-5.026" transform="translate(-843.521 -1656.955)" fill="#5681bf"/>
            <path id="Path_1254392" data-name="Path 1254392" d="M1048.033,1781.6c-17.733,0-32.109,1.083-32.109,2.42v9.344c0,1.337,14.377,2.42,32.109,2.42s32.11-1.083,32.11-2.42v-9.344c0-1.337-14.377-2.42-32.11-2.42" transform="translate(-910.078 -1595.978)" fill="#3d5891"/>
            <path id="Path_1254393" data-name="Path 1254393" d="M981.476,1645.228c-22.008,0-39.85-2.249-39.85-5.026v19.4c0,2.776,17.842,5.026,39.85,5.026s39.85-2.249,39.85-5.026v-19.4c0,2.776-17.842,5.026-39.85,5.026" transform="translate(-843.521 -1469.315)" fill="#99b1da"/>
            <path id="Path_1254394" data-name="Path 1254394" d="M981.476,1591.963c-22.008,0-39.85,2.249-39.85,5.026s17.842,5.026,39.85,5.026,39.85-2.249,39.85-5.026-17.842-5.026-39.85-5.026" transform="translate(-843.521 -1426.102)" fill="#5681bf"/>
            <path id="Path_1254395" data-name="Path 1254395" d="M1048.033,1523.9c-17.733,0-32.109,1.083-32.109,2.42v9.344c0,1.337,14.377,2.42,32.109,2.42s32.11-1.083,32.11-2.42v-9.344c0-1.337-14.377-2.42-32.11-2.42" transform="translate(-910.078 -1365.126)" fill="#3d5891"/>
            <path id="Path_1254396" data-name="Path 1254396" d="M981.476,1355.589c-22.008,0-39.85-2.249-39.85-5.026v19.4c0,2.777,17.842,5.026,39.85,5.026s39.85-2.249,39.85-5.026v-19.4c0,2.776-17.842,5.026-39.85,5.026" transform="translate(-843.521 -1209.852)" fill="#99b1da"/>
            <path id="Path_1254397" data-name="Path 1254397" d="M981.476,1302.325c-22.008,0-39.85,2.249-39.85,5.026s17.842,5.026,39.85,5.026,39.85-2.249,39.85-5.026-17.842-5.026-39.85-5.026" transform="translate(-843.521 -1166.64)" fill="#5681bf"/>
            <path id="Path_1254398" data-name="Path 1254398" d="M973.38,1418.6a4.781,4.781,0,1,0,5.1,4.77,4.951,4.951,0,0,0-5.1-4.77m0,9.115a4.356,4.356,0,1,1,4.651-4.346,4.511,4.511,0,0,1-4.651,4.346" transform="translate(-867.395 -1270.8)" fill="#3d5891"/>
            <path id="Path_1254399" data-name="Path 1254399" d="M973.987,1713.7a4.568,4.568,0,1,0,4.878,4.558,4.726,4.726,0,0,0-4.878-4.558" transform="translate(-868.141 -1535.154)" fill="#243354"/>
            <path id="Path_1254400" data-name="Path 1254400" d="M972.035,1969.364a4.781,4.781,0,1,0,5.1,4.77,4.951,4.951,0,0,0-5.1-4.77m0,9.116a4.356,4.356,0,1,1,4.651-4.346,4.511,4.511,0,0,1-4.651,4.346" transform="translate(-866.19 -1764.182)" fill="#3d5891"/>
            <path id="Path_1254401" data-name="Path 1254401" d="M1190.262,1453.387h-43.055a.751.751,0,1,0,0,1.5h43.055a.751.751,0,1,0,0-1.5" transform="translate(-1027.011 -1301.963)" fill="#fff"/>
            <path id="Path_1254402" data-name="Path 1254402" d="M1190.262,1493.706h-43.055a.751.751,0,1,0,0,1.5h43.055a.751.751,0,0,0,0-1.5" transform="translate(-1027.011 -1338.082)" fill="#fff"/>
            <path id="Path_1254403" data-name="Path 1254403" d="M1184.818,1746.453h-43.055a.751.751,0,1,0,0,1.5h43.055a.751.751,0,1,0,0-1.5" transform="translate(-1022.134 -1564.496)" fill="#fff"/>
            <path id="Path_1254404" data-name="Path 1254404" d="M1184.818,1786.771h-43.055a.751.751,0,1,0,0,1.5h43.055a.751.751,0,1,0,0-1.5" transform="translate(-1022.134 -1600.613)" fill="#fff"/>
            <path id="Path_1254405" data-name="Path 1254405" d="M1184.818,2001.463h-43.055a.751.751,0,1,0,0,1.5h43.055a.751.751,0,1,0,0-1.5" transform="translate(-1022.134 -1792.937)" fill="#fff"/>
            <path id="Path_1254406" data-name="Path 1254406" d="M1184.818,2041.782h-43.055a.751.751,0,1,0,0,1.5h43.055a.751.751,0,0,0,0-1.5" transform="translate(-1022.134 -1829.056)" fill="#fff"/>
            <path id="Path_1254407" data-name="Path 1254407" d="M1344.3,1338.369s10.015.076,13.685-1.835l-32.951-2.294Z" transform="translate(-1186.979 -1195.231)" fill="#fff"/>
            <path id="Path_1254408" data-name="Path 1254408" d="M1011.791,1339.053l14.438-4.812-34.752,1.956s7.108,2.757,20.314,2.856" transform="translate(-888.178 -1195.231)" fill="#243354"/>
            <path id="Path_1254409" data-name="Path 1254409" d="M263.4,677.694l-4.938.007a19.554,19.554,0,0,0-3.865-5.242l1.468-4.715-5.54-3.342-3.487,3.5a19.549,19.549,0,0,0-6.439-.974l-2.3-4.372-6.281,1.554.007,4.938a19.543,19.543,0,0,0-5.242,3.865l-4.715-1.468-3.342,5.54,3.5,3.487a19.543,19.543,0,0,0-.975,6.439l-4.371,2.3,1.554,6.281,4.938-.008a19.554,19.554,0,0,0,3.865,5.242l-1.467,4.715,5.54,3.342,3.487-3.5a19.549,19.549,0,0,0,6.439.974l2.3,4.371,6.281-1.554-.007-4.938a19.55,19.55,0,0,0,5.242-3.865l4.715,1.468,3.342-5.54-3.5-3.487a19.539,19.539,0,0,0,.975-6.439l4.371-2.3ZM243.837,698.37a12.136,12.136,0,1,1,8.865-14.7,12.136,12.136,0,0,1-8.865,14.7" transform="translate(-194.288 -593.524)" fill="#f19a6d"/>
            <g id="Group_1204860" data-name="Group 1204860" transform="translate(34.872 78.034)" opacity="0.45">
              <g id="Group_1204859" data-name="Group 1204859">
                <g id="Group_1204858" data-name="Group 1204858" clip-path="url(#clip-path-8)">
                  <path id="Path_1254410" data-name="Path 1254410" d="M343.913,749.337A12.13,12.13,0,0,0,334.7,761.02a12.124,12.124,0,0,1,23.885,3.088,12.135,12.135,0,0,0-14.676-14.771" transform="translate(-334.704 -748.979)" fill="#ef7c59"/>
                </g>
              </g>
            </g>
            <path id="Path_1254411" data-name="Path 1254411" d="M546.338,980.716l-4.715-1.468a19.55,19.55,0,0,1-5.242,3.865l0,2.688a19.55,19.55,0,0,0,4.875-3.66l4.716,1.468,3.342-5.54-.864-.861Z" transform="translate(-480.497 -875.396)" fill="#ef7c59"/>
            <path id="Path_1254412" data-name="Path 1254412" d="M320.332,1050.233l-2.3-4.371a19.546,19.546,0,0,1-6.439-.974l-3.487,3.5-5.087-3.069-.815,2.62,5.54,3.342,3.486-3.5a19.55,19.55,0,0,0,6.439.974l2.3,4.371,6.28-1.554,0-2.8Z" transform="translate(-270.721 -936.024)" fill="#ef7c59"/>
            <path id="Path_1254413" data-name="Path 1254413" d="M223.74,917.429l-4.938.007-.962-3.889-.954.5,1.554,6.281,4.938-.007a19.528,19.528,0,0,0,3.459,4.816l.768-2.467a19.549,19.549,0,0,1-3.865-5.242" transform="translate(-194.289 -818.368)" fill="#ef7c59"/>
            <path id="Path_1254414" data-name="Path 1254414" d="M234.63,783.574l3.232,3.222a19.568,19.568,0,0,1,.628-2.628l-2.634-2.626Z" transform="translate(-210.185 -700.116)" fill="#ef7c59"/>
            <path id="Path_1254415" data-name="Path 1254415" d="M638.2,847a19.5,19.5,0,0,1-.188,2.8l4.2-2.2-.592-2.392Z" transform="translate(-571.537 -757.141)" fill="#ef7c59"/>
            <path id="Path_1254416" data-name="Path 1254416" d="M387.691,830.178a6.641,6.641,0,1,0,9.407,5.153,6.681,6.681,0,0,0-9.407-5.153" transform="translate(-343.883 -743.122)" fill="#f19a6d"/>
            <g id="Group_1204863" data-name="Group 1204863" transform="translate(39.992 90.7)" opacity="0.45">
              <g id="Group_1204862" data-name="Group 1204862">
                <g id="Group_1204861" data-name="Group 1204861" clip-path="url(#clip-path-9)">
                  <path id="Path_1254417" data-name="Path 1254417" d="M396.676,870.553a6.62,6.62,0,0,1-12.721,1.258,6.323,6.323,0,0,0-.1,1.411,6.641,6.641,0,0,0,13.268-.607,6.819,6.819,0,0,0-.447-2.062" transform="translate(-383.848 -870.553)" fill="#ef7c59"/>
                </g>
              </g>
            </g>
            <path id="Path_1254418" data-name="Path 1254418" d="M502.647,1108.842l-3.695.005a14.639,14.639,0,0,0-2.892-3.923l1.1-3.528-4.145-2.5-2.609,2.617a14.623,14.623,0,0,0-4.818-.729l-1.718-3.271-4.7,1.163.005,3.7a14.643,14.643,0,0,0-3.923,2.892l-3.528-1.1-2.5,4.146,2.617,2.609a14.634,14.634,0,0,0-.73,4.819l-3.271,1.718,1.163,4.7,3.695-.005a14.625,14.625,0,0,0,2.892,3.923l-1.1,3.528,4.146,2.5,2.609-2.617a14.637,14.637,0,0,0,4.819.729l1.718,3.271,4.7-1.163-.006-3.7a14.627,14.627,0,0,0,3.923-2.892l3.529,1.1,2.5-4.146-2.617-2.609a14.622,14.622,0,0,0,.729-4.818l3.271-1.719ZM488,1124.314a9.081,9.081,0,1,1,6.634-11,9.081,9.081,0,0,1-6.634,11" transform="translate(-419.095 -983.166)" fill="#f3ce90"/>
            <g id="Group_1204866" data-name="Group 1204866" transform="translate(57.928 121.085)" opacity="0.55">
              <g id="Group_1204865" data-name="Group 1204865">
                <g id="Group_1204864" data-name="Group 1204864" clip-path="url(#clip-path-10)">
                  <path id="Path_1254419" data-name="Path 1254419" d="M562.894,1162.453A9.077,9.077,0,0,0,556,1171.2a9.072,9.072,0,0,1,17.873,2.311,9.08,9.08,0,0,0-10.982-11.053" transform="translate(-556.003 -1162.186)" fill="#f19a6d"/>
                </g>
              </g>
            </g>
            <path id="Path_1254420" data-name="Path 1254420" d="M714.369,1335.592l-3.529-1.1a14.633,14.633,0,0,1-3.922,2.892l0,2.011a14.631,14.631,0,0,0,3.648-2.738l3.529,1.1,2.5-4.146-.646-.644Z" transform="translate(-633.267 -1194.09)" fill="#f19a6d"/>
            <path id="Path_1254421" data-name="Path 1254421" d="M545.247,1387.612l-1.718-3.271a14.629,14.629,0,0,1-4.818-.729l-2.609,2.617-3.807-2.3-.61,1.96,4.146,2.5,2.609-2.617a14.638,14.638,0,0,0,4.819.729l1.718,3.271,4.7-1.163,0-2.1Z" transform="translate(-476.29 -1239.458)" fill="#f19a6d"/>
            <path id="Path_1254422" data-name="Path 1254422" d="M469.271,1288.244l-.72-2.91-.714.375,1.163,4.7,3.695-.005a14.619,14.619,0,0,0,2.589,3.6l.575-1.846a14.635,14.635,0,0,1-2.892-3.922Z" transform="translate(-419.095 -1151.419)" fill="#f19a6d"/>
            <path id="Path_1254423" data-name="Path 1254423" d="M481.118,1188.073l2.418,2.411a14.67,14.67,0,0,1,.47-1.967l-1.971-1.965Z" transform="translate(-430.992 -1062.929)" fill="#f19a6d"/>
            <path id="Path_1254424" data-name="Path 1254424" d="M783.105,1235.529a14.569,14.569,0,0,1-.141,2.1l3.141-1.65-.443-1.79Z" transform="translate(-701.39 -1105.6)" fill="#f19a6d"/>
            <path id="Path_1254425" data-name="Path 1254425" d="M594.638,1223.516a4.624,4.624,0,0,0-1.841,3.123,5.008,5.008,0,0,0,8.01,4.733,4.626,4.626,0,0,0,1.841-3.123,5.008,5.008,0,0,0-8.01-4.733" transform="translate(-530.993 -1095.112)" fill="#f3ce90"/>
            <g id="Group_1204869" data-name="Group 1204869" transform="translate(61.759 130.563)" opacity="0.55">
              <g id="Group_1204868" data-name="Group 1204868">
                <g id="Group_1204867" data-name="Group 1204867" clip-path="url(#clip-path-11)">
                  <path id="Path_1254426" data-name="Path 1254426" d="M602.374,1253.159a4.954,4.954,0,0,1-9.519.942,4.729,4.729,0,0,0-.075,1.056,4.969,4.969,0,1,0,9.928-.454,5.1,5.1,0,0,0-.335-1.543" transform="translate(-592.775 -1253.159)" fill="#f19a6d"/>
                </g>
              </g>
            </g>
            <path id="Path_1254427" data-name="Path 1254427" d="M2800.91,2056.641h-41.162l.292,1.379a4.062,4.062,0,0,1-3.974,4.9h44.845a1.354,1.354,0,0,0,1.354-1.354V2058a1.354,1.354,0,0,0-1.354-1.354" transform="translate(-2468.92 -1842.366)" fill="#243354"/>
            <path id="Path_1254428" data-name="Path 1254428" d="M1953.35,1513.993a6.77,6.77,0,0,0-6.623-5.369H1872.16a4.061,4.061,0,0,0-3.974,4.9l5.857,27.684,3.517,16.621,1.3,6.164h0l.557,2.635a6.77,6.77,0,0,0,6.623,5.37h74.567a4.062,4.062,0,0,0,3.973-4.9Z" transform="translate(-1673.466 -1351.445)" fill="#5681bf"/>
            <g id="Group_1204872" data-name="Group 1204872" transform="translate(194.631 157.179)" opacity="0.41">
              <g id="Group_1204871" data-name="Group 1204871">
                <g id="Group_1204870" data-name="Group 1204870" clip-path="url(#clip-path-12)">
                  <path id="Path_1254429" data-name="Path 1254429" d="M1868.186,1513.528l5.857,27.684,19.865-32.587H1872.16a4.061,4.061,0,0,0-3.974,4.9" transform="translate(-1868.097 -1508.625)" fill="#3d5891"/>
                  <path id="Path_1254430" data-name="Path 1254430" d="M1958.924,1557.832l1.3,6.164h0l.557,2.635a6.77,6.77,0,0,0,6.623,5.37h12.8c7.365-16.423,27.762-49.911,34.026-63.378h-25.458Z" transform="translate(-1949.461 -1508.624)" fill="#3d5891"/>
                </g>
              </g>
            </g>
            <path id="Path_1254431" data-name="Path 1254431" d="M2606.138,1513.993a6.77,6.77,0,0,0-6.624-5.369h-2.708a6.77,6.77,0,0,1,6.624,5.369l11.235,53.106a4.062,4.062,0,0,1-3.974,4.9h2.708a4.062,4.062,0,0,0,3.974-4.9Z" transform="translate(-2326.253 -1351.445)" fill="#3d5891"/>
            <path id="Path_1254432" data-name="Path 1254432" d="M2255.252,1745.25c-3.886,0-6.369,3.15-5.547,7.036a9.158,9.158,0,0,0,8.524,7.036c3.886,0,6.369-3.15,5.547-7.036a9.159,9.159,0,0,0-8.524-7.036" transform="translate(-2015.174 -1563.418)" fill="#fff"/>
            <path id="Path_1254433" data-name="Path 1254433" d="M1804.523,1813.684c-3.241,3.792,8.7,28.36,8.7,28.36h2.41c-1.506-19.29-6.932-33.249-11.111-28.36" transform="translate(-1616.016 -1623.842)" fill="#2e6857"/>
            <path id="Path_1254434" data-name="Path 1254434" d="M1832.1,1853.286a.189.189,0,0,0-.125.235l7.591,24.872h.394l-7.625-24.982a.189.189,0,0,0-.235-.125" transform="translate(-1641.101 -1660.191)" fill="#fff"/>
            <path id="Path_1254435" data-name="Path 1254435" d="M1929.6,1842.044h2.41s11.942-24.568,8.7-28.36c-4.179-4.889-9.605,9.07-11.111,28.36" transform="translate(-1728.558 -1623.842)" fill="#2e6857"/>
            <path id="Path_1254436" data-name="Path 1254436" d="M1944.736,1853.286a.189.189,0,0,0-.235.125l-7.625,24.982h.394l7.591-24.872a.189.189,0,0,0-.125-.235" transform="translate(-1735.079 -1660.191)" fill="#fff"/>
            <path id="Path_1254437" data-name="Path 1254437" d="M1894.459,1726.325c-4.775-3.55-6.659,15.369-1.945,37.957h2.133s4.587-34.408-.188-37.957" transform="translate(-1692.896 -1546.079)" fill="#40947e"/>
            <path id="Path_1254438" data-name="Path 1254438" d="M1918.826,1772.325a.191.191,0,0,0-.19.187l-.255,33.363h.376l.255-33.36a.188.188,0,0,0-.186-.189" transform="translate(-1718.511 -1587.672)" fill="#fff"/>
            <path id="Path_1254439" data-name="Path 1254439" d="M1840.767,1998.705l-19.749-.058a.812.812,0,0,0-.763,1.1l.29.776.183.492.526,1.409.184.492.54,1.447.183.491,2.317,6.207,12.756.038,2.353-6.193.186-.49.549-1.443.187-.491.534-1.405.186-.491.295-.775a.813.813,0,0,0-.757-1.1" transform="translate(-1630.562 -1790.415)" fill="#f19a6d"/>
            <path id="Path_1254440" data-name="Path 1254440" d="M1823.55,2017.406h20.315l.185-.491h-20.684Z" transform="translate(-1633.395 -1806.779)" fill="#fff"/>
            <path id="Path_1254441" data-name="Path 1254441" d="M1830.409,2035.626h18.884l.185-.491h-19.255Z" transform="translate(-1639.539 -1823.101)" fill="#fff"/>
            <path id="Path_1254442" data-name="Path 1254442" d="M1837.413,2054.211h17.426l.185-.49h-17.8Z" transform="translate(-1645.813 -1839.75)" fill="#fff"/>
            <path id="Path_1254443" data-name="Path 1254443" d="M485.459,2117.5H115.225a11.379,11.379,0,0,0-11.378,11.38v1.558H496.838v-1.558a11.379,11.379,0,0,0-11.378-11.38" transform="translate(-93.028 -1896.887)" fill="#3d5891"/>
            <rect id="Rectangle_412130" data-name="Rectangle 412130" width="352.925" height="15.829" transform="translate(30.853 233.553)" fill="#7a8db0"/>
          </g>
        </g>
      </g>
    </g>
  </g>
</svg>
