<svg xmlns="http://www.w3.org/2000/svg" xmlns:xlink="http://www.w3.org/1999/xlink" width="115" height="115" viewBox="0 0 115 115">
  <defs>
    <clipPath id="clip-path">
      <rect id="Rectangle_411878" data-name="Rectangle 411878" width="115" height="115" transform="translate(800.781 1954)" fill="#e8bad8" opacity="0.41"/>
    </clipPath>
  </defs>
  <g id="Group_1204731" data-name="Group 1204731" transform="translate(-1090.051 -6584)">
    <g id="Mask_Group_1099346" data-name="Mask Group 1099346" transform="translate(289.27 4630)" clip-path="url(#clip-path)">
      <g id="Group_1204341" data-name="Group 1204341" transform="translate(799.781 1960.273)">
        <g id="Group_1204328" data-name="Group 1204328" transform="translate(1)">
          <ellipse id="Ellipse_12458" data-name="Ellipse 12458" cx="28.658" cy="28.658" rx="28.658" ry="28.658" transform="translate(56.527 44.289)" fill="#ffc94a"/>
          <ellipse id="Ellipse_12459" data-name="Ellipse 12459" cx="20.842" cy="20.842" rx="20.842" ry="20.842" fill="#ffc94a"/>
        </g>
      </g>
    </g>
    <g id="base66" transform="translate(1102.043 6596)">
      <circle id="Ellipse_12598" data-name="Ellipse 12598" cx="31.728" cy="31.728" r="31.728" transform="translate(14.108 14.101)" fill="#83d8f4"/>
      <g id="Group_1204729" data-name="Group 1204729" transform="translate(9.227 9.22)">
        <circle id="Ellipse_12599" data-name="Ellipse 12599" cx="4.881" cy="4.881" r="4.881" transform="translate(31.728 31.728)" fill="#cca400"/>
        <circle id="Ellipse_12600" data-name="Ellipse 12600" cx="4.881" cy="4.881" r="4.881" transform="translate(0 31.728)" fill="#ab2300"/>
        <circle id="Ellipse_12601" data-name="Ellipse 12601" cx="4.881" cy="4.881" r="4.881" transform="translate(63.455 31.728)" fill="#ab2300"/>
        <path id="Path_1253772" data-name="Path 1253772" d="M160,16h29.287V37.965H160Z" transform="translate(-138.035 -16)" fill="#ffeb99"/>
        <path id="Path_1253773" data-name="Path 1253773" d="M192,40h19.525v6.1H192Z" transform="translate(-165.153 -36.339)" fill="#ff9811"/>
        <path id="Path_1253774" data-name="Path 1253774" d="M304,376h19.525v18.3H304Z" transform="translate(-260.069 -321.087)" fill="#ffeb99"/>
        <path id="Path_1253775" data-name="Path 1253775" d="M328,400h12.2v3.661H328Z" transform="translate(-280.408 -341.426)" fill="#ff9811"/>
        <path id="Path_1253776" data-name="Path 1253776" d="M80,376H99.525v18.3H80Z" transform="translate(-70.238 -321.087)" fill="#ffeb99"/>
        <path id="Path_1253777" data-name="Path 1253777" d="M104,400h12.2v3.661H104Z" transform="translate(-90.577 -341.426)" fill="#ff9811"/>
      </g>
      <g id="Group_1204730" data-name="Group 1204730" transform="translate(8.008 8)">
        <path id="Path_1253778" data-name="Path 1253778" d="M77.564,39.728a6.112,6.112,0,0,0-5.979,4.881H51.816a6.122,6.122,0,0,0-4.759-4.759V32.406H60.48a1.22,1.22,0,0,0,1.22-1.22V9.22A1.22,1.22,0,0,0,60.48,8H31.193a1.22,1.22,0,0,0-1.22,1.22V31.186a1.22,1.22,0,0,0,1.22,1.22H44.616V39.85a6.122,6.122,0,0,0-4.759,4.759H20.088a6.1,6.1,0,1,0,0,2.441H39.857a6.122,6.122,0,0,0,4.759,4.759v3.783H29.972a1.22,1.22,0,0,0-1.22,1.22v6.1H18.99a1.22,1.22,0,0,0-1.22,1.22v18.3a1.22,1.22,0,0,0,1.22,1.22H38.514a1.22,1.22,0,0,0,1.22-1.22v-18.3a1.22,1.22,0,0,0-1.22-1.22H31.193V58.032H60.48v4.881H53.158a1.22,1.22,0,0,0-1.22,1.22v18.3a1.22,1.22,0,0,0,1.22,1.22H72.683a1.22,1.22,0,0,0,1.22-1.22v-18.3a1.22,1.22,0,0,0-1.22-1.22H62.92v-6.1a1.22,1.22,0,0,0-1.22-1.22H47.056V51.809a6.122,6.122,0,0,0,4.759-4.759H71.584a6.1,6.1,0,1,0,5.979-7.322ZM14.108,49.49a3.661,3.661,0,1,1,3.661-3.661A3.661,3.661,0,0,1,14.108,49.49ZM37.294,65.354V81.218H20.21V65.354Zm34.168,0V81.218H54.378V65.354ZM32.413,29.965V10.441H59.259V29.965ZM45.836,49.49A3.661,3.661,0,1,1,49.5,45.829,3.661,3.661,0,0,1,45.836,49.49Zm31.728,0a3.661,3.661,0,1,1,3.661-3.661A3.661,3.661,0,0,1,77.564,49.49Z" transform="translate(-8.008 -8)"/>
        <path id="Path_1253779" data-name="Path 1253779" d="M185.22,98.441h19.525a1.22,1.22,0,1,0,0-2.441H185.22a1.22,1.22,0,1,0,0,2.441Z" transform="translate(-157.155 -82.577)"/>
        <path id="Path_1253780" data-name="Path 1253780" d="M198.644,121.22a1.22,1.22,0,0,0-1.22-1.22h-12.2a1.22,1.22,0,1,0,0,2.441h12.2A1.22,1.22,0,0,0,198.644,121.22Z" transform="translate(-157.155 -102.916)"/>
        <path id="Path_1253781" data-name="Path 1253781" d="M290.441,120h-1.22a1.22,1.22,0,1,0,0,2.441h1.22a1.22,1.22,0,1,0,0-2.441Z" transform="translate(-245.291 -102.916)"/>
        <path id="Path_1253782" data-name="Path 1253782" d="M185.22,40.542h19.525a1.22,1.22,0,0,0,1.22-1.22v-6.1a1.22,1.22,0,0,0-1.22-1.22H185.22A1.22,1.22,0,0,0,184,33.22v6.1A1.22,1.22,0,0,0,185.22,40.542Zm1.22-6.1h17.084V38.1H186.441Z" transform="translate(-157.155 -28.339)"/>
        <path id="Path_1253783" data-name="Path 1253783" d="M333.423,440h-12.2a1.22,1.22,0,0,0,0,2.441h12.2a1.22,1.22,0,1,0,0-2.441Z" transform="translate(-272.41 -374.104)"/>
        <path id="Path_1253784" data-name="Path 1253784" d="M327.322,464h-6.1a1.22,1.22,0,0,0,0,2.441h6.1a1.22,1.22,0,1,0,0-2.441Z" transform="translate(-272.41 -394.443)"/>
        <path id="Path_1253785" data-name="Path 1253785" d="M386.441,464h-1.22a1.22,1.22,0,1,0,0,2.441h1.22a1.22,1.22,0,0,0,0-2.441Z" transform="translate(-326.647 -394.443)"/>
        <path id="Path_1253786" data-name="Path 1253786" d="M320,393.22v3.661a1.22,1.22,0,0,0,1.22,1.22h12.2a1.22,1.22,0,0,0,1.22-1.22V393.22a1.22,1.22,0,0,0-1.22-1.22h-12.2A1.22,1.22,0,0,0,320,393.22Zm2.441,1.22H332.2v1.22h-9.762Z" transform="translate(-272.41 -333.426)"/>
        <path id="Path_1253787" data-name="Path 1253787" d="M109.423,440H97.22a1.22,1.22,0,1,0,0,2.441h12.2a1.22,1.22,0,1,0,0-2.441Z" transform="translate(-82.578 -374.104)"/>
        <path id="Path_1253788" data-name="Path 1253788" d="M103.322,464h-6.1a1.22,1.22,0,0,0,0,2.441h6.1a1.22,1.22,0,0,0,0-2.441Z" transform="translate(-82.578 -394.443)"/>
        <path id="Path_1253789" data-name="Path 1253789" d="M162.441,464h-1.22a1.22,1.22,0,0,0,0,2.441h1.22a1.22,1.22,0,1,0,0-2.441Z" transform="translate(-136.816 -394.443)"/>
        <path id="Path_1253790" data-name="Path 1253790" d="M96,393.22v3.661a1.22,1.22,0,0,0,1.22,1.22h12.2a1.22,1.22,0,0,0,1.22-1.22V393.22a1.22,1.22,0,0,0-1.22-1.22H97.22A1.22,1.22,0,0,0,96,393.22Zm2.441,1.22H108.2v1.22H98.441Z" transform="translate(-82.578 -333.426)"/>
        <path id="Path_1253791" data-name="Path 1253791" d="M50.876,96.622a1.219,1.219,0,0,0,1.536-.786A30.736,30.736,0,0,1,63.849,80.3a1.22,1.22,0,1,0-1.41-1.992A33.192,33.192,0,0,0,50.09,95.085,1.22,1.22,0,0,0,50.876,96.622Z" transform="translate(-43.62 -67.393)"/>
        <path id="Path_1253792" data-name="Path 1253792" d="M54.377,317.534a30.414,30.414,0,0,1-1.965-4.692,1.22,1.22,0,1,0-2.322.75,32.816,32.816,0,0,0,2.123,5.071,1.22,1.22,0,0,0,2.164-1.129Z" transform="translate(-43.62 -265.625)"/>
        <path id="Path_1253793" data-name="Path 1253793" d="M232.4,454.638a31.109,31.109,0,0,1-7.043,0,1.22,1.22,0,1,0-.279,2.425,33.4,33.4,0,0,0,7.6,0,1.22,1.22,0,1,0-.279-2.425Z" transform="translate(-191.053 -386.502)"/>
        <path id="Path_1253794" data-name="Path 1253794" d="M436.478,305.37a1.22,1.22,0,0,0-1.509.838,30.386,30.386,0,0,1-2.263,5.671,1.22,1.22,0,1,0,2.164,1.128,32.814,32.814,0,0,0,2.445-6.128A1.22,1.22,0,0,0,436.478,305.37Z" transform="translate(-367.807 -259.97)"/>
        <path id="Path_1253795" data-name="Path 1253795" d="M368.514,80.3a30.736,30.736,0,0,1,11.437,15.535,1.22,1.22,0,1,0,2.322-.75,33.192,33.192,0,0,0-12.349-16.777,1.22,1.22,0,0,0-1.41,1.992Z" transform="translate(-313.087 -67.393)"/>
        <path id="Path_1253796" data-name="Path 1253796" d="M321.22,224a1.22,1.22,0,0,0,0,2.441H332.2a1.22,1.22,0,1,0,0-2.441Z" transform="translate(-272.41 -191.052)"/>
        <path id="Path_1253797" data-name="Path 1253797" d="M361.22,202.441h3.661a1.22,1.22,0,0,0,0-2.441H361.22a1.22,1.22,0,0,0,0,2.441Z" transform="translate(-306.308 -170.713)"/>
      </g>
    </g>
  </g>
</svg>
