<svg xmlns="http://www.w3.org/2000/svg" xmlns:xlink="http://www.w3.org/1999/xlink" width="76.345" height="76.345" viewBox="0 0 76.345 76.345">
  <defs>
    <clipPath id="clip-path">
      <path id="path984" d="M0-682.665H50.979v50.979H0Z" transform="translate(0 682.665)"/>
    </clipPath>
  </defs>
  <g id="Group_1204742" data-name="Group 1204742" transform="translate(-919 -4351)">
    <g id="Group_1204429" data-name="Group 1204429" transform="translate(-102.967 1258.345)">
      <g id="Group_1187152" data-name="Group 1187152">
        <g id="Group_1185946" data-name="Group 1185946" transform="translate(-3.07)">
          <g id="Group_1184280" data-name="Group 1184280">
            <g id="Group_1182168" data-name="Group 1182168">
              <g id="Group_1178877" data-name="Group 1178877">
                <g id="Group_1111311" data-name="Group 1111311">
                  <g id="Group_1098742" data-name="Group 1098742" transform="translate(1025.482 3093.101)">
                    <g id="Rectangle_400898" data-name="Rectangle 400898" transform="translate(-0.445 -0.445)" fill="#c1a1f0" stroke="#866fa7" stroke-width="1" opacity="0.859">
                      <rect width="76.345" height="76.345" rx="38.172" stroke="none"/>
                      <rect x="0.5" y="0.5" width="75.345" height="75.345" rx="37.672" fill="none"/>
                    </g>
                    <g id="Rectangle_400907" data-name="Rectangle 400907" transform="translate(-0.446 -0.445)" fill="none" stroke="#866fa7" stroke-width="1">
                      <rect width="76.345" height="76.345" rx="38.172" stroke="none"/>
                      <rect x="0.5" y="0.5" width="75.345" height="75.345" rx="37.672" fill="none"/>
                    </g>
                  </g>
                </g>
              </g>
            </g>
          </g>
        </g>
      </g>
    </g>
    <g id="g978" transform="translate(932 5045.665)">
      <g id="g980" transform="translate(0 -682.665)">
        <g id="g982" clip-path="url(#clip-path)">
          <g id="g988" transform="translate(37.896 25.205)">
            <path id="path990" d="M-147.436-147.436h0a1.493,1.493,0,0,1-2.112,0l-9.786-9.786,2.112-2.112,9.786,9.786a1.493,1.493,0,0,1,0,2.112" transform="translate(159.334 159.334)" fill="#484b63"/>
          </g>
          <path id="path992" d="M41.364-555.322H10v-44.009H41.364Z" transform="translate(-9.253 605.555)" fill="#d8d5ed"/>
          <path id="path994" d="M59.307-256.233H53.333v-16.13h5.974Z" transform="translate(-49.35 303.003)" fill="#ff2c5c"/>
          <path id="path996" d="M184.64-330.259h-5.974v-22.1h5.974Z" transform="translate(-165.324 377.029)" fill="#ffd659"/>
          <path id="path998" d="M312.64-303.116h-5.974V-323.03h5.974Z" transform="translate(-283.765 349.886)" fill="#4fc6f5"/>
          <path id="path1000" d="M93.333-256.233H96.32v-16.13H93.333Z" transform="translate(-86.363 303.003)" fill="#e62753"/>
          <path id="path1002" d="M218.666-330.259h2.987v-22.1h-2.987Z" transform="translate(-202.337 377.029)" fill="#ffbd54"/>
          <path id="path1004" d="M346.666-303.116h2.987V-323.03h-2.987Z" transform="translate(-320.778 349.886)" fill="#3bb3e3"/>
          <g id="g1006" transform="translate(13.632 0.747)">
            <path id="path1008" d="M-334.879-57.456a15.832,15.832,0,0,1,0,22.389,15.831,15.831,0,0,1-22.389,0,15.832,15.832,0,0,1,0-22.389,15.832,15.832,0,0,1,22.389,0" transform="translate(361.905 62.093)" fill="#50536e"/>
          </g>
          <g id="g1010" transform="translate(16.625 3.74)">
            <path id="path1012" d="M-271.621-271.62a12.859,12.859,0,0,1-18.165,0,12.859,12.859,0,0,1,0-18.165,12.859,12.859,0,0,1,18.165,0,12.859,12.859,0,0,1,0,18.165" transform="translate(293.542 293.541)" fill="#b5fcff"/>
          </g>
          <g id="g1014" transform="translate(27.97 3.74)">
            <path id="path1016" d="M-131.046-46.536a12.828,12.828,0,0,0-10.576-3.669,12.782,12.782,0,0,1,7.589,3.669,12.859,12.859,0,0,1,0,18.165,12.782,12.782,0,0,1-7.589,3.669,12.828,12.828,0,0,0,10.576-3.669,12.859,12.859,0,0,0,0-18.165" transform="translate(141.622 50.291)" fill="#71f6fc"/>
          </g>
          <g id="g1018" transform="translate(38.806 25.92)">
            <path id="path1020" d="M-28.347,2.174a2.226,2.226,0,0,1-1.585-.656l-8.13-8.13a.747.747,0,0,1,0-1.056.747.747,0,0,1,1.056,0l8.13,8.13a.742.742,0,0,0,.528.219.742.742,0,0,0,.528-.219.748.748,0,0,0,0-1.056l-8.13-8.13a.747.747,0,0,1,0-1.056.747.747,0,0,1,1.056,0l8.131,8.131a2.244,2.244,0,0,1,0,3.168A2.226,2.226,0,0,1-28.347,2.174Z" transform="translate(38.28 10)"/>
          </g>
          <g id="g1022" transform="translate(0 5.476)">
            <path id="path1024" d="M-9.253-49.427A.747.747,0,0,1-10-50.173v-3.3a.747.747,0,0,1,.747-.747H7.488a.747.747,0,0,1,.747.747.747.747,0,0,1-.747.747H-8.506v2.556A.747.747,0,0,1-9.253-49.427Z" transform="translate(10 54.223)"/>
          </g>
          <g id="g1026" transform="translate(0 12.015)">
            <path id="path1028" d="M-397.89-440.145h-31.364a.747.747,0,0,1-.747-.747v-37.471a.747.747,0,0,1,.747-.747.747.747,0,0,1,.747.747v36.724h29.871v-1.693a.747.747,0,0,1,.747-.747.747.747,0,0,1,.747.747v2.439A.747.747,0,0,1-397.89-440.145Z" transform="translate(430.002 479.109)"/>
          </g>
          <g id="g1030" transform="translate(31.364 31.441)">
            <path id="path1032" d="M-9.253,3.88A.747.747,0,0,1-10,3.133V-9.253A.747.747,0,0,1-9.253-10a.747.747,0,0,1,.747.747V3.133A.747.747,0,0,1-9.253,3.88Z" transform="translate(10 10)"/>
          </g>
          <path id="path1034" d="M50.054-264.74H44.08a.747.747,0,0,1-.747-.747v-16.13a.747.747,0,0,1,.747-.747h5.974a.747.747,0,0,1,.747.747v16.13A.747.747,0,0,1,50.054-264.74Zm-5.227-1.494h4.481V-280.87H44.827Z" transform="translate(-40.097 312.257)"/>
          <g id="g1036" transform="translate(12.596 23.919)">
            <path id="path1038" d="M-83.279-40.842h-5.974A.747.747,0,0,1-90-41.589v-22.1a.747.747,0,0,1,.747-.747h2.508a.747.747,0,0,1,.747.747.747.747,0,0,1-.747.747h-1.761v20.611h4.481V-59.628a.747.747,0,0,1,.747-.747.747.747,0,0,1,.747.747v18.039A.747.747,0,0,1-83.279-40.842Z" transform="translate(90 64.44)"/>
          </g>
          <g id="g1040" transform="translate(22.154 30.243)">
            <path id="path1042" d="M-83.279-11.592h-5.974A.747.747,0,0,1-90-12.339V-28.12a.747.747,0,0,1,.747-.747.747.747,0,0,1,.747.747v15.034h4.481V-26.711a.747.747,0,0,1,.747-.747.747.747,0,0,1,.747.747v14.372A.747.747,0,0,1-83.279-11.592Z" transform="translate(90 28.867)"/>
          </g>
          <g id="g1044" transform="translate(4.431 9.482)">
            <path id="path1046" d="M-130.434-8.506h-9.78a.747.747,0,0,1-.747-.747.747.747,0,0,1,.747-.747h9.78a.747.747,0,0,1,.747.747A.747.747,0,0,1-130.434-8.506Z" transform="translate(140.961 10)"/>
          </g>
          <g id="g1048" transform="translate(4.431 12.801)">
            <path id="path1050" d="M-117.616-8.506h-8.745a.747.747,0,0,1-.747-.747.747.747,0,0,1,.747-.747h8.745a.747.747,0,0,1,.747.747A.747.747,0,0,1-117.616-8.506Z" transform="translate(127.108 10)"/>
          </g>
          <g id="g1052" transform="translate(4.431 16.119)">
            <path id="path1054" d="M-114.049-8.506h-8.457a.747.747,0,0,1-.747-.747.747.747,0,0,1,.747-.747h8.457a.747.747,0,0,1,.747.747A.747.747,0,0,1-114.049-8.506Z" transform="translate(123.253 10)"/>
          </g>
          <g id="g1056" transform="translate(4.431 19.439)">
            <path id="path1058" d="M-3.669-8.506H-9.253A.747.747,0,0,1-10-9.253.747.747,0,0,1-9.253-10h5.584a.747.747,0,0,1,.747.747A.747.747,0,0,1-3.669-8.506Z" transform="translate(10 10)"/>
          </g>
          <g id="g1060" transform="translate(12.893 0.008)">
            <path id="path1062" d="M-382.609-72.424a16.527,16.527,0,0,1-11.723-4.848,16.6,16.6,0,0,1,0-23.445,16.6,16.6,0,0,1,23.445,0l-.487.569-.528.528a15.114,15.114,0,0,0-21.374-.041,15.1,15.1,0,0,0,0,21.333,15.041,15.041,0,0,0,10.667,4.411,15.035,15.035,0,0,0,10.667-4.411,15.134,15.134,0,0,0,1.948-18.943.747.747,0,0,1,.214-1.034.747.747,0,0,1,1.034.214,16.633,16.633,0,0,1-2.14,20.82A16.527,16.527,0,0,1-382.609-72.424Z" transform="translate(399.179 105.565)"/>
          </g>
          <g id="g1064" transform="translate(15.879 2.993)">
            <path id="path1066" d="M-289.952-276.37a13.5,13.5,0,0,1-9.61-3.975,13.607,13.607,0,0,1,0-19.221,13.5,13.5,0,0,1,9.61-3.975,13.5,13.5,0,0,1,9.61,3.975,13.5,13.5,0,0,1,3.975,9.61,13.5,13.5,0,0,1-3.975,9.61A13.5,13.5,0,0,1-289.952-276.37Zm0-25.677a12.016,12.016,0,0,0-8.554,3.537,12.111,12.111,0,0,0,0,17.109,12.016,12.016,0,0,0,8.554,3.537A12.016,12.016,0,0,0-281.4-281.4a12.015,12.015,0,0,0,3.537-8.554,12.016,12.016,0,0,0-3.537-8.554A12.015,12.015,0,0,0-289.952-302.047Z" transform="translate(303.537 303.541)"/>
          </g>
        </g>
      </g>
    </g>
  </g>
</svg>
