<svg xmlns="http://www.w3.org/2000/svg" xmlns:xlink="http://www.w3.org/1999/xlink" width="115" height="115" viewBox="0 0 115 115">
  <defs>
    <clipPath id="clip-path">
      <rect id="Rectangle_411953" data-name="Rectangle 411953" width="115" height="115" transform="translate(800.781 1954)" fill="#e8bad8" opacity="0.41"/>
    </clipPath>
  </defs>
  <g id="Group_1204786" data-name="Group 1204786" transform="translate(-4160 3876.243)">
    <g id="Mask_Group_1099367" data-name="Mask Group 1099367" transform="translate(3359.219 -5830.243)" clip-path="url(#clip-path)">
      <g id="Group_1204506" data-name="Group 1204506" transform="translate(799.781 1960.273)">
        <g id="Group_1204493" data-name="Group 1204493" transform="translate(1)">
          <ellipse id="Ellipse_12494" data-name="Ellipse 12494" cx="28.658" cy="28.658" rx="28.658" ry="28.658" transform="translate(56.527 44.289)" fill="#ffc94a"/>
          <ellipse id="Ellipse_12495" data-name="Ellipse 12495" cx="20.842" cy="20.842" rx="20.842" ry="20.842" fill="#ffc94a"/>
        </g>
      </g>
    </g>
    <g id="Layer_x0020_1" transform="translate(4181 -3868.793)">
      <path id="Path_1254161" data-name="Path 1254161" d="M37.644,48.61H62.452v4.953a1.011,1.011,0,0,0,1.034.991.975.975,0,0,0,.991-.991V47.619a.975.975,0,0,0-.991-.991H37.644V41.934H53.709a2.5,2.5,0,0,0,2.5-2.5V36.249a1,1,0,0,0-.991-.991H53.967V15.23A3.254,3.254,0,0,0,50.737,12H22.483a3.254,3.254,0,0,0-3.23,3.23V35.258H18.047a1.011,1.011,0,0,0-1.034.991v3.187a2.537,2.537,0,0,0,2.541,2.5H35.619v4.695H9.82a1.031,1.031,0,0,0-1.077,1.034v5.9a1.012,1.012,0,0,0,2.024,0V48.61H35.619v4.953a.975.975,0,0,0,.991.991,1.011,1.011,0,0,0,1.034-.991ZM58.059,77.553a1.012,1.012,0,0,0,0,2.024H69a1.012,1.012,0,1,0,0-2.024Zm0-3.7a.991.991,0,0,0,0,1.981H69a.992.992,0,1,0,0-1.981Zm0-3.747a1.012,1.012,0,0,0,0,2.024H69A1.012,1.012,0,1,0,69,70.1Zm0-3.7a.991.991,0,1,0,0,1.981H69A.992.992,0,1,0,69,66.4Zm0-3.747a1.012,1.012,0,1,0,0,2.024H64a1.012,1.012,0,0,0,0-2.024Zm10.423-1.594v1.421H69.99Zm-2.024,2.412v-3.7h-10.9v22.7H71.5V64.5H67.492A1.048,1.048,0,0,1,66.458,63.469Zm1.723-5.427,4.953,4.652a1.047,1.047,0,0,1,.388.775V83.5a1.011,1.011,0,0,1-1.034.991H54.57a.975.975,0,0,1-.991-.991V58.732a1,1,0,0,1,.991-.991H67.449A.945.945,0,0,1,68.181,58.042ZM31.14,77.553a1.012,1.012,0,0,0,0,2.024H42.08a1.012,1.012,0,1,0,0-2.024Zm0-3.7a.991.991,0,1,0,0,1.981H42.08a.992.992,0,1,0,0-1.981Zm0-3.747a1.012,1.012,0,0,0,0,2.024H42.08a1.012,1.012,0,1,0,0-2.024Zm0-3.7a.991.991,0,1,0,0,1.981H42.08a.992.992,0,1,0,0-1.981Zm0-3.747a1.012,1.012,0,0,0,0,2.024h5.944a1.012,1.012,0,0,0,0-2.024Zm10.423-1.594v1.421h1.507Zm-2.024,2.412v-3.7h-10.9v22.7H44.578V64.5H40.572A1.048,1.048,0,0,1,39.539,63.469Zm1.723-5.427,4.953,4.652a.946.946,0,0,1,.388.818V83.5a1.011,1.011,0,0,1-1.034.991H27.651a.975.975,0,0,1-.991-.991V58.732a1,1,0,0,1,.991-.991H40.529A.945.945,0,0,1,41.262,58.042ZM4.479,77.553a1.012,1.012,0,0,0,0,2.024H15.462a1.012,1.012,0,0,0,0-2.024Zm0-3.7a.991.991,0,0,0,0,1.981H15.462a.991.991,0,0,0,0-1.981Zm0-3.747a1.012,1.012,0,0,0,0,2.024H15.462a1.012,1.012,0,0,0,0-2.024Zm0-3.7a.991.991,0,0,0,0,1.981H15.462a.991.991,0,0,0,0-1.981Zm0-3.747a1.012,1.012,0,0,0,0,2.024h5.944a1.012,1.012,0,1,0,0-2.024ZM14.9,61.057v1.421H16.41Zm-1.981,2.412v-3.7H2.024v22.7H17.917V64.5H13.912A1.011,1.011,0,0,1,12.921,63.469Zm1.68-5.427,4.953,4.652a.921.921,0,0,1,.388.775V83.5a.975.975,0,0,1-.991.991H.991A.975.975,0,0,1,0,83.5V58.732a1,1,0,0,1,.991-.991H13.912A.917.917,0,0,1,14.6,58.042ZM43.329,18.934a1.766,1.766,0,0,1,.6,1.335v5.685a8.508,8.508,0,0,1-.129,1.594,5.033,5.033,0,0,1-.689,1.507,9.482,9.482,0,0,1-2.5,2.8,12.874,12.874,0,0,1-3.532,1.938,1.006,1.006,0,0,1-.861,0,11.581,11.581,0,0,1-3.575-1.938,9.129,9.129,0,0,1-2.541-2.8,4.791,4.791,0,0,1-.646-1.507,5.964,5.964,0,0,1-.129-1.594V20.27a1.958,1.958,0,0,1,1.938-1.938A8.5,8.5,0,0,0,33.81,17.9a15.237,15.237,0,0,0,2.067-1.034c.474-.3.861-.56,1.421-.043a6.406,6.406,0,0,0,1.464.818C40.056,18.2,42.6,18.159,43.329,18.934Zm-1.421,7.021v-5.6a10.569,10.569,0,0,1-3.919-.861,5.826,5.826,0,0,1-1.378-.732A7.719,7.719,0,0,1,34.456,19.8a11.508,11.508,0,0,1-3.144.56v5.6a6.519,6.519,0,0,0,.086,1.12,7.654,7.654,0,0,0,.431.991,8.362,8.362,0,0,0,2.024,2.24,12.565,12.565,0,0,0,2.757,1.507A10.834,10.834,0,0,0,39.367,30.3a7.68,7.68,0,0,0,2.024-2.24,2.959,2.959,0,0,0,.431-.991A3.887,3.887,0,0,0,41.908,25.955Zm-7.236-1.507a1.005,1.005,0,1,0-1.421,1.421l1.809,1.809a1.014,1.014,0,0,0,1.421,0l3.532-3.489a1.005,1.005,0,0,0-1.421-1.421l-2.8,2.8Zm-1.809,11.8a1.011,1.011,0,0,0-1.034-.991H21.277V15.23a1.242,1.242,0,0,1,1.206-1.249H50.737a1.25,1.25,0,0,1,1.249,1.249V35.258h-10.6a1.011,1.011,0,0,0-1.034.991v.258H32.863Zm-2.024.991V37.5a1.011,1.011,0,0,0,1.034.991h9.519a.975.975,0,0,0,.991-.991v-.258h11.8v2.2a.478.478,0,0,1-.474.474H19.554a.489.489,0,0,1-.517-.474v-2.2h11.8Z"/>
      <g id="Group_1204785" data-name="Group 1204785" transform="translate(2.024 59.765)">
        <path id="Path_1254162" data-name="Path 1254162" d="M62.893,1143.7v-17.96H58.887a1.011,1.011,0,0,1-.991-1.034V1121H47v22.7Zm-13.438-8.614H60.438a.991.991,0,0,1,0,1.981H49.455a.991.991,0,0,1,0-1.981Zm-.991,4.738a1.011,1.011,0,0,1,.991-1.034H60.438a1.012,1.012,0,0,1,0,2.024H49.455A1,1,0,0,1,48.464,1139.822Zm11.974-6.461H49.455a1.012,1.012,0,0,1,0-2.024H60.438a1.012,1.012,0,0,1,0,2.024Zm0-3.747H49.455a.991.991,0,1,1,0-1.981H60.438a.991.991,0,1,1,0,1.981Zm-5.039-3.7H49.455a1.012,1.012,0,0,1,0-2.024H55.4a1.012,1.012,0,1,1,0,2.024Z" transform="translate(-47 -1121)" fill="#48e1ff" fill-rule="evenodd"/>
        <path id="Path_1254163" data-name="Path 1254163" d="M346,1152.421h1.507L346,1151Z" transform="translate(-333.122 -1149.708)" fill="#48e1ff" fill-rule="evenodd"/>
        <path id="Path_1254164" data-name="Path 1254164" d="M665,1121v22.7h15.936v-17.96h-4.006a1.048,1.048,0,0,1-1.034-1.034V1121Zm1.508,3.919a1.011,1.011,0,0,1,.991-1.034h5.944a1.012,1.012,0,0,1,0,2.024H667.5A1,1,0,0,1,666.508,1124.919Zm0,3.7a.975.975,0,0,1,.991-.991h10.94a.991.991,0,1,1,0,1.981H667.5A.975.975,0,0,1,666.508,1128.624Zm0,3.747a1.011,1.011,0,0,1,.991-1.034h10.94a1.012,1.012,0,1,1,0,2.024H667.5A1,1,0,0,1,666.508,1132.371Zm0,3.7a.975.975,0,0,1,.991-.991h10.94a.992.992,0,1,1,0,1.981H667.5A.975.975,0,0,1,666.508,1136.075Zm0,3.747a1.011,1.011,0,0,1,.991-1.034h10.94a1.012,1.012,0,1,1,0,2.024H667.5A1,1,0,0,1,666.508,1139.822Z" transform="translate(-638.382 -1121)" fill="#48e1ff" fill-rule="evenodd"/>
        <path id="Path_1254165" data-name="Path 1254165" d="M965,1151v1.421h1.507Z" transform="translate(-925.461 -1149.708)" fill="#48e1ff" fill-rule="evenodd"/>
        <path id="Path_1254166" data-name="Path 1254166" d="M1290,1121v22.7h15.936v-17.96h-4.005a1.048,1.048,0,0,1-1.034-1.034V1121Zm2.5,2.886h5.944a1.012,1.012,0,0,1,0,2.024H1292.5a1.012,1.012,0,1,1,0-2.024Zm0,3.747h10.94a.991.991,0,1,1,0,1.981H1292.5a.991.991,0,1,1,0-1.981Zm0,3.7h10.94a1.012,1.012,0,1,1,0,2.024H1292.5a1.012,1.012,0,0,1,0-2.024Zm0,3.747h10.94a.992.992,0,1,1,0,1.981H1292.5a.991.991,0,0,1,0-1.981Zm-.991,4.738a1.011,1.011,0,0,1,.991-1.034h10.94a1.012,1.012,0,1,1,0,2.024H1292.5A1,1,0,0,1,1291.508,1139.822Z" transform="translate(-1236.463 -1121)" fill="#48e1ff" fill-rule="evenodd"/>
        <path id="Path_1254167" data-name="Path 1254167" d="M1590,1151v1.421h1.507Z" transform="translate(-1523.542 -1149.708)" fill="#48e1ff" fill-rule="evenodd"/>
      </g>
      <path id="Path_1254168" data-name="Path 1254168" d="M442.517,600.67h34.155a.478.478,0,0,0,.474-.474V598h-11.8v.258a.975.975,0,0,1-.991.991h-9.519a1.012,1.012,0,0,1-1.034-.991V598H442v2.2A.489.489,0,0,0,442.517,600.67Z" transform="translate(-422.963 -560.761)" fill="#999" fill-rule="evenodd"/>
      <path id="Path_1254169" data-name="Path 1254169" d="M505.586,80.526h7.494v-.258a1.011,1.011,0,0,1,1.034-.991h10.6V59.249A1.25,1.25,0,0,0,523.46,58H495.206A1.242,1.242,0,0,0,494,59.249V79.277h10.552a1.012,1.012,0,0,1,1.034.991Zm11.069-16.238v5.685a8.51,8.51,0,0,1-.129,1.594,5.035,5.035,0,0,1-.689,1.507,9.481,9.481,0,0,1-2.5,2.8,12.874,12.874,0,0,1-3.532,1.938,1.006,1.006,0,0,1-.861,0,11.582,11.582,0,0,1-3.575-1.938,9.129,9.129,0,0,1-2.541-2.8,4.791,4.791,0,0,1-.646-1.507,5.964,5.964,0,0,1-.129-1.594V64.288a1.958,1.958,0,0,1,1.938-1.938,8.5,8.5,0,0,0,2.541-.431,15.237,15.237,0,0,0,2.067-1.034c.474-.3.861-.56,1.421-.043a6.4,6.4,0,0,0,1.464.818c1.292.56,3.833.517,4.566,1.292A1.766,1.766,0,0,1,516.655,64.288Z" transform="translate(-472.723 -44.019)" fill="#f3f3f3" fill-rule="evenodd"/>
      <path id="Path_1254170" data-name="Path 1254170" d="M732.3,182.05a10.834,10.834,0,0,0,2.757-1.507,7.679,7.679,0,0,0,2.024-2.24,2.958,2.958,0,0,0,.431-.991,3.885,3.885,0,0,0,.086-1.12v-5.6a10.569,10.569,0,0,1-3.919-.861A5.827,5.827,0,0,1,732.3,169a7.719,7.719,0,0,1-2.154,1.034,11.508,11.508,0,0,1-3.144.56v5.6a6.516,6.516,0,0,0,.086,1.12,7.645,7.645,0,0,0,.431.991,8.362,8.362,0,0,0,2.024,2.24A12.565,12.565,0,0,0,732.3,182.05Zm3.4-7.624-3.532,3.489a1.014,1.014,0,0,1-1.421,0l-1.809-1.809a1.005,1.005,0,1,1,1.421-1.421l1.12,1.12,2.8-2.8a1.005,1.005,0,0,1,1.421,1.421Z" transform="translate(-695.688 -150.238)" fill="#f69e07" fill-rule="evenodd"/>
    </g>
  </g>
</svg>
