<svg xmlns="http://www.w3.org/2000/svg" width="76.345" height="76.344" viewBox="0 0 76.345 76.344">
  <g id="Group_1204894" data-name="Group 1204894" transform="translate(-289.051 -1339)">
    <g id="Group_1204701" data-name="Group 1204701" transform="translate(0)">
      <g id="Group_1200255" data-name="Group 1200255" transform="translate(-732.916 -1753.655)">
        <g id="Group_1187152" data-name="Group 1187152">
          <g id="Group_1185946" data-name="Group 1185946" transform="translate(-3.07)">
            <g id="Group_1184280" data-name="Group 1184280">
              <g id="Group_1182168" data-name="Group 1182168">
                <g id="Group_1178877" data-name="Group 1178877">
                  <g id="Group_1111311" data-name="Group 1111311">
                    <g id="Group_1098742" data-name="Group 1098742" transform="translate(1025.482 3093.101)">
                      <rect id="Rectangle_400898" data-name="Rectangle 400898" width="76.345" height="76.345" rx="38.172" transform="translate(-0.445 -0.445)" fill="#c1a1f0" opacity="0.859"/>
                      <rect id="Rectangle_400907" data-name="Rectangle 400907" width="76.345" height="76.345" rx="38.172" transform="translate(-0.446 -0.445)" fill="none"/>
                    </g>
                  </g>
                </g>
              </g>
            </g>
          </g>
        </g>
      </g>
    </g>
    <g id="archivo-de-base-de-datos" transform="translate(304.038 1354)">
      <g id="Group_1204893" data-name="Group 1204893" transform="translate(0.775 0.725)">
        <g id="Group_1204886" data-name="Group 1204886" transform="translate(0 8.454)">
          <path id="Path_1254622" data-name="Path 1254622" d="M27.255,104.294c0-1.681-4.216-3.044-9.417-3.044s-9.417,1.363-9.417,3.044v22.025c0,3.988,18.833,3.988,18.833,0V104.294Z" transform="translate(-8.421 -101.25)" fill="#ffe177" fill-rule="evenodd"/>
          <path id="Path_1254623" data-name="Path 1254623" d="M121.7,104.294c0-1.681-4.216-3.044-9.417-3.044v28.06c4.708,0,9.417-1,9.417-2.991Z" transform="translate(-102.869 -101.25)" fill="#ffd064" fill-rule="evenodd"/>
          <path id="Path_1254624" data-name="Path 1254624" d="M27.255,134.829v5.506c0,3.988-18.833,3.988-18.833,0v-5.506C8.422,138.817,27.255,138.817,27.255,134.829Z" transform="translate(-8.422 -131.785)" fill="#ffd064" fill-rule="evenodd"/>
          <path id="Path_1254625" data-name="Path 1254625" d="M121.7,134.829v5.506c0,1.994-4.708,2.991-9.417,2.991V137.82C116.994,137.82,121.7,136.823,121.7,134.829Z" transform="translate(-102.869 -131.785)" fill="#ffc344" fill-rule="evenodd"/>
          <path id="Path_1254626" data-name="Path 1254626" d="M27.255,256.291V261.8c0,3.988-18.833,3.988-18.833,0v-5.506C8.422,260.279,27.255,260.279,27.255,256.291Z" transform="translate(-8.422 -242.234)" fill="#ffd064" fill-rule="evenodd"/>
          <path id="Path_1254627" data-name="Path 1254627" d="M121.7,256.291V261.8c0,1.994-4.708,2.991-9.417,2.991v-5.506C116.994,259.282,121.7,258.285,121.7,256.291Z" transform="translate(-102.869 -242.234)" fill="#ffc344" fill-rule="evenodd"/>
        </g>
        <g id="Group_1204888" data-name="Group 1204888" transform="translate(31.361)">
          <path id="Path_1254628" data-name="Path 1254628" d="M355.5,8h3.432a1.3,1.3,0,0,1,1.153.665l1.506,2.6h5.1a1.175,1.175,0,0,1,1.173,1.172v5.766a1.175,1.175,0,0,1-1.173,1.173H355.5a1.175,1.175,0,0,1-1.172-1.173V9.173A1.175,1.175,0,0,1,355.5,8Z" transform="translate(-354.33 -8)" fill="#ffe177" fill-rule="evenodd"/>
          <g id="Group_1204887" data-name="Group 1204887" transform="translate(0 0)">
            <path id="Path_1254629" data-name="Path 1254629" d="M480.067,44.058h.4a1.175,1.175,0,0,1,1.173,1.173V51a1.175,1.175,0,0,1-1.173,1.173h-1.014a1.174,1.174,0,0,0,.61-1.028V44.074C480.067,44.069,480.067,44.063,480.067,44.058Z" transform="translate(-468.113 -40.789)" fill="#ffd064" fill-rule="evenodd"/>
            <path id="Path_1254630" data-name="Path 1254630" d="M361.594,11.269l-1.506-2.6A1.3,1.3,0,0,0,358.935,8H355.5a1.175,1.175,0,0,0-1.172,1.173v2.1Z" transform="translate(-354.331 -8)" fill="#ffd064" fill-rule="evenodd"/>
          </g>
        </g>
        <g id="Group_1204890" data-name="Group 1204890" transform="translate(31.361 33.589)">
          <path id="Path_1254631" data-name="Path 1254631" d="M355.5,378.476h3.432a1.3,1.3,0,0,1,1.153.665l1.506,2.6h5.1a1.175,1.175,0,0,1,1.173,1.173v5.766a1.175,1.175,0,0,1-1.173,1.172H355.5a1.175,1.175,0,0,1-1.172-1.172v-9.035A1.175,1.175,0,0,1,355.5,378.476Z" transform="translate(-354.33 -378.476)" fill="#ffe177" fill-rule="evenodd"/>
          <g id="Group_1204889" data-name="Group 1204889" transform="translate(0)">
            <path id="Path_1254632" data-name="Path 1254632" d="M480.067,414.534h.4a1.175,1.175,0,0,1,1.173,1.173v5.766a1.175,1.175,0,0,1-1.173,1.173h-1.014a1.175,1.175,0,0,0,.61-1.028V414.55C480.067,414.545,480.067,414.539,480.067,414.534Z" transform="translate(-468.113 -411.265)" fill="#ffd064" fill-rule="evenodd"/>
            <path id="Path_1254633" data-name="Path 1254633" d="M361.594,381.745l-1.506-2.6a1.3,1.3,0,0,0-1.153-.665H355.5a1.175,1.175,0,0,0-1.172,1.173v2.1Z" transform="translate(-354.331 -378.476)" fill="#ffd064" fill-rule="evenodd"/>
          </g>
        </g>
        <g id="Group_1204892" data-name="Group 1204892" transform="translate(31.361 16.794)">
          <path id="Path_1254634" data-name="Path 1254634" d="M355.5,193.237h3.432a1.3,1.3,0,0,1,1.153.665l1.506,2.6h5.1a1.175,1.175,0,0,1,1.173,1.172v5.766a1.175,1.175,0,0,1-1.173,1.172H355.5a1.175,1.175,0,0,1-1.172-1.172V194.41A1.175,1.175,0,0,1,355.5,193.237Z" transform="translate(-354.33 -193.237)" fill="#ffe177" fill-rule="evenodd"/>
          <g id="Group_1204891" data-name="Group 1204891" transform="translate(0 0)">
            <path id="Path_1254635" data-name="Path 1254635" d="M480.067,229.3h.4a1.175,1.175,0,0,1,1.173,1.173v5.766a1.175,1.175,0,0,1-1.173,1.172h-1.014a1.174,1.174,0,0,0,.61-1.028v-7.068C480.067,229.307,480.067,229.3,480.067,229.3Z" transform="translate(-468.113 -226.027)" fill="#ffd064" fill-rule="evenodd"/>
            <path id="Path_1254636" data-name="Path 1254636" d="M361.594,196.507l-1.506-2.6a1.3,1.3,0,0,0-1.153-.665H355.5a1.175,1.175,0,0,0-1.172,1.173v2.1Z" transform="translate(-354.331 -193.238)" fill="#ffd064" fill-rule="evenodd"/>
          </g>
        </g>
      </g>
      <path id="Path_1254637" data-name="Path 1254637" d="M19,17.686V14.264a8.555,8.555,0,0,1-2.04.831c-.488.137-1.022.257-1.591.36a26.6,26.6,0,0,1-5.133.475,26.649,26.649,0,0,1-5.137-.475c-.569-.1-1.1-.223-1.587-.36a8.52,8.52,0,0,1-2.045-.831v3.422c0,.539.932,1.139,2.438,1.564a24.8,24.8,0,0,0,6.33.726,24.767,24.767,0,0,0,6.326-.726C18.063,18.824,19,18.225,19,17.686Zm0,5.55c0,.54-.932,1.14-2.438,1.564a24.768,24.768,0,0,1-6.326.726A24.8,24.8,0,0,1,3.9,24.8c-1.506-.424-2.438-1.024-2.438-1.564V19.814a8.448,8.448,0,0,0,2.045.83,25.858,25.858,0,0,0,6.724.782,25.906,25.906,0,0,0,6.724-.782,8.484,8.484,0,0,0,2.04-.83v3.422Zm0,5.551V25.366a8.555,8.555,0,0,1-2.04.83,25.909,25.909,0,0,1-6.724.781A25.862,25.862,0,0,1,3.507,26.2a8.52,8.52,0,0,1-2.045-.83v3.421c0,.54.932,1.139,2.438,1.563a24.755,24.755,0,0,0,6.33.727,24.768,24.768,0,0,0,6.326-.726C18.063,29.926,19,29.327,19,28.787Zm0,5.55c0,.54-.932,1.14-2.438,1.564a24.768,24.768,0,0,1-6.326.726A24.8,24.8,0,0,1,3.9,35.9c-1.506-.424-2.438-1.024-2.438-1.564V30.916a8.518,8.518,0,0,0,2.045.83,25.855,25.855,0,0,0,6.724.781,25.907,25.907,0,0,0,6.724-.781,8.521,8.521,0,0,0,2.04-.83v3.422ZM1.463,12.135c0-.8,3.093-2.344,8.769-2.344S19,11.339,19,12.135c0,.512-1.283,1.335-3.708,1.857a27.891,27.891,0,0,1-5.056.433,27.906,27.906,0,0,1-5.06-.433c-2.425-.521-3.708-1.345-3.708-1.857Zm18.987,0v22.2c0,1.309-1.176,2.306-3.495,2.96a25.956,25.956,0,0,1-6.724.781A25.905,25.905,0,0,1,3.508,37.3C1.189,36.643.013,35.647.013,34.338v-22.2h0c0-2.491,5.137-3.793,10.219-3.793S20.45,9.644,20.45,12.134Zm24.53,9.827a.447.447,0,0,0-.445-.447H32.9v6.213a.447.447,0,0,0,.445.447h11.19a.447.447,0,0,0,.445-.447ZM32.9,18.692v1.372H38.18L37.3,18.548a.573.573,0,0,0-.522-.3H33.346a.447.447,0,0,0-.445.447Zm13.529,3.269v5.766a1.9,1.9,0,0,1-1.895,1.9H33.346a1.9,1.9,0,0,1-1.895-1.9V18.692a1.9,1.9,0,0,1,1.895-1.9h3.435a2.039,2.039,0,0,1,1.779,1.027l1.3,2.242h4.679a1.9,1.9,0,0,1,1.895,1.9ZM44.981,5.167a.447.447,0,0,0-.445-.447H32.9v6.213a.447.447,0,0,0,.445.447h11.19a.447.447,0,0,0,.445-.447ZM32.9,1.9V3.269H38.18L37.3,1.753a.573.573,0,0,0-.522-.3H33.346A.447.447,0,0,0,32.9,1.9ZM46.431,5.167v5.766a1.9,1.9,0,0,1-1.895,1.9H33.346a1.9,1.9,0,0,1-1.895-1.9V1.9A1.9,1.9,0,0,1,33.346,0h3.435A2.038,2.038,0,0,1,38.56,1.027l1.3,2.242h4.679a1.9,1.9,0,0,1,1.895,1.9Zm-1.45,33.589a.447.447,0,0,0-.445-.447H32.9v6.213a.447.447,0,0,0,.445.447h11.19a.447.447,0,0,0,.445-.447ZM32.9,35.487v1.372H38.18L37.3,35.342a.571.571,0,0,0-.522-.3H33.346a.447.447,0,0,0-.445.447Zm13.529,3.269v5.766a1.9,1.9,0,0,1-1.895,1.9H33.346a1.9,1.9,0,0,1-1.895-1.9V35.487a1.9,1.9,0,0,1,1.895-1.9h3.435a2.037,2.037,0,0,1,1.779,1.027l1.3,2.242h4.679a1.9,1.9,0,0,1,1.895,1.9ZM26.592,7.141V22.485h2.2a.725.725,0,1,1,0,1.451h-2.2V39.279h2.2a.725.725,0,1,1,0,1.451H25.865A.725.725,0,0,1,25.142,40V23.935H23.106a.725.725,0,1,1,0-1.451h2.036V6.415a.725.725,0,0,1,.723-.725h2.926a.725.725,0,1,1,0,1.451Z" transform="translate(0 0)" fill-rule="evenodd"/>
    </g>
  </g>
</svg>
