<svg xmlns="http://www.w3.org/2000/svg" width="76.345" height="76.345" viewBox="0 0 76.345 76.345">
  <g id="Group_1204743" data-name="Group 1204743" transform="translate(-1234 -4350.655)">
    <g id="Group_1204430" data-name="Group 1204430" transform="translate(212.033 1258)">
      <g id="Group_1187152" data-name="Group 1187152">
        <g id="Group_1185946" data-name="Group 1185946" transform="translate(-3.07)">
          <g id="Group_1184280" data-name="Group 1184280">
            <g id="Group_1182168" data-name="Group 1182168">
              <g id="Group_1178877" data-name="Group 1178877">
                <g id="Group_1111311" data-name="Group 1111311">
                  <g id="Group_1098742" data-name="Group 1098742" transform="translate(1025.482 3093.101)">
                    <g id="Rectangle_400898" data-name="Rectangle 400898" transform="translate(-0.445 -0.445)" fill="#c1a1f0" stroke="#866fa7" stroke-width="1" opacity="0.859">
                      <rect width="76.345" height="76.345" rx="38.172" stroke="none"/>
                      <rect x="0.5" y="0.5" width="75.345" height="75.345" rx="37.672" fill="none"/>
                    </g>
                    <g id="Rectangle_400907" data-name="Rectangle 400907" transform="translate(-0.446 -0.445)" fill="none" stroke="#866fa7" stroke-width="1">
                      <rect width="76.345" height="76.345" rx="38.172" stroke="none"/>
                      <rect x="0.5" y="0.5" width="75.345" height="75.345" rx="37.672" fill="none"/>
                    </g>
                  </g>
                </g>
              </g>
            </g>
          </g>
        </g>
      </g>
    </g>
    <g id="_12._Verification" data-name="12. Verification" transform="translate(1247.16 4341.753)">
      <rect id="Rectangle_412085" data-name="Rectangle 412085" width="30.687" height="40.378" rx="3" transform="translate(0.808 24.808)" fill="#c1d1f7"/>
      <path id="Path_1254018" data-name="Path 1254018" d="M37.072,393.615H9.615A1.615,1.615,0,0,1,8,392v2.423a1.615,1.615,0,0,0,1.615,1.615H37.072a1.615,1.615,0,0,0,1.615-1.615V392A1.615,1.615,0,0,1,37.072,393.615Z" transform="translate(-7.192 -330.853)" fill="#adbeee"/>
      <path id="Path_1254019" data-name="Path 1254019" d="M29.879,65.993h-21a.808.808,0,1,1,0-1.615h21a.808.808,0,0,0,.808-.808V26.423a.808.808,0,0,0-.808-.808H2.423a.808.808,0,0,0-.808.808V63.57a.808.808,0,0,0,.808.808h3.23a.808.808,0,1,1,0,1.615H2.423A2.423,2.423,0,0,1,0,63.57V26.423A2.423,2.423,0,0,1,2.423,24H29.879A2.423,2.423,0,0,1,32.3,26.423V63.57A2.423,2.423,0,0,1,29.879,65.993Z"/>
      <path id="Path_1254020" data-name="Path 1254020" d="M118.687,88.076v30.687a1.615,1.615,0,0,1-1.615,1.615H89.615A1.615,1.615,0,0,1,88,118.763V81.615A1.615,1.615,0,0,1,89.615,80h21Z" transform="translate(-79.117 -50.347)" fill="#eaf2ff"/>
      <path id="Path_1254021" data-name="Path 1254021" d="M117.072,441.615H89.615A1.615,1.615,0,0,1,88,440v2.423a1.615,1.615,0,0,0,1.615,1.615h27.457a1.615,1.615,0,0,0,1.615-1.615V440A1.615,1.615,0,0,1,117.072,441.615Z" transform="translate(-79.117 -374.007)" fill="#c1d1f7"/>
      <path id="Path_1254022" data-name="Path 1254022" d="M109.879,113.993H82.423A2.423,2.423,0,0,1,80,111.57V74.423A2.423,2.423,0,0,1,82.423,72h21a.808.808,0,0,1,.571.236l8.076,8.076a.807.807,0,0,1,.236.571v3.23a.808.808,0,0,1-1.615,0v-2.9l-7.6-7.6H82.423a.808.808,0,0,0-.808.808V111.57a.808.808,0,0,0,.808.808h27.457a.808.808,0,0,0,.808-.808V88.959a.808.808,0,1,1,1.615,0V111.57A2.423,2.423,0,0,1,109.879,113.993Z" transform="translate(-71.924 -43.155)"/>
      <path id="Path_1254023" data-name="Path 1254023" d="M312.883,81.685h-6.46A2.423,2.423,0,0,1,304,79.262V72.8a.808.808,0,0,1,1.379-.571l8.076,8.076a.808.808,0,0,1-.571,1.379Zm-7.268-6.934v4.511a.808.808,0,0,0,.808.808h4.511Z" transform="translate(-273.313 -43.149)"/>
      <path id="Path_1254024" data-name="Path 1254024" d="M320.076,88.076h-6.46A1.615,1.615,0,0,1,312,86.46V80Z" transform="translate(-280.505 -50.347)" fill="#c1d1f7"/>
      <path id="Path_1254025" data-name="Path 1254025" d="M312.883,81.685h-6.46A2.423,2.423,0,0,1,304,79.262V72.8a.808.808,0,0,1,1.379-.571l8.076,8.076a.808.808,0,0,1-.571,1.379Zm-7.268-6.934v4.511a.808.808,0,0,0,.808.808h4.511Z" transform="translate(-273.313 -43.149)"/>
      <path id="Path_1254026" data-name="Path 1254026" d="M136,128h12.921v3.23H136Z" transform="translate(-122.272 -93.502)" fill="#e38343"/>
      <path id="Path_1254027" data-name="Path 1254027" d="M141.728,124.845H128.808a.808.808,0,0,1-.808-.808v-3.23a.808.808,0,0,1,.808-.808h12.921a.808.808,0,0,1,.808.808v3.23A.808.808,0,0,1,141.728,124.845Zm-12.113-1.615h11.306v-1.615H129.615Z" transform="translate(-115.079 -86.309)"/>
      <path id="Path_1254028" data-name="Path 1254028" d="M136,200h4.845v4.845H136Z" transform="translate(-122.272 -158.234)" fill="#b1da7a"/>
      <path id="Path_1254029" data-name="Path 1254029" d="M133.653,198.46h-4.845a.808.808,0,0,1-.808-.808v-4.845a.808.808,0,0,1,.808-.808h4.845a.808.808,0,0,1,.808.808v4.845A.808.808,0,0,1,133.653,198.46Zm-4.038-1.615h3.23v-3.23h-3.23Z" transform="translate(-115.079 -151.041)"/>
      <path id="Path_1254030" data-name="Path 1254030" d="M218.5,193.615h-9.691a.808.808,0,1,1,0-1.615H218.5a.808.808,0,1,1,0,1.615Z" transform="translate(-187.004 -151.041)"/>
      <path id="Path_1254031" data-name="Path 1254031" d="M218.5,225.615h-9.691a.808.808,0,0,1,0-1.615H218.5a.808.808,0,1,1,0,1.615Z" transform="translate(-187.004 -179.811)"/>
      <path id="Path_1254032" data-name="Path 1254032" d="M136,288h4.845v4.845H136Z" transform="translate(-122.272 -237.351)" fill="#b1da7a"/>
      <path id="Path_1254033" data-name="Path 1254033" d="M133.653,286.46h-4.845a.808.808,0,0,1-.808-.808v-4.845a.808.808,0,0,1,.808-.808h4.845a.808.808,0,0,1,.808.808v4.845A.808.808,0,0,1,133.653,286.46Zm-4.038-1.615h3.23v-3.23h-3.23Z" transform="translate(-115.079 -230.158)"/>
      <path id="Path_1254034" data-name="Path 1254034" d="M218.5,281.615h-9.691a.808.808,0,1,1,0-1.615H218.5a.808.808,0,1,1,0,1.615Z" transform="translate(-187.004 -230.158)"/>
      <path id="Path_1254035" data-name="Path 1254035" d="M218.5,313.615h-9.691a.808.808,0,1,1,0-1.615H218.5a.808.808,0,1,1,0,1.615Z" transform="translate(-187.004 -258.928)"/>
      <path id="Path_1254036" data-name="Path 1254036" d="M136,376h4.845v4.845H136Z" transform="translate(-122.272 -316.468)" fill="#b1da7a"/>
      <path id="Path_1254037" data-name="Path 1254037" d="M133.653,374.46h-4.845a.808.808,0,0,1-.808-.808v-4.845a.808.808,0,0,1,.808-.808h4.845a.808.808,0,0,1,.808.808v4.845A.808.808,0,0,1,133.653,374.46Zm-4.038-1.615h3.23v-3.23h-3.23Z" transform="translate(-115.079 -309.275)"/>
      <path id="Path_1254038" data-name="Path 1254038" d="M218.5,369.615h-9.691a.808.808,0,1,1,0-1.615H218.5a.808.808,0,1,1,0,1.615Z" transform="translate(-187.004 -309.275)"/>
      <path id="Path_1254039" data-name="Path 1254039" d="M218.5,401.615h-9.691a.808.808,0,1,1,0-1.615H218.5a.808.808,0,1,1,0,1.615Z" transform="translate(-187.004 -338.045)"/>
      <path id="Path_1254040" data-name="Path 1254040" d="M395.23,368,392,371.23l7.406,7.406a2.284,2.284,0,1,0,3.23-3.23Z" transform="translate(-352.43 -309.275)" fill="#e38343"/>
      <path id="Path_1254041" data-name="Path 1254041" d="M401.021,391.406,393.615,384,392,385.615l7.406,7.406A2.286,2.286,0,0,0,403.228,392,2.286,2.286,0,0,1,401.021,391.406Z" transform="translate(-352.43 -323.66)" fill="#df6117"/>
      <path id="Path_1254042" data-name="Path 1254042" d="M393.823,372.888a3.071,3.071,0,0,1-2.185-.908l-7.407-7.406a.808.808,0,0,1,0-1.143l3.23-3.23a.808.808,0,0,1,1.143,0l7.4,7.41a3.091,3.091,0,0,1-2.183,5.277Zm-7.88-8.883,6.833,6.836a1.479,1.479,0,0,0,2.092-2.092l-6.836-6.833Z" transform="translate(-345.232 -302.05)"/>
      <circle id="Ellipse_12603" data-name="Ellipse 12603" cx="10.498" cy="10.498" r="10.498" transform="translate(24.227 43.381)" fill="#596060"/>
      <path id="Path_1254043" data-name="Path 1254043" d="M250.5,317.283A10.5,10.5,0,0,1,240.067,308a10.5,10.5,0,1,0,20.857,0A10.5,10.5,0,0,1,250.5,317.283Z" transform="translate(-215.771 -255.328)" fill="#4c5657"/>
      <path id="Path_1254044" data-name="Path 1254044" d="M243.306,230.611a11.306,11.306,0,1,1,11.306-11.306A11.306,11.306,0,0,1,243.306,230.611Zm0-21A9.691,9.691,0,1,0,253,219.306,9.691,9.691,0,0,0,243.306,209.615Z" transform="translate(-208.581 -165.426)"/>
      <circle id="Ellipse_12604" data-name="Ellipse 12604" cx="7.268" cy="7.268" r="7.268" transform="translate(27.457 46.611)" fill="#b1da7a"/>
      <path id="Path_1254045" data-name="Path 1254045" d="M279.267,250.466a7.268,7.268,0,0,1,7.167,6.057,7.268,7.268,0,1,0-14.334,0A7.268,7.268,0,0,1,279.267,250.466Z" transform="translate(-244.542 -201.432)" fill="#96bf5b"/>
      <path id="Path_1254046" data-name="Path 1254046" d="M272.076,256.151a8.076,8.076,0,1,1,8.076-8.076A8.076,8.076,0,0,1,272.076,256.151Zm0-14.536a6.46,6.46,0,1,0,6.46,6.46A6.46,6.46,0,0,0,272.076,241.615Z" transform="translate(-237.351 -194.196)"/>
      <path id="Path_1254047" data-name="Path 1254047" d="M314.655,301.413l-2.423-2.423a.808.808,0,0,1,1.143-1.143l1.851,1.852,3.466-3.467a.808.808,0,0,1,1.143,1.143l-4.038,4.038a.808.808,0,0,1-1.143,0Z" transform="translate(-280.501 -244.539)"/>
    </g>
  </g>
</svg>
