<svg xmlns="http://www.w3.org/2000/svg" xmlns:xlink="http://www.w3.org/1999/xlink" width="115" height="115" viewBox="0 0 115 115">
  <defs>
    <clipPath id="clip-path">
      <rect id="Rectangle_411876" data-name="Rectangle 411876" width="115" height="115" transform="translate(800.781 1954)" fill="#e8bad8" opacity="0.41"/>
    </clipPath>
  </defs>
  <g id="Group_1204728" data-name="Group 1204728" transform="translate(-743.051 -6584)">
    <g id="Mask_Group_1099345" data-name="Mask Group 1099345" transform="translate(-57.73 4630)" clip-path="url(#clip-path)">
      <g id="Group_1204327" data-name="Group 1204327" transform="translate(799.781 1960.273)">
        <g id="Group_1204314" data-name="Group 1204314" transform="translate(1)">
          <ellipse id="Ellipse_12452" data-name="Ellipse 12452" cx="28.658" cy="28.658" rx="28.658" ry="28.658" transform="translate(56.527 44.289)" fill="#ffc94a"/>
          <ellipse id="Ellipse_12453" data-name="Ellipse 12453" cx="20.842" cy="20.842" rx="20.842" ry="20.842" fill="#ffc94a"/>
        </g>
      </g>
    </g>
    <g id="Layer_x0020_1" transform="translate(619.051 6460)">
      <path id="Path_1253752" data-name="Path 1253752" d="M202.8,167.123H186.143a.817.817,0,0,1,0-1.633H202.8A.817.817,0,0,1,202.8,167.123Zm13.02,49.51h-68a.819.819,0,0,1-.816-.816v-8.776a.819.819,0,0,1,.816-.816h2.735V166.347a.794.794,0,0,1,.816-.816H155.2V147.816a.819.819,0,0,1,.816-.816h51.592a.819.819,0,0,1,.816.816v17.714h3.837a.794.794,0,0,1,.816.816v39.878h2.735a.819.819,0,0,1,.816.816v8.776A.819.819,0,0,1,215.816,216.633ZM148.633,215H215v-7.1H192.551v3.551a.819.819,0,0,1-.816.816H171.9a.819.819,0,0,1-.816-.816V207.9H148.633Zm42.286-7.1h-18.2v2.735h18.2Zm-34.082-9.51h2.245a7.1,7.1,0,0,1,6.735-4.816h1.755l.367-1.388c-2.286-1.633-3.388-4.49-3.388-7.673-1.02-.694-1.265-2.653-1.265-3.959-2.571-.939-1.714-2.122-1.1-2.245a4.976,4.976,0,0,0,2.122-1.837.9.9,0,0,1-1.061-.163c-1.265-1.429,3.918-5.347,10-5.633a8.306,8.306,0,0,1,8.245,4.571c1.143,2.367,1.551,6.857-.571,9.02-.041.122.367,5.347-3.51,8l.367,1.306h1.714a7.2,7.2,0,0,1,6.776,4.816H206.8V158.1H156.837ZM155.2,167.163h-3.02v39.061h6.49l.041-6.2H156.02a.819.819,0,0,1-.816-.816Zm5.1,39.061h3.224v-2.49a.817.817,0,0,1,1.633,0v2.49h14.98v-2.49a.817.817,0,0,1,1.633,0v2.49H185a47.8,47.8,0,0,0-.163-6.9,5.523,5.523,0,0,0-5.347-4.122h-.98c.286.571.735,1.1.245,1.633l-3.429,3.918a.809.809,0,0,1-1.265-.082l-1.429-1.959-1.388,1.959a.809.809,0,0,1-1.265.082l-3.429-3.918c-.49-.531-.041-1.061.245-1.633h-.98a5.552,5.552,0,0,0-5.347,4.122v.082A52.99,52.99,0,0,0,160.306,206.225Zm26.327,0h24.816V167.163h-3.02V199.2a.819.819,0,0,1-.816.816h-21.02ZM206.8,156.469v-7.837H156.837v7.837Zm-45.061-1.143a2.776,2.776,0,0,1,0-5.551C165.367,149.776,165.367,155.327,161.735,155.327Zm0-3.918a1.143,1.143,0,0,0,0,2.286A1.143,1.143,0,0,0,161.735,151.408Zm8,3.918a2.776,2.776,0,1,1,0-5.551,2.776,2.776,0,0,1,0,5.551Zm0-3.918a1.144,1.144,0,0,0,0,2.286A1.144,1.144,0,0,0,169.735,151.408Zm21.714,28.9a.815.815,0,0,1-.816-.9l.327-2.939-2-2.163a.823.823,0,0,1,.449-1.347l2.9-.612,1.429-2.531a.809.809,0,0,1,1.429,0l1.429,2.531,2.9.612a.813.813,0,0,1,.449,1.347l-2,2.163.327,2.939a.792.792,0,0,1-1.143.816L194.469,179Zm-.286-6.041c1.8,1.959,1.551,1.225,1.265,3.878,2.408-1.1,1.633-1.1,4.082,0-.327-2.653-.571-1.918,1.265-3.878-2.612-.531-2-.082-3.306-2.408C193.163,174.184,193.776,173.735,191.163,174.265Zm11.959,17.184-2.776-1.225-2.449,1.143a.821.821,0,0,1-1.143-.857l.327-2.653-1.837-1.959a.823.823,0,0,1,.449-1.347l2.612-.531,1.306-2.327a.809.809,0,0,1,1.429,0l1.306,2.327,2.653.531a.8.8,0,0,1,.408,1.347l-1.8,1.959.286,2.653A.8.8,0,0,1,203.123,191.449Zm-2.776-2.939,1.8.775c-.286-2.327-.49-1.714,1.1-3.429-2.286-.449-1.755-.082-2.9-2.122-1.143,2.041-.653,1.673-2.939,2.122,1.592,1.714,1.388,1.1,1.143,3.429Zm-8.98,2.939-2.776-1.225-2.408,1.143A.849.849,0,0,1,185,190.51l.327-2.653L183.49,185.9a.823.823,0,0,1,.449-1.347l2.612-.531,1.347-2.327a.776.776,0,0,1,1.388,0l1.347,2.327,2.612.531a.828.828,0,0,1,.449,1.347l-1.837,1.959.327,2.653A.85.85,0,0,1,191.367,191.449Zm-2.776-2.939,1.8.775c-.286-2.327-.49-1.714,1.1-3.429-2.286-.449-1.755-.082-2.9-2.122-1.143,2.041-.653,1.633-2.9,2.122,1.551,1.714,1.347,1.1,1.1,3.388Zm-15.837,5.184a9.777,9.777,0,0,1-3.347-.694l-.286,1.02,3.551,2.327,3.51-2.327-.245-.939A10.028,10.028,0,0,1,172.755,193.694Zm-6.571-9.551c-.245,8.694,8,9.429,11.225,6a8.136,8.136,0,0,0,1.878-5.8c-1.143-.98-1.592-3.02-1.592-4.653a37.191,37.191,0,0,1-10.408,1.469A13.693,13.693,0,0,1,166.184,184.143Zm-1.959-4.98a11.341,11.341,0,0,0,2.245.367h.98c3.469,0,8.449-.653,10.776-1.8a.8.8,0,0,1,1.184.857,6.829,6.829,0,0,0,.653,4.2c1.714-2.531.98-10.816-6.735-10.49A13.674,13.674,0,0,0,165.571,175c.612.245,1.1.857.735,1.469a10.9,10.9,0,0,1-2.245,2.653C164.1,179.123,164.143,179.163,164.225,179.163Zm.735,1.837a5.1,5.1,0,0,0,.2,1.469,13.473,13.473,0,0,0,.449-1.388A4.07,4.07,0,0,0,164.959,181Zm11.878,14.571-3.02,1.959.939,1.347,2.408-2.694Zm-5.347,1.959-3.02-1.959-.327.612,2.367,2.694Zm10.327-29.755h-20.98a.819.819,0,0,1-.816-.816v-4.816a.819.819,0,0,1,.816-.816h20.98a.819.819,0,0,1,.816.816v4.816A.819.819,0,0,1,181.816,167.776Zm-20.163-1.633H181v-3.184H161.653Zm41.143-2.531H186.143a.817.817,0,0,1,0-1.633H202.8A.817.817,0,0,1,202.8,163.612Z" transform="translate(0 0)" fill-rule="evenodd"/>
      <path id="Path_1253753" data-name="Path 1253753" d="M482.061,1333.551l-3.429-3.918c-.49-.531-.041-1.061.245-1.633h-.98a5.552,5.552,0,0,0-5.347,4.123v.082a52.991,52.991,0,0,0-.163,6.816h3.225v-2.49a.817.817,0,0,1,1.633,0v2.49h14.98v-2.49a.817.817,0,0,1,1.633,0v2.49h3.224a47.806,47.806,0,0,0-.163-6.9,5.523,5.523,0,0,0-5.347-4.123h-.98c.286.572.735,1.1.245,1.633l-3.429,3.918a.809.809,0,0,1-1.265-.082l-1.429-1.959-1.388,1.959A.809.809,0,0,1,482.061,1333.551Z" transform="translate(-312.081 -1132.796)" fill="#1d81ce" fill-rule="evenodd"/>
      <path id="Path_1253754" data-name="Path 1253754" d="M280.49,680.061l.041-6.2h-2.694a.819.819,0,0,1-.816-.816V641H274v39.061Z" transform="translate(-121.816 -473.837)" fill="#ededff" fill-rule="evenodd"/>
      <path id="Path_1253755" data-name="Path 1253755" d="M390.245,459.286a7.1,7.1,0,0,1,6.735-4.816h1.755l.367-1.388c-2.286-1.633-3.388-4.49-3.388-7.673-1.02-.694-1.265-2.653-1.265-3.959-2.571-.939-1.714-2.122-1.1-2.245a4.975,4.975,0,0,0,2.122-1.837.9.9,0,0,1-1.061-.163c-1.265-1.429,3.918-5.347,10-5.633a8.306,8.306,0,0,1,8.245,4.571c1.143,2.367,1.551,6.857-.571,9.02-.041.122.367,5.347-3.51,8l.367,1.306h1.714a7.2,7.2,0,0,1,6.776,4.816h20.531V419H388v40.286Zm43.714-31.265H417.306a.817.817,0,0,1,0-1.633h16.653A.817.817,0,0,1,433.959,428.02Zm-14.9,14.571a.776.776,0,0,1,1.388,0l1.347,2.327,2.612.531a.828.828,0,0,1,.449,1.347l-1.837,1.959.327,2.653a.85.85,0,0,1-.816.939l-2.776-1.224-2.408,1.143a.849.849,0,0,1-1.184-.857l.327-2.653-1.837-1.959a.823.823,0,0,1,.449-1.347l2.612-.531Zm3.551-1.388a.815.815,0,0,1-.816-.9l.327-2.939-2-2.163a.823.823,0,0,1,.449-1.347l2.9-.612,1.429-2.531a.809.809,0,0,1,1.429,0l1.429,2.531,2.9.612a.813.813,0,0,1,.449,1.347l-2,2.163.327,2.939a.792.792,0,0,1-1.143.816l-2.653-1.225Zm6.449,11.061a.821.821,0,0,1-1.143-.857l.327-2.653-1.837-1.959a.823.823,0,0,1,.449-1.347l2.612-.531,1.306-2.327a.809.809,0,0,1,1.429,0l1.306,2.327,2.653.531a.8.8,0,0,1,.408,1.347l-1.8,1.959.286,2.653a.8.8,0,0,1-.776.939l-2.776-1.224ZM412.98,428.674H392a.819.819,0,0,1-.816-.816v-4.816a.819.819,0,0,1,.816-.816h20.98a.819.819,0,0,1,.816.816v4.816A.819.819,0,0,1,412.98,428.674Zm20.98-4.163H417.306a.817.817,0,0,1,0-1.633h16.653A.817.817,0,0,1,433.959,424.51Z" transform="translate(-231.163 -260.898)" fill="#ffe4af" fill-rule="evenodd"/>
      <path id="Path_1253756" data-name="Path 1253756" d="M665,1337.612l2.367,2.694.98-1.347-3.02-1.959Z" transform="translate(-496.857 -1141.428)" fill="#1d81ce" fill-rule="evenodd"/>
      <path id="Path_1253757" data-name="Path 1253757" d="M689,1275.021l3.551,2.327,3.51-2.327-.245-.939a10.026,10.026,0,0,1-3.184.612,9.775,9.775,0,0,1-3.347-.694Z" transform="translate(-519.878 -1081)" fill="#ffc06d" fill-rule="evenodd"/>
      <path id="Path_1253758" data-name="Path 1253758" d="M616.875,952.449c-.245,8.694,8,9.429,11.224,6a8.136,8.136,0,0,0,1.878-5.8c-1.143-.98-1.592-3.02-1.592-4.653a37.19,37.19,0,0,1-10.408,1.469A13.693,13.693,0,0,1,616.875,952.449Z" transform="translate(-450.691 -768.306)" fill="#ffc06d" fill-rule="evenodd"/>
      <path id="Path_1253759" data-name="Path 1253759" d="M807.02,1337l-3.02,1.959.939,1.347,2.408-2.694Z" transform="translate(-630.184 -1141.428)" fill="#1d81ce" fill-rule="evenodd"/>
      <path id="Path_1253760" data-name="Path 1253760" d="M568.388,774c3.469,0,8.449-.653,10.776-1.8a.8.8,0,0,1,1.184.857,6.828,6.828,0,0,0,.653,4.2c1.714-2.531.98-10.816-6.735-10.49a13.674,13.674,0,0,0-7.755,2.694c.612.245,1.1.857.735,1.469A10.9,10.9,0,0,1,565,773.6l.163.041a11.347,11.347,0,0,0,2.245.367Z" transform="translate(-400.939 -594.473)" fill="#a98356" fill-rule="evenodd"/>
      <path id="Path_1253761" data-name="Path 1253761" d="M587.2,981.469a13.448,13.448,0,0,0,.449-1.388A4.061,4.061,0,0,0,587,980,5.1,5.1,0,0,0,587.2,981.469Z" transform="translate(-422.041 -799)" fill="#a98356" fill-rule="evenodd"/>
      <path id="Path_1253762" data-name="Path 1253762" d="M506,541.184h19.347V538H506Z" transform="translate(-344.347 -375.041)" fill="#ff3e1a" fill-rule="evenodd"/>
      <path id="Path_1253763" data-name="Path 1253763" d="M388,194.837h49.959V187H388Zm15.673-3.918a2.776,2.776,0,1,1-2.776-2.776A2.778,2.778,0,0,1,403.674,190.918ZM392.9,188.143c3.633,0,3.633,5.551,0,5.551a2.776,2.776,0,0,1,0-5.551Z" transform="translate(-231.163 -38.367)" fill="#ffa721" fill-rule="evenodd"/>
      <path id="Path_1253764" data-name="Path 1253764" d="M481.383,257.286a1.143,1.143,0,0,0,0-2.286A1.143,1.143,0,0,0,481.383,257.286Z" transform="translate(-319.648 -103.592)" fill="#ff3e1a" fill-rule="evenodd"/>
      <path id="Path_1253765" data-name="Path 1253765" d="M678.1,255a1.144,1.144,0,0,0,0,2.286A1.144,1.144,0,0,0,678.1,255Z" transform="translate(-508.367 -103.592)" fill="#ff3e1a" fill-rule="evenodd"/>
      <g id="Group_1204727" data-name="Group 1204727" transform="translate(185.694 171.857)">
        <path id="Path_1253766" data-name="Path 1253766" d="M1232.306,756c-1.306,2.327-.694,1.878-3.306,2.408,1.8,1.959,1.551,1.224,1.265,3.878,2.408-1.1,1.633-1.1,4.082,0-.327-2.653-.571-1.918,1.265-3.878C1233,757.878,1233.612,758.327,1232.306,756Z" transform="translate(-1223.531 -756)" fill="#ffa721" fill-rule="evenodd"/>
        <path id="Path_1253767" data-name="Path 1253767" d="M1100.8,1049.122c-2.286-.449-1.755-.082-2.9-2.122-1.143,2.041-.653,1.633-2.9,2.122,1.551,1.714,1.347,1.1,1.1,3.388l1.8-.735,1.8.776C1099.408,1050.224,1099.2,1050.837,1100.8,1049.122Z" transform="translate(-1095 -1035.122)" fill="#ffa721" fill-rule="evenodd"/>
        <path id="Path_1253768" data-name="Path 1253768" d="M1382,1049.122c1.592,1.714,1.388,1.1,1.143,3.429l1.8-.776,1.8.776c-.286-2.327-.49-1.714,1.1-3.429-2.286-.449-1.755-.082-2.9-2.122C1383.8,1049.041,1384.286,1048.674,1382,1049.122Z" transform="translate(-1370.286 -1035.122)" fill="#ffa721" fill-rule="evenodd"/>
      </g>
      <path id="Path_1253769" data-name="Path 1253769" d="M1138.021,673.857H1117l.041,6.2h24.816V641h-3.02v32.041A.819.819,0,0,1,1138.021,673.857Z" transform="translate(-930.408 -473.837)" fill="#ededff" fill-rule="evenodd"/>
      <path id="Path_1253770" data-name="Path 1253770" d="M253.367,1639H230.918v3.551a.819.819,0,0,1-.816.816H210.265a.819.819,0,0,1-.816-.816V1639H187v7.1h66.367Z" transform="translate(-38.367 -1431.102)" fill="#25738b" fill-rule="evenodd"/>
      <path id="Path_1253771" data-name="Path 1253771" d="M795.2,1641.735V1639H777v2.735Z" transform="translate(-604.286 -1431.102)" fill="#e6e6e6" fill-rule="evenodd"/>
    </g>
  </g>
</svg>
