<svg xmlns="http://www.w3.org/2000/svg" width="76.345" height="76.345" viewBox="0 0 76.345 76.345">
  <g id="Group_1204741" data-name="Group 1204741" transform="translate(-289 -4350.655)">
    <g id="Group_1200255" data-name="Group 1200255" transform="translate(-732.967 1258)">
      <g id="Group_1187152" data-name="Group 1187152">
        <g id="Group_1185946" data-name="Group 1185946" transform="translate(-3.07)">
          <g id="Group_1184280" data-name="Group 1184280">
            <g id="Group_1182168" data-name="Group 1182168">
              <g id="Group_1178877" data-name="Group 1178877">
                <g id="Group_1111311" data-name="Group 1111311">
                  <g id="Group_1098742" data-name="Group 1098742" transform="translate(1025.482 3093.101)">
                    <g id="Rectangle_400898" data-name="Rectangle 400898" transform="translate(-0.445 -0.445)" fill="#c1a1f0" stroke="#866fa7" stroke-width="1" opacity="0.859">
                      <rect width="76.345" height="76.345" rx="38.172" stroke="none"/>
                      <rect x="0.5" y="0.5" width="75.345" height="75.345" rx="37.672" fill="none"/>
                    </g>
                    <g id="Rectangle_400907" data-name="Rectangle 400907" transform="translate(-0.446 -0.445)" fill="none" stroke="#866fa7" stroke-width="1">
                      <rect width="76.345" height="76.345" rx="38.172" stroke="none"/>
                      <rect x="0.5" y="0.5" width="75.345" height="75.345" rx="37.672" fill="none"/>
                    </g>
                  </g>
                </g>
              </g>
            </g>
          </g>
        </g>
      </g>
    </g>
    <g id="analizando" transform="translate(300.503 4361.03)">
      <rect id="Rectangle_412079" data-name="Rectangle 412079" width="8.022" height="18.943" transform="translate(1.253 13.969)" fill="#99e6fc"/>
      <rect id="Rectangle_412080" data-name="Rectangle 412080" width="8.025" height="22.671" transform="translate(12.683 10.24)" fill="#ffd15b"/>
      <rect id="Rectangle_412081" data-name="Rectangle 412081" width="8.025" height="32.156" transform="translate(24.117 0.756)" fill="#9be69d"/>
      <rect id="Rectangle_412082" data-name="Rectangle 412082" width="8.025" height="24.588" transform="translate(35.903 8.323)" fill="#fd4755"/>
      <rect id="Rectangle_412083" data-name="Rectangle 412083" width="2.059" height="18.943" transform="translate(7.216 13.969)" fill="#62dbfb"/>
      <rect id="Rectangle_412084" data-name="Rectangle 412084" width="2.062" height="22.671" transform="translate(18.647 10.24)" fill="#ffc344"/>
      <path id="Path_1253980" data-name="Path 1253980" d="M294.064,7.5V31.029a8.32,8.32,0,0,1,2.062-3.153V7.5Z" transform="translate(-263.984 -6.744)" fill="#6fd7a3" fill-rule="evenodd"/>
      <path id="Path_1253981" data-name="Path 1253981" d="M411.026,82.6v11.41a8.369,8.369,0,0,1,2.062,1.507V82.6Z" transform="translate(-369.16 -74.274)" fill="#e94444" fill-rule="evenodd"/>
      <path id="Trazado_1253982" data-name="Trazado 1253982" d="M9.275,151.573H1.253a.756.756,0,0,1-.756-.756v-7.35a.756.756,0,0,1,1.512,0v6.594h6.51V132.631H2.009v7.283a.756.756,0,0,1-1.512,0v-8.039a.756.756,0,0,1,.756-.756H9.275a.756.756,0,0,1,.756.756v18.943A.756.756,0,0,1,9.275,151.573Z" transform="translate(0 -117.906)"/>
      <path id="Rectángulo_412085" data-name="Rectángulo 412085" d="M-6.744-7.5H1.28a.756.756,0,0,1,.756.756V15.927a.756.756,0,0,1-.756.756H-6.744a.756.756,0,0,1-.756-.756V-6.744A.756.756,0,0,1-6.744-7.5ZM.525-5.988H-5.988v21.16H.525Z" transform="translate(19.428 16.984)"/>
      <path id="Línea_809" data-name="Línea 809" d="M-2.971-5.988H-6.744A.756.756,0,0,1-7.5-6.744.756.756,0,0,1-6.744-7.5h3.773a.756.756,0,0,1,.756.756A.756.756,0,0,1-2.971-5.988Z" transform="translate(18.783 45.188)"/>
      <path id="Línea_810" data-name="Línea 810" d="M-2.971-5.988H-6.744A.756.756,0,0,1-7.5-6.744.756.756,0,0,1-6.744-7.5h3.773a.756.756,0,0,1,.756.756A.756.756,0,0,1-2.971-5.988Z" transform="translate(18.783 48.105)"/>
      <path id="Path_1253983" data-name="Path 1253983" d="M38.005,373.557v3.659a.436.436,0,0,0,.437.436h3.671a.438.438,0,0,0,.437-.436v-3.659a.438.438,0,0,0-.437-.436H38.442a.436.436,0,0,0-.437.436Z" transform="translate(-33.728 -335.521)" fill="#6fd7a3" fill-rule="evenodd"/>
      <path id="Trazado_1253984" data-name="Trazado 1253984" d="M31.7,365.621h3.671a1.194,1.194,0,0,1,1.193,1.192v3.659a1.194,1.194,0,0,1-1.193,1.192H31.7a1.194,1.194,0,0,1-1.193-1.192v-3.659A1.194,1.194,0,0,1,31.7,365.621Zm3.353,1.512H32.017v3.02h3.034Z" transform="translate(-26.984 -328.777)"/>
      <path id="Línea_811" data-name="Línea 811" d="M-2.971-5.988H-6.744A.756.756,0,0,1-7.5-6.744.756.756,0,0,1-6.744-7.5h3.773a.756.756,0,0,1,.756.756A.756.756,0,0,1-2.971-5.988Z" transform="translate(18.783 53.895)"/>
      <path id="Línea_812" data-name="Línea 812" d="M-2.971-5.988H-6.744A.756.756,0,0,1-7.5-6.744.756.756,0,0,1-6.744-7.5h3.773a.756.756,0,0,1,.756.756A.756.756,0,0,1-2.971-5.988Z" transform="translate(18.783 56.813)"/>
      <path id="Path_1253985" data-name="Path 1253985" d="M38.005,459.97v3.659a.436.436,0,0,0,.437.436h3.671a.438.438,0,0,0,.437-.436V459.97a.438.438,0,0,0-.437-.436H38.442a.436.436,0,0,0-.437.436Z" transform="translate(-33.728 -413.226)" fill="#99e6fc" fill-rule="evenodd"/>
      <path id="Línea_813" data-name="Línea 813" d="M-2.971-5.988H-6.744A.756.756,0,0,1-7.5-6.744.756.756,0,0,1-6.744-7.5h3.773a.756.756,0,0,1,.756.756A.756.756,0,0,1-2.971-5.988Z" transform="translate(37.271 45.188)"/>
      <path id="Línea_814" data-name="Línea 814" d="M-2.971-5.988H-6.744A.756.756,0,0,1-7.5-6.744.756.756,0,0,1-6.744-7.5h3.773a.756.756,0,0,1,.756.756A.756.756,0,0,1-2.971-5.988Z" transform="translate(37.271 48.105)"/>
      <path id="Path_1253986" data-name="Path 1253986" d="M221.462,373.557v3.659a.438.438,0,0,0,.437.436h3.671a.438.438,0,0,0,.437-.436v-3.659a.438.438,0,0,0-.437-.436H221.9a.438.438,0,0,0-.437.436Z" transform="translate(-198.698 -335.521)" fill="#fd4755" fill-rule="evenodd"/>
      <path id="Línea_815" data-name="Línea 815" d="M-2.971-5.988H-6.744A.756.756,0,0,1-7.5-6.744.756.756,0,0,1-6.744-7.5h3.773a.756.756,0,0,1,.756.756A.756.756,0,0,1-2.971-5.988Z" transform="translate(37.271 53.895)"/>
      <path id="Línea_816" data-name="Línea 816" d="M-2.971-5.988H-6.744A.756.756,0,0,1-7.5-6.744.756.756,0,0,1-6.744-7.5h3.773a.756.756,0,0,1,.756.756A.756.756,0,0,1-2.971-5.988Z" transform="translate(37.271 56.813)"/>
      <path id="Path_1253987" data-name="Path 1253987" d="M221.462,459.97v3.659a.438.438,0,0,0,.437.436h3.671a.438.438,0,0,0,.437-.436V459.97a.438.438,0,0,0-.437-.436H221.9a.438.438,0,0,0-.437.436Z" transform="translate(-198.698 -413.226)" fill="#ffd15b" fill-rule="evenodd"/>
      <path id="Path_1253988" data-name="Path 1253988" d="M292.356,188.056a8.4,8.4,0,1,1-1.767,11.738,8.429,8.429,0,0,1,1.767-11.738Z" transform="translate(-259.378 -167.628)" fill="#3c87d0" fill-rule="evenodd"/>
      <path id="Path_1253989" data-name="Path 1253989" d="M431.533,356.77a2.5,2.5,0,0,0-.528,3.5L433.4,363.5a2.506,2.506,0,0,0,4.036-2.972l-2.394-3.231a2.519,2.519,0,0,0-3.508-.526Z" transform="translate(-386.686 -320.38)" fill="#d77f4a" fill-rule="evenodd"/>
      <path id="Path_1253990" data-name="Path 1253990" d="M437.333,358.309l2.394,3.231a2.511,2.511,0,0,1,.082,2.856,2.554,2.554,0,0,0,.726-.369,2.507,2.507,0,0,0,.528-3.5l-2.394-3.231a2.519,2.519,0,0,0-3.508-.526,2.545,2.545,0,0,0-.609.643,2.523,2.523,0,0,1,2.782.9Z" transform="translate(-390.314 -320.38)" fill="#c86d36" fill-rule="evenodd"/>
      <path id="Path_1253991" data-name="Path 1253991" d="M323.7,220.011a5.114,5.114,0,1,1-1.076,7.146,5.134,5.134,0,0,1,1.076-7.146Z" transform="translate(-288.766 -196.941)" fill="#99e6fc" fill-rule="evenodd"/>
      <path id="Path_1253992" data-name="Path 1253992" d="M353.435,223.487a5.092,5.092,0,0,1-2.079,4.118l-.082.061a5.1,5.1,0,0,1-2.954.939,5.133,5.133,0,0,0,5.476-.387c.14-.1.271-.212.4-.329a5.108,5.108,0,0,0-3.45-8.891,5.109,5.109,0,0,1,2.689,4.488Z" transform="translate(-312.773 -196.93)" fill="#62dbfb" fill-rule="evenodd"/>
      <path id="Path_1253993" data-name="Path 1253993" d="M355.1,189.462a8.382,8.382,0,0,1-1.006,11.1,9.025,9.025,0,0,1-.764.634,8.384,8.384,0,0,1-5.042,1.643,8.479,8.479,0,0,0,2.286.355,8.388,8.388,0,0,0,5.129-1.626.13.13,0,0,0,.02-.015,8.392,8.392,0,0,0-4.96-15.144,8.367,8.367,0,0,1,4.336,3.048Z" transform="translate(-312.747 -167.629)" fill="#4f66d0" fill-rule="evenodd"/>
      <path id="Trazado_1253994" data-name="Trazado 1253994" d="M319.99,211.511a5.913,5.913,0,0,1,4.731,2.378A5.866,5.866,0,0,1,320,223.241a5.913,5.913,0,0,1-4.731-2.378,5.866,5.866,0,0,1,4.723-9.351ZM320,221.729a4.355,4.355,0,1,0-3.516-1.766A4.347,4.347,0,0,0,320,221.729Z" transform="translate(-282.014 -190.197)"/>
      <path id="Trazado_1253995" data-name="Trazado 1253995" d="M426.27,348.783a3.28,3.28,0,0,1,2.629,1.32l2.394,3.231a3.255,3.255,0,0,1-2.62,5.191,3.285,3.285,0,0,1-2.631-1.318l-2.394-3.231a3.256,3.256,0,0,1,2.621-5.191Zm2.4,8.229a1.746,1.746,0,0,0,1.405-2.779L427.684,351a1.763,1.763,0,0,0-1.414-.707,1.746,1.746,0,0,0-1.407,2.78l2.394,3.231A1.767,1.767,0,0,0,428.673,357.013Z" transform="translate(-379.937 -313.636)"/>
      <path id="Línea_817" data-name="Línea 817" d="M-4.9-3.508a.755.755,0,0,1-.608-.306l-1.84-2.481a.756.756,0,0,1,.157-1.057.756.756,0,0,1,1.057.157L-4.3-4.714a.756.756,0,0,1-.157,1.057A.752.752,0,0,1-4.9-3.508Z" transform="translate(49.705 40.689)"/>
      <path id="Trazado_1253996" data-name="Trazado 1253996" d="M290.6,178.913a9.219,9.219,0,0,1,7.381,3.712,9.151,9.151,0,0,1-7.368,14.587,9.224,9.224,0,0,1-7.383-3.711,9.153,9.153,0,0,1,7.369-14.588Zm.014,16.787a7.634,7.634,0,0,0,6.153-12.175,7.7,7.7,0,0,0-6.167-3.1A7.634,7.634,0,0,0,284.44,192.6,7.706,7.706,0,0,0,290.609,195.7Z" transform="translate(-252.621 -160.884)"/>
      <path id="Trazado_1253997" data-name="Trazado 1253997" d="M228.145,33.667a.756.756,0,0,1-.756-.756V18.483a.756.756,0,0,1,1.512,0V32.911A.756.756,0,0,1,228.145,33.667Zm8.025-11.776a.756.756,0,0,1-.756-.756V1.512H228.9V14.929a.756.756,0,0,1-1.512,0V.756A.756.756,0,0,1,228.145,0h8.025a.756.756,0,0,1,.756.756V21.135A.756.756,0,0,1,236.17,21.891Z" transform="translate(-204.028)"/>
      <path id="Trazado_1253998" data-name="Trazado 1253998" d="M353.132,89.526a.756.756,0,0,1-.756-.756V76.61h-6.513v9.965a.756.756,0,1,1-1.512,0V75.854a.756.756,0,0,1,.756-.756h8.025a.756.756,0,0,1,.756.756V88.77A.756.756,0,0,1,353.132,89.526Z" transform="translate(-309.203 -67.53)"/>
      <path id="Trazado_1253999" data-name="Trazado 1253999" d="M31.7,452.033h3.671a1.194,1.194,0,0,1,1.193,1.192v3.659a1.194,1.194,0,0,1-1.193,1.192H31.7a1.194,1.194,0,0,1-1.193-1.192v-3.659A1.194,1.194,0,0,1,31.7,452.033Zm3.353,1.512H32.017v3.02h3.034Z" transform="translate(-26.984 -406.481)"/>
      <path id="Trazado_1254000" data-name="Trazado 1254000" d="M215.156,365.621h3.671a1.194,1.194,0,0,1,1.193,1.192v3.659a1.194,1.194,0,0,1-1.193,1.192h-3.671a1.194,1.194,0,0,1-1.193-1.192v-3.659a1.194,1.194,0,0,1,1.193-1.192Zm3.353,1.512h-3.034v3.02h3.034Z" transform="translate(-191.955 -328.777)"/>
      <path id="Trazado_1254001" data-name="Trazado 1254001" d="M215.156,452.033h3.671a1.194,1.194,0,0,1,1.193,1.192v3.659a1.194,1.194,0,0,1-1.193,1.192h-3.671a1.194,1.194,0,0,1-1.193-1.192v-3.659a1.194,1.194,0,0,1,1.193-1.192Zm3.353,1.512h-3.034v3.02h3.034Z" transform="translate(-191.955 -406.481)"/>
    </g>
  </g>
</svg>
