<svg xmlns="http://www.w3.org/2000/svg" xmlns:xlink="http://www.w3.org/1999/xlink" width="115" height="115" viewBox="0 0 115 115">
  <defs>
    <clipPath id="clip-path">
      <rect id="Rectangle_411774" data-name="Rectangle 411774" width="115" height="115" transform="translate(800.781 1954)" fill="#e8bad8" opacity="0.41"/>
    </clipPath>
  </defs>
  <g id="Group_1204617" data-name="Group 1204617" transform="translate(-793.051 -1317)">
    <g id="Mask_Group_1099311" data-name="Mask Group 1099311" transform="translate(-7.729 -637)" clip-path="url(#clip-path)">
      <g id="Group_1204056" data-name="Group 1204056" transform="translate(799.781 1960.273)">
        <g id="Group_1204043" data-name="Group 1204043" transform="translate(1)">
          <ellipse id="Ellipse_12398" data-name="Ellipse 12398" cx="28.658" cy="28.658" rx="28.658" ry="28.658" transform="translate(56.527 44.289)" fill="#ffc94a"/>
          <ellipse id="Ellipse_12399" data-name="Ellipse 12399" cx="20.842" cy="20.842" rx="20.842" ry="20.842" fill="#ffc94a"/>
        </g>
      </g>
    </g>
    <g id="dat_9497564" transform="translate(811.051 1335)">
      <g id="Group_1204615" data-name="Group 1204615" transform="translate(18.656 4.151)">
        <path id="Path_1253243" data-name="Path 1253243" d="M213.205,66.681a2.28,2.28,0,0,1,2.275,2.275v57.932a2.28,2.28,0,0,1-2.275,2.275H169.778a2.28,2.28,0,0,1-2.275-2.275v-5.735H205.2a2.28,2.28,0,0,0,2.275-2.275v-52.2Z" transform="translate(-159.493 -58.671)" fill="#a8b4db" fill-rule="evenodd"/>
        <path id="Path_1253244" data-name="Path 1253244" d="M111.823,71.209V65.474h37.692a2.28,2.28,0,0,0,2.275-2.275V45.029a2.28,2.28,0,0,0-2.275-2.275H111.823V26.006a3.569,3.569,0,0,1,3.29-2.21h7.23a2.279,2.279,0,0,0,2.275-2.275V14.292a3.569,3.569,0,0,1,2.21-3.29h30.7a2.28,2.28,0,0,1,2.275,2.275V71.209a2.28,2.28,0,0,1-2.275,2.275H114.1a2.28,2.28,0,0,1-2.275-2.275Z" transform="translate(-111.823 -11.002)" fill="#d2dbfa" fill-rule="evenodd"/>
        <path id="Path_1253245" data-name="Path 1253245" d="M123.411,12.043A3.433,3.433,0,0,1,125.924,11h.9a3.569,3.569,0,0,0-2.21,3.29v7.23a2.279,2.279,0,0,1-2.275,2.275h-7.23a3.569,3.569,0,0,0-3.29,2.21v-.9a3.434,3.434,0,0,1,1.041-2.514Z" transform="translate(-111.823 -11.002)" fill="#a8b4db" fill-rule="evenodd"/>
      </g>
      <path id="Path_1253246" data-name="Path 1253246" d="M13.275,231.713H63.2a2.276,2.276,0,0,1,2.275,2.275v18.17a2.276,2.276,0,0,1-2.275,2.275H13.275A2.276,2.276,0,0,1,11,252.158v-18.17a2.276,2.276,0,0,1,2.275-2.275Z" transform="translate(-6.849 -195.81)" fill="#2ad45a"/>
      <path id="Path_1253247" data-name="Path 1253247" d="M59.774,47.228V47.3a1.151,1.151,0,0,1-2.3,0v-.072a1.151,1.151,0,1,1,2.3,0Zm5.708,17.131V6.426A1.126,1.126,0,0,0,64.358,5.3H33.912A2.4,2.4,0,0,0,32.6,7.44v7.229A3.429,3.429,0,0,1,29.175,18.1h-7.23a2.4,2.4,0,0,0-2.139,1.312V34.751H56.348a3.43,3.43,0,0,1,3.426,3.427v4.2a1.151,1.151,0,1,1-2.3,0v-4.2a1.125,1.125,0,0,0-1.124-1.125H6.426A1.126,1.126,0,0,0,5.3,38.179v18.17a1.125,1.125,0,0,0,1.124,1.124H56.348a1.125,1.125,0,0,0,1.124-1.124v-4.2a1.151,1.151,0,0,1,2.3,0v4.2a3.43,3.43,0,0,1-3.426,3.425H19.807v4.585a1.125,1.125,0,0,0,1.124,1.124H64.358a1.125,1.125,0,0,0,1.124-1.124ZM30.357,6.705a4.729,4.729,0,0,0-.058.735V14.67a1.125,1.125,0,0,1-1.124,1.124h-7.23a4.6,4.6,0,0,0-.734.059ZM74.644,23.8a1.151,1.151,0,0,0,1.15-1.151V14.435a3.429,3.429,0,0,0-3.426-3.426H67.784V6.426A3.429,3.429,0,0,0,64.359,3h-31.6A4.613,4.613,0,0,0,29.43,4.378L18.883,14.924A4.615,4.615,0,0,0,17.5,18.252v16.5H6.426A3.43,3.43,0,0,0,3,38.179v18.17a3.43,3.43,0,0,0,3.426,3.425H17.5v4.585a3.429,3.429,0,0,0,3.426,3.425h4.584v4.584a3.43,3.43,0,0,0,3.426,3.427H72.368a3.43,3.43,0,0,0,3.426-3.427V27.5a1.151,1.151,0,1,0-2.3,0V72.367a1.126,1.126,0,0,1-1.124,1.125H28.941a1.126,1.126,0,0,1-1.124-1.125V67.784H64.359a3.429,3.429,0,0,0,3.426-3.425V13.312h4.584a1.125,1.125,0,0,1,1.124,1.124v8.216A1.151,1.151,0,0,0,74.644,23.8Zm-26.65,18.32a1.15,1.15,0,0,1-1.151,1.151H44V52.4a1.151,1.151,0,1,1-2.3,0V43.274H38.859a1.151,1.151,0,1,1,0-2.3h7.984a1.15,1.15,0,0,1,1.151,1.15Zm-17.107,6.2,1.55-3.418,1.55,3.418Zm2.6-6.68,4.663,10.28a1.15,1.15,0,0,1-.573,1.523,1.135,1.135,0,0,1-.474.1,1.152,1.152,0,0,1-1.049-.676l-1.021-2.25H29.843l-1.021,2.25a1.151,1.151,0,0,1-2.1-.951l4.663-10.28a1.152,1.152,0,0,1,2.1,0ZM19.518,51.253H17.082V43.274h2.436a3.99,3.99,0,0,1,0,7.979Zm0-10.28a6.291,6.291,0,1,1,0,12.582H15.931A1.152,1.152,0,0,1,14.78,52.4V42.123a1.15,1.15,0,0,1,1.151-1.15Z" fill-rule="evenodd"/>
    </g>
  </g>
</svg>
