<svg xmlns="http://www.w3.org/2000/svg" xmlns:xlink="http://www.w3.org/1999/xlink" width="115" height="115" viewBox="0 0 115 115">
  <defs>
    <clipPath id="clip-path">
      <rect id="Rectangle_411949" data-name="Rectangle 411949" width="115" height="115" transform="translate(800.781 1954)" fill="#e8bad8" opacity="0.41"/>
    </clipPath>
  </defs>
  <g id="Group_1204784" data-name="Group 1204784" transform="translate(-3809 3876)">
    <g id="Mask_Group_1099365" data-name="Mask Group 1099365" transform="translate(3008.219 -5830)" clip-path="url(#clip-path)">
      <g id="Group_1204478" data-name="Group 1204478" transform="translate(799.781 1960.273)">
        <g id="Group_1204465" data-name="Group 1204465" transform="translate(1)">
          <ellipse id="Ellipse_12482" data-name="Ellipse 12482" cx="28.658" cy="28.658" rx="28.658" ry="28.658" transform="translate(56.527 44.289)" fill="#ffc94a"/>
          <ellipse id="Ellipse_12483" data-name="Ellipse 12483" cx="20.842" cy="20.842" rx="20.842" ry="20.842" fill="#ffc94a"/>
        </g>
      </g>
    </g>
    <g id="_x33_43_x2C__Pocket_Watch_x2C__Stop_Watch_x2C__Timer_x2C__Watch" transform="translate(3805 -3871)">
      <g id="Group_1204783" data-name="Group 1204783" transform="translate(26 16)">
        <path id="Path_1254118" data-name="Path 1254118" d="M117.77,130.069A27.4,27.4,0,1,0,130.8,153.4,27.263,27.263,0,0,0,117.77,130.069Z" transform="translate(-68.389 -109.256)" fill="#c03a2b"/>
        <path id="Path_1254119" data-name="Path 1254119" d="M152.378,172.242a21.309,21.309,0,1,0,0,30.137v0a21.306,21.306,0,0,0,0-30.135Z" transform="translate(-102.301 -143.168)" fill="#ecf0f1"/>
        <g id="Group_1204782" data-name="Group 1204782" transform="translate(1.522 4.566)">
          <path id="Path_1254120" data-name="Path 1254120" d="M239.044,286A3.044,3.044,0,1,1,236,289.044,3.043,3.043,0,0,1,239.044,286Z" transform="translate(-205.557 -249.469)" fill="#285680"/>
          <path id="Path_1254121" data-name="Path 1254121" d="M39.044,136A3.044,3.044,0,1,1,36,139.044,3.043,3.043,0,0,1,39.044,136Z" transform="translate(-36 -122.301)" fill="#285680"/>
          <path id="Path_1254122" data-name="Path 1254122" d="M429.805,46A3.805,3.805,0,1,1,426,49.805,3.8,3.8,0,0,1,429.805,46Z" transform="translate(-366.637 -46)" fill="#285680"/>
        </g>
        <path id="Path_1254123" data-name="Path 1254123" d="M120.049,92.375l1.787,2.464-2.464,1.787-2.464,1.787-1.787-2.464a3.044,3.044,0,0,1,4.929-3.574Z" transform="translate(-101.063 -79.684)" fill="#e57e25"/>
        <path id="Path_1254124" data-name="Path 1254124" d="M349.846,95.035l-2.667-1.47,1.47-2.667a3.045,3.045,0,1,1,5.332,2.941l-1.47,2.665Z" transform="translate(-298.291 -78.162)" fill="#e57e25"/>
        <path id="Path_1254125" data-name="Path 1254125" d="M213.611,41.221a7.611,7.611,0,1,1,7.611-7.611A7.612,7.612,0,0,1,213.611,41.221Z" transform="translate(-178.602 -24.478)" fill="#e57e25"/>
        <path id="Path_1254126" data-name="Path 1254126" d="M447.522,176A1.522,1.522,0,1,1,446,177.522,1.523,1.523,0,0,1,447.522,176Z" transform="translate(-382.07 -151.646)"/>
        <path id="Path_1254127" data-name="Path 1254127" d="M437.522,426A1.522,1.522,0,1,1,436,427.522,1.523,1.523,0,0,1,437.522,426Z" transform="translate(-373.592 -363.592)"/>
        <path id="Path_1254128" data-name="Path 1254128" d="M337.522,36A1.522,1.522,0,1,1,336,37.522,1.523,1.523,0,0,1,337.522,36Z" transform="translate(-288.814 -32.956)"/>
        <path id="Path_1254129" data-name="Path 1254129" d="M87.522,456A1.522,1.522,0,1,1,86,457.522,1.523,1.523,0,0,1,87.522,456Z" transform="translate(-76.867 -389.026)"/>
        <path id="Path_1254130" data-name="Path 1254130" d="M67.522,36A1.522,1.522,0,1,1,66,37.522,1.523,1.523,0,0,1,67.522,36Z" transform="translate(-59.911 -32.956)"/>
        <path id="Path_1254131" data-name="Path 1254131" d="M27.522,366A1.522,1.522,0,1,1,26,367.522,1.523,1.523,0,0,1,27.522,366Z" transform="translate(-26 -312.725)"/>
        <path id="Path_1254132" data-name="Path 1254132" d="M128.832,201.664a22.834,22.834,0,1,1,16.185-6.729l-.041.042A22.681,22.681,0,0,1,128.832,201.664Zm0-42.62a19.788,19.788,0,1,0,13.953,33.819l.038-.04a19.788,19.788,0,0,0-13.991-33.779Z" transform="translate(-93.823 -134.69)"/>
        <path id="Path_1254133" data-name="Path 1254133" d="M230.566,285.133a4.566,4.566,0,1,1,4.566-4.566A4.572,4.572,0,0,1,230.566,285.133Zm0-6.089a1.522,1.522,0,1,0,1.522,1.522A1.524,1.524,0,0,0,230.566,279.044Z" transform="translate(-195.557 -236.424)"/>
        <path id="Path_1254134" data-name="Path 1254134" d="M205.133,34.266a9.133,9.133,0,1,1,9.133-9.133A9.143,9.143,0,0,1,205.133,34.266Zm0-15.221a6.089,6.089,0,1,0,6.089,6.089A6.1,6.1,0,0,0,205.133,19.044Z" transform="translate(-170.124 -16)"/>
        <path id="Path_1254135" data-name="Path 1254135" d="M94.921,173.841a28.928,28.928,0,1,1,28.921-28.921A28.953,28.953,0,0,1,94.921,173.841Zm0-54.8a25.869,25.869,0,1,0,13.573,3.842A25.845,25.845,0,0,0,94.921,119.044Z" transform="translate(-59.911 -100.779)"/>
        <path id="Path_1254136" data-name="Path 1254136" d="M294.219,172.075a1.523,1.523,0,0,1-1.407-2.1l1.015-2.463a1.522,1.522,0,0,1,2.815,1.16l-1.015,2.463A1.523,1.523,0,0,1,294.219,172.075Z" transform="translate(-252.102 -143.649)"/>
        <path id="Path_1254137" data-name="Path 1254137" d="M194.149,414.756a1.523,1.523,0,0,1-1.407-2.1l1.015-2.463a1.522,1.522,0,1,1,2.814,1.16l-1.015,2.463A1.523,1.523,0,0,1,194.149,414.756Z" transform="translate(-167.265 -349.39)"/>
        <path id="Path_1254138" data-name="Path 1254138" d="M360.621,246.286a1.522,1.522,0,0,1-.585-2.928l2.46-1.023a1.522,1.522,0,0,1,1.169,2.811l-2.46,1.023A1.524,1.524,0,0,1,360.621,246.286Z" transform="translate(-308.396 -207.785)"/>
        <path id="Path_1254139" data-name="Path 1254139" d="M118.261,347.125a1.522,1.522,0,0,1-.585-2.928l2.46-1.023a1.522,1.522,0,0,1,1.169,2.811l-2.46,1.023A1.521,1.521,0,0,1,118.261,347.125Z" transform="translate(-102.926 -293.274)"/>
        <path id="Path_1254140" data-name="Path 1254140" d="M363.232,346.758a1.517,1.517,0,0,1-.579-.115l-2.463-1.015a1.522,1.522,0,1,1,1.16-2.815l2.463,1.015a1.522,1.522,0,0,1-.581,2.93Z" transform="translate(-308.522 -292.97)"/>
        <path id="Path_1254141" data-name="Path 1254141" d="M120.552,246.688a1.514,1.514,0,0,1-.579-.115l-2.463-1.015a1.522,1.522,0,0,1,1.16-2.814l2.463,1.015a1.522,1.522,0,0,1-.581,2.93Z" transform="translate(-102.782 -208.132)"/>
        <path id="Path_1254142" data-name="Path 1254142" d="M295.6,414.6a1.522,1.522,0,0,1-1.406-.938l-1.023-2.46a1.522,1.522,0,1,1,2.811-1.169l1.023,2.46A1.523,1.523,0,0,1,295.6,414.6Z" transform="translate(-252.407 -349.264)"/>
        <path id="Path_1254143" data-name="Path 1254143" d="M194.764,172.242a1.522,1.522,0,0,1-1.406-.938l-1.023-2.46a1.522,1.522,0,0,1,2.811-1.169l1.023,2.46a1.523,1.523,0,0,1-1.4,2.107Z" transform="translate(-166.917 -143.792)"/>
        <path id="Path_1254144" data-name="Path 1254144" d="M327.952,202.877a1.522,1.522,0,0,1-1.076-2.6l2.825-2.825.027-.026a1.522,1.522,0,0,1,2.118,2.186l-2.817,2.817A1.518,1.518,0,0,1,327.952,202.877Z" transform="translate(-280.701 -169.455)"/>
        <path id="Path_1254145" data-name="Path 1254145" d="M148.532,382.3a1.522,1.522,0,0,1-1.077-2.6l2.825-2.827a1.522,1.522,0,0,1,2.153,2.152l-2.825,2.827A1.519,1.519,0,0,1,148.532,382.3Z" transform="translate(-128.591 -321.567)"/>
        <path id="Path_1254146" data-name="Path 1254146" d="M365.268,299.044h-4a1.522,1.522,0,1,1,0-3.044h4a1.522,1.522,0,1,1,0,3.044Z" transform="translate(-308.949 -253.38)"/>
        <path id="Path_1254147" data-name="Path 1254147" d="M111.518,299.044h-4a1.522,1.522,0,0,1,0-3.044h4a1.522,1.522,0,1,1,0,3.044Z" transform="translate(-93.823 -253.38)"/>
        <path id="Path_1254148" data-name="Path 1254148" d="M247.522,163.04A1.522,1.522,0,0,1,246,161.518v-4a1.522,1.522,0,0,1,3.044,0v4A1.522,1.522,0,0,1,247.522,163.04Z" transform="translate(-212.513 -134.69)"/>
        <path id="Path_1254149" data-name="Path 1254149" d="M247.522,416.79A1.522,1.522,0,0,1,246,415.268v-4a1.522,1.522,0,1,1,3.044,0v4A1.522,1.522,0,0,1,247.522,416.79Z" transform="translate(-212.513 -349.816)"/>
        <path id="Path_1254150" data-name="Path 1254150" d="M151.357,202.871a1.517,1.517,0,0,1-1.077-.446l-2.825-2.827a1.522,1.522,0,0,1,2.153-2.152l2.825,2.827a1.522,1.522,0,0,1-1.076,2.6Z" transform="translate(-128.59 -169.449)"/>
        <path id="Path_1254151" data-name="Path 1254151" d="M330.778,382.3a1.52,1.52,0,0,1-1.105-.475l-2.8-2.8a1.522,1.522,0,0,1,2.153-2.153l2.825,2.825a1.523,1.523,0,0,1-1.075,2.6Z" transform="translate(-280.7 -321.568)"/>
        <path id="Path_1254152" data-name="Path 1254152" d="M247.522,76.655A1.522,1.522,0,0,1,246,75.133V67.522a1.522,1.522,0,1,1,3.044,0v7.611A1.522,1.522,0,0,1,247.522,76.655Z" transform="translate(-212.513 -58.389)"/>
        <path id="Path_1254153" data-name="Path 1254153" d="M240.566,69.044h-3.044a1.522,1.522,0,0,1,0-3.044h3.044a1.522,1.522,0,1,1,0,3.044Z" transform="translate(-204.035 -58.389)"/>
        <path id="Path_1254154" data-name="Path 1254154" d="M247.522,245.133A1.522,1.522,0,0,1,246,243.611v-6.089a1.522,1.522,0,0,1,3.044,0v6.089A1.522,1.522,0,0,1,247.522,245.133Z" transform="translate(-212.513 -202.513)"/>
        <path id="Path_1254155" data-name="Path 1254155" d="M344.031,89.549a1.514,1.514,0,0,1-.733-.189l-5.332-2.94a1.522,1.522,0,0,1-.6-2.068l1.47-2.667a4.567,4.567,0,1,1,8,4.412l-1.47,2.665A1.522,1.522,0,0,1,344.031,89.549Zm-3.263-5.06,2.666,1.47.735-1.333a1.5,1.5,0,0,0,.19-.732,1.528,1.528,0,0,0-.789-1.337,1.5,1.5,0,0,0-.731-.189,1.525,1.525,0,0,0-1.336.788Z" transform="translate(-289.812 -69.684)"/>
        <path id="Path_1254156" data-name="Path 1254156" d="M341.729,123.887a1.523,1.523,0,0,1-1.331-2.259l2.188-3.966a1.522,1.522,0,0,1,2.871.7v0a1.523,1.523,0,0,1-.189.735l-2.206,4A1.521,1.521,0,0,1,341.729,123.887Z" transform="translate(-292.381 -101.495)"/>
        <path id="Path_1254157" data-name="Path 1254157" d="M108.43,91.457a1.52,1.52,0,0,1-1.234-.629l-1.787-2.464A4.566,4.566,0,1,1,112.8,83l1.787,2.464a1.522,1.522,0,0,1-.339,2.126l-4.929,3.574A1.515,1.515,0,0,1,108.43,91.457Zm.673-7.3a1.507,1.507,0,0,0-.89.29,1.53,1.53,0,0,0-.629,1.236,1.512,1.512,0,0,0,.291.891l.893,1.231,2.464-1.787-.893-1.232A1.508,1.508,0,0,0,109.1,84.161Z" transform="translate(-92.585 -71.205)"/>
        <path id="Path_1254158" data-name="Path 1254158" d="M140.483,124.051a1.52,1.52,0,0,1-1.25-.651l-.013-.019-2.651-3.655a1.522,1.522,0,0,1,2.464-1.787l2.659,3.667.016.023.021.03a1.522,1.522,0,0,1-1.247,2.393Z" transform="translate(-119.493 -101.889)"/>
        <path id="Path_1254159" data-name="Path 1254159" d="M30.566,135.133a4.566,4.566,0,1,1,4.566-4.566A4.572,4.572,0,0,1,30.566,135.133Zm0-6.089a1.522,1.522,0,1,0,1.522,1.522A1.524,1.524,0,0,0,30.566,129.044Z" transform="translate(-26 -109.256)"/>
        <path id="Path_1254160" data-name="Path 1254160" d="M421.327,46.655a5.327,5.327,0,1,1,5.328-5.327A5.334,5.334,0,0,1,421.327,46.655Zm0-7.611a2.283,2.283,0,1,0,2.283,2.283A2.286,2.286,0,0,0,421.327,39.044Z" transform="translate(-356.637 -32.956)"/>
      </g>
    </g>
  </g>
</svg>
