<svg xmlns="http://www.w3.org/2000/svg" xmlns:xlink="http://www.w3.org/1999/xlink" width="115" height="115" viewBox="0 0 115 115">
  <defs>
    <clipPath id="clip-path">
      <rect id="Rectangle_411876" data-name="Rectangle 411876" width="115" height="115" transform="translate(800.781 1954)" fill="#e8bad8" opacity="0.41"/>
    </clipPath>
  </defs>
  <g id="Group_1204969" data-name="Group 1204969" transform="translate(-597 -6353)">
    <g id="Group_1204945" data-name="Group 1204945" transform="translate(-146.051 -231)">
      <g id="Mask_Group_1099345" data-name="Mask Group 1099345" transform="translate(-57.73 4630)" clip-path="url(#clip-path)">
        <g id="Group_1204327" data-name="Group 1204327" transform="translate(799.781 1960.273)">
          <g id="Group_1204314" data-name="Group 1204314" transform="translate(1)">
            <ellipse id="Ellipse_12452" data-name="Ellipse 12452" cx="28.658" cy="28.658" rx="28.658" ry="28.658" transform="translate(56.527 44.289)" fill="#ffc94a"/>
            <ellipse id="Ellipse_12453" data-name="Ellipse 12453" cx="20.842" cy="20.842" rx="20.842" ry="20.842" fill="#ffc94a"/>
          </g>
        </g>
      </g>
    </g>
    <g id="datos1" transform="translate(618 6375)">
      <g id="Group_1204967" data-name="Group 1204967" transform="translate(2.125 2.125)">
        <g id="Group_1204956" data-name="Group 1204956" transform="translate(46.117 47.242)">
          <path id="Path_1254743" data-name="Path 1254743" d="M43,44H61v4.5H43Z" transform="translate(-43 -44)" fill="#ffeaa7"/>
        </g>
        <g id="Group_1204957" data-name="Group 1204957" transform="translate(46.117 33.744)">
          <path id="Path_1254744" data-name="Path 1254744" d="M43,32H61v4.5H43Z" transform="translate(-43 -32)" fill="#ffeaa7"/>
        </g>
        <g id="Group_1204958" data-name="Group 1204958" transform="translate(42.743 51.741)">
          <path id="Path_1254745" data-name="Path 1254745" d="M43.374,48H62.5a2.256,2.256,0,0,1,2.25,2.25v4.5A2.256,2.256,0,0,1,62.5,57H42.25A2.256,2.256,0,0,1,40,54.749v-4.5A2.256,2.256,0,0,1,42.25,48Z" transform="translate(-40 -48)" fill="#fcd770"/>
        </g>
        <g id="Group_1204959" data-name="Group 1204959" transform="translate(42.743 38.244)">
          <path id="Path_1254746" data-name="Path 1254746" d="M43.374,36H62.5a2.256,2.256,0,0,1,2.25,2.25v4.5A2.256,2.256,0,0,1,62.5,45H42.25A2.256,2.256,0,0,1,40,42.749v-4.5A2.256,2.256,0,0,1,42.25,36Z" transform="translate(-40 -36)" fill="#fcd770"/>
        </g>
        <g id="Group_1204960" data-name="Group 1204960" transform="translate(42.743 24.746)">
          <path id="Path_1254747" data-name="Path 1254747" d="M40,30.749v-4.5A2.256,2.256,0,0,1,42.25,24H62.5a2.256,2.256,0,0,1,2.25,2.25v4.5A2.256,2.256,0,0,1,62.5,33H42.25A2.256,2.256,0,0,1,40,30.749Z" transform="translate(-40 -24)" fill="#fcd770"/>
        </g>
        <g id="Group_1204961" data-name="Group 1204961" transform="translate(13.498 62.989)">
          <path id="Path_1254748" data-name="Path 1254748" d="M14,58H25.248v4.5H14Z" transform="translate(-14 -58)" fill="#aab2bd"/>
        </g>
        <g id="Group_1204962" data-name="Group 1204962" transform="translate(0 56.241)">
          <path id="Path_1254749" data-name="Path 1254749" d="M40.244,52v4.5a2.256,2.256,0,0,1-2.25,2.25H4.25A2.256,2.256,0,0,1,2,56.5V52Z" transform="translate(-2 -52)" fill="#ccd1d9"/>
        </g>
        <g id="Group_1204963" data-name="Group 1204963" transform="translate(0 38.244)">
          <path id="Path_1254750" data-name="Path 1254750" d="M2,54V38.25A2.256,2.256,0,0,1,4.25,36H37.994a2.256,2.256,0,0,1,2.25,2.25V54Z" transform="translate(-2 -36)" fill="#69d6f4"/>
        </g>
        <g id="Group_1204964" data-name="Group 1204964" transform="translate(22.496 42.743)">
          <path id="Path_1254751" data-name="Path 1254751" d="M22,40H33.248v9H22Z" transform="translate(-22 -40)" fill="#ff826e"/>
        </g>
        <g id="Group_1204965" data-name="Group 1204965" transform="translate(5.624 20.247)">
          <path id="Path_1254752" data-name="Path 1254752" d="M27.247,24.5a4.5,4.5,0,1,1,0,9H11.5a4.5,4.5,0,0,1,0-9,4.587,4.587,0,0,1,1.429.247,6.749,6.749,0,0,1,12.89,0A4.587,4.587,0,0,1,27.247,24.5Z" transform="translate(-7 -20)" fill="#e6e9ed"/>
        </g>
        <g id="Group_1204966" data-name="Group 1204966" transform="translate(5.624)">
          <path id="Path_1254753" data-name="Path 1254753" d="M27.247,6.5a4.5,4.5,0,1,1,0,9H11.5a4.5,4.5,0,1,1,0-9,4.587,4.587,0,0,1,1.429.247,6.749,6.749,0,0,1,12.89,0A4.587,4.587,0,0,1,27.247,6.5Z" transform="translate(-7 -2)" fill="#e6e9ed"/>
        </g>
      </g>
      <g id="Group_1204968" data-name="Group 1204968" transform="translate(1 1)">
        <path id="Path_1254754" data-name="Path 1254754" d="M38.119,35H4.374A3.379,3.379,0,0,0,1,38.374V58.621A3.379,3.379,0,0,0,4.374,62H14.5v2.25H11.123v2.25H31.37v-2.25H28V62H38.119a3.379,3.379,0,0,0,3.374-3.374V38.374A3.379,3.379,0,0,0,38.119,35ZM4.374,37.25H38.119a1.126,1.126,0,0,1,1.125,1.125V53H3.25V38.374A1.126,1.126,0,0,1,4.374,37.25Zm21.371,27h-9V62h9Zm12.373-4.5H4.374A1.126,1.126,0,0,1,3.25,58.621V55.247H39.244v3.374A1.126,1.126,0,0,1,38.119,59.746Z" transform="translate(-1 3.244)"/>
        <path id="Path_1254755" data-name="Path 1254755" d="M34.5,39H21V50.248H34.5Zm-2.25,9h-9V41.25h9Z" transform="translate(1.496 3.743)"/>
        <path id="Path_1254756" data-name="Path 1254756" d="M5,39H7.25v2.25H5Z" transform="translate(-0.501 3.743)"/>
        <path id="Path_1254757" data-name="Path 1254757" d="M9,39H20.248v2.25H9Z" transform="translate(-0.002 3.743)"/>
        <path id="Path_1254758" data-name="Path 1254758" d="M5,43H20.747v2.25H5Z" transform="translate(-0.501 4.242)"/>
        <path id="Path_1254759" data-name="Path 1254759" d="M5,47H20.747v2.25H5Z" transform="translate(-0.501 4.741)"/>
        <path id="Path_1254760" data-name="Path 1254760" d="M43,51h2.25v2.25H43Z" transform="translate(4.242 5.241)"/>
        <path id="Path_1254761" data-name="Path 1254761" d="M47,51h2.25v2.25H47Z" transform="translate(4.741 5.241)"/>
        <path id="Path_1254762" data-name="Path 1254762" d="M43,39h2.25v2.25H43Z" transform="translate(4.242 3.743)"/>
        <path id="Path_1254763" data-name="Path 1254763" d="M47,39h2.25v2.25H47Z" transform="translate(4.741 3.743)"/>
        <path id="Path_1254764" data-name="Path 1254764" d="M70.114,33.62v-4.5a3.379,3.379,0,0,0-3.374-3.374h-9V13.373A3.379,3.379,0,0,0,54.367,10H32.878A5.571,5.571,0,0,0,26.64,5.553a7.879,7.879,0,0,0-14.285,0,5.621,5.621,0,1,0-.731,11.194h6.749v4.58A7.822,7.822,0,0,0,12.355,25.8a5.621,5.621,0,1,0-.731,11.194H27.371A5.621,5.621,0,1,0,26.64,25.8a7.816,7.816,0,0,0-6.018-4.472v-4.58h6.749a5.635,5.635,0,0,0,5.51-4.5H54.367a1.126,1.126,0,0,1,1.125,1.125V25.746h-9a3.379,3.379,0,0,0-3.374,3.374v4.5a3.379,3.379,0,0,0,3.374,3.374v2.25a3.379,3.379,0,0,0-3.374,3.374v4.5a3.379,3.379,0,0,0,3.374,3.374v2.25a3.379,3.379,0,0,0-3.374,3.374v4.5a3.379,3.379,0,0,0,3.374,3.374H66.74a3.379,3.379,0,0,0,3.374-3.374v-4.5a3.379,3.379,0,0,0-3.374-3.374v-2.25a3.379,3.379,0,0,0,3.374-3.374v-4.5a3.379,3.379,0,0,0-3.374-3.374v-2.25A3.379,3.379,0,0,0,70.114,33.62ZM24.871,27.456l.341,1.1,1.093-.368A3.294,3.294,0,0,1,27.371,28a3.374,3.374,0,0,1,0,6.749H11.624a3.374,3.374,0,0,1,0-6.749,3.321,3.321,0,0,1,1.066.193l1.093.369.341-1.1a5.625,5.625,0,0,1,10.746,0Zm2.5-12.958H11.624a3.374,3.374,0,1,1,0-6.749,3.321,3.321,0,0,1,1.066.193l1.093.369.341-1.1a5.625,5.625,0,0,1,10.746,0l.341,1.1,1.093-.368a3.294,3.294,0,0,1,1.066-.195,3.374,3.374,0,1,1,0,6.749Zm18,19.122v-4.5A1.126,1.126,0,0,1,46.493,28H66.74a1.126,1.126,0,0,1,1.125,1.125v4.5a1.126,1.126,0,0,1-1.125,1.125H46.493A1.126,1.126,0,0,1,45.368,33.62Zm22.5,22.5v4.5A1.126,1.126,0,0,1,66.74,61.74H46.493a1.126,1.126,0,0,1-1.125-1.125v-4.5a1.126,1.126,0,0,1,1.125-1.125H66.74A1.126,1.126,0,0,1,67.865,56.116ZM64.49,52.741H48.743v-2.25H64.49Zm3.374-10.123v4.5a1.126,1.126,0,0,1-1.125,1.125H46.493a1.126,1.126,0,0,1-1.125-1.125v-4.5a1.126,1.126,0,0,1,1.125-1.125H66.74A1.126,1.126,0,0,1,67.865,42.618ZM64.49,39.244H48.743v-2.25H64.49Z" transform="translate(-0.376 -1)"/>
        <path id="Path_1254765" data-name="Path 1254765" d="M43,27h2.25v2.25H43Z" transform="translate(4.242 2.245)"/>
        <path id="Path_1254766" data-name="Path 1254766" d="M47,27h2.25v2.25H47Z" transform="translate(4.741 2.245)"/>
      </g>
    </g>
  </g>
</svg>
