<svg xmlns="http://www.w3.org/2000/svg" xmlns:xlink="http://www.w3.org/1999/xlink" width="115" height="115" viewBox="0 0 115 115">
  <defs>
    <clipPath id="clip-path">
      <rect id="Rectangle_411880" data-name="Rectangle 411880" width="115" height="115" transform="translate(800.781 1954)" fill="#e8bad8" opacity="0.41"/>
    </clipPath>
  </defs>
  <g id="Group_1205020" data-name="Group 1205020" transform="translate(-3756 5254)">
    <g id="Group_1204972" data-name="Group 1204972" transform="translate(2529 -11608)">
      <g id="Group_1204947" data-name="Group 1204947" transform="translate(1669 11373)">
        <g id="Mask_Group_1099347" data-name="Mask Group 1099347" transform="translate(-1242.781 -6973)" clip-path="url(#clip-path)">
          <g id="Group_1204355" data-name="Group 1204355" transform="translate(799.781 1960.273)">
            <g id="Group_1204342" data-name="Group 1204342" transform="translate(1)">
              <ellipse id="Ellipse_12464" data-name="Ellipse 12464" cx="28.658" cy="28.658" rx="28.658" ry="28.658" transform="translate(56.527 44.289)" fill="#ffc94a"/>
              <ellipse id="Ellipse_12465" data-name="Ellipse 12465" cx="20.842" cy="20.842" rx="20.842" ry="20.842" fill="#ffc94a"/>
            </g>
          </g>
        </g>
      </g>
      <g id="database" transform="translate(1248 6375)">
        <path id="Path_1254767" data-name="Path 1254767" d="M43.966,28V39.38c0,3.141-9.172,5.69-20.483,5.69S3,42.52,3,39.38V28c0,3.141,9.172,5.69,20.483,5.69S43.966,31.141,43.966,28Z" transform="translate(0.138 3.587)" fill="#c0ab91"/>
        <path id="Path_1254768" data-name="Path 1254768" d="M64.035,31.931v6.828l-5.189.865a14.891,14.891,0,0,1-1.115,2.708l3.05,4.279-4.825,4.825-3.63-2.583a2.292,2.292,0,0,0,1.468-2.128v-9.1a2.242,2.242,0,0,0-.125-.74,9.762,9.762,0,0,0,.125-1.536A9.1,9.1,0,0,0,39,28.244V21.69a14.8,14.8,0,0,1,1.411-.5L41.276,16H48.1l.865,5.189A14.891,14.891,0,0,1,51.677,22.3l4.279-3.05,4.825,4.825-3.05,4.279a14.891,14.891,0,0,1,1.115,2.708Z" transform="translate(5.104 1.931)" fill="#ffeb99"/>
        <rect id="Rectangle_412179" data-name="Rectangle 412179" width="46" height="14" rx="2" transform="translate(13.277 55.277)" fill="#57a4ff"/>
        <path id="Path_1254769" data-name="Path 1254769" d="M52.828,51.276v9.1a2.283,2.283,0,0,1-2.276,2.276H46a2.283,2.283,0,0,0,2.276-2.276v-9.1A2.283,2.283,0,0,0,46,49h4.552A2.283,2.283,0,0,1,52.828,51.276Z" transform="translate(6.07 6.484)" fill="#2488ff"/>
        <path id="Path_1254770" data-name="Path 1254770" d="M53.793,34.1a9.763,9.763,0,0,1-.125,1.536A2.291,2.291,0,0,0,51.518,34.1H39V27a9.1,9.1,0,0,1,14.793,7.1Z" transform="translate(5.104 3.174)" fill="#c6c5ca"/>
        <path id="Path_1254771" data-name="Path 1254771" d="M53.377,34.1a9.763,9.763,0,0,1-.125,1.536A2.291,2.291,0,0,0,51.1,34.1H48.825a9.123,9.123,0,0,0-6.8-8.819A9.1,9.1,0,0,1,53.377,34.1Z" transform="translate(5.521 3.173)" fill="#acabb1"/>
        <path id="Path_1254772" data-name="Path 1254772" d="M42,45h6.828v4.552H42Z" transform="translate(5.518 5.932)" fill="#c6c5ca"/>
        <path id="Path_1254773" data-name="Path 1254773" d="M43.966,18V29.38c0,3.141-9.172,5.69-20.483,5.69S3,32.52,3,29.38V18c0,3.141,9.172,5.69,20.483,5.69S43.966,21.141,43.966,18Z" transform="translate(0.138 2.207)" fill="#c0ab91"/>
        <path id="Path_1254774" data-name="Path 1254774" d="M43.966,8V19.38c0,3.141-9.172,5.69-20.483,5.69S3,22.52,3,19.38V8c0,3.141,9.172,5.69,20.483,5.69S43.966,11.141,43.966,8Z" transform="translate(0.138 0.828)" fill="#c0ab91"/>
        <ellipse id="Ellipse_12632" data-name="Ellipse 12632" cx="20.5" cy="5.5" rx="20.5" ry="5.5" transform="translate(3.277 3.277)" fill="#ffcd00"/>
        <g id="Group_1204971" data-name="Group 1204971" transform="translate(21.345 8.828)">
          <path id="Path_1254775" data-name="Path 1254775" d="M41.759,28V39.38c0,3.141-9.172,5.69-20.483,5.69-.774,0-1.525-.011-2.276-.046,10.242-.307,18.207-2.72,18.207-5.644V31.573C40.052,30.595,41.759,29.354,41.759,28Z" transform="translate(-19 -5.241)" fill="#b39a7c"/>
          <path id="Path_1254776" data-name="Path 1254776" d="M39.552,18V29.38c0,1.354-1.707,2.595-4.552,3.573V21.573C37.845,20.595,39.552,19.354,39.552,18Z" transform="translate(-16.793 -6.62)" fill="#b39a7c"/>
          <path id="Path_1254777" data-name="Path 1254777" d="M39.552,8V19.38c0,1.354-1.707,2.595-4.552,3.573V11.573c2.845-.979,4.552-2.219,4.552-3.573Z" transform="translate(-16.793 -8)" fill="#b39a7c"/>
        </g>
        <path id="Path_1254778" data-name="Path 1254778" d="M41.759,8.69c0,3.141-9.172,5.69-20.483,5.69-.774,0-1.525-.011-2.276-.046,10.242-.307,18.207-2.72,18.207-5.644S29.242,3.353,19,3.046C19.751,3.011,20.5,3,21.276,3,32.587,3,41.759,5.549,41.759,8.69Z" transform="translate(2.345 0.138)" fill="#ebbf00"/>
        <path id="Path_1254779" data-name="Path 1254779" d="M24,53h4.552v4.552H24Z" transform="translate(3.035 7.036)" fill="#ffeb99"/>
        <rect id="Rectangle_412180" data-name="Rectangle 412180" width="46" height="14" rx="2" transform="translate(13.277 37.277)" fill="#57a4ff"/>
        <path id="Path_1254780" data-name="Path 1254780" d="M52.828,35.276v9.1a2.283,2.283,0,0,1-2.276,2.276H46a2.283,2.283,0,0,0,2.276-2.276v-9.1A2.283,2.283,0,0,0,46,33h4.552A2.283,2.283,0,0,1,52.828,35.276Z" transform="translate(6.07 4.277)" fill="#2488ff"/>
        <path id="Path_1254781" data-name="Path 1254781" d="M24,37h4.552v4.552H24Z" transform="translate(3.035 4.828)" fill="#ffeb99"/>
        <path id="Path_1254782" data-name="Path 1254782" d="M16,45h6.828v4.552H16Z" transform="translate(1.931 5.932)" fill="#c6c5ca"/>
        <path id="Path_1254783" data-name="Path 1254783" d="M16,53h4.552v4.552H16Z" transform="translate(1.931 7.036)" fill="#ffeb99"/>
        <path id="Path_1254784" data-name="Path 1254784" d="M16,37h4.552v4.552H16Z" transform="translate(1.931 4.828)" fill="#ffeb99"/>
        <path id="Path_1254785" data-name="Path 1254785" d="M20.69,36H16.138A1.138,1.138,0,0,0,15,37.138V41.69a1.138,1.138,0,0,0,1.138,1.138H20.69a1.138,1.138,0,0,0,1.138-1.138V37.138A1.138,1.138,0,0,0,20.69,36Zm-1.138,4.552H17.276V38.276h2.276Z" transform="translate(1.793 4.69)"/>
        <path id="Path_1254786" data-name="Path 1254786" d="M28.69,36H24.138A1.138,1.138,0,0,0,23,37.138V41.69a1.138,1.138,0,0,0,1.138,1.138H28.69a1.138,1.138,0,0,0,1.138-1.138V37.138A1.138,1.138,0,0,0,28.69,36Zm-1.138,4.552H25.276V38.276h2.276Z" transform="translate(2.897 4.69)"/>
        <path id="Path_1254787" data-name="Path 1254787" d="M31,36H46.931v2.276H31Z" transform="translate(4.001 4.69)"/>
        <path id="Path_1254788" data-name="Path 1254788" d="M47,36h2.276v2.276H47Z" transform="translate(6.208 4.69)"/>
        <path id="Path_1254789" data-name="Path 1254789" d="M31,40H46.931v2.276H31Z" transform="translate(4.001 5.242)"/>
        <path id="Path_1254790" data-name="Path 1254790" d="M47,40h2.276v2.276H47Z" transform="translate(6.208 5.242)"/>
        <path id="Path_1254791" data-name="Path 1254791" d="M16.138,58.828H20.69a1.138,1.138,0,0,0,1.138-1.138V53.138A1.138,1.138,0,0,0,20.69,52H16.138A1.138,1.138,0,0,0,15,53.138V57.69A1.138,1.138,0,0,0,16.138,58.828Zm1.138-4.552h2.276v2.276H17.276Z" transform="translate(1.793 6.898)"/>
        <path id="Path_1254792" data-name="Path 1254792" d="M24.138,58.828H28.69a1.138,1.138,0,0,0,1.138-1.138V53.138A1.138,1.138,0,0,0,28.69,52H24.138A1.138,1.138,0,0,0,23,53.138V57.69A1.138,1.138,0,0,0,24.138,58.828Zm1.138-4.552h2.276v2.276H25.276Z" transform="translate(2.897 6.898)"/>
        <path id="Path_1254793" data-name="Path 1254793" d="M31,52H46.931v2.276H31Z" transform="translate(4.001 6.898)"/>
        <path id="Path_1254794" data-name="Path 1254794" d="M47,52h2.276v2.276H47Z" transform="translate(6.208 6.898)"/>
        <path id="Path_1254795" data-name="Path 1254795" d="M31,56H46.931v2.276H31Z" transform="translate(4.001 7.45)"/>
        <path id="Path_1254796" data-name="Path 1254796" d="M47,56h2.276v2.276H47Z" transform="translate(6.208 7.45)"/>
        <path id="Path_1254797" data-name="Path 1254797" d="M69.321,32.736l-4.506-.751a13.033,13.033,0,0,0-.66-1.593l2.651-3.721a1.138,1.138,0,0,0-.114-1.468l-4.825-4.825a1.138,1.138,0,0,0-1.468-.114l-3.721,2.651a16.189,16.189,0,0,0-1.593-.66l-.751-4.506a1.138,1.138,0,0,0-1.127-.956H46.38a1.138,1.138,0,0,0-1.127.956l-.011.091V8.828C45.242,4.344,34.363,2,23.621,2S2,4.344,2,8.828V42.966c0,3.448,6.054,5.132,10.264,5.895a3.4,3.4,0,0,0,3.391,3.209h1.138v2.276H15.655a3.424,3.424,0,0,0-3.414,3.414v9.1a3.424,3.424,0,0,0,3.414,3.414H56.622a3.424,3.424,0,0,0,3.414-3.414v-9.1a3.424,3.424,0,0,0-3.414-3.414H55.484V52.07h1.138a3.111,3.111,0,0,0,.569-.057L60.4,54.3a1.186,1.186,0,0,0,.66.2,1.165,1.165,0,0,0,.808-.33l4.825-4.825a1.138,1.138,0,0,0,.114-1.468l-2.651-3.721a13.031,13.031,0,0,0,.66-1.593l4.506-.751a1.138,1.138,0,0,0,.956-1.127V33.863a1.138,1.138,0,0,0-.956-1.127ZM45.242,30.779A7.919,7.919,0,0,1,57.7,36.332a3.428,3.428,0,0,0-1.081-.193H45.242ZM23.621,4.276c12.518,0,19.345,3,19.345,4.552S36.139,13.38,23.621,13.38s-19.345-3-19.345-4.552S11.1,4.276,23.621,4.276ZM4.276,12.037c3.744,2.378,11.562,3.619,19.345,3.619s15.6-1.24,19.345-3.619v8.171c0,1.548-6.828,4.552-19.345,4.552s-19.345-3-19.345-4.552Zm7.966,27.516V46.54C6.472,45.447,4.276,43.8,4.276,42.966V34.8a24.446,24.446,0,0,0,8.6,2.777,3.4,3.4,0,0,0-.637,1.98ZM4.276,31.587V23.416c3.744,2.378,11.562,3.619,19.345,3.619s15.6-1.24,19.345-3.619v8.171c0,1.548-6.828,4.552-19.345,4.552S4.276,33.134,4.276,31.587ZM42.966,34.8v1.343H40.144A14.189,14.189,0,0,0,42.966,34.8ZM56.622,56.622A1.138,1.138,0,0,1,57.76,57.76v9.1A1.138,1.138,0,0,1,56.622,68H15.655a1.138,1.138,0,0,1-1.138-1.138v-9.1a1.138,1.138,0,0,1,1.138-1.138ZM19.069,54.346V52.07h4.552v2.276Zm6.828,0V52.07H46.38v2.276Zm22.759,0V52.07h4.552v2.276Zm9.1-5.69a1.138,1.138,0,0,1-1.138,1.138H15.655a1.138,1.138,0,0,1-1.138-1.138v-9.1a1.138,1.138,0,0,1,1.138-1.138H56.622a1.138,1.138,0,0,1,1.138,1.138ZM68,39.723l-4.233.706a1.166,1.166,0,0,0-.91.8,13.439,13.439,0,0,1-1.024,2.5,1.111,1.111,0,0,0,.08,1.195l2.481,3.494-3.459,3.459-1.616-1.149a3.382,3.382,0,0,0,.717-2.071v-9.1a3.236,3.236,0,0,0-.114-.819,10.6,10.6,0,0,0,.114-1.457,10.219,10.219,0,0,0-14.793-9.161V24.429a5.608,5.608,0,0,1,.615-.216,1.17,1.17,0,0,0,.785-.91l.706-4.233h4.893l.706,4.233a1.166,1.166,0,0,0,.8.91,13.769,13.769,0,0,1,2.5,1.024,1.138,1.138,0,0,0,1.195-.08l3.494-2.481,3.459,3.459L61.913,29.63a1.111,1.111,0,0,0-.08,1.195,13.439,13.439,0,0,1,1.024,2.5,1.166,1.166,0,0,0,.91.8L68,34.83Z" transform="translate(0 0)"/>
        <path id="Path_1254798" data-name="Path 1254798" d="M6.276,48H4v9.1a1.138,1.138,0,0,0,1.138,1.138H9.69V55.966H6.276Z" transform="translate(0.276 6.346)"/>
        <path id="Path_1254799" data-name="Path 1254799" d="M63.207,4H45V6.276H62.069V17.184l-3.08,3.08L60.6,21.874l3.414-3.414a1.138,1.138,0,0,0,.333-.8V5.138A1.138,1.138,0,0,0,63.207,4Z" transform="translate(5.932 0.276)"/>
        <path id="Path_1254800" data-name="Path 1254800" d="M41,4h2.276V6.276H41Z" transform="translate(5.38 0.276)"/>
        <path id="Path_1254801" data-name="Path 1254801" d="M4,44H6.276v2.276H4Z" transform="translate(0.276 5.794)"/>
      </g>
    </g>
  </g>
</svg>
