<svg xmlns="http://www.w3.org/2000/svg" xmlns:xlink="http://www.w3.org/1999/xlink" width="115" height="115" viewBox="0 0 115 115">
  <defs>
    <clipPath id="clip-path">
      <rect id="Rectangle_411947" data-name="Rectangle 411947" width="115" height="115" transform="translate(800.781 1954)" fill="#e8bad8" opacity="0.41"/>
    </clipPath>
  </defs>
  <g id="Group_1204781" data-name="Group 1204781" transform="translate(-1111 -7711)">
    <g id="Mask_Group_1099364" data-name="Mask Group 1099364" transform="translate(310.219 5757)" clip-path="url(#clip-path)">
      <g id="Group_1204464" data-name="Group 1204464" transform="translate(799.781 1960.273)">
        <g id="Group_1204451" data-name="Group 1204451" transform="translate(1)">
          <ellipse id="Ellipse_12476" data-name="Ellipse 12476" cx="28.658" cy="28.658" rx="28.658" ry="28.658" transform="translate(56.527 44.289)" fill="#ffc94a"/>
          <ellipse id="Ellipse_12477" data-name="Ellipse 12477" cx="20.842" cy="20.842" rx="20.842" ry="20.842" fill="#ffc94a"/>
        </g>
      </g>
    </g>
    <g id="adecuada" transform="translate(1131 7731)">
      <g id="Group_1204750" data-name="Group 1204750" transform="translate(2.177 2.177)">
        <g id="Group_1204747" data-name="Group 1204747" transform="translate(11.774 65.935)">
          <path id="Path_1254085" data-name="Path 1254085" d="M47.323,62.71H12A4.7,4.7,0,0,1,16.71,58h25.9A4.708,4.708,0,0,1,47.323,62.71Z" transform="translate(-12 -58)" fill="#969faa"/>
        </g>
        <g id="Group_1204748" data-name="Group 1204748" transform="translate(4.71 21.194)">
          <path id="Path_1254086" data-name="Path 1254086" d="M20.129,20H7.177A1.181,1.181,0,0,0,6,21.177v25.9a1.181,1.181,0,0,0,1.177,1.177H34.258A2.362,2.362,0,0,1,36.613,45.9v-4.71a2.362,2.362,0,0,1-2.355-2.355V36.484a2.362,2.362,0,0,1,2.355-2.355h2.355V20Z" transform="translate(-6 -20)" fill="#69d6f4"/>
        </g>
        <g id="Group_1204749" data-name="Group 1204749" transform="translate(56.516 0)">
          <path id="Path_1254087" data-name="Path 1254087" d="M59.419,11.419H50V2Z" transform="translate(-50 -2)" fill="#5cd6b3"/>
        </g>
        <path id="Path_1254088" data-name="Path 1254088" d="M72.645,42.032V39.677a2.362,2.362,0,0,0-2.355-2.355H67.935v-25.9H58.516V2H39.677V18.484H6.71A4.708,4.708,0,0,0,2,23.194V56.161a4.708,4.708,0,0,0,4.71,4.71H23.194l-2.355,7.065H70.29a2.362,2.362,0,0,0,2.355-2.355V63.226a2.362,2.362,0,0,0-2.355-2.355v-4.71a2.362,2.362,0,0,0,2.355-2.355V51.452A2.362,2.362,0,0,0,70.29,49.1v-4.71A2.362,2.362,0,0,0,72.645,42.032ZM37.323,49.1a2.362,2.362,0,0,0-2.355,2.355H7.887A1.181,1.181,0,0,1,6.71,50.274v-25.9a1.181,1.181,0,0,1,1.177-1.177h31.79V37.323H37.323a2.362,2.362,0,0,0-2.355,2.355v2.355a2.362,2.362,0,0,0,2.355,2.355Z" transform="translate(-2 -2)" fill="#e6e9ed"/>
      </g>
      <g id="Group_1204780" data-name="Group 1204780" transform="translate(1 1)">
        <g id="Group_1204751" data-name="Group 1204751" transform="translate(11.774 65.935)">
          <path id="Path_1254089" data-name="Path 1254089" d="M48.677,64.065H11V62.887A5.894,5.894,0,0,1,16.887,57h25.9a5.894,5.894,0,0,1,5.887,5.887ZM13.556,61.71H46.121a3.539,3.539,0,0,0-3.331-2.355h-25.9a3.539,3.539,0,0,0-3.331,2.355Z" transform="translate(-11 -57)"/>
        </g>
        <g id="Group_1204752" data-name="Group 1204752" transform="translate(18.934 59.696)">
          <path id="Path_1254090" data-name="Path 1254090" d="M0,0H7.447V2.354H0Z" transform="translate(0 7.067) rotate(-71.529)"/>
        </g>
        <g id="Group_1204753" data-name="Group 1204753" transform="translate(4.71 54.161)">
          <path id="Path_1254091" data-name="Path 1254091" d="M5,47h9.419v2.355H5Z" transform="translate(-5 -47)"/>
        </g>
        <g id="Group_1204754" data-name="Group 1204754" transform="translate(16.484 54.161)">
          <path id="Path_1254092" data-name="Path 1254092" d="M15,47h2.355v2.355H15Z" transform="translate(-15 -47)"/>
        </g>
        <g id="Group_1204755" data-name="Group 1204755" transform="translate(0 16.484)">
          <path id="Path_1254093" data-name="Path 1254093" d="M39.855,59.742H6.887A5.894,5.894,0,0,1,1,53.855V20.887A5.894,5.894,0,0,1,6.887,15H39.855v2.355H6.887a3.537,3.537,0,0,0-3.532,3.532V53.855a3.537,3.537,0,0,0,3.532,3.532H39.855Z" transform="translate(-1 -15)"/>
        </g>
        <g id="Group_1204756" data-name="Group 1204756" transform="translate(4.71 21.194)">
          <path id="Path_1254094" data-name="Path 1254094" d="M34.435,49.613H7.355A2.357,2.357,0,0,1,5,47.258v-25.9A2.357,2.357,0,0,1,7.355,19h31.79v2.355H7.355v25.9H34.435Z" transform="translate(-5 -19)"/>
        </g>
        <g id="Group_1204757" data-name="Group 1204757" transform="translate(32.968 58.871)">
          <path id="Path_1254095" data-name="Path 1254095" d="M65.5,60.419H32.532A3.537,3.537,0,0,1,29,56.887V54.532A3.537,3.537,0,0,1,32.532,51H65.5a3.537,3.537,0,0,1,3.532,3.532v2.355A3.537,3.537,0,0,1,65.5,60.419ZM32.532,53.355a1.178,1.178,0,0,0-1.177,1.177v2.355a1.178,1.178,0,0,0,1.177,1.177H65.5a1.178,1.178,0,0,0,1.177-1.177V54.532A1.178,1.178,0,0,0,65.5,53.355Z" transform="translate(-29 -51)"/>
        </g>
        <g id="Group_1204758" data-name="Group 1204758" transform="translate(68.29 55.339)">
          <path id="Path_1254096" data-name="Path 1254096" d="M59,48h2.355v4.71H59Z" transform="translate(-59 -48)"/>
        </g>
        <g id="Group_1204759" data-name="Group 1204759" transform="translate(35.323 55.339)">
          <path id="Path_1254097" data-name="Path 1254097" d="M31,48h2.355v4.71H31Z" transform="translate(-31 -48)"/>
        </g>
        <g id="Group_1204760" data-name="Group 1204760" transform="translate(32.968 47.097)">
          <path id="Path_1254098" data-name="Path 1254098" d="M65.5,50.419H32.532A3.537,3.537,0,0,1,29,46.887V44.532A3.537,3.537,0,0,1,32.532,41H65.5a3.537,3.537,0,0,1,3.532,3.532v2.355A3.537,3.537,0,0,1,65.5,50.419ZM32.532,43.355a1.178,1.178,0,0,0-1.177,1.177v2.355a1.178,1.178,0,0,0,1.177,1.177H65.5a1.178,1.178,0,0,0,1.177-1.177V44.532A1.178,1.178,0,0,0,65.5,43.355Z" transform="translate(-29 -41)"/>
        </g>
        <g id="Group_1204761" data-name="Group 1204761" transform="translate(32.968 35.323)">
          <path id="Path_1254099" data-name="Path 1254099" d="M65.5,40.419H32.532A3.537,3.537,0,0,1,29,36.887V34.532A3.537,3.537,0,0,1,32.532,31H65.5a3.537,3.537,0,0,1,3.532,3.532v2.355A3.537,3.537,0,0,1,65.5,40.419ZM32.532,33.355a1.178,1.178,0,0,0-1.177,1.177v2.355a1.178,1.178,0,0,0,1.177,1.177H65.5a1.178,1.178,0,0,0,1.177-1.177V34.532A1.178,1.178,0,0,0,65.5,33.355Z" transform="translate(-29 -31)"/>
        </g>
        <g id="Group_1204762" data-name="Group 1204762" transform="translate(68.29 43.565)">
          <path id="Path_1254100" data-name="Path 1254100" d="M59,38h2.355v4.71H59Z" transform="translate(-59 -38)"/>
        </g>
        <g id="Group_1204763" data-name="Group 1204763" transform="translate(35.323 43.565)">
          <path id="Path_1254101" data-name="Path 1254101" d="M31,38h2.355v4.71H31Z" transform="translate(-31 -38)"/>
        </g>
        <g id="Group_1204764" data-name="Group 1204764" transform="translate(37.677)">
          <path id="Path_1254102" data-name="Path 1254102" d="M63.613,37.5H61.258V12.084L52.529,3.355H35.355V37.5H33V1H53.5L63.613,11.109Z" transform="translate(-33 -1)"/>
        </g>
        <g id="Group_1204765" data-name="Group 1204765" transform="translate(9.419 25.903)">
          <path id="Path_1254103" data-name="Path 1254103" d="M13.71,32.419H11.355A2.357,2.357,0,0,1,9,30.065v-4.71A2.357,2.357,0,0,1,11.355,23H13.71a2.357,2.357,0,0,1,2.355,2.355v4.71A2.357,2.357,0,0,1,13.71,32.419Zm-2.355-7.065v4.71H13.71v-4.71Z" transform="translate(-9 -23)"/>
        </g>
        <g id="Group_1204766" data-name="Group 1204766" transform="translate(18.839 25.903)">
          <path id="Path_1254104" data-name="Path 1254104" d="M17,23h2.355v9.419H17Z" transform="translate(-17 -23)"/>
        </g>
        <g id="Group_1204767" data-name="Group 1204767" transform="translate(9.419 37.677)">
          <path id="Path_1254105" data-name="Path 1254105" d="M13.71,42.419H11.355A2.357,2.357,0,0,1,9,40.065v-4.71A2.357,2.357,0,0,1,11.355,33H13.71a2.357,2.357,0,0,1,2.355,2.355v4.71A2.357,2.357,0,0,1,13.71,42.419Zm-2.355-7.065v4.71H13.71v-4.71Z" transform="translate(-9 -33)"/>
        </g>
        <g id="Group_1204768" data-name="Group 1204768" transform="translate(18.839 37.677)">
          <path id="Path_1254106" data-name="Path 1254106" d="M17,33h2.355v9.419H17Z" transform="translate(-17 -33)"/>
        </g>
        <g id="Group_1204769" data-name="Group 1204769" transform="translate(23.548 37.677)">
          <path id="Path_1254107" data-name="Path 1254107" d="M25.71,42.419H23.355A2.357,2.357,0,0,1,21,40.065v-4.71A2.357,2.357,0,0,1,23.355,33H25.71a2.357,2.357,0,0,1,2.355,2.355v4.71A2.357,2.357,0,0,1,25.71,42.419Zm-2.355-7.065v4.71H25.71v-4.71Z" transform="translate(-21 -33)"/>
        </g>
        <g id="Group_1204770" data-name="Group 1204770" transform="translate(23.548 25.903)">
          <path id="Path_1254108" data-name="Path 1254108" d="M21,23h2.355v9.419H21Z" transform="translate(-21 -23)"/>
        </g>
        <g id="Group_1204771" data-name="Group 1204771" transform="translate(28.258 25.903)">
          <path id="Path_1254109" data-name="Path 1254109" d="M25,23h2.355v9.419H25Z" transform="translate(-25 -23)"/>
        </g>
        <g id="Group_1204772" data-name="Group 1204772" transform="translate(56.516 1.177)">
          <path id="Path_1254110" data-name="Path 1254110" d="M59.6,12.6H49V2h2.355v8.242H59.6Z" transform="translate(-49 -2)"/>
        </g>
        <g id="Group_1204773" data-name="Group 1204773" transform="translate(42.387 4.71)">
          <path id="Path_1254111" data-name="Path 1254111" d="M48.774,12.065H37V5H48.774ZM39.355,9.71h7.065V7.355H39.355Z" transform="translate(-37 -5)"/>
        </g>
        <g id="Group_1204774" data-name="Group 1204774" transform="translate(42.387 14.129)">
          <path id="Path_1254112" data-name="Path 1254112" d="M37,13h2.355v2.355H37Z" transform="translate(-37 -13)"/>
        </g>
        <g id="Group_1204775" data-name="Group 1204775" transform="translate(47.097 14.129)">
          <path id="Path_1254113" data-name="Path 1254113" d="M41,13H57.484v2.355H41Z" transform="translate(-41 -13)"/>
        </g>
        <g id="Group_1204776" data-name="Group 1204776" transform="translate(42.387 18.839)">
          <path id="Path_1254114" data-name="Path 1254114" d="M37,17H58.194v2.355H37Z" transform="translate(-37 -17)"/>
        </g>
        <g id="Group_1204777" data-name="Group 1204777" transform="translate(42.387 23.548)">
          <path id="Path_1254115" data-name="Path 1254115" d="M37,21h9.419v2.355H37Z" transform="translate(-37 -21)"/>
        </g>
        <g id="Group_1204778" data-name="Group 1204778" transform="translate(42.387 28.258)">
          <path id="Path_1254116" data-name="Path 1254116" d="M37,25h9.419v2.355H37Z" transform="translate(-37 -25)"/>
        </g>
        <g id="Group_1204779" data-name="Group 1204779" transform="translate(54.161 23.548)">
          <path id="Path_1254117" data-name="Path 1254117" d="M56.419,30.419H47V21h9.419Zm-7.065-2.355h4.71v-4.71h-4.71Z" transform="translate(-47 -21)"/>
        </g>
      </g>
    </g>
  </g>
</svg>
