<svg xmlns="http://www.w3.org/2000/svg" xmlns:xlink="http://www.w3.org/1999/xlink" width="115" height="115" viewBox="0 0 115 115">
  <defs>
    <clipPath id="clip-path">
      <rect id="Rectangle_412034" data-name="Rectangle 412034" width="115" height="115" transform="translate(800.781 1954)" fill="#e8bad8" opacity="0.41"/>
    </clipPath>
  </defs>
  <g id="Group_1204616" data-name="Group 1204616" transform="translate(-1110.05 -1317)">
    <g id="Mask_Group_1099373" data-name="Mask Group 1099373" transform="translate(309.27 -637)" clip-path="url(#clip-path)">
      <g id="Group_1204610" data-name="Group 1204610" transform="translate(799.781 1960.273)">
        <g id="Group_1204609" data-name="Group 1204609" transform="translate(1)">
          <ellipse id="Ellipse_12530" data-name="Ellipse 12530" cx="28.658" cy="28.658" rx="28.658" ry="28.658" transform="translate(56.527 44.289)" fill="#ffc94a"/>
          <ellipse id="Ellipse_12531" data-name="Ellipse 12531" cx="20.842" cy="20.842" rx="20.842" ry="20.842" fill="#ffc94a"/>
        </g>
      </g>
    </g>
    <g id="servers_1202729" transform="translate(1133.051 1338.988)">
      <path id="Path_1253248" data-name="Path 1253248" d="M65.6,22.242c0-6.388-12.3-11.566-27.469-11.566S10.668,15.854,10.668,22.242s12.3,11.565,27.468,11.565S65.6,28.629,65.6,22.242Zm0,0" transform="translate(-9.222 -9.219)" fill="#607d8b"/>
      <path id="Path_1253249" data-name="Path 1253249" d="M52.449,324.439c-.434.115-.867.2-1.3.318-1.359.318-2.834.578-4.337.78a7.386,7.386,0,0,1-.838.116,62.022,62.022,0,0,1-7.836.491c-1.417,0-2.834-.058-4.193-.145-13.184-.839-23.275-5.638-23.275-11.421v-15.9a1.432,1.432,0,0,1,1.445,1.446c0,4.8,10.7,10.12,26.023,10.12a55.5,55.5,0,0,0,13.59-1.59,13.818,13.818,0,0,0-1.417,3.3,13.637,13.637,0,0,0-.607,4.077A14.156,14.156,0,0,0,52.449,324.439Zm0,0" transform="translate(-9.222 -258.185)" fill="#455a64"/>
      <path id="Path_1253250" data-name="Path 1253250" d="M56.382,192.012v14.457a1.4,1.4,0,0,0-.347.029,4.376,4.376,0,0,0-3.817,3.123,14.623,14.623,0,0,0-9.715,6.824,13.818,13.818,0,0,0-1.417,3.3,59.157,59.157,0,0,1-12.173,1.185C12.78,220.926.145,215.259,0,208.03V193.457a1.431,1.431,0,0,1,1.446-1.445,1.431,1.431,0,0,1,1.445,1.445c0,4.8,10.7,10.12,26.023,10.12s26.023-5.32,26.023-10.12A1.432,1.432,0,0,1,56.382,192.012Zm0,0" transform="translate(0 -165.977)" fill="#607d8b"/>
      <path id="Path_1253251" data-name="Path 1253251" d="M56.382,85.344a1.446,1.446,0,0,0-1.446,1.446c0,4.785-10.687,10.12-26.023,10.12S2.891,91.575,2.891,86.79A1.446,1.446,0,1,0,0,86.79v14.457c0,7.3,12.7,13.011,28.914,13.011s28.914-5.716,28.914-13.011V86.79A1.446,1.446,0,0,0,56.382,85.344Zm0,0" transform="translate(0 -73.767)" fill="#455a64"/>
      <path id="Path_1253252" data-name="Path 1253252" d="M342.726,351.886l-10.12-10.12a1.447,1.447,0,0,0-1.021-.422,11.566,11.566,0,1,0,11.565,11.565A1.445,1.445,0,0,0,342.726,351.886Zm0,0" transform="translate(-276.646 -295.07)" fill="#00bcd4"/>
      <path id="Path_1253253" data-name="Path 1253253" d="M406.8,320.012a1.446,1.446,0,0,0-1.445,1.445v11.566a1.446,1.446,0,0,0,1.445,1.445h11.566a1.446,1.446,0,0,0,1.445-1.445A13.027,13.027,0,0,0,406.8,320.012Zm0,0" transform="translate(-350.416 -276.629)" fill="#4dd0e1"/>
      <path id="Path_1253254" data-name="Path 1253254" d="M418.343,334.468H406.778a1.446,1.446,0,0,1-1.446-1.445V321.457a1.446,1.446,0,0,1,1.446-1.445,13.027,13.027,0,0,1,13.011,13.011A1.446,1.446,0,0,1,418.343,334.468Zm-10.12-2.891h8.57a10.151,10.151,0,0,0-8.57-8.573Zm0,0" transform="translate(-350.395 -276.629)"/>
      <path id="Path_1253255" data-name="Path 1253255" d="M331.565,364.475a11.566,11.566,0,0,1,0-23.131,1.446,1.446,0,1,1,0,2.891,8.674,8.674,0,1,0,8.674,8.674,1.446,1.446,0,0,1,2.892,0A11.578,11.578,0,0,1,331.565,364.475Zm0,0" transform="translate(-276.629 -295.07)"/>
      <path id="Path_1253256" data-name="Path 1253256" d="M28.914,26.034C12.7,26.034,0,20.318,0,13.023S12.7.012,28.914.012,57.828,5.728,57.828,13.023,45.126,26.034,28.914,26.034Zm0-23.131C13.578,2.9,2.891,8.238,2.891,13.023s10.687,10.12,26.023,10.12,26.023-5.335,26.023-10.12S44.25,2.9,28.914,2.9Zm0,0"/>
      <path id="Path_1253257" data-name="Path 1253257" d="M28.914,206.468C12.7,206.468,0,200.752,0,193.457a1.446,1.446,0,0,1,2.891,0c0,4.786,10.687,10.12,26.023,10.12s26.023-5.335,26.023-10.12a1.446,1.446,0,0,1,2.892,0C57.828,200.752,45.126,206.468,28.914,206.468Zm0,0" transform="translate(0 -165.977)"/>
      <path id="Path_1253258" data-name="Path 1253258" d="M28.914,313.133C12.7,313.133,0,307.417,0,300.122a1.446,1.446,0,1,1,2.891,0c0,4.786,10.687,10.12,26.023,10.12a59.388,59.388,0,0,0,10.791-.957,1.444,1.444,0,1,1,.529,2.839A62.115,62.115,0,0,1,28.914,313.133Zm0,0" transform="translate(0 -258.185)"/>
      <path id="Path_1253259" data-name="Path 1253259" d="M28.914,143.172C12.7,143.172,0,137.456,0,130.161V86.79a1.446,1.446,0,1,1,2.891,0v43.371c0,4.785,10.687,10.12,26.023,10.12a58.538,58.538,0,0,0,12.468-1.3,1.447,1.447,0,0,1,.627,2.825A60.819,60.819,0,0,1,28.914,143.172Zm0,0" transform="translate(0 -73.767)"/>
      <path id="Path_1253260" data-name="Path 1253260" d="M406.778,114.258a1.446,1.446,0,0,1-1.446-1.445V86.79a1.446,1.446,0,0,1,2.892,0v26.023A1.446,1.446,0,0,1,406.778,114.258Zm0,0" transform="translate(-350.395 -73.767)"/>
    </g>
  </g>
</svg>
